<svg width="48" height="48" viewBox="0 0 48 48" fill="none" xmlns="http://www.w3.org/2000/svg">
<g id="alteryx-1">
<path id="Oval Copy 10" fill-rule="evenodd" clip-rule="evenodd" d="M27.8 24C27.8 26.0987 26.0987 27.8 24 27.8C21.9013 27.8 20.2 26.0987 20.2 24C20.2 21.9013 21.9013 20.2 24 20.2C26.0987 20.2 27.8 21.9013 27.8 24ZM21.8 24C21.8 25.215 22.785 26.2 24 26.2C25.215 26.2 26.2 25.215 26.2 24C26.2 22.785 25.215 21.8 24 21.8C22.785 21.8 21.8 22.785 21.8 24Z" fill="#001951"/>
<path id="Combined Shape" fill-rule="evenodd" clip-rule="evenodd" d="M24 11.2C21.9133 11.2 20.2194 12.882 20.2002 14.9641C19.2614 15.3594 18.3911 15.8991 17.6198 16.5617C17.1195 16.3256 16.5686 16.2 16 16.2C13.9013 16.2 12.2 17.9013 12.2 20C12.2 21.4334 13.0008 22.7124 14.2207 23.3583C14.2069 23.5712 14.2 23.7852 14.2 24C14.2 24.5352 14.243 25.0654 14.3277 25.5866C13.0521 26.2117 12.2 27.5208 12.2 29C12.2 31.0987 13.9013 32.8 16 32.8C16.8624 32.8 17.6788 32.5105 18.3354 31.9979C18.9171 32.4106 19.5422 32.7587 20.2002 33.0353C20.2191 35.1177 21.9131 36.8 24 36.8C26.0867 36.8 27.7806 35.118 27.7998 33.0359C28.4582 32.7587 29.0832 32.4103 29.6641 31.9976C30.3212 32.5104 31.1376 32.8 32 32.8C34.0987 32.8 35.8 31.0987 35.8 29C35.8 27.5207 34.9479 26.2117 33.672 25.5873C33.757 25.066 33.8 24.5357 33.8 24C33.8 23.7851 33.7931 23.5713 33.7793 23.3587C34.9993 22.7122 35.8 21.4334 35.8 20C35.8 17.9013 34.0987 16.2 32 16.2C31.4315 16.2 30.8807 16.3256 30.3805 16.5615C29.6087 15.8988 28.7382 15.3593 27.7999 14.9648C27.781 12.8823 26.087 11.2 24 11.2ZM21.8 15C21.8 13.785 22.785 12.8 24 12.8C25.215 12.8 26.2 13.785 26.2 15C26.2 15.1241 26.1898 15.2466 26.1697 15.3667L26.0582 16.033L26.6964 16.2545C27.8269 16.6469 28.857 17.2855 29.7155 18.1201L30.1915 18.5829L30.7342 18.2002C31.1016 17.9411 31.5393 17.8 32 17.8C33.215 17.8 34.2 18.785 34.2 20C34.2 20.9604 33.5789 21.8013 32.6802 22.0931L32.0492 22.2979L32.1338 22.9559C32.1778 23.2986 32.2 23.6474 32.2 24C32.2 24.6505 32.1244 25.2904 31.9763 25.9111L31.7941 26.6749L32.5543 26.8714C33.5158 27.1199 34.2 27.9918 34.2 29C34.2 30.215 33.215 31.2 32 31.2C31.3475 31.2 30.743 30.9153 30.3268 30.4285L29.8157 29.8307L29.2093 30.3316C28.4633 30.9477 27.6126 31.4278 26.6959 31.7468L26.0579 31.9688L26.1699 32.6349C26.1898 32.7537 26.2 32.876 26.2 33C26.2 34.215 25.215 35.2 24 35.2C22.785 35.2 21.8 34.215 21.8 33C21.8 32.8759 21.8102 32.7534 21.8303 32.6333L21.9418 31.9669L21.3035 31.7455C20.3881 31.4279 19.5373 30.9483 18.789 30.3316L18.1823 29.8317L17.6718 30.4295C17.2569 30.9154 16.6525 31.2 16 31.2C14.785 31.2 13.8 30.215 13.8 29C13.8 27.9919 14.4842 27.1196 15.4456 26.8703L16.2044 26.6735L16.0231 25.9108C15.8755 25.29 15.8 24.6499 15.8 24C15.8 23.648 15.8222 23.2989 15.866 22.9541L15.9496 22.2964L15.319 22.0921C14.421 21.8011 13.8 20.9603 13.8 20C13.8 18.785 14.785 17.8 16 17.8C16.4608 17.8 16.8984 17.9411 17.2662 18.2006L17.8092 18.5837L18.2854 18.1202C19.1427 17.2859 20.1727 16.6469 21.3041 16.2532L21.9421 16.0312L21.8302 15.3651C21.8102 15.2463 21.8 15.1241 21.8 15Z" fill="#001951"/>
<path id="Oval Copy 11" fill-rule="evenodd" clip-rule="evenodd" d="M41.8 10C41.8 12.0987 40.0987 13.8 38 13.8C35.9013 13.8 34.2 12.0987 34.2 10C34.2 7.90133 35.9013 6.20001 38 6.20001C40.0987 6.20001 41.8 7.90133 41.8 10ZM35.8 10C35.8 11.215 36.785 12.2 38 12.2C39.215 12.2 40.2 11.215 40.2 10C40.2 8.78499 39.215 7.80001 38 7.80001C36.785 7.80001 35.8 8.78499 35.8 10Z" fill="#00C8C7"/>
<path id="Oval Copy 12" fill-rule="evenodd" clip-rule="evenodd" d="M13.8 38C13.8 40.0987 12.0987 41.8 10 41.8C7.90133 41.8 6.20001 40.0987 6.20001 38C6.20001 35.9013 7.90133 34.2 10 34.2C12.0987 34.2 13.8 35.9013 13.8 38ZM7.80001 38C7.80001 39.215 8.78499 40.2 10 40.2C11.215 40.2 12.2 39.215 12.2 38C12.2 36.785 11.215 35.8 10 35.8C8.78499 35.8 7.80001 36.785 7.80001 38Z" fill="#96E9EA"/>
<path id="Path" d="M20.8912 44.263C20.4551 44.1919 20.1592 43.7808 20.2302 43.3447C20.3013 42.9087 20.7124 42.6127 21.1485 42.6838C26.1717 43.5022 31.3215 42.3187 35.5219 39.2669C44.1006 33.0341 46.0024 21.027 39.7696 12.4483C39.5099 12.0908 39.5891 11.5905 39.9466 11.3308C40.304 11.0711 40.8043 11.1504 41.064 11.5078C47.8162 20.8014 45.756 33.8091 36.4624 40.5613C31.9131 43.8666 26.3315 45.1493 20.8912 44.263Z" fill="#00C8C7"/>
<path id="Line" d="M15.1422 42.2155L17.1422 43.2155C17.5374 43.4131 18.018 43.253 18.2155 42.8578C18.4131 42.4626 18.253 41.9821 17.8578 41.7845L15.8578 40.7845C15.4626 40.5869 14.9821 40.7471 14.7845 41.1422C14.5869 41.5374 14.7471 42.018 15.1422 42.2155Z" fill="#00C8C7"/>
<path id="Line_2" d="M30.1422 6.21555L32.1422 7.21555C32.5374 7.41314 33.018 7.25296 33.2155 6.85778C33.4131 6.46259 33.253 5.98205 32.8578 5.78446L30.8578 4.78446C30.4626 4.58687 29.9821 4.74705 29.7845 5.14223C29.5869 5.53742 29.7471 6.01795 30.1422 6.21555Z" fill="#00C8C7"/>
<path id="Path_2" d="M26.3539 3.15491C26.7919 3.21317 27.0997 3.61544 27.0415 4.05341C26.9832 4.49138 26.5809 4.7992 26.143 4.74094C21.1759 4.08025 16.1404 5.36293 12.0575 8.43964C3.58884 14.8212 1.89695 26.8597 8.27851 35.3283C8.54441 35.6811 8.47392 36.1828 8.12106 36.4487C7.7682 36.7146 7.26659 36.6441 7.0007 36.2912C0.0873322 27.1168 1.92022 14.0752 11.0946 7.16182C15.5165 3.82962 20.9744 2.43935 26.3539 3.15491Z" fill="#96E9EA"/>
</g>
</svg>
