<svg width="48" height="48" viewBox="0 0 48 48" fill="none" xmlns="http://www.w3.org/2000/svg">
<g id="alteryx-3">
<path id="Combined Shape" fill-rule="evenodd" clip-rule="evenodd" d="M24.6 39.089L24.6009 36C24.4413 36.0305 24.279 36.0532 24.1142 36.0676C23.7347 36.1008 23.3616 36.0889 23.0002 36.0361L23 39.089C21.2855 39.4563 20 40.9803 20 42.8046C20 44.9033 21.7013 46.6046 23.8 46.6046C25.8987 46.6046 27.6 44.9033 27.6 42.8046C27.6 40.9804 26.3145 39.4563 24.6 39.089ZM23.8 45.0046C22.585 45.0046 21.6 44.0196 21.6 42.8046C21.6 41.5896 22.585 40.6046 23.8 40.6046C25.015 40.6046 26 41.5896 26 42.8046C26 44.0196 25.015 45.0046 23.8 45.0046Z" fill="#00C8C7"/>
<path id="Combined Shape_2" fill-rule="evenodd" clip-rule="evenodd" d="M38.7592 27.1574L35.0808 27.1676C35.159 27.4488 35.2122 27.7398 35.2383 28.0378C35.2598 28.2845 35.2624 28.5285 35.247 28.7683L37.9616 28.7597V35.3436C36.3677 35.7954 35.2 37.2613 35.2 39C35.2 41.0987 36.9013 42.8 39 42.8C41.0987 42.8 42.8 41.0987 42.8 39C42.8 37.0921 41.394 35.5126 39.5616 35.2412V27.9574L39.5553 27.8568C39.5058 27.4616 39.1679 27.1561 38.7592 27.1574ZM39 41.2C37.785 41.2 36.8 40.215 36.8 39C36.8 37.785 37.785 36.8 39 36.8C40.215 36.8 41.2 37.785 41.2 39C41.2 40.215 40.215 41.2 39 41.2Z" fill="#00C8C7"/>
<path id="Combined Shape_3" fill-rule="evenodd" clip-rule="evenodd" d="M12.5506 27.1668L9.05913 27.1574C8.61637 27.156 8.25673 27.5146 8.25673 27.9574V35.2727C6.51391 35.6183 5.20001 37.1557 5.20001 39C5.20001 41.0987 6.90133 42.8 9.00001 42.8C11.0987 42.8 12.8 41.0987 12.8 39C12.8 37.1959 11.5428 35.6855 9.85673 35.297V28.7597L12.6764 28.7693C12.6153 28.5254 12.5726 28.2735 12.55 28.0151C12.5249 27.7289 12.5257 27.4452 12.5506 27.1668ZM9.00001 41.2C7.78499 41.2 6.80001 40.215 6.80001 39C6.80001 37.785 7.78499 36.8 9.00001 36.8C10.215 36.8 11.2 37.785 11.2 39C11.2 40.215 10.215 41.2 9.00001 41.2Z" fill="#00C8C7"/>
<path id="Combined Shape_4" fill-rule="evenodd" clip-rule="evenodd" d="M39 4.52911C41.0987 4.52911 42.8 6.23043 42.8 8.32911C42.8 10.237 41.394 11.8165 39.5616 12.0879V19.3718C39.5616 19.8145 39.202 20.1731 38.7592 20.1718L35.5477 20.1618L35.5372 19.9811C35.4933 19.4792 35.3737 19.0021 35.1905 18.5601L37.9616 18.5694V11.9855C36.3677 11.5337 35.2 10.0678 35.2 8.32911C35.2 6.23043 36.9013 4.52911 39 4.52911ZM39 6.12911C37.785 6.12911 36.8 7.11409 36.8 8.32911C36.8 9.54414 37.785 10.5291 39 10.5291C40.215 10.5291 41.2 9.54414 41.2 8.32911C41.2 7.11409 40.215 6.12911 39 6.12911Z" fill="#96E9EA"/>
<path id="Combined Shape_5" fill-rule="evenodd" clip-rule="evenodd" d="M9.00001 4.52911C11.0987 4.52911 12.8 6.23043 12.8 8.32911C12.8 10.1332 11.5428 11.6436 9.85673 12.0321V18.5694L12.9307 18.5589C12.8371 19.0079 12.8069 19.478 12.8489 19.9584C12.8548 20.0261 12.8621 20.0934 12.8708 20.1603L9.05913 20.1718C8.65042 20.173 8.31255 19.8676 8.26299 19.4723L8.25673 19.3718V12.0565C6.51391 11.7109 5.20001 10.1734 5.20001 8.32911C5.20001 6.23043 6.90133 4.52911 9.00001 4.52911ZM9.00001 6.12911C7.78499 6.12911 6.80001 7.11409 6.80001 8.32911C6.80001 9.54414 7.78499 10.5291 9.00001 10.5291C10.215 10.5291 11.2 9.54414 11.2 8.32911C11.2 7.11409 10.215 6.12911 9.00001 6.12911Z" fill="#96E9EA"/>
<path id="Combined Shape_6" fill-rule="evenodd" clip-rule="evenodd" d="M28.1281 15.6102C27.9451 13.5195 26.102 11.9729 24.0113 12.1558C22.0383 12.3284 20.5498 13.9797 20.5423 15.9222C20.251 16.0484 19.967 16.1903 19.6915 16.3471C18.9921 15.895 18.1556 15.6796 17.2994 15.7545C15.2087 15.9374 13.6622 17.7805 13.8451 19.8712C13.9412 20.9697 14.5024 21.9471 15.3558 22.5849C15.2585 23.1857 15.2237 23.7981 15.2533 24.4145C14.1006 25.1675 13.4218 26.5071 13.5461 27.9279C13.729 30.0186 15.5722 31.5652 17.6629 31.3823C18.0707 31.3466 18.4643 31.2469 18.8317 31.0888C19.1797 31.3448 19.5461 31.575 19.9278 31.7774C20.2982 33.6763 22.0354 35.015 23.9887 34.8441C25.5518 34.7074 26.8414 33.6319 27.2885 32.1802C27.67 32.0291 28.0399 31.8515 28.3957 31.6491C29.095 32.1012 29.9315 32.3166 30.7877 32.2417C32.8784 32.0587 34.425 30.2156 34.2421 28.1249C34.146 27.0265 33.5847 26.0491 32.7313 25.4112C32.8286 24.8104 32.8634 24.1981 32.8338 23.5817C33.9865 22.8286 34.6653 21.489 34.541 20.0682C34.3581 17.9775 32.515 16.431 30.4243 16.6139C30.0164 16.6495 29.6229 16.7493 29.2554 16.9073C28.8995 16.6456 28.5245 16.4109 28.1338 16.2056C28.1473 16.0086 28.1455 15.8097 28.1281 15.6102ZM22.1509 16.1331C22.045 14.9227 22.9404 13.8556 24.1508 13.7497C25.3612 13.6438 26.4282 14.5392 26.5341 15.7496C26.5558 15.9968 26.5362 16.2409 26.4775 16.4754C26.3829 16.8541 26.5752 17.2457 26.9327 17.4023C27.5533 17.6741 28.1333 18.0336 28.655 18.4687C28.921 18.6905 29.2994 18.716 29.5927 18.5319C29.8825 18.3501 30.2125 18.2385 30.5637 18.2078C31.7741 18.1019 32.8412 18.9973 32.9471 20.2077C33.0291 21.1446 32.5078 22.0208 31.6655 22.4033C31.3533 22.545 31.1662 22.87 31.2002 23.2111L31.2171 23.3803C31.2828 24.1316 31.2296 24.886 31.062 25.6144C30.9804 25.9693 31.1487 26.3346 31.4716 26.5031C32.1339 26.8487 32.5818 27.5061 32.6481 28.2644C32.754 29.4748 31.8587 30.5419 30.6483 30.6477C30.03 30.7018 29.4324 30.4959 28.9808 30.0878C28.7103 29.8433 28.3088 29.8127 28.0043 30.0132C27.4923 30.3506 26.9389 30.6216 26.356 30.8186C26.0783 30.9125 25.8742 31.1507 25.824 31.4396C25.655 32.4122 24.8486 33.1628 23.8492 33.2502C22.6388 33.3561 21.5717 32.4607 21.4658 31.2503L21.4632 31.2025C21.4454 30.9097 21.2689 30.6502 21.0032 30.5261C20.4389 30.2626 19.9107 29.9266 19.4321 29.5275C19.1662 29.3057 18.7878 29.2802 18.4945 29.4642C18.2047 29.6461 17.8746 29.7577 17.5234 29.7884C16.313 29.8943 15.2459 28.9989 15.14 27.7885C15.0581 26.8515 15.5794 25.9754 16.4217 25.5929C16.7338 25.4511 16.921 25.1262 16.8869 24.7851L16.8701 24.6159C16.8044 23.8645 16.8576 23.1101 17.0251 22.3817C17.1068 22.0268 16.9384 21.6616 16.6156 21.4931C15.9532 21.1475 15.5053 20.49 15.439 19.7318C15.3331 18.5214 16.2285 17.4543 17.4389 17.3484C18.0571 17.2943 18.6547 17.5002 19.1063 17.9083C19.3768 18.1528 19.7783 18.1835 20.0828 17.9829C20.5717 17.6609 21.0983 17.3992 21.6523 17.2047C22.0256 17.0737 22.247 16.6894 22.1732 16.3008C22.1637 16.2508 22.1563 16.195 22.1509 16.1331Z" fill="#001951"/>
<path id="Oval Copy 10" fill-rule="evenodd" clip-rule="evenodd" d="M27.8291 23.6669C28.012 25.7576 26.4654 27.6007 24.3747 27.7837C22.284 27.9666 20.4409 26.42 20.258 24.3293C20.0751 22.2386 21.6217 20.3955 23.7124 20.2126C25.8031 20.0297 27.6462 21.5762 27.8291 23.6669ZM21.8519 24.1899C21.9578 25.4003 23.0249 26.2956 24.2353 26.1897C25.4457 26.0838 26.3411 25.0168 26.2352 23.8064C26.1293 22.596 25.0622 21.7006 23.8518 21.8065C22.6414 21.9124 21.746 22.9795 21.8519 24.1899Z" fill="#001951"/>
</g>
</svg>
