<svg width="48" height="48" viewBox="0 0 48 48" fill="none" xmlns="http://www.w3.org/2000/svg">
<g id="alteryx-4">
<path id="Combined Shape" fill-rule="evenodd" clip-rule="evenodd" d="M30.2092 16.7H27C26.5582 16.7 26.2 17.0582 26.2 17.5V24.5C26.2 24.9418 26.5582 25.3 27 25.3C27.4418 25.3 27.8 24.9418 27.8 24.5V18.3H30.3781C30.2621 17.8866 30.2 17.4505 30.2 17C30.2 16.8992 30.2031 16.7992 30.2092 16.7Z" fill="#00C8C6"/>
<path id="Oval Copy 19" fill-rule="evenodd" clip-rule="evenodd" d="M15.8 39C15.8 41.0987 14.0987 42.8 12 42.8C9.90133 42.8 8.20001 41.0987 8.20001 39C8.20001 36.9013 9.90133 35.2 12 35.2C14.0987 35.2 15.8 36.9013 15.8 39ZM9.80001 39C9.80001 40.215 10.785 41.2 12 41.2C13.215 41.2 14.2 40.215 14.2 39C14.2 37.785 13.215 36.8 12 36.8C10.785 36.8 9.80001 37.785 9.80001 39Z" fill="#96E9EA"/>
<path id="Combined Shape_2" fill-rule="evenodd" clip-rule="evenodd" d="M14.5 21.2C14.0582 21.2 13.7 21.5582 13.7 22V25.5C13.7 25.9418 14.0582 26.3 14.5 26.3H29.2V27.1996C29.4687 26.351 29.994 25.6162 30.6849 25.0863C30.5447 24.8548 30.2904 24.7 30 24.7H15.3V22C15.3 21.5582 14.9418 21.2 14.5 21.2ZM25.0365 40.3H17.5C17.0582 40.3 16.7 39.9418 16.7 39.5C16.7 39.0582 17.0582 38.7 17.5 38.7H24.1697C24.3429 39.2971 24.642 39.8407 25.0365 40.3Z" fill="#00C8C6"/>
<path id="Oval Copy 21" fill-rule="evenodd" clip-rule="evenodd" d="M38.8 17C38.8 19.0987 37.0987 20.8 35 20.8C32.9013 20.8 31.2 19.0987 31.2 17C31.2 14.9013 32.9013 13.2 35 13.2C37.0987 13.2 38.8 14.9013 38.8 17ZM32.8 17C32.8 18.215 33.785 19.2 35 19.2C36.215 19.2 37.2 18.215 37.2 17C37.2 15.785 36.215 14.8 35 14.8C33.785 14.8 32.8 15.785 32.8 17Z" fill="#96E9EA"/>
<path id="Combined Shape_3" fill-rule="evenodd" clip-rule="evenodd" d="M36.7569 27.9652C36.5013 26.3969 35.1404 25.2 33.5 25.2C31.8594 25.2 30.4978 26.3975 30.2432 27.9652C30.0011 28.0861 29.7661 28.2203 29.5394 28.3672C29.2075 28.2572 28.8575 28.2 28.5 28.2C26.6775 28.2 25.2 29.6775 25.2 31.5C25.2 32.4201 25.58 33.2772 26.2252 33.8902C26.2084 34.0923 26.2 34.2957 26.2 34.5C26.2 34.7042 26.2084 34.9074 26.2251 35.1093C25.5799 35.7229 25.2 36.5799 25.2 37.5C25.2 39.3226 26.6775 40.8 28.5 40.8C28.8574 40.8 29.2074 40.7429 29.5391 40.6329C29.7662 40.7798 30.0012 40.9139 30.2431 41.0345C30.4985 42.6029 31.8595 43.8 33.5 43.8C35.1407 43.8 36.5022 42.6025 36.7576 41.0345C36.9994 40.9137 37.2341 40.7795 37.4606 40.6328C37.7925 40.7429 38.1426 40.8 38.5 40.8C40.3226 40.8 41.8 39.3226 41.8 37.5C41.8 36.5799 41.42 35.7229 40.7749 35.1098C40.7916 34.9078 40.8 34.7044 40.8 34.5C40.8 34.2959 40.7916 34.0926 40.7749 33.8908C41.4201 33.2771 41.8 32.4201 41.8 31.5C41.8 29.6775 40.3226 28.2 38.5 28.2C38.1426 28.2 37.7926 28.2571 37.4609 28.3671C37.234 28.2203 36.999 28.0861 36.7569 27.9652ZM31.8004 28.4978C31.8001 27.5609 32.5613 26.8 33.5 26.8C34.4384 26.8 35.1993 27.5603 35.2 28.4986C35.2003 28.8212 35.3942 29.112 35.6918 29.2363C36.117 29.4138 36.5183 29.6419 36.8878 29.9155C37.1321 30.0964 37.4577 30.1232 37.7282 29.9848C37.9643 29.8639 38.2268 29.8 38.5 29.8C39.4389 29.8 40.2 30.5611 40.2 31.5C40.2 32.0626 39.9256 32.5778 39.4726 32.8945C39.2246 33.068 39.0957 33.3666 39.1396 33.666C39.1797 33.9399 39.2 34.2186 39.2 34.5C39.2 34.7815 39.1797 35.0602 39.1394 35.3348C39.0955 35.6345 39.2247 35.9334 39.4731 36.1068C39.9257 36.4226 40.2 36.9374 40.2 37.5C40.2 38.4389 39.4389 39.2 38.5 39.2C38.2267 39.2 37.9643 39.136 37.7274 39.0149C37.4565 38.8763 37.1305 38.9034 36.8862 39.0848C36.5183 39.358 36.1174 39.5861 35.6926 39.7633C35.3948 39.8875 35.2007 40.1786 35.2006 40.5013C35.2002 41.439 34.4387 42.2 33.5 42.2C32.5614 42.2 31.8004 41.4393 31.8 40.5007C31.7999 40.1775 31.6053 39.8861 31.3068 39.7622C30.8836 39.5864 30.4824 39.3586 30.1122 39.0845C29.868 38.9037 29.5423 38.8768 29.2718 39.0153C29.0357 39.1361 28.7733 39.2 28.5 39.2C27.5611 39.2 26.8 38.4389 26.8 37.5C26.8 36.9374 27.0744 36.4223 27.5274 36.1055C27.7754 35.932 27.9043 35.6335 27.8604 35.334C27.8203 35.0601 27.8 34.7814 27.8 34.5C27.8 34.2185 27.8204 33.9398 27.8606 33.6653C27.9045 33.3655 27.7753 33.0666 27.5269 32.8932C27.0744 32.5774 26.8 32.0626 26.8 31.5C26.8 30.5611 27.5611 29.8 28.5 29.8C28.7733 29.8 29.0358 29.864 29.2726 29.9851C29.5435 30.1237 29.8695 30.0966 30.1138 29.9152C30.482 29.6418 30.8832 29.4136 31.3083 29.2364C31.6064 29.1121 31.8005 28.8207 31.8004 28.4978Z" fill="#001951"/>
<path id="Oval Copy 10" fill-rule="evenodd" clip-rule="evenodd" d="M36.8 34.5C36.8 36.3226 35.3226 37.8 33.5 37.8C31.6775 37.8 30.2 36.3226 30.2 34.5C30.2 32.6775 31.6775 31.2 33.5 31.2C35.3226 31.2 36.8 32.6775 36.8 34.5ZM31.8 34.5C31.8 35.4389 32.5611 36.2 33.5 36.2C34.4389 36.2 35.2 35.4389 35.2 34.5C35.2 33.5611 34.4389 32.8 33.5 32.8C32.5611 32.8 31.8 33.5611 31.8 34.5Z" fill="#001951"/>
<path id="Path 9" fill-rule="evenodd" clip-rule="evenodd" d="M14.5 8.19999C17.5571 8.19999 19.8 10.6796 19.8 13.384C19.8 14.6025 19.3969 15.4191 18.507 16.5086C18.5774 16.4224 18.2001 16.881 18.1162 16.987C17.8677 17.301 17.7263 17.5254 17.6473 17.7387C17.2185 18.8978 17.1386 19.4348 17.1658 20.1764C17.1746 20.4169 17.176 20.5027 17.1688 20.6402C17.1581 20.8436 17.1259 21.0353 17.0648 21.2346C16.9617 21.5706 16.6514 21.8 16.3 21.8H12.7C12.3485 21.8 12.0383 21.5706 11.9352 21.2346C11.8217 20.8647 11.822 20.6414 11.8756 20.0375C11.9487 19.2126 11.8754 18.7256 11.3996 17.8448C11.3426 17.7394 11.2405 17.5983 11.0635 17.3803C11.1425 17.4776 10.6284 16.8537 10.4817 16.665C9.64649 15.5907 9.19999 14.6046 9.19999 13.384C9.19999 10.6796 11.4429 8.19999 14.5 8.19999ZM16.1467 17.1836C16.2959 16.7804 16.5176 16.4287 16.8616 15.9941C16.9559 15.8749 17.3443 15.4027 17.2692 15.4947C17.9462 14.6657 18.2 14.151 18.2 13.384C18.2 11.5294 16.6356 9.79999 14.5 9.79999C12.3643 9.79999 10.8 11.5294 10.8 13.384C10.8 14.1838 11.1077 14.8634 11.7448 15.683C11.8751 15.8506 12.3708 16.4521 12.3055 16.3717C12.5412 16.662 12.6905 16.8682 12.8073 17.0843C13.4487 18.2716 13.5681 19.065 13.4693 20.1788L13.4674 20.2H15.5656C15.535 19.2714 15.6494 18.5279 16.1467 17.1836Z" fill="#00C8C6"/>
<path id="Path 22" d="M19.14 7.98L20.64 5.98C20.9051 5.62654 20.8335 5.12509 20.48 4.86C20.1265 4.5949 19.6251 4.66654 19.36 5.02L17.86 7.02C17.5949 7.37346 17.6665 7.8749 18.02 8.14C18.3735 8.40509 18.8749 8.33346 19.14 7.98Z" fill="#96E9EA"/>
<path id="Path 22_2" d="M14.5 5V3" stroke="#96E9EA" stroke-width="1.6" stroke-linecap="round" stroke-linejoin="round"/>
<path id="Path 22_3" d="M21.8578 12.2155L23.8578 11.2155C24.253 11.018 24.4131 10.5374 24.2155 10.1422C24.018 9.74705 23.5374 9.58687 23.1422 9.78446L21.1422 10.7845C20.7471 10.9821 20.5869 11.4626 20.7845 11.8578C20.9821 12.253 21.4626 12.4131 21.8578 12.2155Z" fill="#96E9EA"/>
<path id="Path 22_4" d="M7.14222 12.2155L5.14222 11.2155C4.74704 11.018 4.58686 10.5374 4.78445 10.1422C4.98205 9.74705 5.46258 9.58687 5.85777 9.78446L7.85777 10.7845C8.25295 10.9821 8.41313 11.4626 8.21554 11.8578C8.01795 12.253 7.53741 12.4131 7.14222 12.2155Z" fill="#96E9EA"/>
<path id="Path 22_5" d="M9.36 7.98L7.86 5.98C7.59491 5.62654 7.66654 5.12509 8.02 4.86C8.37346 4.5949 8.87491 4.66654 9.14 5.02L10.64 7.02C10.9051 7.37346 10.8335 7.8749 10.48 8.14C10.1265 8.40509 9.6251 8.33346 9.36 7.98Z" fill="#96E9EA"/>
</g>
</svg>
