<svg width="48" height="48" viewBox="0 0 48 48" fill="none" xmlns="http://www.w3.org/2000/svg">
<g id="alteryx-2">
<path id="Rectangle Copy 3" fill-rule="evenodd" clip-rule="evenodd" d="M36 5.20001H13C11.4536 5.20001 10.2 6.45361 10.2 8.00001V40C10.2 41.5464 11.4536 42.8 13 42.8H36C37.5464 42.8 38.8 41.5464 38.8 40V8.00001C38.8 6.45361 37.5464 5.20001 36 5.20001ZM11.8 8.00001C11.8 7.33727 12.3373 6.80001 13 6.80001H36C36.6628 6.80001 37.2 7.33727 37.2 8.00001V40C37.2 40.6628 36.6628 41.2 36 41.2H13C12.3373 41.2 11.8 40.6628 11.8 40V8.00001Z" fill="#99E9E9"/>
<path id="Line 2 Copy 2" d="M30.8641 34.1728L33.8641 34.1728C34.3059 34.1728 34.6641 33.8147 34.6641 33.3728C34.6641 32.931 34.3059 32.5728 33.8641 32.5728L30.8641 32.5728C30.4222 32.5728 30.0641 32.931 30.0641 33.3728C30.0641 33.8147 30.4222 34.1728 30.8641 34.1728Z" fill="#00C8C7"/>
<path id="Line 2 Copy 4" d="M14.1651 38.1462L22.1651 38.1462C22.6069 38.1462 22.9651 37.788 22.9651 37.3462C22.9651 36.9043 22.6069 36.5462 22.1651 36.5462L14.1651 36.5462C13.7233 36.5462 13.3651 36.9043 13.3651 37.3462C13.3651 37.788 13.7233 38.1462 14.1651 38.1462Z" fill="#00C8C7"/>
<path id="Line 2 Copy 4_2" d="M27.165 38.1462L34.165 38.1462C34.6069 38.1462 34.965 37.788 34.965 37.3462C34.965 36.9043 34.6069 36.5462 34.165 36.5462L27.165 36.5462C26.7232 36.5462 26.365 36.9043 26.365 37.3462C26.365 37.788 26.7232 38.1462 27.165 38.1462Z" fill="#00C8C7"/>
<path id="Oval Copy 10" fill-rule="evenodd" clip-rule="evenodd" d="M27.8 18.5C27.8 20.3226 26.3226 21.8 24.5 21.8C22.6775 21.8 21.2 20.3226 21.2 18.5C21.2 16.6775 22.6775 15.2 24.5 15.2C26.3226 15.2 27.8 16.6775 27.8 18.5ZM22.8 18.5C22.8 19.4389 23.5611 20.2 24.5 20.2C25.4389 20.2 26.2 19.4389 26.2 18.5C26.2 17.5611 25.4389 16.8 24.5 16.8C23.5611 16.8 22.8 17.5611 22.8 18.5Z" fill="#001951"/>
<path id="Combined Shape" fill-rule="evenodd" clip-rule="evenodd" d="M27.7569 11.9652C27.5013 10.3969 26.1404 9.20001 24.5 9.20001C22.8594 9.20001 21.4978 10.3975 21.2432 11.9652C21.0011 12.0861 20.7661 12.2203 20.5394 12.3672C20.2075 12.2572 19.8575 12.2 19.5 12.2C17.6775 12.2 16.2 13.6775 16.2 15.5C16.2 16.4201 16.58 17.2772 17.2252 17.8902C17.2084 18.0923 17.2 18.2957 17.2 18.5C17.2 18.7042 17.2084 18.9074 17.2251 19.1093C16.5799 19.7229 16.2 20.5799 16.2 21.5C16.2 23.3226 17.6775 24.8 19.5 24.8C19.8574 24.8 20.2074 24.7429 20.5391 24.6329C20.7662 24.7798 21.0012 24.9139 21.2431 25.0345C21.4985 26.6029 22.8595 27.8 24.5 27.8C26.1407 27.8 27.5022 26.6025 27.7576 25.0345C27.9994 24.9137 28.2341 24.7795 28.4606 24.6328C28.7925 24.7429 29.1426 24.8 29.5 24.8C31.3226 24.8 32.8 23.3226 32.8 21.5C32.8 20.5799 32.42 19.7229 31.7749 19.1098C31.7916 18.9078 31.8 18.7044 31.8 18.5C31.8 18.2959 31.7916 18.0926 31.7749 17.8908C32.4201 17.2771 32.8 16.4201 32.8 15.5C32.8 13.6775 31.3226 12.2 29.5 12.2C29.1426 12.2 28.7926 12.2571 28.4609 12.3671C28.234 12.2203 27.999 12.0861 27.7569 11.9652ZM22.8004 12.4978C22.8001 11.5609 23.5613 10.8 24.5 10.8C25.4384 10.8 26.1993 11.5603 26.2 12.4986L26.2004 13.0311L26.6918 13.2363C27.117 13.4138 27.5183 13.6419 27.8878 13.9155L28.2866 14.2107L28.7282 13.9848C28.9643 13.8639 29.2268 13.8 29.5 13.8C30.4389 13.8 31.2 14.5611 31.2 15.5C31.2 16.0626 30.9256 16.5778 30.4726 16.8945L30.0681 17.1775L30.1396 17.666C30.1797 17.9399 30.2 18.2186 30.2 18.5C30.2 18.7815 30.1797 19.0602 30.1394 19.3348L30.0677 19.8239L30.4731 20.1068C30.9257 20.4226 31.2 20.9374 31.2 21.5C31.2 22.4389 30.4389 23.2 29.5 23.2C29.2267 23.2 28.9643 23.136 28.7274 23.0149L28.2851 22.7887L27.8862 23.0848C27.5183 23.358 27.1174 23.5861 26.6926 23.7633L26.2008 23.9684L26.2006 24.5013C26.2002 25.439 25.4387 26.2 24.5 26.2C23.5614 26.2 22.8004 25.4393 22.8 24.5007L22.7998 23.9669L22.3068 23.7622C21.8836 23.5864 21.4824 23.3586 21.1122 23.0845L20.7135 22.7893L20.2718 23.0153C20.0357 23.1361 19.7733 23.2 19.5 23.2C18.5611 23.2 17.8 22.4389 17.8 21.5C17.8 20.9374 18.0744 20.4223 18.5274 20.1055L18.932 19.8225L18.8604 19.334C18.8203 19.0601 18.8 18.7814 18.8 18.5C18.8 18.2185 18.8204 17.9398 18.8606 17.6653L18.9323 17.1761L18.5269 16.8932C18.0744 16.5774 17.8 16.0626 17.8 15.5C17.8 14.5611 18.5611 13.8 19.5 13.8C19.7733 13.8 20.0358 13.864 20.2726 13.9851L20.7149 14.2114L21.1138 13.9152C21.482 13.6418 21.8832 13.4136 22.3083 13.2364L22.8006 13.0311L22.8004 12.4978Z" fill="#001951"/>
</g>
</svg>
