<svg width="48" height="48" viewBox="0 0 48 48" fill="none" xmlns="http://www.w3.org/2000/svg">
<g id="alteryx-6">
<path id="Combined Shape" fill-rule="evenodd" clip-rule="evenodd" d="M8.00001 9.20001H40C41.5464 9.20001 42.8 10.4536 42.8 12V33C42.8 33.4693 42.6846 33.9115 42.4806 34.3H5.51945C5.31544 33.9115 5.20001 33.4693 5.20001 33V12C5.20001 10.4536 6.45361 9.20001 8.00001 9.20001ZM8.00001 10.8C7.33727 10.8 6.80001 11.3373 6.80001 12V33C6.80001 33.6628 7.33727 34.2 8.00001 34.2H40C40.6628 34.2 41.2 33.6628 41.2 33V12C41.2 11.3373 40.6628 10.8 40 10.8H8.00001Z" fill="#99E9E9"/>
<path id="Rectangle Copy" fill-rule="evenodd" clip-rule="evenodd" d="M45.8 37.5V35.5C45.8 33.9536 44.5464 32.7 43 32.7L4.99999 32.7C3.45359 32.7 2.19999 33.9536 2.19999 35.5V37.5C2.19999 39.0464 3.45359 40.3 4.99999 40.3L43 40.3C44.5464 40.3 45.8 39.0464 45.8 37.5ZM43 34.3C43.6627 34.3 44.2 34.8373 44.2 35.5V37.5C44.2 38.1628 43.6627 38.7 43 38.7L4.99999 38.7C4.33725 38.7 3.79999 38.1628 3.79999 37.5V35.5C3.79999 34.8373 4.33725 34.3 4.99999 34.3L43 34.3Z" fill="#00C8C6"/>
<path id="Oval Copy 10" fill-rule="evenodd" clip-rule="evenodd" d="M31.8 22C31.8 26.3078 28.3078 29.8 24 29.8C19.6922 29.8 16.2 26.3078 16.2 22C16.2 17.6922 19.6922 14.2 24 14.2C28.3078 14.2 31.8 17.6922 31.8 22ZM17.8 22C17.8 25.4242 20.5758 28.2 24 28.2C27.4242 28.2 30.2 25.4242 30.2 22C30.2 18.5758 27.4242 15.8 24 15.8C20.5758 15.8 17.8 18.5758 17.8 22Z" fill="#001951"/>
<path id="Path 12" d="M22.8 20C22.8 19.1441 23.2129 18.8 24 18.8C24.7872 18.8 25.2 19.1441 25.2 20C25.2 20.3388 25.0102 20.6156 24.4732 21.0855L24.228 21.2977C24.1245 21.3875 24.0463 21.4573 23.9714 21.5275C23.4714 21.9962 23.2 22.4237 23.2 23V24H24.8V23C24.8 22.9819 24.8598 22.8878 25.0657 22.6948C25.1229 22.6411 25.1873 22.5837 25.2767 22.5061L25.5268 22.2896C26.3827 21.5407 26.8 20.9321 26.8 20C26.8 18.1893 25.6129 17.2 24 17.2C22.3872 17.2 21.2 18.1893 21.2 20H22.8Z" fill="#001951"/>
<rect id="Rectangle" x="23.2487" y="25" width="1.6" height="1.6" fill="#001951"/>
</g>
</svg>
