<svg width="48" height="48" viewBox="0 0 48 48" fill="none" xmlns="http://www.w3.org/2000/svg">
<g id="alteryx-5">
<path id="Combined Shape" fill-rule="evenodd" clip-rule="evenodd" d="M5.20001 12.3V33C5.20001 34.5464 6.45361 35.8 8.00001 35.8H40C41.5464 35.8 42.8 34.5464 42.8 33V12.3H41.2V33C41.2 33.6627 40.6628 34.2 40 34.2H8.00001C7.33727 34.2 6.80001 33.6627 6.80001 33V12.3H5.20001Z" fill="#99E9E9"/>
<path id="Rectangle Copy" fill-rule="evenodd" clip-rule="evenodd" d="M45.8 8.50001V6.50001C45.8 4.95361 44.5464 3.70001 43 3.70001L4.99999 3.70001C3.45359 3.70001 2.19999 4.95361 2.19999 6.50001V8.50001C2.19999 10.0464 3.45359 11.3 4.99999 11.3L43 11.3C44.5464 11.3 45.8 10.0464 45.8 8.50001ZM43 5.30001C43.6627 5.30001 44.2 5.83727 44.2 6.50001V8.50001C44.2 9.16275 43.6627 9.70001 43 9.70001L4.99999 9.70001C4.33725 9.70001 3.79999 9.16275 3.79999 8.50001V6.50001C3.79999 5.83727 4.33725 5.30001 4.99999 5.30001L43 5.30001Z" fill="#00C8C6"/>
<path id="Oval Copy 10" fill-rule="evenodd" clip-rule="evenodd" d="M32.8 23C32.8 27.8601 28.8601 31.8 24 31.8C19.1399 31.8 15.2 27.8601 15.2 23C15.2 18.1399 19.1399 14.2 24 14.2C28.8601 14.2 32.8 18.1399 32.8 23ZM16.8 23C16.8 26.9765 20.0236 30.2 24 30.2C27.9765 30.2 31.2 26.9765 31.2 23C31.2 19.0236 27.9765 15.8 24 15.8C20.0236 15.8 16.8 19.0236 16.8 23Z" fill="#001951"/>
<path id="Path 7" fill-rule="evenodd" clip-rule="evenodd" d="M22.2 26V20C22.2 19.3408 22.9526 18.9645 23.48 19.36L27.48 22.36C27.9067 22.68 27.9067 23.32 27.48 23.64L23.48 26.64C22.9526 27.0355 22.2 26.6592 22.2 26ZM23.8 24.4L25.6667 23L23.8 21.6V24.4Z" fill="#001951"/>
<path id="Path 8" d="M23.2 35V40H24.8V35H23.2Z" fill="#99E9E9"/>
<path id="Path 3" d="M28.4343 44.5657L29.5657 43.4343L24 37.8687L18.4343 43.4343L19.5657 44.5657L24 40.1314L28.4343 44.5657Z" fill="#99E9E9"/>
</g>
</svg>
