<svg viewBox="0 0 201 57" version="1.1" xmlns="http://www.w3.org/2000/svg" xmlns:xlink="http://www.w3.org/1999/xlink">
    <defs>
        <linearGradient x1="-82.6370023%" y1="-92.8200008%" x2="103.767012%" y2="106.042015%" id="linearGradient-1">
            <stop stop-color="#F9A03C" offset="0%"></stop>
            <stop stop-color="#F7974E" offset="100%"></stop>
        </linearGradient>
        <linearGradient x1="-258.92401%" y1="-248.970001%" x2="97.6200109%" y2="98.767987%" id="linearGradient-2">
            <stop stop-color="#F9A03C" offset="0%"></stop>
            <stop stop-color="#F7974E" offset="100%"></stop>
        </linearGradient>
        <linearGradient x1="-223.162985%" y1="-261.967988%" x2="94.0279956%" y2="101.690993%" id="linearGradient-3">
            <stop stop-color="#F9A03C" offset="0%"></stop>
            <stop stop-color="#F7974E" offset="100%"></stop>
        </linearGradient>
        <linearGradient x1="11.3390005%" y1="-1.82200006%" x2="82.495997%" y2="92.1070053%" id="linearGradient-4">
            <stop stop-color="#F26D58" offset="0%"></stop>
            <stop stop-color="#F9A03C" offset="100%"></stop>
        </linearGradient>
        <linearGradient x1="15.8440012%" y1="3.85800004%" x2="120.126001%" y2="72.3799922%" id="linearGradient-5">
            <stop stop-color="#B84E51" offset="0%"></stop>
            <stop stop-color="#F68E48" offset="100%"></stop>
        </linearGradient>
        <linearGradient x1="46.9840027%" y1="23.4660012%" x2="51.8810056%" y2="147.391006%" id="linearGradient-6">
            <stop stop-color="#F9A03C" offset="0%"></stop>
            <stop stop-color="#F7974E" offset="100%"></stop>
        </linearGradient>
    </defs>
    <g id="HOME-+" stroke="none" stroke-width="1" fill="none" fill-rule="evenodd">
        <g id="home---design" transform="translate(-765.000000, -4575.000000)" fill-rule="nonzero">
            <g id="Tools-block" transform="translate(200.000000, 4457.000000)">
                <g id="d3" transform="translate(488.000000, 84.000000)">
                    <g id="logo/-d3-js-seeklogo.com-copy" transform="translate(77.000000, 34.000000)">
                        <g id="logo/-d3-js-seeklogo.com">
                            <g id="g4600" transform="translate(0.319978, 0.170723)">
                                <path d="M59.8587762,41.047307 C59.8857164,40.7866989 59.904926,40.5237534 59.9199188,40.2594056 C59.9381913,39.946442 41.0472562,22.0635791 41.0472562,22.0635791 L40.595598,22.0635791 C40.595598,22.0635791 59.7432848,42.2145512 59.8587762,41.0470733 L59.8587762,41.047307 Z" id="path34" fill="url(#linearGradient-1)"></path>
                                <path d="M19.5543667,34.8436638 C19.5293006,34.8985902 19.5044687,34.9535166 19.4786998,35.0082092 C19.4519939,35.0657066 19.4243509,35.1229703 19.3969422,35.1797665 C18.7948874,36.4325556 27.8273499,45.2425144 28.5537982,44.1722679 C28.5868292,44.1250546 28.6200945,44.0750365 28.6531255,44.0278232 C28.6899048,43.9717281 28.7262155,43.9179704 28.7625262,43.8618754 C29.3434974,42.9818845 19.8122898,34.2714945 19.5543667,34.8436638 Z" id="path36" fill="url(#linearGradient-2)"></path>
                                <path d="M32.3181637,47.2327194 C32.2926291,47.2888144 32.1108413,47.5954673 31.9447492,47.7574417 C31.9166376,47.8135367 40.7623929,56.5662318 40.7623929,56.5662318 L41.5588857,56.5662318 C41.5593543,56.5662318 33.2552141,47.6027129 32.3181637,47.2327194 Z" id="path38" fill="url(#linearGradient-3)"></path>
                                <path d="M59.932569,40.1004696 C59.5188612,49.2502708 51.9320331,56.5662318 42.662731,56.5662318 L41.4094262,56.5662318 L32.1527743,47.4676174 C32.9141277,46.3962022 33.6220693,45.2862217 34.2522356,44.1287942 L42.662731,44.1287942 C45.3225484,44.1287942 47.4871348,41.9703041 47.4871348,39.3151392 C47.4871348,36.6611429 45.3225484,34.5014841 42.662731,34.5014841 L37.6855881,34.5014841 C38.0648592,32.5014624 38.2721816,30.439035 38.2721816,28.3291606 C38.2721816,26.1870315 38.061111,24.0953879 37.6682527,22.0633453 L40.759816,22.0633453 L59.8779858,40.8584538 C59.9007092,40.6064936 59.9187475,40.3547671 59.932569,40.1004696 Z M5.02891496,0 L0,0 L0,12.4374376 L5.02891496,12.4374376 C13.8121221,12.4374376 20.9587709,19.5659477 20.9587709,28.3291606 C20.9587709,30.7131995 20.4258235,32.9764004 19.4786998,35.0082092 L28.6531255,44.0278232 C31.6655081,39.5308713 33.42646,34.1319581 33.42646,28.3291606 C33.42646,12.7085636 20.6870263,0 5.02891496,0 Z" id="path40" fill="url(#linearGradient-4)"></path>
                                <path d="M42.662731,0 L22.2987529,0 C27.2726161,3.029833 31.3911867,7.32601138 34.1974182,12.4374376 L42.662731,12.4374376 C45.3225484,12.4374376 47.4871348,14.5959277 47.4871348,17.2510926 C47.4871348,19.9055564 45.3225484,22.0640465 42.662731,22.0640465 L40.7605188,22.0640465 L59.8786886,40.8589212 C59.923667,40.3491576 59.9517785,39.8361218 59.9517785,39.3151392 C59.9517785,35.1222691 58.4438302,31.2760197 55.9400317,28.2824147 C58.4438302,25.2902121 59.9517785,21.4432615 59.9517785,17.2510926 C59.9517785,7.73924479 52.1967498,0 42.662731,0 Z" id="path42" fill="url(#linearGradient-5)"></path>
                                <path d="M41.4094262,56.5662318 L22.4442299,56.5662318 C26.2617731,54.2139801 29.5620644,51.1086525 32.1527743,47.4676174 L41.4094262,56.5662318 Z M28.6531255,44.0278232 L19.4794026,35.0082092 C16.9449157,40.4426493 11.421941,44.2222859 5.02891496,44.2222859 L0,44.2222859 L0,56.6585549 L5.02891496,56.6585549 C14.8702862,56.6585549 23.556743,51.6361795 28.6531255,44.0278232 Z" id="path44" fill="url(#linearGradient-6)"></path>
                            </g>
                            <g id="g952" transform="translate(77.226141, 8.824547)" fill="#4F4F4F">
                                <g id="g917" transform="translate(0.716672, 0.219550)">
                                    <path d="M13.2295134,7.77760601 C13.2295134,9.13723233 12.9307876,10.3696031 12.3333361,11.4747183 C11.7425965,12.5798335 10.9538239,13.4371351 9.9670181,14.046623 C9.28230015,14.4685759 8.51702474,14.7733199 7.67119187,14.9608549 C6.8320725,15.1483899 5.7244366,15.2421573 4.34828417,15.2421573 L0.562181302,15.2421573 L0.562181302,0.282917239 L4.30800316,0.282917239 C5.77142504,0.282917239 6.93276515,0.39007965 7.79202351,0.604404473 C8.65799233,0.812032593 9.38970479,1.10003252 9.98716088,1.46840426 C11.0075296,2.10468202 11.8030127,2.95193702 12.3736103,4.01016924 C12.9442124,5.06839995 13.2295134,6.32421221 13.2295134,7.77760601 Z M11.145142,7.74747994 C11.145142,6.5753886 10.9403969,5.58748237 10.5309067,4.78376126 C10.121418,3.98004166 9.51054099,3.34711224 8.69827562,2.88497302 C8.10753607,2.55008934 7.47987378,2.31901973 6.81528874,2.19176418 C6.15070827,2.05781495 5.35522514,1.99084034 4.42883936,1.99084034 L2.55592273,1.99084034 L2.55592273,13.5342706 L4.42883936,13.5342706 C5.38878809,13.5342706 6.22454995,13.4639461 6.93612494,13.3232972 C7.65440888,13.1826482 8.31227661,12.9214397 8.90972814,12.5396715 C9.65486609,12.0641358 10.2120419,11.4379039 10.5812557,10.6609756 C10.9571799,9.88404587 11.145142,8.91288367 11.145142,7.74748904 L11.145142,7.74747994 Z" id="path4553"></path>
                                    <path d="M25.0610874,15.2421573 L23.1781028,15.2421573 L23.1781028,14.046623 C23.010279,14.1604882 22.7820389,14.3212326 22.4933826,14.5288561 C22.2114398,14.729786 21.9362098,14.8905296 21.6676925,15.011087 C21.3521838,15.1651339 20.9896835,15.2923902 20.5801918,15.3928559 C20.1707001,15.5000213 19.6907242,15.5536041 19.1402641,15.5536041 C18.1266074,15.5536041 17.2673498,15.2187204 16.5624913,14.5489531 C15.8576314,13.8791872 15.5052014,13.0252348 15.5052014,11.9870957 C15.5052014,11.1364916 15.6864515,10.449981 16.0489518,9.92756383 C16.4181655,9.39844696 16.9417746,8.98319148 17.619779,8.68179738 C18.3045015,8.38040178 19.1268387,8.17612277 20.0867904,8.06896035 C21.0467422,7.96179491 22.0771797,7.8814231 23.1781028,7.82784493 L23.1781028,7.53649513 C23.1781028,7.10784397 23.1009036,6.75286791 22.9465052,6.47156696 C22.7988204,6.1902645 22.5840058,5.96924145 22.3020615,5.80849784 C22.0335442,5.65445092 21.7113227,5.55063686 21.335397,5.49705566 C20.9594712,5.44347294 20.5667648,5.41668158 20.1572776,5.41668158 C19.6605195,5.41668158 19.1067004,5.48365619 18.4958204,5.61760541 C17.8849434,5.7448549 17.2539274,5.93238912 16.6027724,6.18020807 L16.5020698,6.18020807 L16.5020698,4.26132745 C16.8712821,4.16086174 17.4049614,4.05035022 18.1031079,3.92979289 C18.8012543,3.80922797 19.4893321,3.74894552 20.1673411,3.74894552 C20.9594705,3.74894552 21.6475482,3.81592013 22.2315743,3.94986935 C22.8223138,4.07711884 23.3324982,4.29814189 23.7621274,4.61293848 C24.18504,4.92103079 24.5072615,5.31954224 24.7287919,5.80847283 C24.9503192,6.2974019 25.0610829,6.90354071 25.0610829,7.62688926 L25.0610874,15.2421573 Z M23.1781028,12.4793693 L23.1781028,9.35490702 C22.6007918,9.38839053 21.9194276,9.43862339 21.1340101,9.50560558 C20.3553062,9.57258777 19.7377149,9.66970361 19.2812363,9.7969531 C18.7374882,9.95100002 18.2977911,10.1921162 17.9621448,10.5203017 C17.626494,10.8417904 17.4586686,11.2871856 17.4586686,11.8564872 C17.4586686,12.4994632 17.6533458,12.9850439 18.0427,13.3132294 C18.4320497,13.6347166 19.0261452,13.7954602 19.8249866,13.7954602 C20.4895671,13.7954602 21.0970882,13.6682047 21.6475497,13.4136936 C22.1980143,13.1524843 22.7081987,12.8410428 23.1781028,12.4793693 Z" id="path4555"></path>
                                    <path d="M34.5666222,15.1416932 C34.2108355,15.2354591 33.8214843,15.3124818 33.3985686,15.3727612 C32.9823649,15.4330437 32.6097959,15.4631849 32.2808617,15.4631849 C31.1329485,15.4631849 30.2602655,15.1550926 29.6628124,14.538908 C29.0653609,13.9227219 28.7666351,12.9348156 28.7666351,11.5751893 L28.7666351,5.60756718 L27.4878178,5.60756718 L27.4878178,4.02021884 L28.7666351,4.02021884 L28.7666351,0.79529235 L30.6596854,0.79529235 L30.6596854,4.02021884 L34.5666222,4.02021884 L34.5666222,5.60756718 L30.6596854,5.60756718 L30.6596854,10.7212369 C30.6596854,11.3106316 30.6731079,11.7727709 30.6999527,12.1076545 C30.7267976,12.43584 30.8207783,12.7439323 30.9818948,13.0319315 C31.1295796,13.2998375 31.3309687,13.497419 31.5860621,13.6246761 C31.8478674,13.7452259 32.2439306,13.8055008 32.7742516,13.8055008 C33.0830484,13.8055008 33.4052699,13.7619676 33.7409162,13.6749014 C34.0765654,13.5811354 34.3182317,13.504112 34.4659151,13.443831 L34.5666176,13.443831 L34.5666222,15.1416932 Z" id="path4557"></path>
                                    <path d="M45.6027123,15.2421573 L43.7197255,15.2421573 L43.7197255,14.046623 C43.5519031,14.1604882 43.3236638,14.3212326 43.0350075,14.5288561 C42.7530647,14.729786 42.4778347,14.8905296 42.2093174,15.011087 C41.8938071,15.1651339 41.5313069,15.2923902 41.1218167,15.3928559 C40.712325,15.5000213 40.2323484,15.5536041 39.6818868,15.5536041 C38.6682315,15.5536041 37.8089747,15.2187204 37.1041163,14.5489531 C36.3992563,13.8791872 36.0468263,13.0252348 36.0468263,11.9870957 C36.0468263,11.1364916 36.2280764,10.449981 36.5905767,9.92756383 C36.9597889,9.39844696 37.483398,8.98319148 38.1614039,8.68179738 C38.8461264,8.38040178 39.6684636,8.17612277 40.6284153,8.06896035 C41.5883671,7.96179491 42.6188038,7.8814231 43.7197255,7.82784493 L43.7197255,7.53649513 C43.7197255,7.10784397 43.6425263,6.75286791 43.4881279,6.47156696 C43.340443,6.1902645 43.1256292,5.96924145 42.8436864,5.80849784 C42.5751676,5.65445092 42.2529461,5.55063686 41.8770219,5.49705566 C41.5010961,5.44347294 41.1083897,5.41668158 40.6989026,5.41668158 C40.2021444,5.41668158 39.6483253,5.48365619 39.0374453,5.61760541 C38.4265683,5.7448549 37.7955515,5.93238912 37.144395,6.18020807 L37.0436925,6.18020807 L37.0436925,4.26132745 C37.4129062,4.16086174 37.9465863,4.05035022 38.6447328,3.92979289 C39.3428792,3.80922797 40.030957,3.74894552 40.708966,3.74894552 C41.5010954,3.74894552 42.1891731,3.81592013 42.7731992,3.94986935 C43.3639387,4.07711884 43.8741231,4.29814189 44.3037523,4.61293848 C44.7266649,4.92103079 45.0488864,5.31954224 45.2704168,5.80847283 C45.4919441,6.2974019 45.6027078,6.90354071 45.6027078,7.62688926 L45.6027123,15.2421573 Z M43.7197255,12.4793693 L43.7197255,9.35490702 C43.1424144,9.38839053 42.461051,9.43862339 41.675635,9.50560558 C40.8969311,9.57258777 40.2793398,9.66970361 39.8228612,9.7969531 C39.2791131,9.95100002 38.8394152,10.1921162 38.5037675,10.5203017 C38.1681182,10.8417904 38.0002936,11.2871856 38.0002936,11.8564872 C38.0002936,12.4994632 38.1949707,12.9850439 38.5843249,13.3132294 C38.9736746,13.6347166 39.5677702,13.7954602 40.3666116,13.7954602 C41.031192,13.7954602 41.6387131,13.6682047 42.1891746,13.4136936 C42.7396377,13.1524843 43.2498213,12.8410428 43.7197255,12.4793693 Z" id="path4559"></path>
                                    <polygon id="path4561" points="55.2290787 9.60606977 48.9457583 9.60606977 48.9457583 7.78765334 55.2290787 7.78765334"></polygon>
                                    <path d="M71.4710612,7.77760601 C71.4710612,9.13723233 71.1723347,10.3696031 70.5748816,11.4747183 C69.984142,12.5798335 69.1953694,13.4371351 68.2085636,14.046623 C67.5238457,14.4685759 66.7585703,14.7733199 65.9127374,14.9608549 C65.073618,15.1483899 63.9659821,15.2421573 62.5898297,15.2421573 L58.8037268,15.2421573 L58.8037268,0.282917239 L62.5495487,0.282917239 C64.0129721,0.282917239 65.1743122,0.39007965 66.033569,0.604404473 C66.8995394,0.812032593 67.6312518,1.10003252 68.2287064,1.46840426 C69.2490751,2.10468202 70.044559,2.95193702 70.6151581,4.01016924 C71.1857601,5.06839995 71.4710612,6.32421221 71.4710612,7.77760601 Z M69.3866898,7.74747994 C69.3866898,6.5753886 69.1819439,5.58748237 68.7724522,4.78376126 C68.362965,3.98004166 67.752088,3.34711224 66.9398211,2.88497302 C66.3490816,2.55008934 65.72142,2.31901973 65.0568365,2.19176418 C64.3922545,2.05781495 63.5967706,1.99084034 62.6703849,1.99084034 L60.7974682,1.99084034 L60.7974682,13.5342706 L62.6703849,13.5342706 C63.6303336,13.5342706 64.4660955,13.4639461 65.1776704,13.3232972 C65.8959559,13.1826482 66.5538244,12.9214397 67.1512759,12.5396715 C67.8964139,12.0641358 68.453589,11.4379039 68.8228012,10.6609756 C69.1987269,9.88404587 69.3866898,8.91288367 69.3866898,7.74748904 L69.3866898,7.74747994 Z" id="path4563"></path>
                                    <path d="M81.5807587,6.07974843 L81.4800562,6.07974843 C81.1981134,6.01276624 80.9228834,5.96588325 80.6543661,5.93909947 C80.3925608,5.90561595 80.080408,5.88887419 79.7179078,5.88887419 C79.1338802,5.88887419 78.5699924,6.01947886 78.0262443,6.28068818 C77.4824962,6.53519929 76.9588871,6.86673385 76.455417,7.27529187 L76.455417,15.2421664 L74.5623622,15.2421664 L74.5623622,4.02022566 L76.455417,4.02022566 L76.455417,5.67789848 C77.207267,5.07510878 77.8684914,4.64980673 78.4390905,4.40199232 C79.0164046,4.14748122 79.6037874,4.02022566 80.2012389,4.02022566 C80.5301731,4.02022566 80.7684835,4.03026769 80.9161699,4.05035174 C81.0638548,4.06369057 81.2853813,4.0938318 81.5807496,4.14077542 L81.5807587,6.07974843 Z" id="path4565"></path>
                                    <path d="M85.4172106,2.14151844 L83.2824901,2.14151844 L83.2824901,0.182450773 L85.4172106,0.182450773 L85.4172106,2.14151844 Z M85.2963858,15.2421573 L83.4033263,15.2421573 L83.4033263,4.0202143 L85.2963766,4.0202143 L85.2963858,15.2421573 Z" id="path4567"></path>
                                    <polygon id="path4569" points="98.7894057 4.0202143 94.2380228 15.2421573 92.3349068 15.2421573 87.8137348 4.0202143 89.8678954 4.0202143 93.3519158 12.9515551 96.8057276 4.0202143"></polygon>
                                    <path d="M110.520286,9.82709281 L102.23315,9.82709281 C102.23315,10.5169533 102.3372,11.1197438 102.545302,11.6354642 C102.753401,12.1444864 103.038701,12.5630902 103.401201,12.8912757 C103.750276,13.2127644 104.163123,13.4538806 104.639744,13.6146242 C105.123075,13.7753679 105.653396,13.8557397 106.230707,13.8557397 C106.995987,13.8557397 107.764621,13.7050426 108.536608,13.4036485 C109.315309,13.0955547 109.869128,12.7941591 110.198066,12.4994617 L110.298768,12.4994617 L110.298768,14.5589958 C109.661037,14.8269019 109.009881,15.0512733 108.345301,15.23211 C107.680716,15.4129483 106.982569,15.5033674 106.250859,15.5033674 C104.384659,15.5033674 102.927948,15.0010419 101.880727,13.9963909 C100.833507,12.9850432 100.309898,11.5517425 100.309898,9.69648891 C100.309898,7.86132845 100.810012,6.40458553 101.81024,5.32626017 C102.817183,4.24793632 104.139635,3.70877439 105.777596,3.70877439 C107.294721,3.70877439 108.462773,4.15082047 109.281752,5.03491264 C110.107448,5.91900481 110.520295,7.17481707 110.520295,8.80234941 L110.520286,9.82709281 Z M108.67758,8.38039571 C108.670896,7.38914113 108.419159,6.6222587 107.922371,6.07974843 C107.432326,5.53723664 106.683832,5.26598074 105.676889,5.26598074 C104.663237,5.26598074 103.854327,5.56402724 103.250159,6.16012024 C102.652707,6.75621172 102.313704,7.49630354 102.23315,8.38039571 L108.67758,8.38039571 Z" id="path4571"></path>
                                    <path d="M122.794901,15.2421596 L120.901858,15.2421573 L120.901858,8.85258151 C120.901858,8.33686108 120.871625,7.85462947 120.811159,7.40588668 C120.750694,6.95044567 120.639934,6.59546886 120.47888,6.34095624 C120.31105,6.05965529 120.069382,5.85202793 119.753876,5.71807415 C119.438369,5.57742519 119.02888,5.50710071 118.525408,5.50710071 C118.008511,5.50710071 117.468118,5.63435627 116.90423,5.88886737 C116.340342,6.14337848 115.79995,6.46821558 115.283053,6.86337868 L115.283053,15.2421596 L113.390001,15.2421596 L113.390001,4.02021657 L115.283053,4.02021657 L115.283053,5.26598301 C115.873793,4.77705394 116.484671,4.39528728 117.115689,4.12068304 C117.746706,3.84607879 118.394506,3.70877666 119.059088,3.70877666 C120.274126,3.70877666 121.200509,4.07379929 121.838239,4.80384455 C122.475968,5.5338898 122.794833,6.5854238 122.794833,7.95844656 L122.794901,15.2421596 Z" id="path4573"></path>
                                </g>
                                <g id="g928" transform="translate(0.890127, 23.668972)">
                                    <path d="M13.0560521,7.50394032 C13.0560521,8.86356663 12.7573248,10.0959374 12.1598702,11.2010526 C11.5691306,12.3061678 10.7803587,13.1634694 9.79355448,13.7729573 C9.10883502,14.1949102 8.34356569,14.4996542 7.49774649,14.6871892 C6.65862711,14.8747242 5.55099045,14.9684917 4.17483651,14.9684917 L0.388726801,14.9684917 L0.388726801,0.00925154571 L4.13454638,0.00925154571 C5.59796522,0.00925154571 6.75930685,0.116413957 7.61857129,0.33073878 C8.48453555,0.5383669 9.21624497,0.826366828 9.81369954,1.19473856 C10.8340637,1.83101633 11.6295506,2.67827132 12.2001603,3.73650355 C12.7707548,4.79473426 13.0560521,6.05054651 13.0560521,7.50394032 Z M10.9716761,7.47381425 C10.9716761,6.30172291 10.7669363,5.31381668 10.3574567,4.51009556 C9.94796199,3.70637596 9.33708497,3.07344655 8.52482568,2.61130732 C7.93408613,2.27642365 7.30642156,2.04535404 6.64183196,1.91809848 C5.97725756,1.78414926 5.18177064,1.71717465 4.25537118,1.71717465 L2.38247279,1.71717465 L2.38247279,13.2606049 L4.25537118,13.2606049 C5.21533055,13.2606049 6.05110001,13.1902804 6.76267956,13.0496315 C7.48095893,12.9089825 8.13882591,12.647774 8.73628048,12.2660058 C9.48141994,11.7904701 10.038592,11.1642382 10.4077966,10.3873099 C10.7837163,9.61038017 10.9716761,8.63921798 10.9716761,7.47382334 L10.9716761,7.47381425 Z" id="path4575"></path>
                                    <path d="M25.7334726,9.36254379 C25.7334726,11.1910076 25.2635655,12.6343548 24.3237512,13.6925855 C23.3839369,14.7508177 22.1252578,15.2799338 20.547714,15.2799338 C18.9567402,15.2799338 17.6913461,14.7508177 16.7515318,13.6925855 C15.8184325,12.6343548 15.3518828,11.1910076 15.3518828,9.36254379 C15.3518828,7.53408003 15.8184325,6.0907328 16.7515318,5.03250209 C17.6913461,3.96757316 18.9567402,3.4351087 20.547714,3.4351087 C22.1252578,3.4351087 23.3839369,3.96757316 24.3237512,5.03250209 C25.2635655,6.0907328 25.7334726,7.53408003 25.7334726,9.36254379 Z M23.779994,9.36254379 C23.779994,7.90914999 23.4946967,6.83082538 22.9241023,6.12756997 C22.3534926,5.41761786 21.5613632,5.0626418 20.547714,5.0626418 C19.5206348,5.0626418 18.7217904,5.41761786 18.1511807,6.12756997 C17.5873012,6.83082538 17.3053615,7.90914999 17.3053615,9.36254379 C17.3053615,10.7690546 17.5906587,11.8373326 18.1612532,12.5673779 C18.7318629,13.2907265 19.5273498,13.6524007 20.547714,13.6524007 C21.5546481,13.6524007 22.34342,13.2940756 22.9140297,12.5774252 C23.4913392,11.8540767 23.779994,10.7824495 23.779994,9.36254379 Z" id="path4577"></path>
                                    <path d="M36.9910764,14.2652378 C36.3600619,14.5666319 35.7592499,14.8010498 35.1886402,14.9684917 C34.6247607,15.1359335 34.0239562,15.2196544 33.3862267,15.2196544 C32.5739522,15.2196544 31.8288128,15.1024454 31.1508083,14.8680275 C30.4728039,14.6269113 29.8921369,14.265237 29.4088073,13.7830046 C28.9187627,13.3007723 28.5394779,12.6912843 28.270953,11.9545409 C28.0024433,11.2177974 27.8681885,10.3571475 27.8681885,9.37259112 C27.8681885,7.53742914 28.3716556,6.09743026 29.3785897,5.05259447 C30.392254,4.00775869 31.728133,3.48534079 33.3862267,3.48534079 C34.0306713,3.48534079 34.6616857,3.57575917 35.2792702,3.75659593 C35.9035848,3.93743269 36.4741869,4.15845573 36.9910764,4.41966506 L36.9910764,6.51938396 L36.8903511,6.51938396 C36.3130416,6.07063965 35.7155946,5.72570941 35.0980102,5.48459323 C34.4871256,5.24347856 33.889671,5.12292123 33.3056465,5.12292123 C32.2315773,5.12292123 31.3823854,5.48459474 30.7580708,6.20794178 C30.1404863,6.92459211 29.8316941,7.97947522 29.8316941,9.37259112 C29.8316941,10.7255192 30.1337789,11.7670067 30.7379485,12.4970534 C31.3488179,13.2204005 32.2047172,13.582074 33.3056465,13.582074 C33.6882811,13.582074 34.0776308,13.5318411 34.4736955,13.4313754 C34.8697602,13.3309097 35.22555,13.200305 35.5410649,13.0395614 C35.8162896,12.8989125 36.0747343,12.7515638 36.3163991,12.5975153 C36.5580639,12.4367717 36.7493813,12.2994696 36.8903511,12.185609 L36.9910764,12.185609 L36.9910764,14.2652378 Z" id="path4579"></path>
                                    <path d="M48.7521701,14.9684917 L46.8591038,14.9684917 L46.8591038,13.7227252 C46.2213743,14.2250507 45.6104973,14.6101665 45.0264728,14.8780725 C44.4424483,15.1459801 43.7980037,15.2799338 43.0931392,15.2799338 C41.9116601,15.2799338 40.9919909,14.9216087 40.3341315,14.2049583 C39.6762569,13.4816098 39.3473196,12.4233783 39.3473196,11.0302639 L39.3473196,3.74654178 L41.2403859,3.7465486 L41.2403859,10.1361244 C41.2403859,10.7054261 41.2672004,11.1943559 41.3208294,11.6029139 C41.3746103,12.0047737 41.4887353,12.3497032 41.6632043,12.6377024 C41.8444491,12.9323998 42.0793989,13.1467254 42.3680536,13.2806791 C42.6567084,13.4146283 43.0762681,13.481603 43.6267327,13.481603 C44.1167773,13.481603 44.650462,13.3543474 45.2277867,13.0998363 C45.8118112,12.8453237 46.3555532,12.5204866 46.8590127,12.125325 L46.8590127,3.74654178 L48.7521701,3.74654178 L48.7521701,14.9684917 Z" id="path4581"></path>
                                    <path d="M68.8910122,14.9684917 L66.9979688,14.9684917 L66.9979688,8.57891582 C66.9979688,8.09668496 66.9744966,7.63119739 66.9275522,7.18245308 C66.8872925,6.73370878 66.7966625,6.37538361 66.6556622,6.10747759 C66.5012623,5.81947842 66.279735,5.60180373 65.9910802,5.45445351 C65.7024255,5.30710482 65.2862233,5.23343047 64.7424737,5.23343047 C64.2121541,5.23343047 63.6818346,5.36738349 63.151515,5.63528952 C62.6211955,5.89649884 62.0908683,6.23138251 61.5605336,6.63994053 C61.5807394,6.79398593 61.597527,6.97482269 61.6108962,7.18245081 C61.6245694,7.38338071 61.6314059,7.58431061 61.6314059,7.78524051 L61.6314059,14.9684894 L59.7383625,14.9684894 L59.7383625,8.57891354 C59.7383625,8.08328625 59.7148903,7.61444957 59.6679459,7.17240348 C59.6276861,6.72366069 59.5370637,6.36533553 59.3960787,6.09742798 C59.2416788,5.80942881 59.0201514,5.59510323 58.7314967,5.45445124 C58.4428267,5.30710255 58.0266246,5.2334282 57.4828902,5.2334282 C56.9659855,5.2334282 56.4457308,5.36068375 55.9221263,5.61519486 C55.4052216,5.86970596 54.8883245,6.19454307 54.371435,6.58970616 L54.371435,14.9684871 L52.4783687,14.9684917 L52.4783687,3.74654406 L54.371435,3.74654406 L54.371435,4.9923105 C54.9621745,4.50338143 55.5495566,4.12161477 56.1335811,3.84701052 C56.7243207,3.57240627 57.3519776,3.43510415 58.016552,3.43510415 C58.7818366,3.43510415 59.4296386,3.59584777 59.9599582,3.917335 C60.4969927,4.23882375 60.896415,4.68421895 61.1582248,5.25352058 C61.9234941,4.6105446 62.6216361,4.14840537 63.2526505,3.86710291 C63.8836802,3.57910374 64.5583347,3.43510415 65.2766141,3.43510415 C66.5117982,3.43510415 67.4214025,3.81017335 68.005427,4.56031174 C68.5961666,5.30375344 68.8915364,6.34524087 68.8915364,7.68477405 L68.8910122,14.9684917 Z" id="path4583"></path>
                                    <path d="M81.9510523,9.55342712 L73.663911,9.55342712 C73.663911,10.2432876 73.7679634,10.8460781 73.9760683,11.3617985 C74.1841732,11.8708207 74.4694781,12.2894245 74.8319829,12.61761 C75.1810424,12.9390987 75.5938871,13.1802149 76.0705168,13.3409585 C76.5538464,13.5017022 77.084166,13.582074 77.6614755,13.582074 C78.42676,13.582074 79.1953945,13.4313769 79.9673788,13.1299828 C80.7460782,12.821889 81.2998927,12.5204934 81.6288224,12.225796 L81.7295477,12.225796 L81.7295477,14.2853301 C81.0918182,14.5532362 80.4406663,14.7776076 79.7760919,14.9584443 C79.1115023,15.1392826 78.4133528,15.2297017 77.6816434,15.2297017 C75.8154448,15.2297017 74.3587334,14.7273762 73.3115091,13.7227252 C72.2642849,12.7113775 71.7406727,11.2780768 71.7406727,9.42282322 C71.7406727,7.58766275 72.2407899,6.13091984 73.2410242,5.05259447 C74.2479735,3.97427062 75.5704225,3.4351087 77.2083711,3.4351087 C78.7255101,3.4351087 79.8935668,3.87715478 80.7125411,4.76124695 C81.5382304,5.64533912 81.9510751,6.90115137 81.9510751,8.52868372 L81.9510523,9.55342712 Z M80.1083487,8.10673002 C80.1022718,7.11547544 79.8505344,6.34859301 79.3531367,5.80608274 C78.8630921,5.26357094 78.1146027,4.99231505 77.1076686,4.99231505 C76.0940042,4.99231505 75.2850949,5.29036155 74.6809405,5.88645454 C74.0834859,6.48254603 73.7444761,7.22263785 73.663911,8.10673002 L80.1083487,8.10673002 Z" id="path4585"></path>
                                    <path d="M94.2256855,14.9684939 L92.3326193,14.9684917 L92.3326193,8.57891582 C92.3326193,8.06319538 92.3023865,7.58096377 92.2419209,7.13222099 C92.1814553,6.67677998 92.0706879,6.32180317 91.9096185,6.06729054 C91.7418038,5.78598959 91.500139,5.57836223 91.1846241,5.44440846 C90.8691093,5.3037595 90.4596221,5.23343502 89.9561627,5.23343502 C89.439258,5.23343502 88.8988659,5.36069057 88.3349864,5.61520168 C87.7710918,5.86971279 87.2306997,6.19454989 86.7138102,6.58971298 L86.7138102,14.9684939 L84.8207439,14.9684939 L84.8207439,3.74655088 L86.7138102,3.74655088 L86.7138102,4.99231732 C87.3045497,4.50338825 87.9154267,4.12162159 88.5464412,3.84701734 C89.1774557,3.5724131 89.8252577,3.43511097 90.4898473,3.43511097 C91.7048863,3.43511097 92.6312706,3.8001336 93.2690001,4.53017885 C93.9067296,5.26022411 94.2255944,6.31175811 94.2255944,7.68478087 L94.2256855,14.9684939 Z" id="path4587"></path>
                                    <path d="M103.711071,14.8680275 C103.355296,14.9617934 102.965946,15.0388161 102.543022,15.0990956 C102.126827,15.159378 101.754257,15.1895192 101.425312,15.1895192 C100.277408,15.1895192 99.4047291,14.8814269 98.8072746,14.2652423 C98.20982,13.6490562 97.9110927,12.6611499 97.9110927,11.3015236 L97.9110927,5.33390149 L96.6322686,5.33390149 L96.6322686,3.74655315 L97.9110927,3.74655315 L97.9110927,0.521626657 L99.8041362,0.521626657 L99.8041362,3.74655315 L103.711071,3.74655315 L103.711071,5.33390149 L99.8041362,5.33390149 L99.8041362,10.4475712 C99.8041362,11.0369659 99.8175814,11.4991052 99.8444719,11.8339888 C99.8713623,12.1621743 99.9653423,12.4702666 100.126412,12.7582658 C100.274081,13.0261718 100.475471,13.2237534 100.730581,13.3510104 C100.992391,13.4715602 101.388456,13.5318351 101.918775,13.5318351 C102.227575,13.5318351 102.549797,13.4883019 102.885442,13.4012357 C103.221087,13.3074697 103.462752,13.2304463 103.610437,13.1701653 L103.711162,13.1701653 L103.711071,14.8680275 Z" id="path4589"></path>
                                    <path d="M114.042298,11.7335178 C114.042298,12.758262 113.616031,13.5988195 112.763496,14.2551904 C111.917662,14.9115613 110.759678,15.2397468 109.289544,15.2397468 C108.45714,15.2397468 107.691863,15.1426309 106.993713,14.9483993 C106.302279,14.7474694 105.721612,14.5297947 105.251712,14.2953752 L105.251712,12.1755639 L105.352438,12.1755639 C105.949892,12.6243082 106.614474,12.9826334 107.346184,13.2505394 C108.077893,13.5117487 108.7794,13.6423534 109.450705,13.6423534 C110.283109,13.6423534 110.934261,13.5084004 111.40416,13.2404944 C111.874075,12.9725868 112.109033,12.5506339 112.109033,11.9746355 C112.109033,11.5325879 111.981485,11.1977043 111.72639,10.9699845 C111.471295,10.7422632 110.981251,10.5480308 110.256256,10.3872872 C109.987732,10.3270047 109.635299,10.2566803 109.19896,10.1763138 C108.769335,10.0959473 108.376628,10.0088772 108.020838,9.91510367 C107.034034,9.65389435 106.332527,9.27212769 105.916317,8.76980369 C105.506837,8.26077996 105.302098,7.63789636 105.302098,6.90115289 C105.302098,6.43901366 105.396078,6.0036658 105.584037,5.5951093 C105.778712,5.18655128 106.070725,4.82152789 106.460074,4.50003914 C106.836009,4.18524861 107.312631,3.93743496 107.889941,3.75659821 C108.473965,3.56906323 109.125117,3.47529574 109.843397,3.47529574 C110.514701,3.47529574 111.192713,3.55901666 111.877433,3.72645849 C112.568867,3.88720211 113.142819,4.08478366 113.599289,4.31920314 L113.599289,6.33854796 L113.498563,6.33854796 C113.015234,5.98357266 112.427852,5.68552692 111.736417,5.44441073 C111.044983,5.19659633 110.366971,5.07268913 109.702381,5.07268913 C109.010947,5.07268913 108.426922,5.2066429 107.950308,5.47455045 C107.473693,5.73575977 107.235386,6.127573 107.235386,6.64999014 C107.235386,7.11212936 107.379713,7.46040796 107.668368,7.69482592 C107.950308,7.9292454 108.406785,8.12012949 109.037799,8.26747818 C109.386874,8.34784469 109.776224,8.4282165 110.205848,8.50859361 C110.642188,8.58896011 111.004693,8.66263446 111.293363,8.72961665 C112.172757,8.93054655 112.850761,9.2754768 113.327376,9.76440738 C113.803991,10.2600347 114.042298,10.9164056 114.042298,11.7335201 L114.042298,11.7335178 Z" id="path4591"></path>
                                </g>
                            </g>
                        </g>
                    </g>
                </g>
            </g>
        </g>
    </g>
</svg>