<?xml version="1.0" encoding="UTF-8"?>
<svg width="217px" height="54px" viewBox="0 0 217 54" version="1.1" xmlns="http://www.w3.org/2000/svg" xmlns:xlink="http://www.w3.org/1999/xlink">
    <!-- Generator: Sketch 52.5 (67469) - http://www.bohemiancoding.com/sketch -->
    <title>logo/ power-bi-vector-logo copy</title>
    <desc>Created with Sketch.</desc>
    <g id="HOME-+" stroke="none" stroke-width="1" fill="none" fill-rule="evenodd">
        <g id="home---design" transform="translate(-781.000000, -5000.000000)" fill-rule="nonzero">
            <g id="Tools-block" transform="translate(200.000000, 4457.000000)">
                <g id="power-BI" transform="translate(510.000000, 507.000000)">
                    <g id="logo/-power-bi-vector-logo-copy" transform="translate(44.000000, 9.000000)">
                        <g id="logo/-power-bi-vector-logo" transform="translate(0.439834, 0.000000)">
                            <path d="M73.8506224,57.2949153 C73.8506224,53.0847458 73.8506224,48.920339 73.8506224,44.7101695 C73.8506224,43.2457627 73.2116183,42.3762712 71.8423237,41.9644068 C59.473029,38.2118644 47.1493776,34.4135593 34.780083,30.7067797 C32.8630705,30.1118644 31.3568465,31.2559322 31.3568465,33.2694915 C31.3568465,38.8067797 31.3568465,44.2983051 31.3568465,49.8355932 C31.3568465,50.2932203 31.4024896,50.8881356 31.1742739,51.2542373 C30.9004149,51.6661017 30.3526971,52.0779661 29.8962656,52.0779661 C29.4854772,52.0779661 28.9377593,51.620339 28.6182573,51.2542373 C28.3900415,50.979661 28.3900415,50.5220339 28.3900415,50.1101695 C28.3900415,44.6186441 28.3443983,39.1728814 28.3900415,33.6813559 C28.4356846,29.2881356 31.7219917,26.9084746 35.9211618,28.1440678 C37.7012448,28.6474576 39.4813278,29.2423729 41.2614108,29.7915254 C51.4854772,32.9033898 61.7095436,36.0152542 71.93361,39.1271186 C75.3112033,40.1338983 76.6804979,41.7813559 76.6804979,45.3508475 C76.7261411,53.4508475 76.7261411,61.5050847 76.6804979,69.6050847 C76.6804979,73.3576271 74.2614108,76.0118644 70.9751037,75.6 C69.1037344,75.3711864 67.2780083,74.5932203 65.4979253,73.9983051 C64.7676349,73.7694915 64.5850622,73.0372881 64.813278,72.3050847 C65.0871369,71.5271186 65.7261411,71.2983051 66.4564315,71.4813559 C67.5975104,71.8016949 68.7385892,72.1220339 69.879668,72.5338983 C72.2987552,73.3576271 73.8049793,72.3050847 73.8049793,69.7881356 L73.8049793,57.2949153 L73.8506224,57.2949153 Z" id="Path" fill="#231815"></path>
                            <path d="M228.854772,53.5423729 C232.460581,54.4576271 234.240664,56.5169492 234.377593,59.8118644 C234.514523,62.7864407 232.323651,65.7610169 229.174274,66.7677966 C228.033195,67.1338983 226.755187,67.3627119 225.568465,67.4084746 C222.784232,67.5 220,67.4542373 217.215768,67.4084746 C217.078838,67.4084746 216.896266,67.3169492 216.713693,67.2711864 C216.66805,66.859322 216.66805,66.4474576 216.66805,66.0813559 C216.66805,58.3016949 216.713693,50.4762712 216.622407,42.6966102 C216.622407,41.5525424 216.941909,41.2779661 218.037344,41.3237288 C221.186722,41.4610169 224.3361,41.3237288 227.439834,41.5983051 C230.726141,41.9186441 232.917012,44.1152542 233.190871,46.9067797 C233.327801,49.1949153 232.414938,51.940678 228.854772,53.5423729 M221.095436,55.7389831 C221.095436,58.3474576 221.095436,60.7271186 221.141079,63.1067797 C221.141079,63.3355932 221.59751,63.7932203 221.825726,63.7932203 C223.286307,63.7932203 224.792531,63.8389831 226.207469,63.6101695 C228.215768,63.3355932 229.448133,61.779661 229.448133,59.8118644 C229.448133,57.7983051 228.39834,56.4711864 226.253112,56.1508475 C224.655602,55.8762712 222.966805,55.8305085 221.095436,55.7389831 M221.095436,48.6 C221.095436,49.5152542 221.049793,50.4305085 221.141079,51.3457627 C221.141079,51.620339 221.551867,52.0779661 221.780083,52.0779661 C223.103734,52.0779661 224.427386,52.1237288 225.705394,51.8491525 C228.170124,51.2542373 229.26556,48.0050847 227.713693,46.220339 C226.846473,45.2135593 222.921162,44.2983051 221.643154,45.1677966 C221.049793,45.579661 221.278008,47.1355932 221.141079,48.1881356 C221.095436,48.3711864 221.095436,48.4627119 221.095436,48.6" id="Shape" fill="#231815"></path>
                            <path d="M156.46473,54.1372881 C155.232365,58.3474576 154.091286,62.2372881 152.995851,66.1728814 C152.721992,67.1338983 152.356846,67.5 151.307054,67.5 C148.157676,67.5 148.112033,67.5915254 147.244813,64.5711864 C145.784232,59.6745763 144.369295,54.7779661 142.954357,49.8813559 C142.863071,49.6067797 142.817427,49.2864407 142.726141,48.8288136 C144.141079,48.8288136 145.419087,48.7830508 146.742739,48.8745763 C147.016598,48.8745763 147.381743,49.4237288 147.473029,49.7440678 C148.477178,53.5423729 149.390041,57.2949153 150.348548,61.0932203 C150.439834,61.5050847 150.576763,61.9169492 150.896266,62.3745763 C151.580913,60.040678 152.219917,57.6610169 152.904564,55.3271186 C153.452282,53.4050847 153.954357,51.4830508 154.593361,49.5610169 C154.684647,49.240678 155.186722,48.8288136 155.506224,48.8288136 C158.838174,48.6 158.838174,48.6 159.659751,51.8033898 C160.572614,55.4644068 161.485477,59.1254237 162.39834,62.9694915 C163.493776,58.5305085 164.589212,54.2745763 165.593361,49.9728814 C165.821577,49.0576271 166.186722,48.7372881 167.099585,48.7830508 C168.058091,48.8745763 168.970954,48.7830508 170.112033,48.7830508 C169.609959,50.6135593 169.107884,52.2152542 168.605809,53.8627119 C167.373444,57.9813559 166.141079,62.1 165,66.2644068 C164.771784,67.0881356 164.452282,67.5 163.493776,67.4542373 C160.024896,67.4084746 160.024896,67.4542373 159.157676,64.159322 C158.290456,60.9559322 157.423237,57.7067797 156.46473,54.1372881" id="Path" fill="#231815"></path>
                            <path d="M103.19917,67.4542373 C103.153527,66.9050847 103.107884,66.5389831 103.107884,66.2186441 C103.107884,58.4389831 103.107884,50.6135593 103.062241,42.8338983 C103.062241,41.6898305 103.427386,41.3237288 104.568465,41.3694915 C107.580913,41.5067797 110.639004,41.3237288 113.651452,41.6440678 C117.987552,42.1016949 120.543568,45.0305085 120.634855,49.1949153 C120.771784,53.2677966 118.078838,56.8830508 114.153527,57.7067797 C112.419087,58.0728814 110.593361,58.0728814 108.813278,58.1186441 C107.946058,58.1644068 107.672199,58.4389831 107.672199,59.3084746 C107.717842,61.6423729 107.672199,63.9305085 107.717842,66.2644068 C107.717842,67.2254237 107.443983,67.5457627 106.485477,67.4542373 C105.435685,67.3627119 104.385892,67.4542373 103.19917,67.4542373 M107.717842,54.4576271 C109.497925,54.320339 111.141079,54.320339 112.692946,54 C114.746888,53.5881356 115.79668,51.8491525 115.79668,49.5152542 C115.79668,47.2728814 114.838174,45.8542373 112.738589,45.4423729 C111.323651,45.1677966 109.817427,45.259322 108.356846,45.259322 C108.174274,45.259322 107.763485,45.6711864 107.763485,45.9 C107.717842,48.6457627 107.717842,51.3915254 107.717842,54.4576271" id="Shape" fill="#231815"></path>
                            <path d="M54.7717842,62.7864407 C54.7717842,58.1644068 54.7717842,53.5881356 54.7717842,48.9661017 C54.7717842,47.4101695 55.593361,46.1745763 56.9170124,45.7169492 C58.2406639,45.2135593 59.7925311,45.5338983 60.5684647,46.6779661 C61.0248963,47.3644068 61.3900415,48.279661 61.3900415,49.1033898 C61.4813278,58.2101695 61.4356846,67.3627119 61.4356846,76.4237288 C61.4356846,77.8881356 60.93361,79.1237288 59.5186722,79.7644068 C58.2863071,80.3135593 57.0995851,80.2220339 56.0497925,79.3983051 C55.0912863,78.6661017 54.7717842,77.6135593 54.7717842,76.4237288 L54.7717842,62.7864407 Z" id="Path" fill="#231815"></path>
                            <path d="M131.224066,67.8661017 C125.518672,67.8661017 121.775934,64.1135593 121.775934,58.3474576 C121.775934,52.1694915 125.655602,48.3711864 131.954357,48.3254237 C137.614108,48.3254237 141.037344,51.9864407 141.037344,58.0271186 C141.037344,64.159322 137.385892,67.8661017 131.224066,67.8661017 M136.655602,58.2559322 C136.609959,58.2559322 136.518672,58.2101695 136.473029,58.2101695 C136.427386,57.5694915 136.427386,56.9288136 136.3361,56.2881356 C136.107884,54.2288136 134.647303,52.4440678 132.86722,52.0322034 C130.585062,51.5288136 128.439834,52.2610169 127.344398,54.1372881 C125.929461,56.6542373 125.929461,59.3542373 127.207469,61.9169492 C128.074689,63.6559322 129.717842,64.3423729 131.589212,64.3423729 C133.414938,64.3423729 134.966805,63.5644068 135.697095,61.779661 C136.19917,60.6813559 136.3361,59.4457627 136.655602,58.2559322" id="Shape" fill="#231815"></path>
                            <path d="M176.228216,59.4457627 C176.136929,62.1457627 177.917012,64.159322 180.473029,64.3881356 C182.526971,64.6169492 184.53527,64.2508475 186.315353,63.1067797 C186.452282,63.0152542 186.589212,62.9237288 186.726141,62.8779661 C186.817427,62.8779661 186.863071,62.8779661 187.182573,62.8779661 C187.182573,63.8389831 187.273859,64.8457627 187.136929,65.8067797 C187.091286,66.1271186 186.680498,66.5847458 186.315353,66.7220339 C183.120332,68.140678 179.834025,68.4152542 176.547718,67.1338983 C175.315353,66.6762712 174.128631,65.6694915 173.352697,64.5711864 C170.751037,61.1389831 170.614108,54.0915254 174.585062,50.5677966 C177.232365,48.1881356 180.290456,47.6389831 183.576763,48.7372881 C186.680498,49.7898305 188.004149,52.3067797 188.414938,55.4186441 C188.551867,56.3338983 188.506224,57.2491525 188.59751,58.1644068 C188.688797,59.1254237 188.278008,59.4 187.365145,59.4 C184.078838,59.3542373 180.838174,59.4 177.551867,59.4 L176.228216,59.4 L176.228216,59.4457627 Z M184.170124,56.1966102 C184.39834,53.5881356 182.983402,51.8033898 180.655602,51.6661017 C178.373444,51.5288136 176.228216,53.7254237 176.228216,56.1966102 L184.170124,56.1966102 Z" id="Shape" fill="#231815"></path>
                            <path d="M52.1701245,63.0152542 C52.1701245,66.4474576 52.1701245,69.879661 52.1701245,73.3118644 C52.1701245,74.7762712 51.4854772,75.920339 50.0705394,76.5152542 C48.7925311,77.0186441 47.4688797,76.9271186 46.5560166,75.8288136 C46.0082988,75.1423729 45.5518672,74.1355932 45.5518672,73.2661017 C45.4605809,66.3559322 45.5062241,59.4457627 45.5518672,52.5355932 C45.5518672,50.3847458 46.966805,48.9661017 48.9294606,49.0118644 C50.8008299,49.0576271 52.1701245,50.5220339 52.1701245,52.5813559 C52.1701245,56.059322 52.1701245,59.5830508 52.1701245,63.0152542" id="Path" fill="#231815"></path>
                            <path d="M42.8589212,62.8779661 C42.8589212,65.120339 42.8589212,67.3627119 42.8589212,69.559322 C42.8589212,71.5728814 41.3983402,73.0830508 39.5726141,73.0830508 C37.746888,73.1288136 36.2863071,71.5728814 36.2863071,69.559322 C36.2863071,65.0745763 36.2863071,60.5440678 36.2863071,56.059322 C36.2863071,54.0457627 37.6099585,52.6728814 39.4813278,52.6271186 C41.3983402,52.5813559 42.8589212,54.0457627 42.8589212,56.0135593 C42.9045643,58.3016949 42.8589212,60.5898305 42.8589212,62.8779661" id="Path" fill="#231815"></path>
                            <path d="M243.506224,67.3627119 L238.896266,67.3627119 L238.896266,41.3694915 C240.26556,41.3694915 241.634855,41.3237288 243.004149,41.4152542 C243.186722,41.4152542 243.460581,42.0559322 243.460581,42.4220339 C243.506224,45.6711864 243.460581,48.920339 243.460581,52.1237288 L243.460581,65.6694915 L243.460581,67.3627119 L243.506224,67.3627119 Z" id="Path" fill="#231815"></path>
                            <path d="M196.813278,67.4542373 C195.489627,67.4542373 194.348548,67.4542373 193.253112,67.4542373 C193.024896,67.4542373 192.79668,67.4084746 192.477178,67.4084746 L192.477178,48.920339 L196.767635,48.920339 L196.767635,51.8491525 C197.315353,51.1169492 197.634855,50.5677966 198.045643,50.1101695 C199.186722,48.7372881 200.738589,48.279661 202.473029,48.6457627 C202.792531,48.6915254 203.248963,49.1033898 203.294606,49.3779661 C203.385892,50.5220339 203.340249,51.6661017 203.340249,52.9016949 C202.701245,52.7644068 202.19917,52.5813559 201.697095,52.5355932 C198.958506,52.2610169 196.950207,54.4118644 196.904564,57.6610169 C196.858921,60.4525424 196.904564,63.2440678 196.904564,66.0813559 L196.904564,67.4542373 L196.813278,67.4542373 Z" id="Path" fill="#231815"></path>
                            <path d="M33.5477178,62.9694915 L33.5477178,66.5847458 C33.5477178,68.5067797 32.2697095,69.879661 30.4439834,70.0169492 C28.8008299,70.1084746 27.06639,68.6898305 27.0207469,66.859322 C26.9294606,64.2050847 26.9294606,61.5966102 27.0207469,58.9423729 C27.06639,57.1576271 28.8008299,55.7389831 30.4896266,55.8305085 C32.3153527,55.9220339 33.5477178,57.340678 33.593361,59.2627119 L33.593361,62.9694915 L33.5477178,62.9694915 Z" id="Path" fill="#231815"></path>
                            <path d="M221.095436,55.6932203 C222.966805,55.8305085 224.655602,55.8305085 226.298755,56.1050847 C228.443983,56.4254237 229.493776,57.7525424 229.493776,59.7661017 C229.493776,61.7338983 228.261411,63.2898305 226.253112,63.6101695 C224.792531,63.7932203 223.33195,63.7932203 221.871369,63.7474576 C221.643154,63.7474576 221.186722,63.2898305 221.186722,63.0610169 C221.095436,60.7271186 221.095436,58.3474576 221.095436,55.6932203" id="Path" fill="#FFFFFF"></path>
                            <path d="M221.095436,48.6 C221.095436,48.4627119 221.095436,48.3711864 221.095436,48.2338983 C221.232365,47.1813559 221.004149,45.579661 221.59751,45.2135593 C222.921162,44.2983051 226.80083,45.2135593 227.66805,46.2661017 C229.219917,48.0508475 228.124481,51.3 225.659751,51.8949153 C224.427386,52.1694915 223.058091,52.1237288 221.73444,52.1237288 C221.506224,52.1237288 221.141079,51.6661017 221.095436,51.3915254 C221.049793,50.4305085 221.095436,49.5152542 221.095436,48.6" id="Path" fill="#FFFFFF"></path>
                            <path d="M107.717842,54.4576271 C107.717842,51.3915254 107.717842,48.6457627 107.763485,45.9 C107.763485,45.6711864 108.174274,45.259322 108.356846,45.259322 C109.817427,45.259322 111.323651,45.1677966 112.738589,45.4423729 C114.838174,45.8542373 115.79668,47.2728814 115.79668,49.5152542 C115.79668,51.8491525 114.746888,53.5881356 112.692946,54 C111.141079,54.320339 109.497925,54.320339 107.717842,54.4576271" id="Path" fill="#FFFFFF"></path>
                            <path d="M136.655602,58.2559322 C136.381743,59.4457627 136.244813,60.6813559 135.742739,61.779661 C135.012448,63.5186441 133.414938,64.2966102 131.634855,64.3423729 C129.763485,64.3423729 128.120332,63.6559322 127.253112,61.9169492 C125.929461,59.3542373 125.929461,56.6542373 127.390041,54.1372881 C128.485477,52.2152542 130.630705,51.4830508 132.912863,52.0322034 C134.692946,52.4440678 136.153527,54.2288136 136.381743,56.2881356 C136.473029,56.9288136 136.473029,57.5694915 136.518672,58.2101695 C136.518672,58.2559322 136.609959,58.2559322 136.655602,58.2559322" id="Path" fill="#FFFFFF"></path>
                            <path d="M184.170124,56.1966102 L176.228216,56.1966102 C176.228216,53.7254237 178.373444,51.5288136 180.655602,51.6661017 C182.983402,51.8033898 184.39834,53.5881356 184.170124,56.1966102" id="Path" fill="#FFFFFF"></path>
                        </g>
                    </g>
                </g>
            </g>
        </g>
    </g>
</svg>