<svg viewBox="0 0 112 55" version="1.1" xmlns="http://www.w3.org/2000/svg" xmlns:xlink="http://www.w3.org/1999/xlink">
    <defs>
        <linearGradient x1="50%" y1="0%" x2="50%" y2="100.002222%" id="linearGradient-1">
            <stop stop-color="#00AEEF" offset="0%"></stop>
            <stop stop-color="#0097DC" offset="21.2%"></stop>
            <stop stop-color="#007CC5" offset="51.9%"></stop>
            <stop stop-color="#006CB8" offset="79.2%"></stop>
            <stop stop-color="#0066B3" offset="100%"></stop>
        </linearGradient>
    </defs>
    <g id="HOME-+" stroke="none" stroke-width="1" fill="none" fill-rule="evenodd">
        <g id="home---design" transform="translate(-1122.000000, -4576.000000)">
            <g id="Tools-block" transform="translate(200.000000, 4457.000000)">
                <g id="sap" transform="translate(863.000000, 84.000000)">
                    <g id="logo/-sap-vector-logo-copy" transform="translate(59.000000, 35.000000)">
                        <g id="logo/-sap-vector-logo">
                            <polyline id="Path" fill="url(#linearGradient-1)" points="0 55 56.4680652 55 111.729978 0 0 0 0 55"></polyline>
                            <path d="M66.3064348,11 L55.2717391,11 L55.308587,36.8255556 L45.6999022,10.9914444 L36.1722826,10.9914444 L27.9699565,32.5673333 C27.0978913,27.0771111 21.3938478,25.1826667 16.9057826,23.7636667 C13.9419891,22.8164444 10.796413,21.4231111 10.8283478,19.8831111 C10.852913,18.6193333 12.5110652,17.4472222 15.8064891,17.622 C18.0173587,17.7405556 19.9702935,17.9177778 23.8552826,19.7853333 L27.6751739,13.1608889 C24.1328696,11.3666667 19.2345652,10.2336667 15.2181522,10.23 L15.193587,10.23 C10.5102283,10.23 6.6105,11.7394444 4.19328261,14.2266667 C2.5081087,15.9622222 1.59919565,18.1695556 1.56234783,20.6103333 C1.50093478,23.969 2.73779348,26.3498889 5.33679348,28.2528889 C7.53292391,29.854 10.3419565,30.8928889 12.8169022,31.6555556 C15.8691304,32.5966667 18.3625,33.4155556 18.3317935,35.1584444 C18.3072283,35.794 18.0664891,36.388 17.6071196,36.8671111 C16.8455978,37.6493333 15.67875,37.9426667 14.063587,37.9744444 C10.9474891,38.0404444 8.6383587,37.5527778 4.95848913,35.3882222 L1.5598913,42.0982222 C5.23607609,44.1784444 9.13826087,45.2222222 13.5722826,45.2222222 L14.5696304,45.2148889 C18.4288261,45.1452222 21.5608913,44.2248889 24.0493478,42.2326667 C24.1918261,42.119 24.3195652,42.0041111 24.4522174,41.888 L24.0346087,44.0293333 L33.3448261,44 L35.0152609,39.7442222 C36.7716739,40.3406667 38.7688261,40.6706667 40.8888043,40.6706667 C42.9547391,40.6706667 44.8978478,40.3577778 46.6210978,39.7955556 L47.7854891,44 L64.489837,44.0158889 L64.5303696,34.3138889 L68.0849565,34.3138889 C76.6766413,34.3138889 81.7555,29.9627778 81.7555,22.6661111 C81.7530435,14.5395556 76.8154348,11 66.3064348,11 Z M40.8888043,33.0757778 C39.6052717,33.0757778 38.4015761,32.8533333 37.3661522,32.4622222 L40.8495,21.5172222 L40.9170543,21.5172222 L44.3439022,32.4927778 C43.312163,32.8594444 42.1367174,33.0757778 40.8875761,33.0757778 L40.8888043,33.0757778 Z M66.9525,26.7874444 L64.527913,26.7874444 L64.527913,17.9666667 L66.9537283,17.9666667 C70.1840543,17.9666667 72.7634022,19.0373333 72.7634022,22.3202222 C72.7609457,25.718 70.1840543,26.7874444 66.9537283,26.7874444 L66.9525,26.7874444 Z" id="Shape" fill="#FFFFFF"></path>
                            <polygon id="Path" points="0 0 113 0 113 55 0 55"></polygon>
                        </g>
                    </g>
                </g>
            </g>
        </g>
    </g>
</svg>