<svg viewBox="0 0 250 62" version="1.1" xmlns="http://www.w3.org/2000/svg" xmlns:xlink="http://www.w3.org/1999/xlink">
    <g id="HOME-+" stroke="none" stroke-width="1" fill="none" fill-rule="evenodd">
        <g id="home---design" transform="translate(-641.000000, -4855.000000)" fill-rule="nonzero">
            <g id="Tools-block" transform="translate(200.000000, 4457.000000)">
                <g id="informatica" transform="translate(386.000000, 366.000000)">
                    <g id="logo/-informatica-copy" transform="translate(55.000000, 32.000000)">
                        <g id="logo/-informatica">
                            <polygon id="Path" fill="#FF4D00" points="27.5755034 35.8091892 45.9395973 46.0643243 46.6275168 38.2724324 41.5268456 32.8432432 34.0016779 31.6032432"></polygon>
                            <polygon id="Path" fill="#FF7D00" points="30.6795302 0.343513514 45.9395973 46.0643243 61.1996644 30.8240541"></polygon>
                            <polygon id="Path" fill="#001AFF" points="28.2214765 24.557027 27.5755034 35.8091892 51.0318792 30.8240541"></polygon>
                            <polygon id="Path" fill="#E23400" points="0.159395973 30.8240541 0.159395973 30.8240541 16.4513423 47.1032432 19.488255 43.0397297 18.942953 38.1635135 11.4597315 33.3208108"></polygon>
                            <polygon id="Path" fill="#FF4D00" points="29.0268456 1.99405405 0.159395973 30.8240541 18.942953 38.1635135"></polygon>
                            <polygon id="Path" fill="#FF7D00" points="18.942953 38.1635135 16.4513423 47.1032432 30.6795302 61.3045946 44.0436242 47.9578378"></polygon>
                            <polygon id="Path" fill="#373737" points="81.5184564 39.5208108 78.6661074 39.5208108 78.6661074 16.4467568 81.5184564 14.7878378"></polygon>
                            <polygon id="Path" fill="#373737" points="209.286913 18.9686486 206.350671 18.9686486 206.350671 16.7064865 206.350671 15.9105405 209.286913 15.9105405"></polygon>
                            <path d="M94.2785235,21.7335135 C92.0911631,21.6788311 90.0360844,22.7766332 88.8674497,24.6240541 L88.8674497,22.1105405 L86.0738255,22.1105405 L86.0738255,39.5208108 L88.8674497,39.5208108 L88.8674497,29.5672973 C88.8674497,26.5259459 90.8053691,24.3978378 93.5822148,24.3978378 C96.3590604,24.3978378 97.9194631,26.2578378 97.9194631,29.3662162 L97.9194631,39.5208108 L100.671141,39.5208108 L100.671141,28.7462162 C100.746987,26.9218992 100.149978,25.1331941 98.9932886,23.7191892 C97.7871338,22.4019002 96.0649504,21.6765836 94.2785235,21.7335135 Z" id="Path" fill="#373737"></path>
                            <path d="M122.969799,21.7335135 C120.601191,21.720874 118.336287,22.7028832 116.728188,24.4397297 C115.124925,26.1783421 114.24325,28.4605355 114.261745,30.8240541 L114.261745,30.8910811 C114.184903,33.2388861 115.057759,35.5187219 116.683448,37.2163871 C118.309137,38.9140523 120.550742,39.8865697 122.902685,39.9145946 C125.287712,39.9361921 127.571617,38.9538661 129.194631,37.2083784 C130.818406,35.4788824 131.71878,33.1949001 131.711409,30.8240541 L131.711409,30.757027 C131.783929,28.3932072 130.895871,26.1006224 129.249323,24.4009758 C127.602775,22.7013292 125.337793,21.7391935 122.969799,21.7335135 Z M128.791946,30.8240541 L128.791946,30.8910811 C128.791946,34.5356757 126.275168,37.2754054 122.969799,37.2754054 C119.66443,37.2754054 117.097315,34.4435135 117.097315,30.8240541 L117.097315,30.757027 C117.097315,27.0956757 119.614094,24.3391892 122.885906,24.3391892 C126.157718,24.3391892 128.791946,27.1878378 128.791946,30.8240541 Z" id="Shape" fill="#373737"></path>
                            <path d="M137.827181,25.9227027 L137.827181,22.1021622 L135.067114,22.1021622 L135.067114,39.5208108 L137.860738,39.5208108 L137.860738,32.5416216 C137.860738,27.9 140.327181,24.7832432 144.152685,24.7832432 L144.521812,24.7832432 L144.521812,21.7837838 L144.295302,21.7837838 C141.619128,21.6832432 139.261745,23.2164865 137.827181,25.9227027 Z" id="Path" fill="#373737"></path>
                            <path d="M166.065436,21.7335135 C163.718935,21.6965715 161.533677,22.9221844 160.34396,24.9424324 C159.376472,22.9314982 157.317049,21.6751412 155.083893,21.7335135 C153.008343,21.7185513 151.076398,22.7897554 149.991611,24.557027 L149.991611,22.1021622 L147.197987,22.1021622 L147.197987,39.5208108 L149.991611,39.5208108 L149.991611,29.6008108 C149.991611,26.5845946 151.828859,24.4062162 154.354027,24.4062162 C156.879195,24.4062162 158.372483,26.2410811 158.372483,29.3075676 L158.372483,39.5208108 L161.166107,39.5208108 L161.166107,29.4667568 C161.105827,28.0926586 161.560467,26.7454437 162.441275,25.6881081 C163.216037,24.8373647 164.318408,24.3585622 165.469799,24.3727027 C168.045302,24.3727027 169.521812,26.1824324 169.521812,29.3410811 L169.521812,39.5208108 L172.315436,39.5208108 L172.315436,28.7797297 C172.307047,24.4313514 169.916107,21.7335135 166.065436,21.7335135 Z" id="Path" fill="#373737"></path>
                            <path d="M202.961409,24.6994595 L202.961409,22.1021622 L197.718121,22.1021622 L197.718121,16.0362162 L194.924497,17.6616216 L194.924497,22.1021622 L191.887584,22.1021622 L191.887584,24.7078378 L194.924497,24.7078378 L194.924497,34.8205405 C194.924497,39.1689189 197.927852,39.8475676 199.714765,39.8475676 C200.769094,39.8639252 201.809658,39.6070083 202.734899,39.1018919 L202.827181,39.0516216 L202.827181,36.4375676 L202.567114,36.5716216 C201.864778,36.9542715 201.076887,37.1531505 200.276846,37.1497297 C198.548658,37.1497297 197.709732,36.3118919 197.709732,34.4937838 L197.709732,24.6994595 L202.961409,24.6994595 Z" id="Path" fill="#373737"></path>
                            <path d="M226.14094,34.7954054 C224.980701,36.3177823 223.197998,37.2402647 221.283557,37.3089189 C218.020134,37.3089189 215.461409,34.477027 215.461409,30.8575676 L215.461409,30.7905405 C215.461409,27.1878378 217.978188,24.3727027 221.124161,24.3727027 C223.347315,24.3727027 224.756711,25.5791892 225.947987,26.8862162 L226.082215,27.037027 L227.936242,24.9843243 L227.827181,24.867027 C226.198724,22.8665602 223.738749,21.7262418 221.157718,21.7754054 C218.829908,21.77234 216.610134,22.7559344 215.050336,24.4816216 C213.461985,26.2276212 212.590371,28.5070304 212.60906,30.8659459 L212.60906,30.932973 C212.593127,33.276379 213.465225,35.5390965 215.050336,37.267027 C216.615177,38.9777671 218.829208,39.9510416 221.149329,39.9481081 C223.815103,39.9560555 226.330449,38.7155205 227.944631,36.5967568 L228.053691,36.4710811 L226.25,34.7032432 L226.14094,34.7954054 Z" id="Path" fill="#373737"></path>
                            <path d="M182.885906,21.7335135 C180.795923,21.7317258 178.735023,22.2225999 176.870805,23.1662162 L176.728188,23.2332432 L177.567114,25.6545946 L177.751678,25.5708108 C179.258171,24.777846 180.931448,24.3528911 182.634228,24.3308108 C185.637584,24.3308108 187.348993,25.7048649 187.348993,28.8802703 L182.474832,28.8802703 C177.927852,28.8802703 175.318792,30.8575676 175.318792,34.3178378 L175.318792,34.3513514 C175.318792,37.9540541 178.473154,39.8475676 181.59396,39.8475676 C183.808721,39.9045695 185.928225,38.9480184 187.348993,37.2502703 L187.348993,39.4789189 L190.016779,39.4789189 L190.016779,28.9137838 C190.132372,27.0132233 189.517244,25.1402647 188.29698,23.6772973 C187.080537,22.387027 185.276846,21.7335135 182.885906,21.7335135 Z M187.348993,31.1256757 L187.348993,33.0694595 C187.348993,35.582973 185.075503,37.51 182.063758,37.51 C179.370805,37.51 178.137584,35.8343243 178.137584,34.2927027 L178.137584,34.2256757 C178.137584,32.8097297 178.934564,31.1256757 182.72651,31.1256757 L187.348993,31.1256757 Z" id="Shape" fill="#373737"></path>
                            <path d="M108.598993,20.4767568 C108.598993,17.9632432 109.244966,17.0332432 111.224832,17.0332432 C112.013823,17.0511718 112.795122,17.1925277 113.540268,17.4521622 L113.716443,17.5024324 L113.716443,14.9218919 L113.657718,14.9218919 C112.780153,14.5999709 111.848883,14.449227 110.91443,14.4778378 C109.565249,14.4133995 108.249789,14.9109877 107.281879,15.8518919 C106.232977,17.1114318 105.707542,18.7246714 105.813758,20.3594595 L105.813758,22.1105405 L102.768456,22.1105405 L102.768456,24.7162162 L105.805369,24.7162162 L105.805369,39.5208108 L108.598993,39.5208108 L108.598993,24.6994595 L113.842282,24.6994595 L113.842282,22.1021622 L108.598993,22.1021622 L108.598993,20.4767568 Z" id="Path" fill="#373737"></path>
                            <polygon id="Path" fill="#373737" points="209.211409 39.5208108 206.417785 39.5208108 206.417785 23.9537838 206.417785 22.1021622 209.211409 22.1021622"></polygon>
                            <path d="M237.357383,21.7335135 C235.267399,21.7317258 233.206499,22.2225999 231.342282,23.1662162 L231.199664,23.2332432 L232.038591,25.6545946 L232.223154,25.5708108 C233.729762,24.7781452 235.402967,24.3532089 237.105705,24.3308108 C240.10906,24.3308108 241.82047,25.7048649 241.82047,28.8802703 L236.946309,28.8802703 C232.399329,28.8802703 229.790268,30.8575676 229.790268,34.3178378 L229.790268,34.3513514 C229.790268,37.9540541 232.944631,39.8475676 236.065436,39.8475676 C238.280197,39.9045695 240.399702,38.9480184 241.82047,37.2502703 L241.82047,39.4872973 L244.488255,39.4872973 L244.488255,28.9137838 C244.603849,27.0132233 243.988721,25.1402647 242.768456,23.6772973 C241.535235,22.387027 239.714765,21.7335135 237.357383,21.7335135 Z M241.82047,31.1256757 L241.82047,33.0694595 C241.82047,35.582973 239.54698,37.51 236.535235,37.51 C233.842282,37.51 232.60906,35.8343243 232.60906,34.2927027 L232.60906,34.2256757 C232.60906,32.8097297 233.40604,31.1256757 237.197987,31.1256757 L241.82047,31.1256757 Z" id="Shape" fill="#373737"></path>
                            <polygon id="Path" fill="#373737" points="246.149329 22.4289189 245.511745 22.4289189 245.511745 22.1021622 247.189597 22.1021622 247.189597 22.4289189 246.552013 22.4289189 246.552013 24.1045946 246.191275 24.1045946"></polygon>
                            <polygon id="Path" fill="#373737" points="247.483221 22.1021622 247.860738 22.1021622 248.473154 23.0572973 249.08557 22.1021622 249.463087 22.1021622 249.463087 24.1213514 249.161074 24.1213514 249.161074 22.6718919 248.52349 23.6186486 248.52349 23.6186486 247.894295 22.6718919 247.894295 24.112973 247.483221 24.112973"></polygon>
                        </g>
                    </g>
                </g>
            </g>
        </g>
    </g>
</svg>