<svg viewBox="0 0 76 59" version="1.1" xmlns="http://www.w3.org/2000/svg" xmlns:xlink="http://www.w3.org/1999/xlink">
    <defs>
        <linearGradient x1="0%" y1="-61.4738006%" x2="100%" y2="161.473801%" id="linearGradient-1">
            <stop stop-color="#CBCED0" offset="0%"></stop>
            <stop stop-color="#84838B" offset="100%"></stop>
        </linearGradient>
        <linearGradient x1="-2.06203864%" y1="0%" x2="102.062039%" y2="100%" id="linearGradient-2">
            <stop stop-color="#276DC3" offset="0%"></stop>
            <stop stop-color="#165CAA" offset="100%"></stop>
        </linearGradient>
    </defs>
    <g id="HOME-+" stroke="none" stroke-width="1" fill="none" fill-rule="evenodd">
        <g id="home---design" transform="translate(-936.000000, -4715.000000)">
            <g id="Tools-block" transform="translate(200.000000, 4457.000000)">
                <g id="R" transform="translate(659.000000, 225.000000)">
                    <g id="logo/-R-Copy" transform="translate(77.000000, 33.000000)">
                        <g id="logo/-R">
                            <path d="M38.0476842,51.1549066 C17.0872632,51.1549066 0.0953684211,39.7035045 0.0953684211,25.5775063 C0.0953684211,11.4514022 17.0872632,0 38.0476842,0 C59.0082105,0 76,11.4514022 76,25.5775063 C76,39.7035045 59.0082105,51.1549066 38.0476842,51.1549066 Z M43.8569474,9.99991741 C27.9251579,9.99991741 15.0098947,17.8285925 15.0098947,27.4857379 C15.0098947,37.1428833 27.9251579,44.9715583 43.8569474,44.9715583 C59.7886316,44.9715583 71.546,39.6192944 71.546,27.4857379 C71.546,15.3559946 59.7886316,9.99991741 43.8569474,9.99991741 Z" id="Shape" fill="url(#linearGradient-1)"></path>
                            <path d="M57.8947368,39.6157989 C57.8947368,39.6157989 60.1917895,40.3133124 61.5263158,40.9928187 C61.9893684,41.2286068 62.7905263,41.6991239 63.3684211,42.3168761 C63.9345263,42.9219174 64.2105263,43.535009 64.2105263,43.535009 L73.2631579,58.8940754 L58.6315789,58.9006427 L51.7894737,45.9712747 C51.7894737,45.9712747 50.3884211,43.5488851 49.5263158,42.8464991 C48.8071579,42.2606302 48.5005263,42.0520646 47.7894737,42.0520646 C47.2945263,42.0520646 44.3130526,42.0520646 44.3130526,42.0520646 L44.3157895,58.8913214 L31.3684211,58.8968294 L31.3684211,15.8821221 L57.3684211,15.8821221 C57.3684211,15.8821221 69.2105263,16.0970431 69.2105263,27.4344704 C69.2105263,38.7718977 57.8947368,39.6157989 57.8947368,39.6157989 Z M52.2631579,25.2125961 L44.4249474,25.2075117 L44.4210526,32.521605 L52.2631579,32.5190628 C52.2631579,32.5190628 55.8947368,32.5077289 55.8947368,28.7984614 C55.8947368,25.014623 52.2631579,25.2125961 52.2631579,25.2125961 Z" id="Shape" fill="url(#linearGradient-2)"></path>
                        </g>
                    </g>
                </g>
            </g>
        </g>
    </g>
</svg>