<svg viewBox="0 0 205 60" version="1.1" xmlns="http://www.w3.org/2000/svg" xmlns:xlink="http://www.w3.org/1999/xlink">
    <defs>
        <linearGradient x1="1.06341024e-07%" y1="9.14856261e-08%" x2="74.5209927%" y2="64.1103734%" id="linearGradient-1">
            <stop stop-color="#5A9FD4" offset="0%"></stop>
            <stop stop-color="#306998" offset="100%"></stop>
        </linearGradient>
        <linearGradient x1="49.9999998%" y1="82.2756107%" x2="23.4426562%" y2="44.914431%" id="linearGradient-2">
            <stop stop-color="#FFD43B" offset="0%"></stop>
            <stop stop-color="#FFE873" offset="100%"></stop>
        </linearGradient>
        <radialGradient cx="49.9999909%" cy="50.0000434%" fx="49.9999909%" fy="50.0000434%" r="50.0000504%" gradientTransform="translate(0.500000,0.500000),scale(0.194351,1.000000),rotate(-89.999996),translate(-0.500000,-0.500000)" id="radialGradient-3">
            <stop stop-color="#B8B8B8" stop-opacity="0.49803922" offset="0%"></stop>
            <stop stop-color="#7F7F7F" stop-opacity="0" offset="100%"></stop>
        </radialGradient>
    </defs>
    <g id="HOME-+" stroke="none" stroke-width="1" fill="none" fill-rule="evenodd">
        <g id="home---design" transform="translate(-1039.000000, -4858.000000)" fill-rule="nonzero">
            <g id="Tools-block" transform="translate(200.000000, 4457.000000)">
                <g id="phyton" transform="translate(761.000000, 366.000000)">
                    <g id="logo/-python-copy" transform="translate(78.000000, 35.000000)">
                        <g id="logo/-python">
                            <path d="M77.3545277,25.4371351 C77.3545277,19.151315 75.5662645,15.924256 71.989738,15.7475452 C70.5666806,15.6802286 69.1772112,15.9074258 67.8255162,16.4333495 C66.7466821,16.8204272 66.0204653,17.2033006 65.6384633,17.5903783 L65.6384633,32.5938833 C67.9262633,34.0328085 69.9580028,34.7017783 71.7294742,34.596597 C75.4781102,34.348361 77.3545277,31.2980128 77.3545277,25.4371351 Z M81.7664163,25.6979927 C81.7664163,28.8913912 81.0192085,31.5420401 79.5163949,33.6499351 C77.8414716,36.0355178 75.5200878,37.2640718 72.5522434,37.3313927 C70.3148148,37.4029178 68.0102229,36.7002833 65.6384633,35.227702 L65.6384633,48.8638101 L61.801673,47.4922058 L61.801673,17.2243351 C62.4313417,16.4501797 63.2415181,15.7854142 64.223804,15.2216258 C66.5074092,13.8878862 69.2821532,13.2020819 72.5480443,13.1684258 L72.6026148,13.2231207 C75.5872512,13.1852517 77.8876483,14.4138099 79.503802,16.904574 C81.0108104,19.1891797 81.7664163,22.1175164 81.7664163,25.6979927 Z" id="path46" fill="#646464"></path>
                            <path d="M105.215333,34.6470833 C105.215333,38.9301941 104.787158,41.8963942 103.93081,43.5456863 C103.070257,45.1949784 101.433117,46.5118878 99.0151809,47.4922058 C97.0548081,48.2663612 94.9349186,48.6870993 92.6597114,48.7586245 L92.0258437,46.335177 C94.3388294,46.0196245 95.9675803,45.7040676 96.9120833,45.3885151 C98.7717089,44.7574101 100.047843,43.7897137 100.748874,42.4938388 C101.311379,41.4377883 101.588435,39.4224574 101.588435,36.4394258 L101.588435,35.4380732 C98.9648095,36.6329668 96.215247,37.2262071 93.3397559,37.2262071 C91.4507455,37.2262071 89.7842161,36.6329668 88.3485701,35.4380732 C86.7366111,34.1379898 85.9306338,32.4886977 85.9306338,30.490197 L85.9306338,14.4853351 L89.7674242,13.1684258 L89.7674242,29.2784689 C89.7674242,30.9992862 90.3215357,32.3246128 91.4297545,33.2544445 C92.5379733,34.1842718 93.9736236,34.6302531 95.7325021,34.596597 C97.4913806,34.5587279 99.3761919,33.8771322 101.378542,32.543397 L101.378542,13.7490445 L105.215333,13.7490445 L105.215333,34.6470833 Z" id="path48" fill="#646464"></path>
                            <path d="M120.193089,37.1210214 C119.73553,37.1588862 119.315749,37.1757164 118.929553,37.1757164 C116.759287,37.1757164 115.067572,36.6582099 113.858606,35.6189883 C112.653835,34.5797668 112.049357,33.1450502 112.049357,31.314843 L112.049357,16.1682833 L109.421532,16.1682833 L109.421532,13.7490445 L112.049357,13.7490445 L112.049357,7.32437827 L115.881948,5.95697827 L115.881948,13.7490445 L120.193089,13.7490445 L120.193089,16.1682833 L115.881948,16.1682833 L115.881948,31.2096574 C115.881948,32.6527869 116.268145,33.6751783 117.040542,34.2726272 C117.703795,34.7648905 118.757443,35.0467869 120.193089,35.1183121 L120.193089,37.1210214 Z" id="path50" fill="#646464"></path>
                            <path d="M143.423719,36.8054689 L139.586929,36.8054689 L139.586929,21.9618445 C139.586929,20.4513941 139.234312,19.151315 138.533285,18.0658114 C137.723109,16.8372574 136.598094,16.2229783 135.154054,16.2229783 C133.395171,16.2229783 131.195521,17.1528099 128.555112,19.0124732 L128.555112,36.8054689 L124.718318,36.8054689 L124.718318,1.32465881 L128.555112,0.112935065 L128.555112,16.2734689 C131.006628,14.4853351 133.68482,13.5891639 136.593895,13.5891639 C138.625634,13.5891639 140.271172,14.2749639 141.53051,15.6423639 C142.794051,17.0097596 143.423719,18.7137466 143.423719,20.7501164 L143.423719,36.8054689 Z" id="path52" fill="#646464"></path>
                            <path d="M163.816637,24.8312732 C163.816637,22.4162387 163.359082,20.4219423 162.448154,18.8441754 C161.365126,16.9214042 159.681809,15.9074258 157.406597,15.8022401 C153.200402,16.0462718 151.101503,19.0671682 151.101503,24.8565164 C151.101503,27.511374 151.538072,29.7286588 152.419606,31.5083797 C153.544621,33.7761553 155.232137,34.8953193 157.482159,34.8574545 C161.705146,34.8237941 163.816637,31.4831365 163.816637,24.8312732 Z M168.018642,24.8565164 C168.018642,28.2939466 167.141302,31.1549624 165.390817,33.4395682 C163.464028,35.9976531 160.80262,37.280902 157.406597,37.280902 C154.039963,37.280902 151.416338,35.9976531 149.523128,33.4395682 C147.806227,31.1549624 146.949874,28.2939466 146.949874,24.8565164 C146.949874,21.6252531 147.87759,18.9072876 149.733016,16.6942071 C151.693393,14.3464891 154.270842,13.1684258 157.456968,13.1684258 C160.643103,13.1684258 163.23734,14.3464891 165.2355,16.6942071 C167.090922,18.9072876 168.018642,21.6252531 168.018642,24.8565164 Z" id="path54" fill="#646464"></path>
                            <path d="M190.015116,36.8054689 L186.178326,36.8054689 L186.178326,21.1203682 C186.178326,19.3995509 185.661997,18.0573984 184.629339,17.0896977 C183.596678,16.1262099 182.219801,15.6591898 180.502901,15.6970588 C178.681058,15.7307193 176.947361,16.3281639 175.301827,17.4851927 L175.301827,36.8054689 L171.465036,36.8054689 L171.465036,17.0097596 C173.67308,15.3983365 175.704815,14.3464891 177.560237,13.8542258 C179.310726,13.3956229 180.855518,13.1684258 182.186222,13.1684258 C183.097145,13.1684258 183.953494,13.2567812 184.759471,13.4334876 C186.266484,13.7827006 187.492238,14.4306358 188.436745,15.3815063 C189.490389,16.4333495 190.015116,17.6955639 190.015116,19.1723495 L190.015116,36.8054689 Z" id="path56" fill="#646464"></path>
                            <path d="M23.9066848,1.46675089 C21.9326326,1.4759444 20.0474569,1.64468659 18.3886964,1.93887319 C13.5021958,2.80412663 12.6149967,4.61517626 12.6149963,7.95506029 L12.6149963,12.3660315 L24.1623965,12.3660315 L24.1623965,13.8363553 L12.6149963,13.8363553 L8.28135658,13.8363553 C4.92536058,13.8363553 1.9867544,15.8581036 1.06759599,19.704161 C0.00735838025,24.1126355 -0.0396689212,26.8635954 1.06759599,31.4667509 C1.88842645,34.8931619 3.84868077,37.3345558 7.2046759,37.3345567 L11.1749359,37.3345567 L11.1749359,32.0467869 C11.1749359,28.2266853 14.4726555,24.8570396 18.3886964,24.8570387 L29.9226381,24.8570387 C33.1332788,24.8570387 35.6963395,22.2074715 35.6963382,18.9757437 L35.6963382,7.95506029 C35.6963382,4.81851108 33.0563258,2.46235058 29.9226381,1.93887319 C27.9389672,1.60791263 25.8807371,1.45755738 23.9066848,1.46675089 Z M17.6619369,5.01441281 C18.854704,5.01441281 19.8287568,6.0066341 19.8287568,7.22664302 C19.8287559,8.44232763 18.854704,9.42538403 17.6619369,9.42538403 C16.4648937,9.4253836 15.4951171,8.44232719 15.4951171,7.22664302 C15.4951166,6.00663453 16.4648937,5.01441281 17.6619369,5.01441281 Z" id="path1948" fill="url(#linearGradient-1)"></path>
                            <path d="M37.1363986,13.8363553 L37.1363986,18.9757437 C37.1363986,22.9602423 33.7660026,26.3138728 29.9226381,26.3138732 L18.3886964,26.3138732 C15.2293565,26.3138732 12.6149967,29.0240098 12.6149963,32.1951682 L12.6149963,43.2158504 C12.6149963,46.3524 15.3362369,48.1972835 18.3886964,49.0971453 C22.0439545,50.1743871 25.5491556,50.3690719 29.9226381,49.0971453 C32.8297427,48.2535237 35.6963395,46.5557309 35.6963382,43.2158504 L35.6963382,38.8048804 L24.1623965,38.8048804 L24.1623965,37.3345567 L35.6963382,37.3345567 L41.47004,37.3345567 C44.8260364,37.3345567 46.0766183,34.9883374 47.2437358,31.4667509 C48.4493296,27.8413325 48.3980322,24.3549052 47.2437358,19.704161 C46.4143558,16.3556253 44.8303044,13.8363553 41.47004,13.8363553 L37.1363986,13.8363553 Z M30.6493975,41.7455279 C31.8464416,41.7455292 32.8162174,42.7285856 32.8162174,43.9442676 C32.8162165,45.1642748 31.8464403,46.1564978 30.6493975,46.1564978 C29.4566292,46.1564978 28.4825777,45.1642748 28.4825777,43.9442676 C28.4825786,42.7285856 29.4566279,41.7455279 30.6493975,41.7455279 Z" id="path1950" fill="url(#linearGradient-2)"></path>
                            <path d="M197.486664,10.320597 L198.159352,10.320597 L198.159352,6.09200417 L199.752896,6.09200417 L199.752896,5.58797827 L195.89312,5.58797827 L195.89312,6.09200417 L197.486664,6.09200417 L197.486664,10.320597 M200.349351,10.320597 L200.92407,10.320597 L200.92407,6.45856964 L202.171474,10.3201118 L202.811319,10.3201118 L204.111157,6.47166173 L204.111157,10.320597 L204.738125,10.320597 L204.738125,5.58797827 L203.908698,5.58797827 L202.488207,9.64244892 L201.276739,5.58797827 L200.349351,5.58797827 L200.349351,10.320597" id="text3004" fill="#646464"></path>
                            <path d="M39.7678944,56.5889955 C39.7678944,57.663462 36.818476,58.65631 32.0306564,59.1935433 C27.2428368,59.7307766 21.3439998,59.7307766 16.5561803,59.1935433 C11.7683607,58.65631 8.81894225,57.663462 8.81894233,56.5889955 C8.81894222,55.5145289 11.7683607,54.5216809 16.5561802,53.9844476 C21.3439998,53.4472143 27.2428369,53.4472143 32.0306564,53.9844476 C36.818476,54.5216809 39.7678945,55.5145289 39.7678944,56.5889955 Z" id="path1894" fill="url(#radialGradient-3)" opacity="0.44382022"></path>
                        </g>
                    </g>
                </g>
            </g>
        </g>
    </g>
</svg>