<svg viewBox="0 0 166 40" version="1.1" xmlns="http://www.w3.org/2000/svg" xmlns:xlink="http://www.w3.org/1999/xlink">
    <g id="HOME-+" stroke="none" stroke-width="1" fill="none" fill-rule="evenodd">
        <g id="home---design" transform="translate(-580.000000, -4725.000000)" fill-rule="nonzero">
            <g id="Tools-block" transform="translate(200.000000, 4457.000000)">
                <g id="snowflake" transform="translate(284.000000, 225.000000)">
                    <g id="exasol-vector-logo-2" transform="translate(96.000000, 43.000000)">
                        <polygon id="Path" fill="#002C40" points="0 0 23.1232877 0 23.1232877 6.08942512 7.01369863 6.08942512 7.01369863 16.3030518 20.0273973 16.3030518 20.0273973 22.4201561 7.01369863 22.4201561 7.01369863 32.9105749 24 32.9105749 24 39 0 39"></polygon>
                        <g id="Group" transform="translate(59.000000, 0.000000)" fill="#002C40">
                            <path d="M15.0020619,33.7931034 C19.4971649,33.7931034 23.5234536,30.6482759 23.5234536,25.2137931 C23.5234536,19.7517241 19.1386598,16.8 15.0020619,16.8 C10.3966495,16.8 6.53582474,20.1103448 6.53582474,25.2137931 C6.53582474,30.2896552 10.3690722,33.7931034 15.0020619,33.7931034 Z M23.5786082,35.1448276 C21.7309278,38.1793103 17.7046392,39.6965517 14.2850515,39.6965517 C6.83917526,39.6965517 0.248195876,34.0689655 0.248195876,25.2413793 C0.248195876,16.4137931 6.81159794,10.8413793 14.2850515,10.8413793 C17.5943299,10.8413793 21.6757732,12.1931034 23.5786082,15.337931 L23.5786082,11.4206897 L29.6180412,11.4206897 L29.6180412,39.062069 L23.5786082,39.062069 L23.5786082,35.1448276 Z" id="Shape"></path>
                            <path d="M38.2221649,30.7862069 C38.2221649,30.7862069 41.2832474,33.8482759 45.8335052,33.8482759 C47.7914948,33.8482759 49.5012887,32.9655172 49.5012887,31.337931 C49.5012887,27.1724138 35.9332474,27.7241379 35.9332474,18.7310345 C35.9332474,13.5172414 40.5938144,10.5103448 46.6056701,10.5103448 C52.893299,10.5103448 55.9543814,13.6827586 55.9543814,13.6827586 L53.3896907,18.8413793 C53.3896907,18.8413793 50.825,16.4413793 46.5505155,16.4413793 C44.7304124,16.4413793 42.9930412,17.2137931 42.9930412,18.9517241 C42.9930412,22.8965517 56.5610825,22.4 56.5610825,31.3931034 C56.5610825,36.0551724 52.5072165,39.7793103 45.8886598,39.7793103 C38.9391753,39.7793103 35.0507732,35.6689655 35.0507732,35.6689655 L38.2221649,30.7862069 Z" id="Path"></path>
                            <path d="M75.4515464,33.8758621 C79.9466495,33.8758621 83.7247423,30.3724138 83.7247423,25.1586207 C83.7247423,20 79.9466495,16.4413793 75.4515464,16.4413793 C70.9012887,16.4413793 67.1231959,20 67.1231959,25.1586207 C67.1507732,30.3448276 70.928866,33.8758621 75.4515464,33.8758621 M75.3963918,10.537931 C83.9453608,10.537931 90.7845361,16.6068966 90.7845361,25.1586207 C90.7845361,33.7655172 83.9453608,39.7793103 75.4515464,39.7793103 C66.9025773,39.7793103 60.0634021,33.7655172 60.0634021,25.1586207 C60.0909794,16.6068966 66.9301546,10.537931 75.3963918,10.537931" id="Shape"></path>
                            <path d="M95.9966495,0.248275862 L102.890979,0.248275862 L102.890979,29.3793103 C102.890979,32.4413793 103.938918,33.2137931 105.731443,33.2137931 C106.28299,33.2137931 106.779381,33.1586207 106.779381,33.1586207 L106.779381,39.2275862 C106.779381,39.2275862 105.731443,39.3931034 104.600773,39.3931034 C100.767526,39.3931034 95.9966495,38.4 95.9966495,30.4 L95.9966495,0.248275862 Z" id="Path"></path>
                        </g>
                        <polygon id="Path" fill="#45B035" points="28 39 38.7258065 24.9581256 28.0278592 11 36.3020528 11 47 24.9581256 36.2463343 39"></polygon>
                        <polygon id="Path" fill="#002C40" points="44 18.7955056 47.9507187 24 57 12 49.0985626 12"></polygon>
                        <polygon id="Path" fill="#002C40" points="44 32.2044944 47.9507187 27 57 39 49.0985626 39"></polygon>
                    </g>
                </g>
            </g>
        </g>
    </g>
</svg>