<svg width="48" height="48" viewBox="0 0 48 48" fill="none" xmlns="http://www.w3.org/2000/svg">
<path fill-rule="evenodd" clip-rule="evenodd" d="M39.9992 5.19995H25.9992C24.4528 5.19995 23.1992 6.45355 23.1992 7.99995V16.2H24.7992V7.99995C24.7992 7.33721 25.3365 6.79995 25.9992 6.79995H39.9992C40.662 6.79995 41.1992 7.33721 41.1992 7.99995V18C41.1992 18.6627 40.662 19.2 39.9992 19.2H32.7149C32.7701 19.4579 32.7992 19.7255 32.7992 20V20.8H39.9992C41.5456 20.8 42.7992 19.5463 42.7992 18V7.99995C42.7992 6.45355 41.5456 5.19995 39.9992 5.19995Z" fill="#99E9E9"/>
<path fill-rule="evenodd" clip-rule="evenodd" d="M28.9992 17.2H5.99922C4.45282 17.2 3.19922 18.4536 3.19922 20V35C3.19922 36.5463 4.45282 37.8 5.99922 37.8H11.9438L12.253 36.5634C12.2849 36.4357 12.33 36.3142 12.3866 36.2H5.99922C5.33648 36.2 4.79922 35.6627 4.79922 35V20C4.79922 19.3372 5.33648 18.8 5.99922 18.8H28.9992C29.662 18.8 30.1992 19.3372 30.1992 20V26.4309C30.631 25.9606 31.1797 25.5994 31.7992 25.3933V20C31.7992 18.4536 30.5456 17.2 28.9992 17.2ZM29.1992 37.7929V36.1834C29.1342 36.1943 29.0674 36.2 28.9992 36.2H22.6118C22.6685 36.3142 22.7136 36.4357 22.7455 36.5634L23.0546 37.8H28.9992C29.0665 37.8 29.1332 37.7976 29.1992 37.7929Z" fill="#001951"/>
<path fill-rule="evenodd" clip-rule="evenodd" d="M13.9996 36.2C13.6325 36.2 13.3125 36.4498 13.2235 36.8059L12.2235 40.8059C12.0973 41.3108 12.4792 41.8 12.9996 41.8H21.9996C22.5201 41.8 22.902 41.3108 22.7757 40.8059L21.7757 36.8059C21.6867 36.4498 21.3667 36.2 20.9996 36.2H13.9996ZM20.975 40.2H14.0242L14.6242 37.8H20.375L20.975 40.2Z" fill="#00C8C6"/>
<path fill-rule="evenodd" clip-rule="evenodd" d="M32.9992 26.2H37.9992C39.5456 26.2 40.7992 27.4536 40.7992 29V40C40.7992 41.5463 39.5456 42.8 37.9992 42.8H32.9992C31.4528 42.8 30.1992 41.5463 30.1992 40V29C30.1992 27.4536 31.4528 26.2 32.9992 26.2ZM32.9992 27.8C32.3365 27.8 31.7992 28.3372 31.7992 29V40C31.7992 40.6627 32.3365 41.2 32.9992 41.2H37.9992C38.662 41.2 39.1992 40.6627 39.1992 40V29C39.1992 28.3372 38.662 27.8 37.9992 27.8H32.9992ZM36.2461 38.8C36.2461 39.2418 35.8879 39.6 35.4461 39.6C35.0042 39.6 34.6461 39.2418 34.6461 38.8C34.6461 38.3581 35.0042 38 35.4461 38C35.8879 38 36.2461 38.3581 36.2461 38.8Z" fill="#00C8C6"/>
</svg>
