<svg width="48" height="48" viewBox="0 0 48 48" fill="none" xmlns="http://www.w3.org/2000/svg">
<path fill-rule="evenodd" clip-rule="evenodd" d="M29.6789 39.576C30.0119 40.1089 29.6288 40.8 29.0005 40.8H19.0005C18.3721 40.8 17.9891 40.1089 18.3221 39.576L23.3221 31.576C23.6354 31.0747 24.3656 31.0747 24.6789 31.576L29.6789 39.576ZM27.5571 39.2L24.0005 33.5094L20.4439 39.2H27.5571Z" fill="#99E9E9"/>
<path fill-rule="evenodd" clip-rule="evenodd" d="M2.99922 21.2C2.55739 21.2 2.19922 21.5582 2.19922 22C2.19922 25.1954 5.8682 27.5195 10.1992 27.7764V32C10.1992 32.4418 10.5574 32.8 10.9992 32.8H36.9992C37.441 32.8 37.7992 32.4418 37.7992 32V27.7764C42.1302 27.5195 45.7992 25.1954 45.7992 22C45.7992 21.5582 45.441 21.2 44.9992 21.2H28.9992C28.5574 21.2 28.1992 21.5582 28.1992 22C28.1992 25.1954 31.8682 27.5195 36.1992 27.7764V31.2H11.7992V27.7764C16.1302 27.5195 19.7992 25.1954 19.7992 22C19.7992 21.5582 19.441 21.2 18.9992 21.2H2.99922ZM10.9992 26.2C7.56447 26.2 4.59786 24.7095 3.93651 22.8H18.0619C17.4006 24.7095 14.434 26.2 10.9992 26.2ZM36.9992 26.2C40.434 26.2 43.4006 24.7095 44.0619 22.8H29.9365C30.5979 24.7095 33.5645 26.2 36.9992 26.2Z" fill="#00C8C6"/>
<path fill-rule="evenodd" clip-rule="evenodd" d="M41.1993 10.15L36.9993 7.00001L32.7993 10.15V17.2H34.1993V15C34.1993 10.9333 39.7993 10.9333 39.7993 15V17.2H41.1993V10.15ZM42.7993 11.35L44.5193 12.64C44.8727 12.9051 45.3742 12.8335 45.6393 12.48C45.9044 12.1266 45.8327 11.6251 45.4793 11.36L37.4793 5.36001C37.1948 5.14668 36.8037 5.14668 36.5193 5.36001L28.5193 11.36C28.1658 11.6251 28.0942 12.1266 28.3593 12.48C28.6244 12.8335 29.1258 12.9051 29.4793 12.64L31.1993 11.35V18C31.1993 18.4418 31.5574 18.8 31.9993 18.8H34.9993C35.4411 18.8 35.7993 18.4418 35.7993 18V15C35.7993 13.0667 38.1993 13.0667 38.1993 15V18C38.1993 18.4418 38.5574 18.8 38.9993 18.8H41.9993C42.4411 18.8 42.7993 18.4418 42.7993 18V11.35Z" fill="#001951"/>
<path fill-rule="evenodd" clip-rule="evenodd" d="M4.19922 9.00001C4.19922 8.55818 4.55739 8.20001 4.99922 8.20001H16.9992C17.441 8.20001 17.7992 8.55818 17.7992 9.00001V17C17.7992 17.4418 17.441 17.8 16.9992 17.8H4.99922C4.55739 17.8 4.19922 17.4418 4.19922 17V9.00001ZM5.79922 12.3985V16.2H16.1992V12.3985C15.6413 12.8301 14.9542 13.1593 14.1651 13.3917C13.5403 13.5758 12.8823 13.6898 12.2081 13.7499C11.7596 13.7899 11.4238 13.8 10.9992 13.8C10.5746 13.8 10.2388 13.7899 9.79036 13.7499C9.11616 13.6898 8.45811 13.5758 7.83335 13.3917C7.04421 13.1593 6.35715 12.8301 5.79922 12.3985ZM16.1024 9.80001H5.89602C6.16487 10.8252 6.98744 11.4745 8.28551 11.857C8.79962 12.0084 9.35632 12.1049 9.9324 12.1562C10.3242 12.1911 10.618 12.2 10.9992 12.2C11.3804 12.2 11.6742 12.1911 12.066 12.1562C12.6421 12.1049 13.1988 12.0084 13.7129 11.857C15.011 11.4745 15.8336 10.8252 16.1024 9.80001Z" fill="#001951"/>
<path d="M9.79922 9.00001C9.79922 6.06668 12.1992 6.06668 12.1992 9.00001C12.1992 9.44184 12.5574 9.80001 12.9992 9.80001C13.441 9.80001 13.7992 9.44184 13.7992 9.00001C13.7992 3.93335 8.19922 3.93335 8.19922 9.00001C8.19922 9.44184 8.55739 9.80001 8.99922 9.80001C9.44105 9.80001 9.79922 9.44184 9.79922 9.00001Z" fill="#001951"/>
</svg>
