<svg width="50" height="48" viewBox="0 0 50 48" fill="none" xmlns="http://www.w3.org/2000/svg">
<path fill-rule="evenodd" clip-rule="evenodd" d="M28.1994 17.232V16C28.1994 15.5581 28.5576 15.2 28.9994 15.2C29.4412 15.2 29.7994 15.5581 29.7994 16V17.2764C30.5897 17.4215 31.3559 17.7548 32.0108 18.2993C32.3506 18.5817 32.397 19.0861 32.1146 19.4259C31.8321 19.7656 31.3277 19.8121 30.988 19.5296C30.6307 19.2326 30.2238 19.0307 29.7994 18.9135V23.5051C31.4694 23.9195 32.6744 25.1673 32.6744 27.145C32.6744 29.0809 31.5233 30.2709 29.7994 30.6595V32C29.7994 32.4418 29.4412 32.8 28.9994 32.8C28.5576 32.8 28.1994 32.4418 28.1994 32V30.7952C26.3835 30.7276 24.6328 29.9707 24.3484 28.8359C24.241 28.4073 24.5014 27.9728 24.9299 27.8654C25.3585 27.758 25.793 28.0184 25.9004 28.447C25.9604 28.6863 27.0403 29.1268 28.1994 29.1917V24.9432C26.0428 24.8146 24.3244 23.3046 24.3244 21.1591C24.3244 18.9362 26.1426 17.4884 28.1994 17.232ZM28.1994 18.849C26.9623 19.078 25.9244 19.9373 25.9244 21.1591C25.9244 22.3548 26.8798 23.2246 28.1994 23.3392V18.849ZM29.7994 25.183V29.0011C30.6212 28.7098 31.0744 28.0963 31.0744 27.145C31.0744 26.1679 30.5871 25.5068 29.7994 25.183Z" fill="#001951"/>
<path fill-rule="evenodd" clip-rule="evenodd" d="M10.9992 13.2H17.4992C17.941 13.2 18.2992 13.5581 18.2992 14C18.2992 14.4418 17.941 14.8 17.4992 14.8H10.9992C10.5574 14.8 10.1992 14.4418 10.1992 14C10.1992 13.5581 10.5574 13.2 10.9992 13.2ZM14.4992 18.2H4.99922C4.55739 18.2 4.19922 18.5581 4.19922 19C4.19922 19.4418 4.55739 19.8 4.99922 19.8H14.4992C14.941 19.8 15.2992 19.4418 15.2992 19C15.2992 18.5581 14.941 18.2 14.4992 18.2ZM12.9992 23.2H0.999219C0.557391 23.2 0.199219 23.5581 0.199219 24C0.199219 24.4418 0.557391 24.8 0.999219 24.8H12.9992C13.441 24.8 13.7992 24.4418 13.7992 24C13.7992 23.5581 13.441 23.2 12.9992 23.2ZM14.4992 28.2H4.99922C4.55739 28.2 4.19922 28.5581 4.19922 29C4.19922 29.4418 4.55739 29.8 4.99922 29.8H14.4992C14.941 29.8 15.2992 29.4418 15.2992 29C15.2992 28.5581 14.941 28.2 14.4992 28.2ZM10.9992 33.2H17.4992C17.941 33.2 18.2992 33.5581 18.2992 34C18.2992 34.4418 17.941 34.8 17.4992 34.8H10.9992C10.5574 34.8 10.1992 34.4418 10.1992 34C10.1992 33.5581 10.5574 33.2 10.9992 33.2Z" fill="#99E9E9"/>
<path fill-rule="evenodd" clip-rule="evenodd" d="M42.7992 24C42.7992 32.1738 36.173 38.8 27.9992 38.8C19.8254 38.8 13.1992 32.1738 13.1992 24C13.1992 15.8261 19.8254 9.19995 27.9992 9.19995C36.173 9.19995 42.7992 15.8261 42.7992 24ZM14.7992 24C14.7992 31.2901 20.7091 37.2 27.9992 37.2C35.2894 37.2 41.1992 31.2901 41.1992 24C41.1992 16.7098 35.2894 10.8 27.9992 10.8C20.7091 10.8 14.7992 16.7098 14.7992 24Z" fill="#00C8C6"/>
</svg>
