<svg width="39" height="40" viewBox="0 0 39 40" fill="none" xmlns="http://www.w3.org/2000/svg">
<path d="M29.7992 4.00001C29.7992 1.06668 32.1992 1.06668 32.1992 4.00001C32.1992 4.44184 32.5574 4.80001 32.9992 4.80001C33.441 4.80001 33.7992 4.44184 33.7992 4.00001C33.7992 -1.06665 28.1992 -1.06665 28.1992 4.00001C28.1992 4.44184 28.5574 4.80001 28.9992 4.80001C29.441 4.80001 29.7992 4.44184 29.7992 4.00001Z" fill="#001951"/>
<path fill-rule="evenodd" clip-rule="evenodd" d="M24.1992 4.00001C24.1992 3.55818 24.5574 3.20001 24.9992 3.20001H36.9992C37.441 3.20001 37.7992 3.55818 37.7992 4.00001V12C37.7992 12.4418 37.441 12.8 36.9992 12.8H24.9992C24.5574 12.8 24.1992 12.4418 24.1992 12V4.00001ZM25.7992 7.39846V11.2H36.1992V7.39846C35.6413 7.8301 34.9542 8.15926 34.1651 8.39174C33.5403 8.57581 32.8823 8.68981 32.2081 8.7499C31.7596 8.78986 31.4238 8.80001 30.9992 8.80001C30.5746 8.80001 30.2388 8.78986 29.7904 8.7499C29.1162 8.68981 28.4581 8.57581 27.8333 8.39174C27.0442 8.15926 26.3572 7.8301 25.7992 7.39846ZM36.1024 4.80001H25.896C26.1649 5.82522 26.9874 6.47454 28.2855 6.85697C28.7996 7.00843 29.3563 7.10487 29.9324 7.15621C30.3242 7.19113 30.618 7.20001 30.9992 7.20001C31.3804 7.20001 31.6742 7.19113 32.066 7.15621C32.6421 7.10487 33.1988 7.00843 33.7129 6.85697C35.011 6.47454 35.8336 5.82522 36.1024 4.80001Z" fill="#001951"/>
<path fill-rule="evenodd" clip-rule="evenodd" d="M19.1992 38C19.1992 37.5582 19.5574 37.2 19.9992 37.2H36.1992V24C36.1992 23.5582 36.5574 23.2 36.9992 23.2C37.441 23.2 37.7992 23.5582 37.7992 24V38C37.7992 38.4418 37.441 38.8 36.9992 38.8H19.9992C19.5574 38.8 19.1992 38.4418 19.1992 38ZM0.199219 33C0.199219 32.5582 0.557391 32.2 0.999219 32.2H16.9992C17.441 32.2 17.7992 32.5582 17.7992 33V38C17.7992 38.4418 17.441 38.8 16.9992 38.8H0.999219C0.557391 38.8 0.199219 38.4418 0.199219 38V33ZM1.79922 33.8V37.2H16.1992V33.8H1.79922Z" fill="#99E9E9"/>
<path fill-rule="evenodd" clip-rule="evenodd" d="M16.9063 13.2426C16.9063 13.6845 17.2645 14.0426 17.7063 14.0426C18.1482 14.0426 18.5063 13.6845 18.5063 13.2426V10.7291C18.599 10.4656 18.5509 10.1612 18.3539 9.936C18.3405 9.92077 18.3268 9.90617 18.3126 9.8922C18.1659 9.72197 17.9487 9.6142 17.7063 9.6142H14.8779C14.4361 9.6142 14.0779 9.97237 14.0779 10.4142C14.0779 10.856 14.4361 11.2142 14.8779 11.2142H15.6782L0.472426 24.5192C0.139917 24.8102 0.106223 25.3156 0.397168 25.6481C0.688114 25.9806 1.19352 26.0143 1.52603 25.7234L16.9063 12.2656V13.2426ZM20.9992 14.2C20.5574 14.2 20.1992 14.5582 20.1992 15V20C20.1992 20.4418 20.5574 20.8 20.9992 20.8H36.9992C37.4411 20.8 37.7992 20.4418 37.7992 20V15C37.7992 14.5582 37.4411 14.2 36.9992 14.2H20.9992ZM36.1992 19.2H21.7992V15.8H36.1992V19.2ZM12.9992 23.2C12.5574 23.2 12.1992 23.5582 12.1992 24V29C12.1992 29.4418 12.5574 29.8 12.9992 29.8H28.9992C29.4411 29.8 29.7992 29.4418 29.7992 29V24C29.7992 23.5582 29.4411 23.2 28.9992 23.2H12.9992ZM13.7992 28.2V24.8H28.1992V28.2H13.7992Z" fill="#00C8C6"/>
</svg>
