<svg width="48" height="48" viewBox="0 0 48 48" fill="none" xmlns="http://www.w3.org/2000/svg">
<path fill-rule="evenodd" clip-rule="evenodd" d="M30.6396 6.70001H17.3596C15.8132 6.70001 14.5596 7.95361 14.5596 9.50001V13.2H16.1596V9.50001C16.1596 8.83727 16.6969 8.30001 17.3596 8.30001H30.6396C31.3023 8.30001 31.8396 8.83727 31.8396 9.50001V13.2H33.4396V9.50001C33.4396 7.95361 32.186 6.70001 30.6396 6.70001Z" fill="#99E9E9"/>
<path fill-rule="evenodd" clip-rule="evenodd" d="M39.9992 14.2H7.99922C6.45282 14.2 5.19922 15.4536 5.19922 17V38C5.19922 39.5464 6.45282 40.8 7.99922 40.8H39.9992C41.5456 40.8 42.7992 39.5464 42.7992 38V17C42.7992 15.4536 41.5456 14.2 39.9992 14.2ZM6.79922 17C6.79922 16.3373 7.33648 15.8 7.99922 15.8H39.9992C40.662 15.8 41.1992 16.3373 41.1992 17V38C41.1992 38.6628 40.662 39.2 39.9992 39.2H7.99922C7.33648 39.2 6.79922 38.6628 6.79922 38V17Z" fill="#00C8C6"/>
<path fill-rule="evenodd" clip-rule="evenodd" d="M21.9992 33.8C21.5574 33.8 21.1992 33.4418 21.1992 33V29.8H17.9992C17.5574 29.8 17.1992 29.4418 17.1992 29V25C17.1992 24.5582 17.5574 24.2 17.9992 24.2H21.1992V21C21.1992 20.5582 21.5574 20.2 21.9992 20.2H25.9992C26.441 20.2 26.7992 20.5582 26.7992 21V24.2H29.9992C30.441 24.2 30.7992 24.5582 30.7992 25V29C30.7992 29.4418 30.441 29.8 29.9992 29.8H26.7992V33C26.7992 33.4418 26.441 33.8 25.9992 33.8H21.9992ZM21.9992 25.8H18.7992V28.2H21.9992C22.441 28.2 22.7992 28.5582 22.7992 29V32.2H25.1992V29C25.1992 28.5582 25.5574 28.2 25.9992 28.2H29.1992V25.8H25.9992C25.5574 25.8 25.1992 25.4418 25.1992 25V21.8H22.7992V25C22.7992 25.4418 22.441 25.8 21.9992 25.8Z" fill="#001951"/>
</svg>
