<svg width="48" height="48" viewBox="0 0 48 48" fill="none" xmlns="http://www.w3.org/2000/svg">
<path fill-rule="evenodd" clip-rule="evenodd" d="M30.7036 14.3111C30.7675 13.8834 30.8006 13.4455 30.8006 13C30.8006 12.798 30.7938 12.5977 30.7804 12.3991L32.589 11.314C33.1222 10.994 33.8006 11.3781 33.8006 12V17.2718C35.7674 17.6271 37.6369 19.296 39.449 22.2H43.0006C43.4424 22.2 43.8006 22.5581 43.8006 23V29C43.8006 29.4418 43.4424 29.8 43.0006 29.8H39.7474C39.3624 32.8336 36.9584 36.788 34.8006 37.6356V42C34.8006 42.4418 34.4424 42.8 34.0006 42.8H28.0006C27.5588 42.8 27.2006 42.4418 27.2006 42V39.8H18.8006V42C18.8006 42.4418 18.4424 42.8 18.0006 42.8H12.0006C11.5588 42.8 11.2006 42.4418 11.2006 42V38.5017C9.23352 37.3265 6.84783 33.3753 5.96967 29.4235C4.70774 23.7448 6.36374 18.6388 11.5569 15.3343C12.1153 14.962 12.6974 14.6329 13.303 14.3467C13.3871 14.8943 13.5217 15.4252 13.7018 15.9345C13.2627 16.1556 12.8389 16.4024 12.4301 16.6749C7.83796 19.5972 6.40613 24.012 7.53157 29.0764C8.3839 32.9119 10.8565 36.7753 12.2536 37.241C12.5803 37.3499 12.8006 37.6556 12.8006 38V41.2H17.2006V39C17.2006 38.5581 17.5588 38.2 18.0006 38.2H28.0006C28.4424 38.2 28.8006 38.5581 28.8006 39V41.2H33.2006V37C33.2006 36.5581 33.5588 36.2 34.0006 36.2C35.4174 36.2 38.2006 31.6772 38.2006 29C38.2006 28.5581 38.5588 28.2 39.0006 28.2H42.2006V23.8H39.0006C38.7196 23.8 38.4592 23.6525 38.3146 23.4116C36.4442 20.2943 34.6511 18.8 33.0006 18.8C32.5588 18.8 32.2006 18.4418 32.2006 18V13.4129L30.7036 14.3111Z" fill="#00C8C6"/>
<path fill-rule="evenodd" clip-rule="evenodd" d="M25.0045 20.2C27.8204 19.0232 29.7992 16.2427 29.7992 13C29.7992 8.69213 26.307 5.19995 21.9992 5.19995C17.6914 5.19995 14.1992 8.69213 14.1992 13C14.1992 16.2427 16.178 19.0232 18.9939 20.2H25.0045ZM21.9992 19.2C18.5751 19.2 15.7992 16.4241 15.7992 13C15.7992 9.57579 18.5751 6.79995 21.9992 6.79995C25.4234 6.79995 28.1992 9.57579 28.1992 13C28.1992 16.4241 25.4234 19.2 21.9992 19.2Z" fill="#001951"/>
<path d="M14.9992 21.8H28.9992C29.441 21.8 29.7992 21.4418 29.7992 21C29.7992 20.5581 29.441 20.2 28.9992 20.2H14.9992C14.5574 20.2 14.1992 20.5581 14.1992 21C14.1992 21.4418 14.5574 21.8 14.9992 21.8Z" fill="#99E9E9"/>
</svg>
