<svg width="48" height="48" viewBox="0 0 48 48" fill="none" xmlns="http://www.w3.org/2000/svg">
<path fill-rule="evenodd" clip-rule="evenodd" d="M20.9992 7.70001H26.9992C28.5456 7.70001 29.7992 8.95361 29.7992 10.5V14.2H28.1992V10.5C28.1992 9.83727 27.662 9.30001 26.9992 9.30001H20.9992C20.3365 9.30001 19.7992 9.83727 19.7992 10.5V14.2H18.1992V10.5C18.1992 8.95361 19.4528 7.70001 20.9992 7.70001Z" fill="#99E9E9"/>
<path fill-rule="evenodd" clip-rule="evenodd" d="M26.571 22.7619C27.2304 20.2596 26.2671 18.2934 23.5882 16.686L24.4114 15.314C27.8684 17.3883 29.09 20.2486 27.9656 23.6843L29.315 26.4134C29.4335 26.6532 29.4244 26.9363 29.2907 27.168L26.2907 32.3641C26.0698 32.7468 25.5805 32.8779 25.1978 32.6569L20.0017 29.6569C19.6191 29.436 19.488 28.9468 19.7089 28.5641L22.7089 23.368C22.8426 23.1363 23.0833 22.9868 23.3502 22.9696L26.571 22.7619ZM27.691 26.7388L25.305 30.8713L21.4945 28.6713L23.8804 24.5388L26.519 24.3686L27.691 26.7388Z" fill="#001951"/>
<path fill-rule="evenodd" clip-rule="evenodd" d="M39.9992 15.2H7.99922C6.45282 15.2 5.19922 16.4536 5.19922 18V39C5.19922 40.5464 6.45282 41.8 7.99922 41.8H39.9992C41.5456 41.8 42.7992 40.5464 42.7992 39V18C42.7992 16.4536 41.5456 15.2 39.9992 15.2ZM6.79922 18C6.79922 17.3373 7.33648 16.8 7.99922 16.8H13.6992V40.2H7.99922C7.33648 40.2 6.79922 39.6628 6.79922 39V18ZM15.2992 40.2V16.8H32.6992V40.2H15.2992ZM34.2992 40.2H39.9992C40.662 40.2 41.1992 39.6628 41.1992 39V18C41.1992 17.3373 40.662 16.8 39.9992 16.8H34.2992V40.2Z" fill="#00C8C6"/>
</svg>
