<svg viewBox="0 0 11 20" version="1.1" xmlns="http://www.w3.org/2000/svg" xmlns:xlink="http://www.w3.org/1999/xlink">
    <g id="HOME-+" stroke="none" stroke-width="1" fill="none" fill-rule="evenodd">
        <g id="home---design" transform="translate(-255.000000, -6125.000000)" fill="#33C8C3" fill-rule="nonzero">
            <g id="CTA-block-&amp;-footer" transform="translate(0.000000, 5249.000000)">
                <path d="M265.621612,876.825442 L263.211492,876.821619 C260.503805,876.821619 258.753978,878.596428 258.753978,881.343416 L258.753978,883.428267 L256.33071,883.428267 C256.121311,883.428267 255.951742,883.596095 255.951742,883.803108 L255.951742,886.82382 C255.951742,887.030834 256.121504,887.19847 256.33071,887.19847 L258.753978,887.19847 L258.753978,894.820688 C258.753978,895.027701 258.923547,895.195338 259.132946,895.195338 L262.294622,895.195338 C262.504021,895.195338 262.673589,895.02751 262.673589,894.820688 L262.673589,887.19847 L265.506955,887.19847 C265.716354,887.19847 265.885923,887.030834 265.885923,886.82382 L265.887083,883.803108 C265.887083,883.703711 265.847059,883.60852 265.7761,883.538177 C265.70514,883.467835 265.608464,883.428267 265.507922,883.428267 L262.673589,883.428267 L262.673589,881.660913 C262.673589,880.811451 262.878348,880.380221 263.997657,880.380221 L265.621225,880.379648 C265.830431,880.379648 266,880.21182 266,880.004998 L266,877.200092 C266,876.993461 265.830625,876.825824 265.621612,876.825442 Z" id="facebook"></path>
            </g>
        </g>
    </g>
</svg>