<svg viewBox="0 0 20 20" version="1.1" xmlns="http://www.w3.org/2000/svg" xmlns:xlink="http://www.w3.org/1999/xlink">
    <g id="HOME-+" stroke="none" stroke-width="1" fill="none" fill-rule="evenodd">
        <g id="home---design" transform="translate(-204.000000, -6125.000000)" fill="#33C8C3">
            <g id="CTA-block-&amp;-footer" transform="translate(0.000000, 5249.000000)">
                <g id="footer" transform="translate(100.000000, 804.000000)">
                    <path d="M114.451273,79.1849791 C112.890739,79.1849791 111.620072,80.4517063 111.620072,82.0081669 C111.620072,83.5652506 112.890739,84.8326008 114.451273,84.8326008 C116.012432,84.8326008 117.282475,83.5652506 117.282475,82.0081669 C117.282475,80.4517063 116.012432,79.1849791 114.451273,79.1849791 Z M114.451273,79.1849791 C112.890739,79.1849791 111.620072,80.4517063 111.620072,82.0081669 C111.620072,83.5652506 112.890739,84.8326008 114.451273,84.8326008 C116.012432,84.8326008 117.282475,83.5652506 117.282475,82.0081669 C117.282475,80.4517063 116.012432,79.1849791 114.451273,79.1849791 Z M119.16786,74.581021 L109.735312,74.581021 C108.229753,74.581021 107.00469,75.8028862 107.00469,77.3045155 L107.00469,86.7124414 C107.00469,88.2140707 108.229753,89.4359359 109.735312,89.4359359 L119.16786,89.4359359 C120.673419,89.4359359 121.898482,88.2140707 121.898482,86.7124414 L121.898482,77.3045155 C121.898482,75.8028862 120.673419,74.581021 119.16786,74.581021 Z M114.451273,86.8987431 C111.748139,86.8987431 109.548523,84.7048689 109.548523,82.0081669 C109.548523,79.312088 111.748139,77.1182138 114.451273,77.1182138 C117.155033,77.1182138 119.354649,79.312088 119.354649,82.0081669 C119.354649,84.7048689 117.155033,86.8987431 114.451273,86.8987431 Z M119.512077,78.129477 C118.87237,78.129477 118.351984,77.6104491 118.351984,76.9724124 C118.351984,76.3343757 118.87237,75.8153478 119.512077,75.8153478 C120.151783,75.8153478 120.67217,76.3343757 120.67217,76.9724124 C120.67217,77.6104491 120.151783,78.129477 119.512077,78.129477 Z M114.451273,79.1849791 C112.890739,79.1849791 111.620072,80.4517063 111.620072,82.0081669 C111.620072,83.5652506 112.890739,84.8326008 114.451273,84.8326008 C116.012432,84.8326008 117.282475,83.5652506 117.282475,82.0081669 C117.282475,80.4517063 116.012432,79.1849791 114.451273,79.1849791 Z M119.16786,74.581021 L109.735312,74.581021 C108.229753,74.581021 107.00469,75.8028862 107.00469,77.3045155 L107.00469,86.7124414 C107.00469,88.2140707 108.229753,89.4359359 109.735312,89.4359359 L119.16786,89.4359359 C120.673419,89.4359359 121.898482,88.2140707 121.898482,86.7124414 L121.898482,77.3045155 C121.898482,75.8028862 120.673419,74.581021 119.16786,74.581021 Z M114.451273,86.8987431 C111.748139,86.8987431 109.548523,84.7048689 109.548523,82.0081669 C109.548523,79.312088 111.748139,77.1182138 114.451273,77.1182138 C117.155033,77.1182138 119.354649,79.312088 119.354649,82.0081669 C119.354649,84.7048689 117.155033,86.8987431 114.451273,86.8987431 Z M119.512077,78.129477 C118.87237,78.129477 118.351984,77.6104491 118.351984,76.9724124 C118.351984,76.3343757 118.87237,75.8153478 119.512077,75.8153478 C120.151783,75.8153478 120.67217,76.3343757 120.67217,76.9724124 C120.67217,77.6104491 120.151783,78.129477 119.512077,78.129477 Z M114.451273,79.1849791 C112.890739,79.1849791 111.620072,80.4517063 111.620072,82.0081669 C111.620072,83.5652506 112.890739,84.8326008 114.451273,84.8326008 C116.012432,84.8326008 117.282475,83.5652506 117.282475,82.0081669 C117.282475,80.4517063 116.012432,79.1849791 114.451273,79.1849791 Z M123.970032,86.7124414 C123.970032,89.353689 121.81602,91.5020782 119.16786,91.5020782 L109.735312,91.5020782 C107.087152,91.5020782 104.93314,89.353689 104.93314,86.7124414 L104.93314,77.3045155 C104.93314,74.6632679 107.087152,72.5148787 109.735312,72.5148787 L119.16786,72.5148787 C121.81602,72.5148787 123.970032,74.6632679 123.970032,77.3045155 L123.970032,86.7124414 Z M119.16786,74.581021 L109.735312,74.581021 C108.229753,74.581021 107.00469,75.8028862 107.00469,77.3045155 L107.00469,86.7124414 C107.00469,88.2140707 108.229753,89.4359359 109.735312,89.4359359 L119.16786,89.4359359 C120.673419,89.4359359 121.898482,88.2140707 121.898482,86.7124414 L121.898482,77.3045155 C121.898482,75.8028862 120.673419,74.581021 119.16786,74.581021 Z M114.451273,86.8987431 C111.748139,86.8987431 109.548523,84.7048689 109.548523,82.0081669 C109.548523,79.312088 111.748139,77.1182138 114.451273,77.1182138 C117.155033,77.1182138 119.354649,79.312088 119.354649,82.0081669 C119.354649,84.7048689 117.155033,86.8987431 114.451273,86.8987431 Z M119.512077,78.129477 C118.87237,78.129477 118.351984,77.6104491 118.351984,76.9724124 C118.351984,76.3343757 118.87237,75.8153478 119.512077,75.8153478 C120.151783,75.8153478 120.67217,76.3343757 120.67217,76.9724124 C120.67217,77.6104491 120.151783,78.129477 119.512077,78.129477 Z M114.451273,79.1849791 C112.890739,79.1849791 111.620072,80.4517063 111.620072,82.0081669 C111.620072,83.5652506 112.890739,84.8326008 114.451273,84.8326008 C116.012432,84.8326008 117.282475,83.5652506 117.282475,82.0081669 C117.282475,80.4517063 116.012432,79.1849791 114.451273,79.1849791 Z M114.451273,79.1849791 C112.890739,79.1849791 111.620072,80.4517063 111.620072,82.0081669 C111.620072,83.5652506 112.890739,84.8326008 114.451273,84.8326008 C116.012432,84.8326008 117.282475,83.5652506 117.282475,82.0081669 C117.282475,80.4517063 116.012432,79.1849791 114.451273,79.1849791 Z M114.451273,79.1849791 C112.890739,79.1849791 111.620072,80.4517063 111.620072,82.0081669 C111.620072,83.5652506 112.890739,84.8326008 114.451273,84.8326008 C116.012432,84.8326008 117.282475,83.5652506 117.282475,82.0081669 C117.282475,80.4517063 116.012432,79.1849791 114.451273,79.1849791 Z M119.16786,74.581021 L109.735312,74.581021 C108.229753,74.581021 107.00469,75.8028862 107.00469,77.3045155 L107.00469,86.7124414 C107.00469,88.2140707 108.229753,89.4359359 109.735312,89.4359359 L119.16786,89.4359359 C120.673419,89.4359359 121.898482,88.2140707 121.898482,86.7124414 L121.898482,77.3045155 C121.898482,75.8028862 120.673419,74.581021 119.16786,74.581021 Z M114.451273,86.8987431 C111.748139,86.8987431 109.548523,84.7048689 109.548523,82.0081669 C109.548523,79.312088 111.748139,77.1182138 114.451273,77.1182138 C117.155033,77.1182138 119.354649,79.312088 119.354649,82.0081669 C119.354649,84.7048689 117.155033,86.8987431 114.451273,86.8987431 Z M119.512077,78.129477 C118.87237,78.129477 118.351984,77.6104491 118.351984,76.9724124 C118.351984,76.3343757 118.87237,75.8153478 119.512077,75.8153478 C120.151783,75.8153478 120.67217,76.3343757 120.67217,76.9724124 C120.67217,77.6104491 120.151783,78.129477 119.512077,78.129477 Z M114.451273,79.1849791 C112.890739,79.1849791 111.620072,80.4517063 111.620072,82.0081669 C111.620072,83.5652506 112.890739,84.8326008 114.451273,84.8326008 C116.012432,84.8326008 117.282475,83.5652506 117.282475,82.0081669 C117.282475,80.4517063 116.012432,79.1849791 114.451273,79.1849791 Z M114.451273,79.1849791 C112.890739,79.1849791 111.620072,80.4517063 111.620072,82.0081669 C111.620072,83.5652506 112.890739,84.8326008 114.451273,84.8326008 C116.012432,84.8326008 117.282475,83.5652506 117.282475,82.0081669 C117.282475,80.4517063 116.012432,79.1849791 114.451273,79.1849791 Z M114.451273,79.1849791 C112.890739,79.1849791 111.620072,80.4517063 111.620072,82.0081669 C111.620072,83.5652506 112.890739,84.8326008 114.451273,84.8326008 C116.012432,84.8326008 117.282475,83.5652506 117.282475,82.0081669 C117.282475,80.4517063 116.012432,79.1849791 114.451273,79.1849791 Z M119.16786,74.581021 L109.735312,74.581021 C108.229753,74.581021 107.00469,75.8028862 107.00469,77.3045155 L107.00469,86.7124414 C107.00469,88.2140707 108.229753,89.4359359 109.735312,89.4359359 L119.16786,89.4359359 C120.673419,89.4359359 121.898482,88.2140707 121.898482,86.7124414 L121.898482,77.3045155 C121.898482,75.8028862 120.673419,74.581021 119.16786,74.581021 Z M114.451273,86.8987431 C111.748139,86.8987431 109.548523,84.7048689 109.548523,82.0081669 C109.548523,79.312088 111.748139,77.1182138 114.451273,77.1182138 C117.155033,77.1182138 119.354649,79.312088 119.354649,82.0081669 C119.354649,84.7048689 117.155033,86.8987431 114.451273,86.8987431 Z M119.512077,78.129477 C118.87237,78.129477 118.351984,77.6104491 118.351984,76.9724124 C118.351984,76.3343757 118.87237,75.8153478 119.512077,75.8153478 C120.151783,75.8153478 120.67217,76.3343757 120.67217,76.9724124 C120.67217,77.6104491 120.151783,78.129477 119.512077,78.129477 Z M114.451273,79.1849791 C112.890739,79.1849791 111.620072,80.4517063 111.620072,82.0081669 C111.620072,83.5652506 112.890739,84.8326008 114.451273,84.8326008 C116.012432,84.8326008 117.282475,83.5652506 117.282475,82.0081669 C117.282475,80.4517063 116.012432,79.1849791 114.451273,79.1849791 Z" id="Social"></path>
                </g>
            </g>
        </g>
    </g>
</svg>