<svg viewBox="0 0 21 20" version="1.1" xmlns="http://www.w3.org/2000/svg" xmlns:xlink="http://www.w3.org/1999/xlink">
    <g id="HOME-+" stroke="none" stroke-width="1" fill="none" fill-rule="evenodd">
        <g id="home---design" transform="translate(-100.000000, -6125.000000)" fill="#33C8C3" fill-rule="nonzero">
            <g id="CTA-block-&amp;-footer" transform="translate(0.000000, 5249.000000)">
                <g id="Group" transform="translate(99.946640, 875.986450)">
                    <path d="M2.47300542,0.0135518 C3.78797274,0.0146233377 4.87249161,1.1012886 4.86965668,2.42350306 C4.86650676,3.80799277 3.71817042,4.85148137 2.45681481,4.82141528 C1.17744163,4.84732128 0.0531077205,3.77817881 0.0533597144,2.41436348 C0.0533597144,1.09164476 1.14209948,0.012543294 2.47300542,0.0135518 Z" id="Path"></path>
                    <path d="M3.87005976,20.0107139 L1.05270464,20.0107139 C0.687061447,20.0107139 0.390653588,19.7141501 0.390653588,19.3483146 L0.390653588,7.32301453 C0.390653588,6.95717896 0.687061447,6.66061515 1.05270464,6.66061515 L3.87005976,6.66061515 C4.23570295,6.66061515 4.53211081,6.95717896 4.53211081,7.32301453 L4.53211081,19.3483776 C4.53204781,19.7141501 4.23570295,20.0107139 3.87005976,20.0107139 Z" id="Path"></path>
                    <path d="M20.089208,10.8844276 C20.089208,8.36341458 18.0466082,6.31967708 15.5268579,6.31967708 L14.8042653,6.31967708 C13.4257325,6.31967708 12.2078459,7.00785639 11.4752995,8.0597282 C11.3954175,8.17438273 11.3214572,8.29344947 11.2535449,8.41636115 C11.2300464,8.41283138 11.2161238,8.41100346 11.2158088,8.41163377 L11.2158088,6.93555911 C11.2158088,6.78371592 11.0927728,6.66055212 10.9409464,6.66055212 L7.42594609,6.66055212 C7.27418275,6.66055212 7.15108371,6.78365289 7.15108371,6.93555911 L7.15108371,19.735833 C7.15108371,19.8876762 7.27405675,20.010777 7.4258201,20.01084 L11.0174266,20.0117224 C11.1692529,20.0117855 11.2923519,19.8886217 11.2923519,19.7367155 L11.2923519,12.3416558 C11.2923519,11.0633744 12.3113524,10.0019848 13.5888986,9.98755054 C14.2410589,9.98017584 14.8322997,10.241631 15.2584214,10.6682291 C15.6789363,11.0887131 15.938931,11.6701168 15.938931,12.3120309 L15.938931,19.7376609 C15.938931,19.8895041 16.061967,20.0126049 16.2136674,20.0126679 L19.8141566,20.0135504 C19.965983,20.0136134 20.089082,19.8904496 20.089082,19.7385434 L20.089082,10.8844276 L20.089208,10.8844276 Z" id="Path"></path>
                </g>
            </g>
        </g>
    </g>
</svg>