<svg width="360" height="97" viewBox="0 0 360 97" fill="none" xmlns="http://www.w3.org/2000/svg">
<g id="logo - smrtcare">
<g id="Group 12">
<g id="Group 8">
<path id="Combined Shape" fill-rule="evenodd" clip-rule="evenodd" d="M8.17821 13.1347C10.1768 10.0797 13.5955 8.65872 17.9341 9.39863C17.2448 5.34595 20.2191 1.59775 24.482 1.59775C28.6321 1.59775 30.7719 4.01131 30.7719 7.61521V31.4091V53.8734C30.7719 59.4411 22.6801 61.8389 19.3221 58.3963C19.1744 58.2449 19.0989 58.05 19.0949 57.854C18.0921 58.3869 16.864 58.6977 15.4713 58.6977C10.7277 58.6977 6.85286 54.4348 7.87543 49.5337C2.84519 48.407 0.200012 44.5401 0.200012 39.5595C0.200012 37.0584 1.67883 34.646 3.75743 32.9571C2.10558 32.0058 1.12976 29.8549 1.33655 27.5534C1.61286 24.4782 3.8296 22.211 7.4631 21.8347C6.16157 19.4315 6.3988 15.8545 8.17821 13.1347ZM21.4478 10.4042C20.8411 10.165 20.2472 9.96284 19.6671 9.7966C18.6701 6.44295 21.0063 3.19775 24.482 3.19775C27.7027 3.19775 29.1719 4.85495 29.1719 7.61521V31.4091V53.8734C29.1719 57.8989 22.8882 59.7609 20.4674 57.2791C20.3898 57.1995 20.2997 57.1396 20.2032 57.0993C21.8498 55.6782 22.4623 53.4888 21.5304 51.2799C21.3586 50.8729 20.8894 50.6821 20.4823 50.8538C20.0752 51.0256 19.8844 51.4948 20.0562 51.9019C21.1629 54.5248 19.1751 57.0977 15.4713 57.0977C11.6816 57.0977 8.60337 53.69 9.45768 49.7881C9.97663 49.841 10.5165 49.8682 11.0772 49.8682C11.519 49.8682 11.8772 49.51 11.8772 49.0682C11.8772 48.6264 11.519 48.2682 11.0772 48.2682C4.91262 48.2682 1.80001 44.6718 1.80001 39.5595C1.80001 37.2009 3.56151 34.8481 5.80656 33.4614C6.00909 33.4307 6.1867 33.324 6.30943 33.1714C7.43557 32.567 8.65435 32.2091 9.81756 32.2091C10.2594 32.2091 10.6176 31.8509 10.6176 31.4091C10.6176 30.9673 10.2594 30.6091 9.81756 30.6091C8.33067 30.6091 6.79009 31.0695 5.38919 31.8505C3.84853 31.6414 2.73968 29.8163 2.93013 27.6966C3.15895 25.1499 5.10376 23.3796 8.55791 23.3796C8.63854 23.3796 8.71638 23.3676 8.78978 23.3454C9.07102 23.4303 9.38867 23.3565 9.60381 23.1282C9.90679 22.8066 9.89171 22.3003 9.57013 21.9973C7.84342 20.3705 7.76212 16.6932 9.51713 14.0106C11.5942 10.8358 15.5344 9.79253 20.861 11.8927C21.272 12.0548 21.7366 11.853 21.8986 11.4419C22.0607 11.0309 21.8589 10.5663 21.4478 10.4042ZM16.5602 39.5619C16.5856 39.5796 16.6079 39.6019 16.6379 39.6319C16.7974 39.7689 16.8035 39.7773 17.0687 40.3843C17.3689 40.9638 17.7621 41.6016 18.1975 42.1621C19.5525 43.9067 20.6804 44.288 21.8116 42.9934C22.1024 42.6607 22.6078 42.6267 22.9405 42.9174C23.2732 43.2081 23.3072 43.7135 23.0165 44.0462C21.5459 45.7291 19.948 45.753 18.4528 44.6657C18.8573 46.9986 18.4129 48.8116 16.7509 49.7626C16.3674 49.982 15.8786 49.849 15.6592 49.4655C15.4398 49.082 15.5728 48.5933 15.9562 48.3738C17.4668 47.5095 17.1914 44.6639 15.6231 41.0718C15.6023 41.0314 15.582 40.9912 15.5621 40.9513C15.5049 40.8368 15.4558 40.7335 15.42 40.6528C15.4079 40.6253 15.402 40.6117 15.3962 40.598C15.3906 40.5846 15.3853 40.5711 15.3746 40.5444C15.371 40.535 15.3685 40.5286 15.3662 40.522C15.3609 40.5071 15.3564 40.492 15.3417 40.4424C15.3383 40.4323 15.3355 40.4241 15.3332 40.4158C15.3234 40.3801 15.3232 40.3418 15.3222 40.1384C15.3362 40.0328 15.3455 39.9623 15.375 39.9015C15.4343 39.7793 15.5749 39.6965 15.998 39.4474C16.3867 39.4978 16.4867 39.5108 16.5602 39.5619ZM20.7501 26.3637C20.7501 25.9218 20.3919 25.5637 19.9501 25.5637C19.5083 25.5637 19.1501 25.9218 19.1501 26.3637C19.1501 27.8667 19.7877 28.983 20.8573 29.7558C18.6206 30.3886 17.8351 31.8958 17.8351 35.1932C17.8351 35.635 18.1933 35.9932 18.6351 35.9932C19.0769 35.9932 19.4351 35.635 19.4351 35.1932C19.4351 31.7547 20.1889 31.0532 24.0654 30.9598C24.8725 31.0884 25.6903 31.1188 26.1541 31.0595C26.2226 31.0508 26.2847 31.0398 26.3444 31.0244C26.5046 30.9833 26.6231 30.9333 26.7645 30.7873C27.2162 30.3207 26.9796 29.7368 26.5665 29.51C26.4645 29.454 26.3762 29.4277 26.2705 29.407C26.0641 29.3666 25.7126 29.3477 25.2101 29.3477C24.8573 29.3477 24.5197 29.3515 24.1968 29.3596C22.0577 28.9865 20.7501 28.0217 20.7501 26.3637ZM14.7916 18.0572C14.9883 18.0155 15.2736 17.9955 15.6487 17.9955C15.7259 17.9955 15.8007 17.9962 15.8732 17.9977C16.9743 17.6321 17.6794 16.726 17.6794 15.0114C17.6794 14.5696 18.0376 14.2114 18.4794 14.2114C18.9212 14.2114 19.2794 14.5696 19.2794 15.0114C19.2794 16.5879 18.7886 17.7691 17.9744 18.5624C18.0847 18.6417 18.1934 18.7303 18.304 18.8289C18.6884 19.1715 18.9118 19.2568 19.8947 19.2568C20.3366 19.2568 20.6947 19.615 20.6947 20.0568C20.6947 20.4987 20.3366 20.8568 19.8947 20.8568C18.5188 20.8568 17.9166 20.6268 17.2395 20.0234C16.9194 19.7381 16.7109 19.6312 16.0826 19.6034C15.5393 19.7443 14.9909 19.7762 14.669 19.6806C14.5465 19.6442 14.4366 19.5924 14.322 19.4875C14.0345 19.2245 13.9557 18.7766 14.2018 18.4222C14.3728 18.176 14.5313 18.1125 14.7916 18.0572Z" fill="#001951"/>
</g>
<g id="Group">
<path id="Combined Shape_2" fill-rule="evenodd" clip-rule="evenodd" d="M35.8105 30.7542V14.4049C35.9406 14.4963 36.0991 14.55 36.2702 14.55H37.9895V17.5341C37.9895 17.9759 38.3477 18.3341 38.7895 18.3341H41.7684V21.3182C41.7684 21.76 42.1266 22.1182 42.5684 22.1182C43.0103 22.1182 43.3684 21.76 43.3684 21.3182V18.3341H50.586V21.3182C50.586 21.76 50.9442 22.1182 51.386 22.1182H57.6842C58.1261 22.1182 58.4842 21.76 58.4842 21.3182C58.4842 20.8764 58.1261 20.5182 57.6842 20.5182H52.186V17.5341C52.186 17.0923 51.8278 16.7341 51.386 16.7341H42.5684H39.5895V13.75C39.5895 13.3082 39.2313 12.95 38.7895 12.95H36.2702C36.0991 12.95 35.9406 13.0037 35.8105 13.0951V8.70454C35.8105 6.6234 36.7123 5.72045 38.7895 5.72045C39.2313 5.72045 39.5895 5.36228 39.5895 4.92045C39.5895 4.47863 39.2313 4.12045 38.7895 4.12045C35.8281 4.12045 34.2105 5.74023 34.2105 8.70454V41.5V55.375C34.2105 55.8168 34.5687 56.175 35.0105 56.175C35.4524 56.175 35.8105 55.8168 35.8105 55.375V42.3H40.0491C40.491 42.3 40.8491 41.9418 40.8491 41.5C40.8491 41.0582 40.491 40.7 40.0491 40.7H35.8105V32.0639C35.9406 32.1554 36.0991 32.2091 36.2702 32.2091H45.5474V37.7159C45.5474 38.1577 45.9056 38.5159 46.3474 38.5159H54.3649V42.7614C54.3649 43.2032 54.7231 43.5614 55.1649 43.5614H57.6842C58.1261 43.5614 58.4842 43.2032 58.4842 42.7614C58.4842 42.3195 58.1261 41.9614 57.6842 41.9614H55.9649V37.7159C55.9649 37.2741 55.6068 36.9159 55.1649 36.9159H47.1474V31.4091C47.1474 30.9673 46.7892 30.6091 46.3474 30.6091H36.2702C36.0991 30.6091 35.9406 30.6628 35.8105 30.7542ZM47.607 13.2886C47.1652 13.2886 46.807 12.9305 46.807 12.4886V5.72045H46.3474C45.9056 5.72045 45.5474 5.36228 45.5474 4.92045C45.5474 4.47863 45.9056 4.12045 46.3474 4.12045H47.607C48.0489 4.12045 48.407 4.47863 48.407 4.92045V8.04969C48.5371 7.95824 48.6956 7.90454 48.8667 7.90454H52.6456C53.0875 7.90454 53.4456 8.26272 53.4456 8.70454V11.6886H56.4246C56.8664 11.6886 57.2246 12.0468 57.2246 12.4886V15.4727H61.4632C61.905 15.4727 62.2632 15.8309 62.2632 16.2727V17.5341C62.2632 17.9759 61.905 18.3341 61.4632 18.3341C61.0213 18.3341 60.6632 17.9759 60.6632 17.5341V17.0727H56.4246C55.9827 17.0727 55.6246 16.7146 55.6246 16.2727V13.2886H52.6456C52.2038 13.2886 51.8456 12.9305 51.8456 12.4886V9.50454H48.8667C48.6956 9.50454 48.5371 9.45085 48.407 9.3594V12.4886C48.407 12.9305 48.0489 13.2886 47.607 13.2886ZM54.3649 50.3295C54.3649 49.8877 54.7231 49.5295 55.1649 49.5295H60.6632V46.5455C60.6632 46.1036 61.0213 45.7455 61.4632 45.7455C61.905 45.7455 62.2632 46.1036 62.2632 46.5455V50.3295C62.2632 50.7714 61.905 51.1295 61.4632 51.1295H55.1649C54.7231 51.1295 54.3649 50.7714 54.3649 50.3295ZM44.6281 57.0977V56.6364C44.6281 56.1945 44.2699 55.8364 43.8281 55.8364H42.5684C42.1266 55.8364 41.7684 56.1945 41.7684 56.6364C41.7684 57.0782 42.1266 57.4364 42.5684 57.4364H43.0281V57.8977C43.0281 58.3396 43.3863 58.6977 43.8281 58.6977H47.607C48.0489 58.6977 48.407 58.3396 48.407 57.8977V54.1136C48.407 53.6718 48.0489 53.3136 47.607 53.3136C47.1652 53.3136 46.807 53.6718 46.807 54.1136V57.0977H44.6281ZM45.0877 44.4841C45.5296 44.4841 45.8877 44.8423 45.8877 45.2841V45.7455H51.386C51.8278 45.7455 52.186 46.1036 52.186 46.5455V49.0682C52.186 49.51 51.8278 49.8682 51.386 49.8682C50.9442 49.8682 50.586 49.51 50.586 49.0682V47.3455H45.0877C44.6459 47.3455 44.2877 46.9873 44.2877 46.5455V45.2841C44.2877 44.8423 44.6459 44.4841 45.0877 44.4841ZM58.9439 26.825C58.502 26.825 58.1439 27.1832 58.1439 27.625V29.3477H54.7053V25.1023C54.7053 24.6604 54.3471 24.3023 53.9053 24.3023H47.607C47.1652 24.3023 46.807 24.6604 46.807 25.1023C46.807 25.5441 47.1652 25.9023 47.607 25.9023H53.1053V30.1477C53.1053 30.5896 53.4634 30.9477 53.9053 30.9477H58.1439V32.6705C58.1439 33.1123 58.502 33.4705 58.9439 33.4705H64.4421V36.9159H61.4632C61.0213 36.9159 60.6632 37.2741 60.6632 37.7159V38.9773C60.6632 39.4191 61.0213 39.7773 61.4632 39.7773C61.905 39.7773 62.2632 39.4191 62.2632 38.9773V38.5159H65.2421C65.6839 38.5159 66.0421 38.1577 66.0421 37.7159V32.6705C66.0421 32.2286 65.6839 31.8705 65.2421 31.8705H59.7439V30.1477V28.425H61.4632C61.905 28.425 62.2632 28.0668 62.2632 27.625V25.1023C62.2632 24.6604 61.905 24.3023 61.4632 24.3023C61.0213 24.3023 60.6632 24.6604 60.6632 25.1023V26.825H58.9439Z" fill="#99E9E9"/>
<path id="Combined Shape_3" fill-rule="evenodd" clip-rule="evenodd" d="M42.5684 0.336365C45.0976 0.336365 47.1474 2.38898 47.1474 4.92046C47.1474 7.45194 45.0976 9.50455 42.5684 9.50455C40.0393 9.50455 37.9895 7.45194 37.9895 4.92046C37.9895 2.38898 40.0393 0.336365 42.5684 0.336365ZM42.5684 7.90455C44.2134 7.90455 45.5474 6.56877 45.5474 4.92046C45.5474 3.27214 44.2134 1.93636 42.5684 1.93636C40.9235 1.93636 39.5895 3.27214 39.5895 4.92046C39.5895 6.56877 40.9235 7.90455 42.5684 7.90455ZM38.7895 52.0523C41.3186 52.0523 43.3684 54.1049 43.3684 56.6364C43.3684 59.1678 41.3186 61.2205 38.7895 61.2205C36.2604 61.2205 34.2105 59.1678 34.2105 56.6364C34.2105 54.1049 36.2604 52.0523 38.7895 52.0523ZM38.7895 59.6205C40.4345 59.6205 41.7684 58.2847 41.7684 56.6364C41.7684 54.9881 40.4345 53.6523 38.7895 53.6523C37.1445 53.6523 35.8105 54.9881 35.8105 56.6364C35.8105 58.2847 37.1445 59.6205 38.7895 59.6205ZM49.6667 41.5C49.6667 38.9685 47.6169 36.9159 45.0877 36.9159C42.5586 36.9159 40.5088 38.9685 40.5088 41.5C40.5088 44.0315 42.5586 46.0841 45.0877 46.0841C47.6169 46.0841 49.6667 44.0315 49.6667 41.5ZM48.0667 41.5C48.0667 43.1483 46.7327 44.4841 45.0877 44.4841C43.4427 44.4841 42.1088 43.1483 42.1088 41.5C42.1088 39.8517 43.4427 38.5159 45.0877 38.5159C46.7327 38.5159 48.0667 39.8517 48.0667 41.5ZM51.386 48.2682C53.9151 48.2682 55.9649 50.3208 55.9649 52.8523C55.9649 55.3838 53.9151 57.4364 51.386 57.4364C48.8569 57.4364 46.807 55.3838 46.807 52.8523C46.807 50.3208 48.8569 48.2682 51.386 48.2682ZM51.386 55.8364C53.031 55.8364 54.3649 54.5006 54.3649 52.8523C54.3649 51.204 53.031 49.8682 51.386 49.8682C49.741 49.8682 48.407 51.204 48.407 52.8523C48.407 54.5006 49.741 55.8364 51.386 55.8364ZM66.0421 21.3182C66.0421 18.7867 63.9923 16.7341 61.4632 16.7341C58.934 16.7341 56.8842 18.7867 56.8842 21.3182C56.8842 23.8497 58.934 25.9023 61.4632 25.9023C63.9923 25.9023 66.0421 23.8497 66.0421 21.3182ZM64.4421 21.3182C64.4421 22.9665 63.1082 24.3023 61.4632 24.3023C59.8182 24.3023 58.4842 22.9665 58.4842 21.3182C58.4842 19.6699 59.8182 18.3341 61.4632 18.3341C63.1082 18.3341 64.4421 19.6699 64.4421 21.3182ZM42.5684 20.5182C45.0976 20.5182 47.1474 22.5708 47.1474 25.1023C47.1474 27.6338 45.0976 29.6864 42.5684 29.6864C40.0393 29.6864 37.9895 27.6338 37.9895 25.1023C37.9895 22.5708 40.0393 20.5182 42.5684 20.5182ZM42.5684 28.0864C44.2134 28.0864 45.5474 26.7506 45.5474 25.1023C45.5474 23.454 44.2134 22.1182 42.5684 22.1182C40.9235 22.1182 39.5895 23.454 39.5895 25.1023C39.5895 26.7506 40.9235 28.0864 42.5684 28.0864ZM66.0421 42.7614C66.0421 40.2299 63.9923 38.1773 61.4632 38.1773C58.934 38.1773 56.8842 40.2299 56.8842 42.7614C56.8842 45.2928 58.934 47.3455 61.4632 47.3455C63.9923 47.3455 66.0421 45.2928 66.0421 42.7614ZM64.4421 42.7614C64.4421 44.4097 63.1082 45.7455 61.4632 45.7455C59.8182 45.7455 58.4842 44.4097 58.4842 42.7614C58.4842 41.1131 59.8182 39.7773 61.4632 39.7773C63.1082 39.7773 64.4421 41.1131 64.4421 42.7614Z" fill="#00C8C7"/>
</g>
</g>
<g id="Group 13">
<path id="byAimpointDigital" fill-rule="evenodd" clip-rule="evenodd" d="M105.713 81.7741C104.593 80.6304 103.17 80.0586 101.444 80.0586C99.7174 80.0586 98.2907 80.6304 97.1636 81.7741V76.1774H95.3445V91.8953H96.757L96.9924 90.2441C98.148 91.5164 99.6318 92.1526 101.444 92.1526C103.17 92.1526 104.593 91.5772 105.713 90.4264C106.833 89.2756 107.393 87.8354 107.393 86.1056C107.393 84.3615 106.833 82.9177 105.713 81.7741ZM103.477 89.8367C102.835 90.2084 102.107 90.3942 101.294 90.3942C100.809 90.3942 100.349 90.3228 99.9136 90.1798C99.4785 90.0368 99.0861 89.8367 98.7366 89.5794C98.387 89.3221 98.0838 89.0183 97.827 88.6681C97.5702 88.3178 97.374 87.9211 97.2385 87.478C97.1029 87.0348 97.0352 86.5773 97.0352 86.1056C97.0352 84.8905 97.4418 83.8719 98.255 83.0499C99.0683 82.2279 100.085 81.817 101.305 81.817C102.525 81.817 103.534 82.2244 104.333 83.0392C105.132 83.8541 105.531 84.8762 105.531 86.1056C105.531 86.9204 105.35 87.6531 104.986 88.3035C104.622 88.954 104.119 89.465 103.477 89.8367ZM118.586 80.3159H120.534L115.034 92.367C114.606 93.3105 114.185 94.0396 113.771 94.5542C113.357 95.0688 112.893 95.4441 112.38 95.68C111.866 95.9158 111.238 96.0338 110.497 96.0338H109.405V94.3827H110.347C111.117 94.3827 111.695 94.2254 112.08 93.9109C112.465 93.5964 112.893 92.9531 113.364 91.981L113.771 91.1019L108.635 80.3159H110.625L114.734 89.0862L118.586 80.3159ZM137.483 88.2928L138.981 91.8953H141.015L134.701 76.885H132.946L126.826 91.8953H128.816L130.293 88.2928H137.483ZM133.867 79.4796L130.999 86.5773H136.777L133.867 79.4796ZM143.133 76.2203V78.3003H145.102V76.2203H143.133ZM143.219 80.3159H145.038V91.8953H143.219V80.3159ZM163.593 80.6269C162.979 80.248 162.266 80.0586 161.453 80.0586C160.939 80.0586 160.436 80.148 159.944 80.3267C159.452 80.5053 158.999 80.7591 158.585 81.0879C158.171 81.4167 157.822 81.8098 157.536 82.2673C157.222 81.5811 156.759 81.0414 156.145 80.6483C155.532 80.2552 154.818 80.0586 154.005 80.0586C153.648 80.0586 153.292 80.1015 152.935 80.1873C152.578 80.273 152.243 80.3946 151.929 80.5518C151.615 80.7091 151.319 80.902 151.041 81.1308C150.763 81.3595 150.517 81.6168 150.303 81.9027L150.003 80.3159H148.698V91.8953H150.517V85.4837C150.517 84.9548 150.599 84.458 150.763 83.9934C150.927 83.5288 151.148 83.1321 151.426 82.8033C151.704 82.4745 152.033 82.2137 152.411 82.0207C152.789 81.8277 153.185 81.7312 153.598 81.7312C154.426 81.7312 155.072 82.0242 155.535 82.6104C155.999 83.1965 156.231 84.0113 156.231 85.0549V91.8953H158.007V85.4837C158.007 84.4259 158.31 83.536 158.917 82.8141C159.523 82.0921 160.247 81.7312 161.089 81.7312C161.631 81.7312 162.098 81.8634 162.491 82.1279C162.883 82.3923 163.183 82.7747 163.39 83.2751C163.596 83.7754 163.7 84.3687 163.7 85.0549V91.8953H165.519V84.4974C165.519 83.6396 165.351 82.8748 165.016 82.2029C164.681 81.531 164.206 81.0057 163.593 80.6269ZM175.149 80.0586C176.876 80.0586 178.299 80.6304 179.419 81.7741C180.539 82.9177 181.099 84.3615 181.099 86.1056C181.099 87.8354 180.539 89.2756 179.419 90.4264C178.299 91.5772 176.876 92.1526 175.149 92.1526C173.409 92.1526 171.975 91.5522 170.848 90.3513V96.0338H169.029V80.3159H170.27L170.634 82.0957C171.176 81.4524 171.836 80.9521 172.613 80.5947C173.391 80.2373 174.236 80.0586 175.149 80.0586ZM178.06 89.172C177.261 89.9868 176.248 90.3942 175.021 90.3942C174.222 90.3942 173.494 90.2084 172.838 89.8367C172.182 89.465 171.672 88.9504 171.308 88.2928C170.944 87.6352 170.762 86.9061 170.762 86.1056C170.762 84.8905 171.165 83.8719 171.971 83.0499C172.778 82.2279 173.794 81.817 175.021 81.817C176.248 81.817 177.261 82.2244 178.06 83.0392C178.859 83.8541 179.259 84.8762 179.259 86.1056C179.259 87.335 178.859 88.3571 178.06 89.172ZM189.06 92.1526C187.919 92.1526 186.877 91.8917 185.936 91.3699C184.994 90.8481 184.259 90.1262 183.731 89.2041C183.203 88.2821 182.94 87.2492 182.94 86.1056C182.94 84.3615 183.521 82.9177 184.684 81.7741C185.847 80.6304 187.305 80.0586 189.06 80.0586C190.216 80.0586 191.261 80.3195 192.196 80.8413C193.13 81.3631 193.865 82.085 194.4 83.0071C194.935 83.9291 195.202 84.9619 195.202 86.1056C195.202 87.8354 194.617 89.2756 193.448 90.4264C192.278 91.5772 190.815 92.1526 189.06 92.1526ZM189.071 90.3942C187.837 90.3942 186.813 89.994 186 89.1934C185.201 88.3786 184.801 87.3493 184.801 86.1056C184.801 84.8619 185.204 83.8362 186.011 83.0285C186.817 82.2208 187.837 81.817 189.071 81.817C190.305 81.817 191.325 82.2208 192.131 83.0285C192.937 83.8362 193.34 84.8619 193.34 86.1056C193.34 87.3493 192.937 88.375 192.131 89.1827C191.325 89.9904 190.305 90.3942 189.071 90.3942ZM197.878 78.3003V76.2203H199.846V78.3003H197.878ZM199.782 80.3159H197.963V91.8953H199.782V80.3159ZM209.22 80.0586C210.576 80.0586 211.656 80.5161 212.462 81.431C213.269 82.3459 213.672 83.5253 213.672 84.9691V91.8953H211.853V85.398C211.853 84.6117 211.735 83.947 211.499 83.4038C211.264 82.8605 210.914 82.446 210.451 82.16C209.987 81.8741 209.42 81.7312 208.749 81.7312C207.765 81.7312 206.937 82.0993 206.267 82.8355C205.596 83.5717 205.261 84.4831 205.261 85.5695V91.8953H203.442V80.3159H204.726L205.09 82.1386C205.375 81.6954 205.725 81.3202 206.138 81.0128C206.552 80.7055 207.023 80.4696 207.551 80.3052C208.079 80.1408 208.635 80.0586 209.22 80.0586ZM223.217 90.2012H221.954C221.44 90.2012 221.002 90.1083 220.638 89.9225C220.274 89.7366 219.999 89.465 219.814 89.1076C219.628 88.7502 219.536 88.3071 219.536 87.7782V81.9671H223.152V80.3159H219.536V77.8714H219.257L215.683 81.6454V81.9671H217.716V87.8425C217.716 89.1005 218.073 90.0904 218.786 90.8124C219.5 91.5343 220.477 91.8953 221.718 91.8953H223.217V90.2012ZM236.464 76.885C238.661 76.885 240.477 77.5926 241.91 79.0079C243.344 80.4232 244.061 82.2172 244.061 84.3901C244.061 86.5631 243.344 88.3571 241.91 89.7724C240.477 91.1876 238.661 91.8953 236.464 91.8953H231.477V76.885H236.464ZM240.53 88.5072C239.46 89.5937 238.083 90.1369 236.4 90.1369H233.339V78.6434H236.4C237.513 78.6434 238.504 78.89 239.374 79.3832C240.245 79.8764 240.922 80.559 241.408 81.431C241.893 82.303 242.135 83.2894 242.135 84.3901C242.135 86.0484 241.6 87.4208 240.53 88.5072ZM246.865 78.3003V76.2203H248.834V78.3003H246.865ZM248.77 80.3159H246.95V91.8953H248.77V80.3159ZM261.974 80.3159H263.194V90.2656C263.194 92.1383 262.687 93.6107 261.674 94.6829C260.661 95.755 259.278 96.2911 257.523 96.2911C256.11 96.2911 254.922 95.9409 253.959 95.2404C252.996 94.5399 252.358 93.575 252.044 92.3456H253.863C254.12 93.0603 254.58 93.6179 255.243 94.0181C255.907 94.4184 256.667 94.6185 257.523 94.6185C258.693 94.6185 259.631 94.2504 260.337 93.5142C261.043 92.778 261.396 91.7737 261.396 90.5014V89.7938C260.298 90.9518 258.899 91.5307 257.202 91.5307C255.589 91.5307 254.238 90.9803 253.146 89.8796C252.055 88.7788 251.509 87.4208 251.509 85.8054C251.509 84.7475 251.759 83.779 252.258 82.8998C252.757 82.0207 253.442 81.3273 254.312 80.8198C255.183 80.3124 256.146 80.0586 257.202 80.0586C258.1 80.0586 258.939 80.2409 259.716 80.6054C260.494 80.97 261.147 81.4739 261.674 82.1172L261.974 80.3159ZM259.449 89.2577C258.835 89.6008 258.15 89.7724 257.394 89.7724C256.239 89.7724 255.279 89.3936 254.516 88.6359C253.752 87.8782 253.371 86.9347 253.371 85.8054C253.371 84.6617 253.752 83.7111 254.516 82.9534C255.279 82.1958 256.239 81.817 257.394 81.817C258.55 81.817 259.506 82.1922 260.262 82.9427C261.018 83.6932 261.396 84.6474 261.396 85.8054C261.396 86.5631 261.225 87.2421 260.883 87.8425C260.54 88.4429 260.062 88.9146 259.449 89.2577ZM266.768 78.3003V76.2203H268.737V78.3003H266.768ZM268.673 80.3159H266.854V91.8953H268.673V80.3159ZM277.105 90.2012H278.367V91.8953H276.869C275.628 91.8953 274.651 91.5343 273.937 90.8124C273.224 90.0904 272.867 89.1005 272.867 87.8425V81.9671H270.834V81.6454L274.408 77.8714H274.686V80.3159H278.303V81.9671H274.686V87.7782C274.686 88.3071 274.779 88.7502 274.965 89.1076C275.15 89.465 275.425 89.7366 275.789 89.9225C276.152 90.1083 276.591 90.2012 277.105 90.2012ZM292.107 80.3159H290.652L290.416 82.0957C289.874 81.4524 289.214 80.9521 288.437 80.5947C287.659 80.2373 286.799 80.0586 285.858 80.0586C284.16 80.0586 282.74 80.634 281.599 81.7848C280.458 82.9356 279.887 84.3758 279.887 86.1056C279.887 87.8354 280.458 89.2756 281.599 90.4264C282.74 91.5772 284.16 92.1526 285.858 92.1526C286.785 92.1526 287.638 91.9775 288.415 91.6272C289.193 91.277 289.853 90.7802 290.395 90.1369L290.587 91.8953H292.107V80.3159ZM282.947 89.172C283.76 89.9868 284.781 90.3942 286.008 90.3942C287.235 90.3942 288.248 89.9868 289.047 89.172C289.846 88.3571 290.245 87.335 290.245 86.1056C290.245 84.8762 289.846 83.8541 289.047 83.0392C288.248 82.2244 287.235 81.817 286.008 81.817C284.781 81.817 283.764 82.2279 282.958 83.0499C282.152 83.8719 281.749 84.8905 281.749 86.1056C281.749 87.3207 282.148 88.3428 282.947 89.172ZM295.767 76.1774V91.8953H297.586V76.1774H295.767Z" fill="#04102D"/>
<path id="SmrCare" fill-rule="evenodd" clip-rule="evenodd" d="M245.234 59.4946C241.487 59.4946 238.075 58.6119 234.996 56.8464C231.917 55.0809 229.506 52.6464 227.762 49.5428C226.019 46.4393 225.147 42.9919 225.147 39.2008C225.147 33.4025 227.067 28.5521 230.906 24.6494C234.745 20.7468 239.521 18.7954 245.234 18.7954C249.982 18.7954 254.081 20.2264 257.531 23.0884C260.981 25.9503 263.17 29.7043 264.097 34.3503H255.639C255.12 32.8264 254.36 31.4977 253.358 30.364C252.356 29.2304 251.16 28.357 249.769 27.7437C248.378 27.1304 246.866 26.8238 245.234 26.8238C241.933 26.8238 239.178 28.0038 236.971 30.364C234.764 32.7242 233.66 35.6605 233.66 39.1729C233.66 42.6853 234.764 45.6123 236.971 47.9539C239.178 50.2955 241.933 51.4663 245.234 51.4663C247.794 51.4663 250.001 50.7415 251.856 49.2919C253.71 47.8424 254.99 45.8725 255.695 43.3822H264.208C263.318 48.2141 261.139 52.1074 257.67 55.0623C254.202 58.0172 250.057 59.4946 245.234 59.4946ZM94.5805 55.8428C97.3441 58.2402 100.989 59.4388 105.514 59.4388C108.296 59.4388 110.773 58.9928 112.943 58.1008C115.113 57.2088 116.884 55.7964 118.257 53.8636C119.629 51.9309 120.315 49.6079 120.315 46.8946C120.315 45.7052 120.158 44.5995 119.842 43.5773C119.527 42.5552 119.156 41.6818 118.73 40.957C118.303 40.2322 117.682 39.5632 116.866 38.9499C116.049 38.3366 115.335 37.8441 114.723 37.4725C114.111 37.1008 113.249 36.7198 112.136 36.3295C111.023 35.9393 110.17 35.6605 109.576 35.4932C108.983 35.326 108.092 35.0937 106.905 34.7963L104.485 34.2109C103.947 34.0809 103.289 33.8764 102.51 33.5977C101.731 33.3189 101.156 33.0401 100.785 32.7614C100.414 32.4826 100.089 32.1295 99.8109 31.7021C99.5327 31.2747 99.3936 30.7822 99.3936 30.2247C99.3936 29.0353 99.9407 28.1247 101.035 27.4928C102.129 26.8609 103.418 26.545 104.902 26.545C106.572 26.545 107.972 26.9631 109.103 27.7994C110.235 28.6357 110.8 29.853 110.8 31.4512H119.147C119.147 27.5485 117.913 24.4822 115.447 22.2521C112.98 20.022 109.539 18.9069 105.125 18.9069C100.748 18.9069 97.2977 19.9291 94.7752 21.9733C92.2527 24.0176 90.9915 26.8981 90.9915 30.6149C90.9915 31.507 91.0842 32.3525 91.2697 33.1517C91.4552 33.9508 91.6778 34.657 91.9374 35.2702C92.1971 35.8835 92.5773 36.4689 93.0781 37.0264C93.5789 37.584 94.0333 38.0486 94.4414 38.4202C94.8494 38.7919 95.4244 39.1636 96.1663 39.5353C96.9082 39.907 97.511 40.195 97.9747 40.3994C98.4384 40.6039 99.1061 40.8362 99.9778 41.0963C100.85 41.3565 101.508 41.5424 101.953 41.6539L103.956 42.1556C105.069 42.4158 105.904 42.6202 106.46 42.7689C107.017 42.9176 107.694 43.1406 108.491 43.4379C109.289 43.7353 109.882 44.0233 110.272 44.3021C110.661 44.5809 111.004 44.9525 111.301 45.4172C111.598 45.8818 111.746 46.4114 111.746 47.0061C111.746 48.4185 111.125 49.5335 109.882 50.3512C108.64 51.1689 107.165 51.5778 105.459 51.5778C104.605 51.5778 103.789 51.4663 103.01 51.2433C102.231 51.0203 101.536 50.6857 100.924 50.2397C100.312 49.7937 99.8295 49.2083 99.4771 48.4835C99.1247 47.7587 98.9484 46.9318 98.9484 46.0025H90.4351C90.4351 50.1654 91.8168 53.4455 94.5805 55.8428ZM168.308 31.1724C166.323 28.9423 163.773 27.8273 160.657 27.8273C160.026 27.8273 159.405 27.8831 158.793 27.9946C158.18 28.1061 157.587 28.2547 157.012 28.4406C156.437 28.6264 155.89 28.8587 155.371 29.1375C154.851 29.4163 154.35 29.7322 153.868 30.0853C153.386 30.4384 152.941 30.8286 152.533 31.2561C152.125 31.6835 151.735 32.1574 151.364 32.6778C150.511 31.1539 149.324 29.9645 147.803 29.1096C146.282 28.2547 144.576 27.8273 142.684 27.8273C140.94 27.8273 139.28 28.2269 137.704 29.026C136.127 29.8251 134.783 30.9123 133.67 32.2875L132.167 28.5521H126.492V58.6583H134.616V42.3787C134.616 40.037 135.135 38.2158 136.174 36.9149C137.212 35.614 138.659 34.9636 140.514 34.9636C143.444 34.9636 144.91 37.0078 144.91 41.0963V58.6583H152.867V42.3787C152.867 40.8176 153.089 39.4795 153.534 38.3645C153.979 37.2494 154.638 36.4039 155.51 35.8278C156.381 35.2516 157.411 34.9636 158.598 34.9636C161.64 34.9636 163.161 37.0078 163.161 41.0963V58.6583H171.284V39.7583C171.284 36.2645 170.292 33.4025 168.308 31.1724ZM217.746 51.1318H221.196V58.6583H216.689C212.98 58.6583 210.04 57.5619 207.87 55.3689C205.7 53.176 204.615 50.2397 204.615 46.5601V35.4654H198.104V28.5521H204.615V20.1335H212.739V28.5521H221.085V35.4654H212.739V46.1141C212.739 47.7495 213.165 48.9946 214.018 49.8495C214.872 50.7043 216.114 51.1318 217.746 51.1318ZM194.042 28.4406C190.296 28.4406 187.402 29.7229 185.362 32.2875L183.915 28.5521H178.685V58.6583H186.809V42.8804C186.809 40.4273 187.3 38.6525 188.283 37.5561C189.266 36.4596 190.908 35.9114 193.208 35.9114H196.046V28.4406H194.042ZM300.321 28.4963H294.256L293.365 31.3955C290.62 28.9423 287.337 27.7158 283.517 27.7158C278.991 27.7158 275.235 29.2211 272.249 32.2317C269.263 35.2424 267.77 39.0149 267.77 43.5494C267.77 48.1212 269.263 51.9216 272.249 54.9508C275.235 57.98 278.991 59.4946 283.517 59.4946C287.263 59.4946 290.509 58.3052 293.254 55.9265L293.922 58.6026H300.321V28.4963ZM278.286 49.4592C279.844 51.0203 281.801 51.8008 284.156 51.8008C286.512 51.8008 288.469 51.0203 290.027 49.4592C291.585 47.8981 292.364 45.9282 292.364 43.5494C292.364 41.1707 291.585 39.2008 290.027 37.6397C288.469 36.0786 286.521 35.2981 284.184 35.2981C282.626 35.2981 281.226 35.6605 279.983 36.3853C278.74 37.1101 277.767 38.095 277.062 39.3402C276.357 40.5853 276.005 41.9884 276.005 43.5494C276.005 45.9282 276.765 47.8981 278.286 49.4592ZM326.139 28.3848H323.468C319.722 28.3848 316.828 29.6671 314.788 32.2317L313.341 28.5521H308.111V58.6583H316.235V42.9919C316.235 40.5388 316.726 38.7733 317.709 37.6955C318.692 36.6176 320.334 36.0786 322.634 36.0786H326.139V28.3848ZM359.914 43.4937C359.914 44.2742 359.859 45.0733 359.748 45.891H337.045C337.379 47.9353 338.186 49.5056 339.466 50.6021C340.745 51.6986 342.387 52.2468 344.39 52.2468C345.763 52.2468 347.005 51.9402 348.118 51.3269C349.231 50.7136 350.103 49.868 350.733 48.7902H359.302C358.19 52.061 356.298 54.6627 353.627 56.5955C350.956 58.5282 347.877 59.4946 344.39 59.4946C339.939 59.4946 336.229 57.9707 333.261 54.9229C330.294 51.8751 328.81 48.1026 328.81 43.6052C328.81 41.8211 329.06 40.1114 329.561 38.476C330.062 36.8406 330.785 35.3725 331.731 34.0716C332.677 32.7707 333.781 31.6463 335.042 30.6986C336.303 29.7508 337.731 29.0167 339.327 28.4963C340.922 27.976 342.609 27.7158 344.39 27.7158C347.395 27.7158 350.093 28.422 352.486 29.8344C354.879 31.2468 356.715 33.1609 357.995 35.5769C359.275 37.9928 359.914 40.6317 359.914 43.4937ZM339.799 36.1344C341.042 35.1309 342.572 34.6291 344.39 34.6291C345.577 34.6291 346.662 34.8521 347.645 35.2981C348.628 35.7441 349.472 36.3853 350.177 37.2216C350.882 38.0579 351.42 39.0893 351.791 40.3158H337.268C337.713 38.5317 338.557 37.1379 339.799 36.1344Z" fill="#06214C"/>
</g>
</g>
</svg>
