<svg width="171" height="40" viewBox="0 0 171 40" fill="none" xmlns="http://www.w3.org/2000/svg">
<path d="M19.5 13.5L15.5 20H23.5L19.5 13.5Z" fill="url(#paint0_linear)"/>
<path fill-rule="evenodd" clip-rule="evenodd" d="M27.0054 16.0527L31.3495 2L25.6559 5.49553L19.7419 3.50894L27.0054 16.0527ZM14.2258 12.5083L7.10215 25.1335L5.84409 18.9674L0 15.7324L14.2258 12.5083ZM32 25.09L27.3441 29.2695L27.4892 36L17.6075 25.1715L32 25.09Z" fill="#06214C"/>
<path fill-rule="evenodd" clip-rule="evenodd" d="M72.1743 3.53706V0H75.9554V3.53706H72.1743ZM64.6122 15.9948L65.8812 19.4538H70.1284L62.7993 1.24837H59.096L52 19.4538H56.1436L57.3867 15.9948H64.6122ZM58.6298 12.5618L60.9865 6.05982L63.3691 12.5618H58.6298ZM72.1743 5.40962V19.4538H75.9554V5.40962H72.1743ZM95.4823 5.07152C96.9325 5.07152 98.1195 5.59167 99.0432 6.63199C99.9669 7.67231 100.429 9.00736 100.429 10.6372V19.4538H96.6477V11.2614C96.6477 9.35413 95.9398 8.40052 94.524 8.40052C93.9716 8.40052 93.4925 8.53489 93.0867 8.80364C92.681 9.07239 92.3745 9.46684 92.1674 9.987C91.9602 10.5072 91.8566 11.1313 91.8566 11.8596V19.4538H88.1532V11.2614C88.1532 9.35413 87.4712 8.40052 86.1073 8.40052C85.244 8.40052 84.5707 8.70394 84.0873 9.31079C83.6038 9.91764 83.3621 10.7672 83.3621 11.8596V19.4538H79.5811V5.40962H82.2226L82.9219 7.15215C83.4398 6.51062 84.0657 6.00347 84.7995 5.63069C85.5332 5.25791 86.3058 5.07152 87.1173 5.07152C87.9978 5.07152 88.792 5.27091 89.4999 5.6697C90.2078 6.06849 90.7602 6.62332 91.1573 7.3342C91.33 7.09146 91.5113 6.8704 91.7012 6.671C91.8911 6.47161 92.0983 6.28955 92.3227 6.12484C92.5472 5.96012 92.7803 5.81274 93.022 5.6827C93.2637 5.55266 93.5184 5.4443 93.786 5.35761C94.0536 5.27091 94.3298 5.20156 94.6147 5.14954C94.8996 5.09753 95.1888 5.07152 95.4823 5.07152ZM116.757 7.12614C115.367 5.72171 113.619 5.01951 111.513 5.01951C109.769 5.01951 108.276 5.57433 107.033 6.68401L106.385 5.40962H103.873V24.5254H107.654V18.6996C108.794 19.4798 110.08 19.87 111.513 19.87C113.602 19.87 115.346 19.1634 116.744 17.7503C118.143 16.3372 118.842 14.5644 118.842 12.4317C118.842 10.2991 118.147 8.53057 116.757 7.12614ZM108.457 15.1886C109.182 15.9168 110.093 16.2809 111.189 16.2809C112.286 16.2809 113.196 15.9168 113.921 15.1886C114.647 14.4603 115.009 13.5414 115.009 12.4317C115.009 11.7035 114.845 11.0447 114.517 10.4551C114.189 9.86562 113.736 9.40616 113.157 9.07672C112.579 8.74729 111.927 8.58257 111.202 8.58257C110.477 8.58257 109.821 8.74729 109.234 9.07672C108.647 9.40616 108.194 9.86562 107.874 10.4551C107.555 11.0447 107.395 11.7035 107.395 12.4317C107.395 13.5414 107.749 14.4603 108.457 15.1886ZM124.306 18.8817C125.463 19.5232 126.758 19.844 128.191 19.844C130.332 19.844 132.123 19.1374 133.565 17.7243C135.007 16.3112 135.727 14.547 135.727 12.4317C135.727 10.2991 135.011 8.53057 133.578 7.12614C132.145 5.72171 130.349 5.01951 128.191 5.01951C126.016 5.01951 124.211 5.72171 122.778 7.12614C121.345 8.53057 120.629 10.2991 120.629 12.4317C120.629 13.8188 120.953 15.0802 121.6 16.2159C122.248 17.3515 123.15 18.2401 124.306 18.8817ZM128.191 16.2809C129.279 16.2809 130.168 15.9211 130.859 15.2016C131.549 14.482 131.894 13.5587 131.894 12.4317C131.894 11.3047 131.549 10.3815 130.859 9.6619C130.168 8.94235 129.274 8.58257 128.178 8.58257C127.082 8.58257 126.188 8.94235 125.498 9.6619C124.807 10.3815 124.462 11.3047 124.462 12.4317C124.462 12.9866 124.552 13.5067 124.734 13.9922C124.915 14.4777 125.17 14.8851 125.498 15.2146C125.826 15.544 126.219 15.8041 126.676 15.9948C127.134 16.1855 127.639 16.2809 128.191 16.2809ZM138.447 0V3.53706H142.228V0H138.447ZM138.447 5.40962H142.228V19.4538H138.447V5.40962ZM157.598 6.671C156.674 5.60468 155.418 5.07152 153.83 5.07152C153.346 5.07152 152.885 5.1192 152.444 5.21456C152.004 5.30993 151.585 5.44863 151.188 5.63069C150.791 5.81274 150.424 6.02947 150.088 6.28088C149.751 6.53229 149.453 6.82271 149.194 7.15215L148.443 5.40962H145.853V19.4538H149.634V12.0676C149.634 11.3221 149.76 10.6719 150.01 10.117C150.26 9.5622 150.623 9.13741 151.098 8.84265C151.572 8.5479 152.129 8.40052 152.768 8.40052C154.391 8.40052 155.202 9.44949 155.202 11.5475V19.4538H158.983V10.9493C158.983 9.16341 158.522 7.73733 157.598 6.671ZM169.291 16.0728H171V19.4538H168.333C167.314 19.4538 166.429 19.2544 165.678 18.8557C164.927 18.4569 164.353 17.8804 163.956 17.1261C163.559 16.3719 163.36 15.4746 163.36 14.4343V8.45254H160.822V7.64629L166.364 1.74252H167.064V5.40962H170.922V8.45254H167.141V13.9402C167.141 14.6164 167.327 15.1409 167.698 15.5137C168.069 15.8864 168.6 16.0728 169.291 16.0728ZM169.602 37.3342V27.8023H170.702V37.3342H169.602ZM140.013 27.8284V29.0897H141.205V27.8284H140.013ZM133.72 28.2315C135.05 28.2315 136.148 28.6606 137.016 29.5189C137.883 30.3771 138.317 31.4651 138.317 32.7828C138.317 34.1006 137.883 35.1886 137.016 36.0468C136.148 36.9051 135.05 37.3342 133.72 37.3342H130.703V28.2315H133.72ZM133.681 36.2679C134.7 36.2679 135.533 35.9385 136.181 35.2796C136.828 34.6207 137.152 33.7885 137.152 32.7828C137.152 32.1153 137.005 31.5171 136.711 30.9883C136.418 30.4595 136.008 30.0455 135.481 29.7464C134.955 29.4473 134.355 29.2978 133.681 29.2978H131.83V36.2679H133.681ZM140.065 37.3342V30.3121H141.166V37.3342H140.065ZM149.893 30.3121H149.155L148.974 31.4044C148.655 31.0143 148.26 30.7087 147.789 30.4876C147.319 30.2666 146.812 30.156 146.268 30.156C145.629 30.156 145.046 30.3099 144.52 30.6177C143.993 30.9254 143.579 31.3459 143.276 31.8791C142.974 32.4122 142.823 32.9996 142.823 33.6411C142.823 34.6207 143.153 35.4443 143.814 36.1118C144.474 36.7794 145.292 37.1131 146.268 37.1131C147.295 37.1131 148.141 36.762 148.806 36.0598V36.4889C148.806 37.2605 148.592 37.8695 148.165 38.316C147.737 38.7625 147.17 38.9857 146.462 38.9857C145.944 38.9857 145.484 38.8643 145.083 38.6216C144.681 38.3788 144.403 38.0407 144.248 37.6073H143.147C143.337 38.3528 143.723 38.938 144.306 39.3628C144.889 39.7876 145.607 40 146.462 40C147.524 40 148.361 39.6749 148.974 39.0247C149.587 38.3745 149.893 37.4816 149.893 36.3459V30.3121ZM146.384 36.0468C146.842 36.0468 147.256 35.9428 147.627 35.7347C147.999 35.5267 148.288 35.2406 148.495 34.8765C148.702 34.5124 148.806 34.1006 148.806 33.6411C148.806 32.9389 148.577 32.3602 148.119 31.9051C147.662 31.4499 147.083 31.2224 146.384 31.2224C145.685 31.2224 145.104 31.4521 144.643 31.9116C144.181 32.371 143.95 32.9475 143.95 33.6411C143.95 34.326 144.181 34.8981 144.643 35.3576C145.104 35.8171 145.685 36.0468 146.384 36.0468ZM152.056 27.8284V29.0897H153.247V27.8284H152.056ZM152.108 37.3342V30.3121H153.208V37.3342H152.108ZM159.074 36.3069H158.31C157.999 36.3069 157.734 36.2505 157.514 36.1378C157.294 36.0251 157.127 35.8604 157.015 35.6437C156.903 35.427 156.847 35.1582 156.847 34.8375V31.3134H159.035V30.3121H156.847V28.8296H156.679L154.516 31.1183V31.3134H155.746V34.8765C155.746 35.6394 155.962 36.2397 156.394 36.6775C156.825 37.1153 157.417 37.3342 158.168 37.3342H159.074V36.3069ZM166.507 30.3121H167.387V37.3342H166.468L166.351 36.2679C166.023 36.658 165.624 36.9593 165.154 37.1717C164.683 37.384 164.167 37.4902 163.606 37.4902C162.579 37.4902 161.72 37.1413 161.029 36.4434C160.339 35.7456 159.993 34.8721 159.993 33.8231C159.993 32.7742 160.339 31.9007 161.029 31.2029C161.72 30.505 162.579 30.156 163.606 30.156C164.176 30.156 164.696 30.2644 165.167 30.4811C165.637 30.6979 166.036 31.0013 166.364 31.3914L166.507 30.3121ZM163.697 36.4239C162.954 36.4239 162.337 36.1769 161.845 35.6827C161.362 35.1799 161.12 34.56 161.12 33.8231C161.12 33.0863 161.364 32.4686 161.852 31.9701C162.339 31.4716 162.954 31.2224 163.697 31.2224C164.439 31.2224 165.052 31.4694 165.536 31.9636C166.019 32.4577 166.261 33.0776 166.261 33.8231C166.261 34.5687 166.019 35.1886 165.536 35.6827C165.052 36.1769 164.439 36.4239 163.697 36.4239Z" fill="#06214C"/>
<defs>
<linearGradient id="paint0_linear" x1="15.5" y1="20.0027" x2="23.5" y2="20.0027" gradientUnits="userSpaceOnUse">
<stop stop-color="#46C9D4"/>
<stop offset="1" stop-color="#29C8CC"/>
</linearGradient>
</defs>
</svg>
