<svg  viewBox="0 0 21 18" version="1.1" xmlns="http://www.w3.org/2000/svg" xmlns:xlink="http://www.w3.org/1999/xlink">
    <g id="HOME-+" stroke="none" stroke-width="1" fill="none" fill-rule="evenodd">
        <g id="home---design" transform="translate(-152.000000, -6126.000000)" fill="#33C8C3" fill-rule="nonzero">
            <g id="CTA-block-&amp;-footer" transform="translate(0.000000, 5249.000000)">
                <path d="M152.018746,892.496307 C153.91398,893.676933 156.162142,894.360169 158.572082,894.360169 C165.342499,894.360169 170.830804,888.968851 170.830804,882.319451 C170.830804,882.153429 170.827243,881.988635 170.820744,881.824332 C171.065631,881.635049 172.580194,880.4427 172.95143,879.676177 C172.95143,879.676177 171.721496,880.178231 170.517744,880.296503 C170.515369,880.296503 170.512432,880.297055 170.510058,880.297055 C170.510058,880.297055 170.512432,880.295889 170.516557,880.293004 C170.627471,880.220212 172.178151,879.18339 172.388108,877.948016 C172.388108,877.948016 171.518163,878.4041 170.300101,878.803105 C170.098455,878.8689 169.887374,878.93359 169.669731,878.993554 C168.884581,878.170504 167.768561,877.656788 166.529754,877.656788 C164.153556,877.656788 162.228078,879.547471 162.228078,881.879632 C162.228078,882.208729 162.266633,882.52905 162.339555,882.836604 C162.007499,882.823224 156.950854,882.544762 153.510813,878.452956 C153.510813,878.452956 151.454862,881.209775 154.735998,884.044604 C154.735998,884.044604 153.738579,884.005569 152.878069,883.500568 C152.878069,883.500568 152.562009,886.840398 156.277805,887.69432 C156.277805,887.69432 155.546644,887.966338 154.380197,887.77239 C154.380197,887.77239 155.0325,890.470964 158.333819,890.723158 C158.333819,890.723158 155.723295,893.039483 152.017559,892.496 L152.018746,892.496307 Z" id="Path"></path>
            </g>
        </g>
    </g>
</svg>