<svg class="benefits-item-image" viewBox="0 0 40 40" version="1.1" xmlns="http://www.w3.org/2000/svg" xmlns:xlink="http://www.w3.org/1999/xlink">
    <g stroke="none" stroke-width="1" fill="none" fill-rule="evenodd">
        <path class="icon-path" d="M5,22.2 C6.5463973,22.2 7.8,23.4536027 7.8,25 L7.8,37 C7.8,38.5463973 6.5463973,39.8 5,39.8 L3,39.8 C1.4536027,39.8 0.2,38.5463973 0.2,37 L0.2,25 C0.2,23.4536027 1.4536027,22.2 3,22.2 L5,22.2 Z M15,16.2 C16.5463973,16.2 17.8,17.4536027 17.8,19 L17.8,37 C17.8,38.5463973 16.5463973,39.8 15,39.8 L13,39.8 C11.4536027,39.8 10.2,38.5463973 10.2,37 L10.2,19 C10.2,17.4536027 11.4536027,16.2 13,16.2 L15,16.2 Z M25,19.2 C26.5463973,19.2 27.8,20.4536027 27.8,22 L27.8,37 C27.8,38.5463973 26.5463973,39.8 25,39.8 L23,39.8 C21.4536027,39.8 20.2,38.5463973 20.2,37 L20.2,22 C20.2,20.4536027 21.4536027,19.2 23,19.2 L25,19.2 Z M5,23.8 L3,23.8 C2.3372583,23.8 1.8,24.3372583 1.8,25 L1.8,37 C1.8,37.6627417 2.3372583,38.2 3,38.2 L5,38.2 C5.6627417,38.2 6.2,37.6627417 6.2,37 L6.2,25 C6.2,24.3372583 5.6627417,23.8 5,23.8 Z M15,17.8 L13,17.8 C12.3372583,17.8 11.8,18.3372583 11.8,19 L11.8,37 C11.8,37.6627417 12.3372583,38.2 13,38.2 L15,38.2 C15.6627417,38.2 16.2,37.6627417 16.2,37 L16.2,19 C16.2,18.3372583 15.6627417,17.8 15,17.8 Z M25,20.8 L23,20.8 C22.3372583,20.8 21.8,21.3372583 21.8,22 L21.8,37 C21.8,37.6627417 22.3372583,38.2 23,38.2 L25,38.2 C25.6627417,38.2 26.2,37.6627417 26.2,37 L26.2,22 C26.2,21.3372583 25.6627417,20.8 25,20.8 Z"></path>
        <path d="M14,5.2 C16.098682,5.2 17.8,6.90131795 17.8,9 L17.8,9.008 L20.734077,10.0562416 C21.3971153,8.94459395 22.611603,8.2 24,8.2 C26.098682,8.2 27.8,9.90131795 27.8,12 C27.8,14.098682 26.098682,15.8 24,15.8 C21.901318,15.8 20.2,14.098682 20.2,12 C20.2,11.8553704 20.2080799,11.712628 20.223813,11.5721996 L17.4552036,10.583848 C16.8546887,11.8917406 15.533412,12.8 14,12.8 C12.873194,12.8 11.8609377,12.3095548 11.1650535,11.530487 L7.62311681,13.8507501 C7.73801635,14.2133111 7.8,14.599417 7.8,15 C7.8,17.098682 6.09868205,18.8 4,18.8 C1.90131795,18.8 0.2,17.098682 0.2,15 C0.2,12.901318 1.90131795,11.2 4,11.2 C5.12252876,11.2 6.13137589,11.6867289 6.82700841,12.4606537 L10.3730552,10.1370996 C10.2606075,9.77806701 10.2,9.39611133 10.2,9 C10.2,6.90131795 11.901318,5.2 14,5.2 Z M4,12.8 C2.78497355,12.8 1.8,13.7849736 1.8,15 C1.8,16.2150264 2.78497355,17.2 4,17.2 C5.21502645,17.2 6.2,16.2150264 6.2,15 C6.2,13.7849736 5.21502645,12.8 4,12.8 Z M24,9.8 C22.7849736,9.8 21.8,10.7849736 21.8,12 C21.8,13.2150264 22.7849736,14.2 24,14.2 C25.2150264,14.2 26.2,13.2150264 26.2,12 C26.2,10.7849736 25.2150264,9.8 24,9.8 Z M14,6.8 C12.7849736,6.8 11.8,7.78497355 11.8,9 C11.8,10.2150264 12.7849736,11.2 14,11.2 C15.2150264,11.2 16.2,10.2150264 16.2,9 C16.2,7.78497355 15.2150264,6.8 14,6.8 Z" fill="#33C8C3" opacity="0.600000024"></path>
        <path d="M35,10.2 C36.5463973,10.2 37.8,11.4536027 37.8,13 L37.8,37 C37.8,38.5463973 36.5463973,39.8 35,39.8 L33,39.8 C31.4536027,39.8 30.2,38.5463973 30.2,37 L30.2,13 C30.2,11.4536027 31.4536027,10.2 33,10.2 L35,10.2 Z M35,11.8 L33,11.8 C32.3372583,11.8 31.8,12.3372583 31.8,13 L31.8,37 C31.8,37.6627417 32.3372583,38.2 33,38.2 L35,38.2 C35.6627417,38.2 36.2,37.6627417 36.2,37 L36.2,13 C36.2,12.3372583 35.6627417,11.8 35,11.8 Z M38.8510353,0.571348961 C39.1796786,0.866654516 39.2067042,1.37246502 38.9113987,1.70110834 L34.2911169,6.84298506 C34.0003922,7.16653039 33.5044284,7.19850134 33.1745696,6.91496025 L30.3510482,4.48790919 C30.0159919,4.19990043 29.9778523,3.69480636 30.265861,3.35975001 C30.5538698,3.02469366 31.0589638,2.98655404 31.3940202,3.2745628 L33.624063,5.19146974 L37.7212759,0.631712333 C38.0165815,0.303069009 38.522392,0.276043407 38.8510353,0.571348961 Z" fill="#33C8C3"></path>
    </g>
</svg>