<svg viewBox="0 0 39 36" version="1.1" xmlns="http://www.w3.org/2000/svg" xmlns:xlink="http://www.w3.org/1999/xlink">
    <g id="additional-materials" stroke="none" stroke-width="1" fill="none" fill-rule="evenodd">
        <g id="Artboard" transform="translate(-397.000000, -126.000000)">
            <g id="home---data-mngmt-icon" transform="translate(392.000000, 120.000000)">
                <g id="icon-5">
                    <rect id="Rectangle" x="0" y="0" width="48" height="48"></rect>
                    <g transform="translate(5.000000, 6.000000)" fill-rule="nonzero">
                        <polygon id="Line-Copy-6" fill="#33C8C3" opacity="0.600000024" points="12 18.8 22 18.8 22 17.2 12 17.2"></polygon>
                        <path d="M5,0.2 C5.95267168,0.2 6.79421947,0.675777894 7.29999507,1.40268537 C6.78633547,1.59305761 6.31393216,1.86625212 5.89842517,2.20636296 C5.67969503,1.95692061 5.3581729,1.8 5,1.8 L3,1.8 C2.3372583,1.8 1.8,2.3372583 1.8,3 L1.8,33 C1.8,33.6627417 2.3372583,34.2 3,34.2 L5,34.2 C5.3581729,34.2 5.67969503,34.0430794 5.89956762,33.7942369 C6.31393216,34.1337479 6.78633547,34.4069424 7.29918065,34.5967661 C6.79421947,35.3242221 5.95267168,35.8 5,35.8 L3,35.8 C1.4536027,35.8 0.2,34.5463973 0.2,33 L0.2,3 C0.2,1.4536027 1.4536027,0.2 3,0.2 L5,0.2 Z M9,26.2 C10.8238716,26.2 12.3476309,27.4849337 12.7154132,29.1989365 L17.7159594,29.1992842 C17.8659787,27.7942983 19.0551958,26.7 20.5,26.7 L35.5,26.7 C37.0463973,26.7 38.3,27.9536027 38.3,29.5 L38.3,31.5 C38.3,33.0463973 37.0463973,34.3 35.5,34.3 L20.5,34.3 C18.9536027,34.3 17.7,33.0463973 17.7,31.5 L17.699,30.799 L12.7156287,30.8000586 C12.3482264,32.514564 10.824228,33.8 9,33.8 C6.90131795,33.8 5.2,32.098682 5.2,30 C5.2,27.901318 6.90131795,26.2 9,26.2 Z M35.5,28.3 L20.5,28.3 C19.8372583,28.3 19.3,28.8372583 19.3,29.5 L19.3,31.5 C19.3,32.1627417 19.8372583,32.7 20.5,32.7 L35.5,32.7 C36.1627417,32.7 36.7,32.1627417 36.7,31.5 L36.7,29.5 C36.7,28.8372583 36.1627417,28.3 35.5,28.3 Z M9,27.8 C7.78497355,27.8 6.8,28.7849736 6.8,30 C6.8,31.2150264 7.78497355,32.2 9,32.2 C10.2150264,32.2 11.2,31.2150264 11.2,30 C11.2,28.7849736 10.2150264,27.8 9,27.8 Z M6.19781193,22.0201904 C6.6757878,22.3539754 7.21606537,22.604695 7.79771143,22.7514158 L7.79870893,25.2483327 C7.21709169,25.3949154 6.67682017,25.6454816 6.19881934,25.9791063 L6.19781193,22.0201904 Z M9,14.2 C11.098682,14.2 12.8,15.901318 12.8,18 C12.8,20.098682 11.098682,21.8 9,21.8 C6.90131795,21.8 5.2,20.098682 5.2,18 C5.2,15.901318 6.90131795,14.2 9,14.2 Z M9,15.8 C7.78497355,15.8 6.8,16.7849736 6.8,18 C6.8,19.2150264 7.78497355,20.2 9,20.2 C10.2150264,20.2 11.2,19.2150264 11.2,18 C11.2,16.7849736 10.2150264,15.8 9,15.8 Z M6.19781193,10.0201904 C6.6757878,10.3539754 7.21606537,10.604695 7.79771143,10.7514158 L7.79870893,13.2483327 C7.21709169,13.3949154 6.67682017,13.6454816 6.19881934,13.9791063 L6.19781193,10.0201904 Z M12.7156287,6.80005861 C12.3482264,8.51456404 10.824228,9.8 9,9.8 C6.90131795,9.8 5.2,8.09868205 5.2,6 C5.2,3.90131795 6.90131795,2.2 9,2.2 C10.8238716,2.2 12.3476309,3.48493369 12.7154132,5.19893646 L25.7159594,5.19928422 C25.8659787,3.79429832 27.0551958,2.7 28.5,2.7 L35.5,2.7 C37.0463973,2.7 38.3,3.9536027 38.3,5.5 L38.3,7.5 C38.3,9.0463973 37.0463973,10.3 35.5,10.3 L28.5,10.3 C26.9536027,10.3 25.7,9.0463973 25.7,7.5 L25.699,6.799 Z M35.5,4.3 L28.5,4.3 C27.8372583,4.3 27.3,4.8372583 27.3,5.5 L27.3,7.5 C27.3,8.1627417 27.8372583,8.7 28.5,8.7 L35.5,8.7 C36.1627417,8.7 36.7,8.1627417 36.7,7.5 L36.7,5.5 C36.7,4.8372583 36.1627417,4.3 35.5,4.3 Z M9,3.8 C7.78497355,3.8 6.8,4.78497355 6.8,6 C6.8,7.21502645 7.78497355,8.2 9,8.2 C10.2150264,8.2 11.2,7.21502645 11.2,6 C11.2,4.78497355 10.2150264,3.8 9,3.8 Z" id="Combined-Shape" fill="#FFFFFF"></path>
                        <path d="M25,21.8 C27.098682,21.8 28.8,20.098682 28.8,18 C28.8,15.901318 27.098682,14.2 25,14.2 C22.901318,14.2 21.2,15.901318 21.2,18 C21.2,20.098682 22.901318,21.8 25,21.8 Z M25,20.2 C23.7849736,20.2 22.8,19.2150264 22.8,18 C22.8,16.7849736 23.7849736,15.8 25,15.8 C26.2150264,15.8 27.2,16.7849736 27.2,18 C27.2,19.2150264 26.2150264,20.2 25,20.2 Z" id="Oval-Copy-4" fill="#33C8C3" transform="translate(25.000000, 18.000000) rotate(-270.000000) translate(-25.000000, -18.000000) "></path>
                        <path d="M35,21.8 C37.098682,21.8 38.8,20.098682 38.8,18 C38.8,15.901318 37.098682,14.2 35,14.2 C32.901318,14.2 31.2,15.901318 31.2,18 C31.2,20.098682 32.901318,21.8 35,21.8 Z M35,20.2 C33.7849736,20.2 32.8,19.2150264 32.8,18 C32.8,16.7849736 33.7849736,15.8 35,15.8 C36.2150264,15.8 37.2,16.7849736 37.2,18 C37.2,19.2150264 36.2150264,20.2 35,20.2 Z" id="Oval-Copy-5" fill="#33C8C3" transform="translate(35.000000, 18.000000) rotate(-270.000000) translate(-35.000000, -18.000000) "></path>
                    </g>
                </g>
            </g>
        </g>
    </g>
</svg>