<svg class="benefits-item-image" viewBox="0 0 38 36" version="1.1" xmlns="http://www.w3.org/2000/svg" xmlns:xlink="http://www.w3.org/1999/xlink">
    <g id="additional-materials" stroke="none" stroke-width="1" fill="none" fill-rule="evenodd">
        <rect id="Rectangle" x="0" y="0" width="48" height="48"></rect>
        <g fill-rule="nonzero">
            <path class="icon-path" d="M19.8,4.54747351e-13 C21.3463973,4.54747351e-13 22.6,1.2536027 22.6,2.8 L22.6,32.8 C22.6,34.3463973 21.3463973,35.6 19.8,35.6 L17.8,35.6 C16.2536027,35.6 15,34.3463973 15,32.8 L15,2.8 C15,1.2536027 16.2536027,4.54747351e-13 17.8,4.54747351e-13 L19.8,4.54747351e-13 Z M19.8,1.6 L17.8,1.6 C17.1372583,1.6 16.6,2.1372583 16.6,2.8 L16.6,32.8 C16.6,33.4627417 17.1372583,34 17.8,34 L19.8,34 C20.4627417,34 21,33.4627417 21,32.8 L21,2.8 C21,2.1372583 20.4627417,1.6 19.8,1.6 Z M33.8,14 C35.898682,14 37.6,15.701318 37.6,17.8 C37.6,19.898682 35.898682,21.6 33.8,21.6 C31.9761284,21.6 30.4523691,20.3150663 30.0845868,18.6010635 L23.8,18.599 L23.8,17 L30.0843713,16.9999414 C30.4517736,15.285436 31.975772,14 33.8,14 Z M3.8,14 C5.62422804,14 7.14822643,15.285436 7.51562869,16.9999414 L13.8,17 L13.8,18.599 L7.51541319,18.6010635 C7.14763088,20.3150663 5.62387161,21.6 3.8,21.6 C1.70131795,21.6 0,19.898682 0,17.8 C0,15.701318 1.70131795,14 3.8,14 Z M33.8,15.6 C32.5849736,15.6 31.6,16.5849736 31.6,17.8 C31.6,19.0150264 32.5849736,20 33.8,20 C35.0150264,20 36,19.0150264 36,17.8 C36,16.5849736 35.0150264,15.6 33.8,15.6 Z M3.8,15.6 C2.58497355,15.6 1.6,16.5849736 1.6,17.8 C1.6,19.0150264 2.58497355,20 3.8,20 C5.01502645,20 6,19.0150264 6,17.8 C6,16.5849736 5.01502645,15.6 3.8,15.6 Z" id="Combined-Shape"></path>
            <polygon id="Path" fill="#33C8C3" opacity="0.600000024" points="31.3630395 4.60375665 32.4326536 5.79368338 23.8 13.5527567 23.8 11.4017567"></polygon>
            <polygon id="Path" fill="#33C8C3" opacity="0.600000024" points="23.8 21.921 32.4326536 29.6806175 31.3630395 30.8705442 23.8 24.072"></polygon>
            <polygon id="Path" fill="#33C8C3" opacity="0.600000024" points="6.33480706 4.60375665 13.7991929 11.3127567 13.7991929 13.4647567 5.26519294 5.79368338"></polygon>
            <polygon id="Path" fill="#33C8C3" opacity="0.600000024" points="13.7991929 22.009 13.7991929 24.161 6.33480706 30.8705442 5.26519294 29.6806175"></polygon>
            <path d="M33.8,35.6 C35.898682,35.6 37.6,33.898682 37.6,31.8 C37.6,29.701318 35.898682,28 33.8,28 C31.701318,28 30,29.701318 30,31.8 C30,33.898682 31.701318,35.6 33.8,35.6 Z M33.8,34 C32.5849736,34 31.6,33.0150264 31.6,31.8 C31.6,30.5849736 32.5849736,29.6 33.8,29.6 C35.0150264,29.6 36,30.5849736 36,31.8 C36,33.0150264 35.0150264,34 33.8,34 Z" id="Oval-Copy-6" fill="#33C8C3"></path>
            <path d="M3.8,35.6 C5.89868205,35.6 7.6,33.898682 7.6,31.8 C7.6,29.701318 5.89868205,28 3.8,28 C1.70131795,28 0,29.701318 0,31.8 C0,33.898682 1.70131795,35.6 3.8,35.6 Z M3.8,34 C2.58497355,34 1.6,33.0150264 1.6,31.8 C1.6,30.5849736 2.58497355,29.6 3.8,29.6 C5.01502645,29.6 6,30.5849736 6,31.8 C6,33.0150264 5.01502645,34 3.8,34 Z" id="Oval-Copy-7" fill="#33C8C3"></path>
            <path d="M33.8,7.6 C35.898682,7.6 37.6,5.89868205 37.6,3.8 C37.6,1.70131795 35.898682,2.27373675e-13 33.8,2.27373675e-13 C31.701318,2.27373675e-13 30,1.70131795 30,3.8 C30,5.89868205 31.701318,7.6 33.8,7.6 Z M33.8,6 C32.5849736,6 31.6,5.01502645 31.6,3.8 C31.6,2.58497355 32.5849736,1.6 33.8,1.6 C35.0150264,1.6 36,2.58497355 36,3.8 C36,5.01502645 35.0150264,6 33.8,6 Z" id="Oval-Copy-8" fill="#33C8C3"></path>
            <path d="M3.8,7.6 C5.89868205,7.6 7.6,5.89868205 7.6,3.8 C7.6,1.70131795 5.89868205,2.27373675e-13 3.8,2.27373675e-13 C1.70131795,2.27373675e-13 0,1.70131795 0,3.8 C0,5.89868205 1.70131795,7.6 3.8,7.6 Z M3.8,6 C2.58497355,6 1.6,5.01502645 1.6,3.8 C1.6,2.58497355 2.58497355,1.6 3.8,1.6 C5.01502645,1.6 6,2.58497355 6,3.8 C6,5.01502645 5.01502645,6 3.8,6 Z" id="Oval-Copy-9" fill="#33C8C3"></path>
        </g>
    </g>
</svg>