<svg viewBox="0 0 43 43" version="1.1" xmlns="http://www.w3.org/2000/svg" xmlns:xlink="http://www.w3.org/1999/xlink">
    <g id="additional-materials" stroke="none" stroke-width="1" fill="none" fill-rule="evenodd">
        <g id="Artboard" transform="translate(-131.000000, -123.000000)">
            <g id="home---strategy-icon" transform="translate(128.000000, 120.000000)">
                <g id="icon-1">
                    <rect id="Rectangle" x="0" y="0" width="48" height="48"></rect>
                    <g id="Group-10" transform="translate(1.000000, 1.000000)" fill-rule="nonzero">
                        <path d="M36.8632489,27.2464503 L43.5494516,33.9327994 C44.6429196,35.0262674 44.6429196,36.7991293 43.5494516,37.8925974 L37.8925974,43.5494516 C36.7991293,44.6429196 35.0262674,44.6429196 33.9327994,43.5494516 L18.567,28.184 L20.83,28.184 L35.0641702,42.4180808 C35.5327994,42.8867099 36.2925974,42.8867099 36.7612265,42.4180808 L42.4180808,36.7612265 C42.8867099,36.2925974 42.8867099,35.5327994 42.4180808,35.0641702 L35.5087361,28.1558655 C36.0791039,28.0579566 36.5670104,27.7184899 36.8632489,27.2464503 Z M35.1847763,31.3847763 C37.2834584,31.3847763 38.9847763,33.0860943 38.9847763,35.1847763 C38.9847763,37.2834584 37.2834584,38.9847763 35.1847763,38.9847763 C33.0860943,38.9847763 31.3847763,37.2834584 31.3847763,35.1847763 C31.3847763,33.0860943 33.0860943,31.3847763 35.1847763,31.3847763 Z M35.1847763,32.9847763 C33.9697499,32.9847763 32.9847763,33.9697499 32.9847763,35.1847763 C32.9847763,36.3998028 33.9697499,37.3847763 35.1847763,37.3847763 C36.3998028,37.3847763 37.3847763,36.3998028 37.3847763,35.1847763 C37.3847763,33.9697499 36.3998028,32.9847763 35.1847763,32.9847763 Z M12.4367532,2.82010101 L33.173,23.557 L33.1720499,24.184779 L31.538,24.184 L11.3053824,3.95147186 C10.8367532,3.48284271 10.0769553,3.48284271 9.60832611,3.95147186 L3.95147186,9.60832611 C3.48284271,10.0769553 3.48284271,10.8367532 3.95147186,11.3053824 L16.83,24.184 L14.568,24.184 L2.82010101,12.4367532 C1.726633,11.3432852 1.726633,9.57042328 2.82010101,8.47695526 L8.47695526,2.82010101 C9.57042328,1.726633 11.3432852,1.726633 12.4367532,2.82010101 Z M11.1847763,7.38477631 C13.2834584,7.38477631 14.9847763,9.08609426 14.9847763,11.1847763 C14.9847763,13.2834584 13.2834584,14.9847763 11.1847763,14.9847763 C9.08609426,14.9847763 7.38477631,13.2834584 7.38477631,11.1847763 C7.38477631,9.08609426 9.08609426,7.38477631 11.1847763,7.38477631 Z M11.1847763,8.98477631 C9.96974986,8.98477631 8.98477631,9.96974986 8.98477631,11.1847763 C8.98477631,12.3998028 9.96974986,13.3847763 11.1847763,13.3847763 C12.3998028,13.3847763 13.3847763,12.3998028 13.3847763,11.1847763 C13.3847763,9.96974986 12.3998028,8.98477631 11.1847763,8.98477631 Z" id="Combined-Shape" fill="#FFFFFF"></path>
                        <path d="M40.5261157,4.21388377 L40.5261157,15.87299 C40.5261157,16.5357317 39.9888574,17.07299 39.3261157,17.07299 L31.3261157,17.07299 C30.663374,17.07299 30.1261157,16.5357317 30.1261157,15.87299 L30.1261157,9.62006104 C30.1261157,9.17823324 29.7679435,8.82006104 29.3261157,8.82006104 C28.8842879,8.82006104 28.5261157,9.17823324 28.5261157,9.62006104 L28.5261157,15.87299 C28.5261157,17.4193873 29.7797184,18.67299 31.3261157,18.67299 L39.3261157,18.67299 C40.872513,18.67299 42.1261157,17.4193873 42.1261157,15.87299 L42.1261157,4.21388377 C42.1261157,3.77205597 41.7679435,3.41388377 41.3261157,3.41388377 C40.8842879,3.41388377 40.5261157,3.77205597 40.5261157,4.21388377 Z" id="Rectangle-Copy-4" fill="#33C8C3" opacity="0.600000024" transform="translate(35.326116, 11.043437) rotate(-135.000000) translate(-35.326116, -11.043437) "></path>
                        <path d="M35.4934989,16.6629306 L38.8876115,20.0570431 L37.7562406,21.188414 L35.9827763,19.4149306 L35.967986,26.1864045 C35.9671576,26.5936583 35.6621305,26.9293293 35.2681983,26.9785612 L35.1679876,26.9847774 L11.9847753,26.9847774 L11.9848349,31.4691476 C13.6993404,31.8365499 14.9847763,33.3605483 14.9847763,35.1847763 C14.9847763,37.2834584 13.2834584,38.9847763 11.1847763,38.9847763 C9.08609426,38.9847763 7.38477631,37.2834584 7.38477631,35.1847763 C7.38477631,33.3609047 8.66971,31.8371454 10.3837128,31.4693631 L10.3847753,26.1847774 C10.3847753,25.7769363 10.6899634,25.4403758 11.084425,25.3910105 L11.1847753,25.3847774 L34.3696131,25.3847774 L34.3817763,20.0359306 L33.2307572,21.188414 L32.0993864,20.0570431 L35.4934989,16.6629306 Z M11.1847763,32.9847763 C9.96974986,32.9847763 8.98477631,33.9697499 8.98477631,35.1847763 C8.98477631,36.3998028 9.96974986,37.3847763 11.1847763,37.3847763 C12.3998028,37.3847763 13.3847763,36.3998028 13.3847763,35.1847763 C13.3847763,33.9697499 12.3998028,32.9847763 11.1847763,32.9847763 Z" id="Combined-Shape" fill="#33C8C3"></path>
                        <path d="M36.9985712,8.18477631 L38.151201,9.29448101 L36.2857763,11.2307763 L38.1668487,13.1847763 L37.0142188,14.294481 L35.1757763,12.3837763 L33.3374061,14.294481 L32.1847763,13.1847763 L34.0647763,11.2317763 L32.200424,9.29448101 L33.3530538,8.18477631 L35.1757763,10.0777763 L36.9985712,8.18477631 Z" id="Combined-Shape" fill="#33C8C3"></path>
                        <path d="M16.3090406,28.3381812 L16.3090406,40.1828428 C16.3090406,40.8455845 15.7717823,41.3828428 15.1090406,41.3828428 L7.10904063,41.3828428 C6.44629893,41.3828428 5.90904063,40.8455845 5.90904063,40.1828428 L5.90904063,33.6296198 C5.90904063,33.187792 5.55086843,32.8296198 5.10904063,32.8296198 C4.66721283,32.8296198 4.30904063,33.187792 4.30904063,33.6296198 L4.30904063,40.1828428 C4.30904063,41.7292401 5.56264333,42.9828428 7.10904063,42.9828428 L15.1090406,42.9828428 C16.6554379,42.9828428 17.9090406,41.7292401 17.9090406,40.1828428 L17.9090406,28.3381812 C17.9090406,27.8963534 17.5508684,27.5381812 17.1090406,27.5381812 C16.6672128,27.5381812 16.3090406,27.8963534 16.3090406,28.3381812 Z" id="Rectangle-Copy-5" fill="#33C8C3" opacity="0.600000024" transform="translate(11.109041, 35.260512) rotate(-315.000000) translate(-11.109041, -35.260512) "></path>
                    </g>
                </g>
            </g>
        </g>
    </g>
</svg>