<?xml version="1.0" encoding="UTF-8"?>
<svg width="76px" height="45px" viewBox="0 0 76 45" version="1.1" xmlns="http://www.w3.org/2000/svg" xmlns:xlink="http://www.w3.org/1999/xlink">
    <!-- Generator: Sketch 52.5 (67469) - http://www.bohemiancoding.com/sketch -->
    <title>logo-aws</title>
    <desc>Created with Sketch.</desc>
    <g id="HOME-+" stroke="none" stroke-width="1" fill="none" fill-rule="evenodd">
        <g id="home---design" transform="translate(-361.000000, -3928.000000)" fill-rule="nonzero">
            <g id="partners-block" transform="translate(0.000000, 3494.000000)">
                <g id="partners" transform="translate(301.000000, 336.000000)">
                    <g id="logo-aws" transform="translate(60.000000, 98.000000)">
                        <g id="amazon-web-services-2">
                            <path d="M21.3290201,16.3098982 C21.3290201,17.2340426 21.4301246,17.9833488 21.6070576,18.53284 C21.8092667,19.0823312 22.062028,19.6817761 22.4158939,20.3311748 C22.5422746,20.5309898 22.5928269,20.7308048 22.5928269,20.9056429 C22.5928269,21.1554117 22.4411701,21.4051804 22.1125803,21.6549491 L20.5201837,22.7039778 C20.2926985,22.853839 20.0652133,22.9287697 19.8630042,22.9287697 C19.6102428,22.9287697 19.3574814,22.8038853 19.1047201,22.5790934 C18.7508542,22.2044403 18.4475405,21.8048104 18.1947792,21.4051804 C17.9420178,20.9805735 17.6892564,20.506013 17.4112189,19.9315449 C15.4396803,22.2294172 12.962619,23.3783534 9.98003487,23.3783534 C7.85683942,23.3783534 6.16333829,22.7789084 4.92480761,21.5800185 C3.68627693,20.3811286 3.05437352,18.7826087 3.05437352,16.7844588 C3.05437352,14.6614246 3.81265761,12.9380204 5.35450193,11.6392229 C6.89634624,10.3404255 8.94371328,9.69102683 11.5471553,9.69102683 C12.406544,9.69102683 13.2912087,9.76595745 14.2264258,9.89084181 C15.1616428,10.0157262 16.122136,10.2155412 17.1331814,10.440333 L17.1331814,8.61702128 C17.1331814,6.71877891 16.7287633,5.39500463 15.945203,4.62072155 C15.1363667,3.84643848 13.7714553,3.47178538 11.8251928,3.47178538 C10.940528,3.47178538 10.0305871,3.57169288 9.0953701,3.79648474 C8.16015306,4.0212766 7.25021215,4.2960222 6.36554738,4.64569843 C5.9611292,4.82053654 5.65781556,4.92044403 5.48088261,4.97039778 C5.30394965,5.02035153 5.17756897,5.0453284 5.07646443,5.0453284 C4.72259852,5.0453284 4.54566556,4.79555967 4.54566556,4.27104533 L4.54566556,3.04717854 C4.54566556,2.64754857 4.59621784,2.34782609 4.72259852,2.17298797 C4.8489792,1.99814986 5.07646443,1.82331175 5.43033033,1.64847364 C6.31499511,1.19888992 7.37659283,0.824236818 8.61512351,0.524514339 C9.85365419,0.199814986 11.1680133,0.0499537465 12.5582008,0.0499537465 C15.566061,0.0499537465 17.7650849,0.724329325 19.1805485,2.07308048 C20.570736,3.42183164 21.2784678,5.46993525 21.2784678,8.2173913 L21.2784678,16.3098982 L21.3290201,16.3098982 Z M11.0669087,20.106383 C11.9010212,20.106383 12.7604099,19.9565217 13.6703508,19.6567993 C14.5802917,19.3570768 15.389128,18.8075856 16.0715837,18.0582794 C16.4760019,17.5837188 16.7793155,17.0592044 16.9309724,16.4597595 C17.0826292,15.8603145 17.1837337,15.1359852 17.1837337,14.2867715 L17.1837337,13.2377428 C16.4507258,13.0629047 15.6671655,12.9130435 14.8583292,12.813136 C14.0494928,12.7132285 13.2659326,12.6632747 12.4823724,12.6632747 C10.7888712,12.6632747 9.55034055,12.9879741 8.71622805,13.6623497 C7.88211556,14.3367253 7.47769738,15.2858464 7.47769738,16.5346901 C7.47769738,17.7086031 7.78101101,18.5827937 8.41291442,19.1822387 C9.01954169,19.8066605 9.90420646,20.106383 11.0669087,20.106383 Z M31.3636462,22.8038853 C30.9086757,22.8038853 30.6053621,22.7289547 30.403153,22.5541166 C30.2009439,22.4042553 30.024011,22.0545791 29.8723541,21.5800185 L23.9324621,2.27289547 C23.7808053,1.773358 23.7049769,1.44865865 23.7049769,1.27382054 C23.7049769,0.874190564 23.907186,0.649398705 24.3116042,0.649398705 L26.7886655,0.649398705 C27.2689121,0.649398705 27.5975019,0.724329325 27.7744348,0.899167438 C27.9766439,1.04902868 28.1283007,1.3987049 28.2799576,1.87326549 L32.5263485,18.4079556 L36.4694257,1.87326549 C36.5958064,1.37372803 36.7474632,1.04902868 36.9496723,0.899167438 C37.1518814,0.749306198 37.5057473,0.649398705 37.9607178,0.649398705 L39.9828087,0.649398705 C40.4630553,0.649398705 40.791645,0.724329325 40.9938541,0.899167438 C41.1960632,1.04902868 41.3729962,1.3987049 41.4741007,1.87326549 L45.4677302,18.6077706 L49.8405018,1.87326549 C49.9921586,1.37372803 50.1690916,1.04902868 50.3460245,0.899167438 C50.5482336,0.749306198 50.8768234,0.649398705 51.3317939,0.649398705 L53.6824745,0.649398705 C54.0868927,0.649398705 54.3143779,0.849213691 54.3143779,1.27382054 C54.3143779,1.3987049 54.2891018,1.52358927 54.2638257,1.67345051 C54.2385495,1.82331175 54.1879973,2.02312673 54.0868927,2.29787234 L47.9953439,21.6049954 C47.8436871,22.1045328 47.6667541,22.4292322 47.464545,22.5790934 C47.2623359,22.7289547 46.9337461,22.8288622 46.5040518,22.8288622 L44.3303041,22.8288622 C43.8500575,22.8288622 43.5214677,22.7539315 43.3192587,22.5790934 C43.1170496,22.4042553 42.9401166,22.079556 42.8390121,21.5800185 L38.9212109,5.46993525 L35.0286859,21.5550416 C34.9023053,22.0545791 34.7506484,22.3792784 34.5484394,22.5541166 C34.3462303,22.7289547 33.9923644,22.8038853 33.5373939,22.8038853 L31.3636462,22.8038853 Z M63.8434813,23.4782609 C62.5291222,23.4782609 61.2147632,23.3283996 59.9509563,23.0286772 C58.6871495,22.7289547 57.7013802,22.4042553 57.0442007,22.0296022 C56.6397825,21.8048104 56.361745,21.5550416 56.2606404,21.3302498 C56.1595359,21.1054579 56.1089836,20.8556892 56.1089836,20.6308973 L56.1089836,19.3570768 C56.1089836,18.8325624 56.3111927,18.5827937 56.6903348,18.5827937 C56.8419916,18.5827937 56.9936484,18.6077706 57.1453052,18.6577243 C57.296962,18.7076781 57.5244473,18.8075856 57.7772086,18.9074931 C58.6365973,19.2821462 59.5718143,19.5818686 60.5575836,19.7816836 C61.5686291,19.9814986 62.5543984,20.0814061 63.5654438,20.0814061 C65.1578404,20.0814061 66.3963711,19.8066605 67.2557597,19.2571693 C68.1151484,18.7076781 68.5701188,17.9084181 68.5701188,16.8843663 C68.5701188,16.1850139 68.3426336,15.6105458 67.8876631,15.1359852 C67.4326927,14.6614246 66.5733041,14.2368178 65.3347734,13.8371878 L61.6697336,12.7132285 C59.8245757,12.1387604 58.4596643,11.2895467 57.6255518,10.1655874 C56.7914393,9.066605 56.361745,7.84273821 56.361745,6.5439408 C56.361745,5.49491212 56.5892302,4.57076781 57.0442007,3.77150786 C57.4991711,2.97224792 58.1057984,2.27289547 58.8640825,1.72340426 C59.6223666,1.14893617 60.4817552,0.724329325 61.4928007,0.424606846 C62.5038461,0.124884366 63.5654438,0 64.6775938,0 C65.2336688,0 65.81502,0.0249768733 66.371095,0.0999074931 C66.9524461,0.174838113 67.483245,0.274745606 68.0140438,0.374653099 C68.5195665,0.499537465 68.9998131,0.624421832 69.4547836,0.774283071 C69.909754,0.924144311 70.26362,1.07400555 70.5163813,1.22386679 C70.8702472,1.42368178 71.1230086,1.62349676 71.2746654,1.84828862 C71.4263222,2.04810361 71.5021506,2.32284921 71.5021506,2.67252544 L71.5021506,3.84643848 C71.5021506,4.37095282 71.2999415,4.64569843 70.9207995,4.64569843 C70.7185904,4.64569843 70.3900006,4.54579093 69.9603063,4.34597595 C68.5195665,3.69657724 66.9018938,3.37187789 65.1072881,3.37187789 C63.6665484,3.37187789 62.5291222,3.59666975 61.745562,4.07123034 C60.9620018,4.54579093 60.5575836,5.27012026 60.5575836,6.29417206 C60.5575836,6.99352451 60.810345,7.59296947 61.3158677,8.06753006 C61.8213904,8.54209066 62.7566075,9.01665125 64.0962427,9.44125809 L67.685454,10.5652174 C69.5053359,11.1396855 70.819695,11.9389454 71.6032552,12.9629972 C72.3868154,13.987049 72.7659574,15.1609621 72.7659574,16.4597595 C72.7659574,17.533765 72.5384722,18.5078631 72.1087779,19.3570768 C71.6538074,20.2062905 71.0471802,20.9555967 70.26362,21.5550416 C69.4800597,22.1794635 68.5448427,22.6290472 67.4579688,22.9537465 C66.3205427,23.3034228 65.1325643,23.4782609 63.8434813,23.4782609 Z" id="Shape" fill="#FFFFFF"></path>
                            <path d="M68.7484709,35.6788895 C60.4278003,41.7676794 48.3388015,45 37.9442859,45 C23.3767895,45 10.2508683,39.6629125 0.336877667,30.7928235 C-0.447136896,30.0912346 0.26100529,29.1390781 1.19676461,29.6903266 C11.9200606,35.8542868 25.1471449,39.5877423 38.8294636,39.5877423 C48.0606028,39.5877423 58.2022105,37.6834294 67.5345129,33.7745766 C68.9255065,33.1481579 70.1141737,34.6766196 68.7484709,35.6788895 Z" id="Path" fill="#FF9900"></path>
                            <path d="M72.1868484,31.8286177 C71.1289648,30.4790116 65.1846663,31.1788074 62.4895818,31.5037125 C61.6835753,31.6036834 61.5576367,30.9038876 62.2880802,30.3790408 C67.0233688,27.0800037 74.8063698,28.0297265 75.7131272,29.1294056 C76.6198846,30.2540773 75.4612501,37.9768232 71.028214,41.6757435 C70.3481459,42.2505757 69.6932656,41.9506633 69.995518,41.2008821 C71.0030263,38.7266043 73.2447321,33.1532311 72.1868484,31.8286177 Z" id="Path" fill="#FF9900"></path>
                        </g>
                    </g>
                </g>
            </g>
        </g>
    </g>
</svg>