<?xml version="1.0" encoding="UTF-8"?>
<svg width="170px" height="40px" viewBox="0 0 170 40" version="1.1" xmlns="http://www.w3.org/2000/svg" xmlns:xlink="http://www.w3.org/1999/xlink">
    <!-- Generator: Sketch 52.5 (67469) - http://www.bohemiancoding.com/sketch -->
    <title>snowflake</title>
    <desc>Created with Sketch.</desc>
    <g id="HOME-+" stroke="none" stroke-width="1" fill="none" fill-rule="evenodd">
        <g id="home---design" transform="translate(-361.000000, -4113.000000)" fill="#FFFFFF" fill-rule="nonzero">
            <g id="partners-block" transform="translate(0.000000, 3494.000000)">
                <g id="partners" transform="translate(301.000000, 336.000000)">
                    <g id="snowflake" transform="translate(60.000000, 283.000000)">
                        <g id="logo/-snowflake-seeklogo.com">
                            <path d="M17.2866864,14.1104603 C17.7933333,13.6050209 18.0471598,13.0145607 18.0471598,12.2555649 L18.0471598,2.55715481 C18.0471598,1.20803347 16.9486982,0.111799163 15.5970809,0.111799163 C14.2452959,0.111799163 13.1471696,1.20803347 13.1471696,2.55715481 L13.1471696,8.12351464 L8.41650888,5.34025105 C7.2338856,4.58158996 5.71310651,4.91866109 5.03763314,6.09924686 C4.27732742,7.28016736 4.61498028,8.79799163 5.79760355,9.47263598 C5.88210059,9.47263598 5.88210059,9.55682008 5.96693294,9.55682008 L14.4146252,14.4480335 C15.2592604,15.0383264 16.5263807,14.8699582 17.2866864,14.1104603 Z M13.6541519,20.0138912 C13.6541519,19.0861925 13.231499,18.2428452 12.3866963,17.8209205 L3.93933925,12.9297071 C2.75638067,12.171046 1.23593688,12.5081172 0.560128205,13.6887029 C-0.200345168,14.8697908 0.137810651,16.3874477 1.32043393,17.0620921 C1.40493097,17.0620921 1.40493097,17.1464435 1.48926036,17.1464435 L6.30441815,19.9293724 L1.48926036,22.712636 C0.306637081,23.3869456 -0.200345168,24.8209205 0.475631164,26.0860251 C1.1516075,27.3509623 2.58755424,27.7722176 3.8545069,27.0975732 C3.93933925,27.0975732 3.93933925,27.0975732 4.02333333,27.0975732 L12.4715286,22.2066946 C13.231499,21.7849372 13.6541519,20.94159 13.6541519,20.0138912 Z M18.0471598,27.6882008 L18.0471598,37.470795 C18.0471598,38.8200837 16.9486982,39.9161506 15.5970809,39.9161506 C14.2452959,39.9161506 13.1471696,38.8199163 13.1471696,37.470795 L13.1471696,31.9891213 L8.33201183,34.7722176 C7.14938856,35.5308787 5.62860947,35.1938075 4.95313609,34.0132218 C4.19266272,32.8324686 4.53048323,31.314477 5.71310651,30.6398326 C5.7974359,30.6398326 5.7974359,30.5554812 5.88193294,30.5554812 L14.3301282,25.6642678 C15.5127515,24.9894561 17.11786,25.4112134 17.793501,26.6761506 C17.9623274,26.9288703 18.1311538,27.3509623 18.0471598,27.6882008 Z M22.4396647,27.9412552 L22.4396647,37.4706276 C22.4396647,38.8199163 23.5377909,39.9159833 24.8895759,39.9159833 C26.2410256,39.9159833 27.3391519,38.819749 27.3391519,37.4706276 L27.3391519,31.988954 L32.0698126,34.6876987 C33.2524359,35.4463598 34.773215,35.1092887 35.4490237,33.9287029 C36.209497,32.7476151 35.8713412,31.2299582 34.6887179,30.5553138 C34.6042209,30.5553138 34.6042209,30.4709623 34.5198915,30.4709623 L26.0720316,25.579749 C24.8894083,24.9049372 23.3686292,25.3266946 22.6928205,26.5074477 C22.5241617,26.9288703 22.3551677,27.5194979 22.4396647,27.9412552 Z M26.8326726,20.0138912 C26.8326726,19.0861925 27.2548225,18.2428452 28.0996252,17.8209205 L36.5474852,12.9297071 C37.7301085,12.171046 39.2508876,12.5081172 39.9266963,13.6887029 C40.6866667,14.8697908 40.3490138,16.3874477 39.1662229,17.0620921 C39.0818935,17.0620921 39.0818935,17.1464435 38.9973964,17.1464435 L34.1819034,19.9293724 L38.9973964,22.7124686 C40.1800197,23.3867782 40.6866667,24.8207531 40.0110256,26.0858577 C39.335217,27.2664435 37.8987673,27.7720502 36.6318146,27.0974059 C36.5474852,27.0974059 36.5474852,27.0130544 36.4629882,27.0130544 L28.0152959,22.121841 C27.2548225,21.7849372 26.7481755,20.94159 26.8326726,20.0138912 Z M22.4396647,12.0868619 L22.4396647,2.55715481 C22.4396647,1.20803347 23.5377909,0.111799163 24.8895759,0.111799163 C26.2410256,0.111799163 27.3391519,1.20803347 27.3391519,2.55715481 L27.3391519,8.03882845 L32.0698126,5.34008368 C33.2524359,4.58142259 34.773215,4.91849372 35.4490237,6.0990795 C36.209497,7.28 35.8713412,8.79782427 34.6887179,9.47246862 C34.6042209,9.47246862 34.6042209,9.55665272 34.5198915,9.55665272 L26.0720316,14.4478661 C24.8894083,15.1226778 23.3686292,14.7009205 22.6928205,13.5203347 C22.5241617,13.0989121 22.3551677,12.592636 22.4396647,12.0868619 Z M21.2570414,15.6286192 C21.088215,15.460251 20.9188856,15.3755649 20.6655621,15.3755649 L19.8207594,15.3755649 C19.5674359,15.3755649 19.3984418,15.460251 19.2296154,15.6286192 L15.8504043,19.0020084 C15.6815779,19.1705439 15.5970809,19.3392469 15.5970809,19.5919665 L15.5970809,20.4356485 C15.5970809,20.6887029 15.6815779,20.8572385 15.8504043,21.0257741 L19.2296154,24.3991632 C19.3984418,24.5676987 19.5674359,24.6520502 19.8207594,24.6520502 L20.6655621,24.6520502 C20.9188856,24.6520502 21.088215,24.5676987 21.2570414,24.3991632 L24.6359172,21.0257741 C24.7204142,20.8570711 24.8050789,20.6041841 24.8050789,20.4356485 L24.8050789,19.5919665 C24.8050789,19.3390795 24.7204142,19.1703766 24.5514201,19.0020084 L21.2570414,15.6286192 Z M20.7500592,18.5805858 C20.6655621,18.4958996 20.4967357,18.4115481 20.3277416,18.4115481 C20.1584122,18.4115481 19.9895858,18.4958996 19.9054241,18.5805858 L18.8914596,19.5921339 C18.8069625,19.6764854 18.7224655,19.845523 18.7224655,20.0140586 C18.7224655,20.1827615 18.8069625,20.3516318 18.8914596,20.4359833 L19.9054241,21.4476987 C19.9894181,21.5318828 20.1584122,21.616569 20.3277416,21.616569 C20.496568,21.616569 20.6655621,21.5318828 20.7500592,21.4476987 L21.7636884,20.4359833 C21.8480178,20.3516318 21.9328501,20.1827615 21.9328501,20.0140586 C21.9328501,19.845523 21.8480178,19.6764854 21.7636884,19.5921339 L20.7500592,18.5805858 Z" id="Shape"></path>
                            <path d="M47.9166963,26.5046025 C48.8520316,26.9288703 49.9575345,27.1837657 50.9778698,27.1837657 C52.2533728,27.2687866 53.6135404,26.8445188 54.6340434,26.0803347 C55.6543787,25.4010042 56.2498817,24.212887 56.2498817,23.0244351 C56.2498817,20.2232636 53.7840434,19.6292887 51.2330375,18.7804184 C49.5325345,18.1859414 47.6616963,17.7616736 47.6616963,16.3188285 C47.6616963,14.5362343 49.8725345,13.7722176 51.0627022,13.7722176 C53.9540434,13.7722176 54.6340434,16.0641004 55.3993787,15.3851046 C56.1645464,14.7061088 53.3585404,12.4989121 51.2330375,12.4989121 C49.9575345,12.4142259 48.6820316,12.7534728 47.6616963,13.4329707 C46.6413609,14.0269456 45.9611933,15.1305439 46.0460256,16.4035146 C45.9611933,19.374728 49.6173669,19.8840167 51.2330375,20.4779916 C52.8483728,21.0723013 54.6340434,21.6667782 54.719211,23.1096234 C54.719211,25.1469456 52.1682051,25.8257741 51.0627022,25.8257741 C47.8316963,25.8257741 46.8963609,23.958159 46.3010256,24.552636 C45.7060256,25.1467782 46.3860256,25.7407531 47.9166963,26.5046025 Z M69.6842406,26.5046025 C69.769073,26.9288703 70.1094083,27.1837657 70.4495759,27.1837657 C70.7894083,27.1837657 71.0449112,26.8445188 71.1297436,26.5046025 L71.1297436,18.525523 C71.1297436,15.2150628 68.49357,12.5837657 65.1777318,12.5837657 C63.3920611,12.5837657 61.6915582,13.3477824 60.5860552,14.7061088 L60.5860552,13.2627615 C60.5860552,12.8384937 60.2462229,12.5837657 59.9058876,12.5837657 C59.5657199,12.5837657 59.2253846,12.9233473 59.2253846,13.2627615 L59.2253846,26.6743096 C59.2253846,26.6743096 59.2253846,26.6743096 59.2253846,26.7593305 L59.2253846,26.8445188 C59.3108876,27.0142259 59.4808876,27.1837657 59.7355523,27.2687866 L59.9908876,27.2687866 C60.2460552,27.2687866 60.4160552,27.1837657 60.5007199,27.0142259 C60.5858876,26.9290377 60.6710552,26.8445188 60.6710552,26.674477 L60.6710552,18.525523 C60.6710552,16.0641004 62.7117258,14.0267782 65.2623964,14.0267782 C67.72857,14.0267782 69.7689053,16.0641004 69.7689053,18.525523 L69.6842406,26.5046025 Z M73.7655819,19.8840167 C73.9359172,23.703431 77.2517554,26.6743096 81.0782643,26.4200837 C84.9047732,26.2500418 87.8806114,22.9395816 87.6254438,19.1201674 C87.4554438,15.385272 84.3944379,12.4989121 80.6530966,12.4989121 C76.8267554,12.6684519 73.6807495,15.8943933 73.7655819,19.8840167 Z M117.641006,7.74577406 L117.555838,7.74577406 C116.875168,7.66075314 116.195168,7.83046025 115.685,8.33974895 C115.175168,9.10376569 115.004832,9.95230126 115.09,10.8013389 L115.09,12.329205 L117.130671,12.329205 C117.555838,12.329205 117.811006,12.5837657 117.895671,13.0082008 C117.895671,13.4329707 117.555838,13.7722176 117.130671,13.7722176 L115.09,13.7722176 L115.09,26.5046025 C115.09,26.9288703 114.835,27.1837657 114.409497,27.2686192 C113.984497,27.2686192 113.644497,27.0140586 113.644497,26.5894561 C113.644497,26.5894561 113.644497,26.5894561 113.644497,26.5044351 L113.644497,13.7720502 L111.688323,13.7720502 C111.263323,13.7720502 110.923323,13.4328033 110.923323,13.0080335 C110.923323,12.5837657 111.263156,12.3290377 111.603491,12.3290377 L113.559329,12.3290377 L113.559329,10.8011715 C113.473994,9.61271967 113.814329,8.33958159 114.494497,7.40585774 C115.259665,6.64150628 116.365168,6.21723849 117.385168,6.30225941 L117.810671,6.30225941 C118.235671,6.30225941 118.575838,6.64150628 118.575838,7.06610879 C118.575838,7.49054393 118.235671,7.83012552 117.810671,7.83012552 L117.641006,7.74577406 Z M75.2114201,19.2897071 C75.3814201,16.2338075 78.0170907,13.7722176 81.0782643,13.9419247 C84.1394379,14.1119665 86.4347732,16.9128033 86.2647732,19.9687029 C86.0947732,22.8548954 83.4592702,25.1466109 80.5680966,25.1466109 C77.4220907,24.9767364 75.1260848,22.4302929 75.2114201,19.2897071 Z M94.9376233,27.1837657 C95.1926233,27.1837657 95.4481262,27.0140586 95.5329586,26.7593305 C95.5329586,26.7593305 95.5329586,26.7593305 95.5329586,26.6743096 L98.9341321,18.6107113 L102.335473,26.7593305 C102.420306,27.0140586 102.675306,27.1837657 102.930976,27.2687866 L103.015809,27.2687866 C103.185809,27.2687866 103.355976,27.1837657 103.441144,27.0990795 C103.525976,27.0140586 103.611144,26.9288703 103.695976,26.7593305 L108.627988,13.6026778 C108.797988,13.2629289 108.627988,12.8386611 108.202485,12.6686192 C107.862653,12.4989121 107.437318,12.6686192 107.267318,13.0932218 L103.015976,24.7221757 L99.6148028,16.65841 C99.4444675,16.4035146 99.1898028,16.2338075 98.9342998,16.2338075 C98.6794675,16.2338075 98.3392998,16.4035146 98.2541321,16.65841 L94.8529586,24.7221757 L90.6016174,13.0932218 C90.4316174,12.7536402 90.0061144,12.5839331 89.6659467,12.6686192 C89.3261144,12.8386611 89.1561144,13.2629289 89.3261144,13.6026778 L94.2577909,26.7593305 C94.3429586,26.9290377 94.4277909,27.0140586 94.5127909,27.0990795 L94.5979586,27.1837657 C94.7677909,27.0990795 94.8529586,27.0990795 94.9376233,27.1837657 Z M121.552179,26.4199163 C121.552179,26.8443515 121.892012,27.1835983 122.317347,27.1835983 C122.742347,27.1835983 123.082682,26.8443515 123.082682,26.4199163 L123.082682,6.8967364 C123.082682,6.47213389 122.742347,6.13288703 122.317347,6.13288703 C121.892012,6.13288703 121.552179,6.47213389 121.552179,6.8967364 L121.552179,26.4199163 Z M139.06855,12.4989121 C138.64355,12.4989121 138.38788,12.8384937 138.303215,13.1779079 L138.303215,15.300251 C137.02788,13.5178243 134.987041,12.4143933 132.776203,12.4143933 C128.694694,12.5841004 125.548856,16.0644351 125.803856,20.13841 C125.973856,23.958159 129.034862,26.9290377 132.776203,27.0992469 C134.987041,27.0992469 137.027712,25.9954812 138.303215,24.2130544 L138.303215,26.420251 C138.388047,26.8446862 138.728383,27.0994142 139.06855,27.0994142 C139.408383,27.0994142 139.66355,26.7596653 139.748718,26.420251 L139.748718,13.1780753 C139.748718,12.8384937 139.408383,12.4989121 139.06855,12.4989121 Z M133.286538,25.8257741 C129.970365,26.0803347 127.334359,23.5338912 127.079359,20.2232636 C126.824359,16.912636 129.120197,14.1968201 132.350868,13.9419247 C135.667041,13.687364 138.133215,16.1491213 138.303215,19.4594142 C138.303215,19.6294561 138.303215,19.7989958 138.303215,19.8840167 C138.388047,23.0246025 135.922209,25.6557322 132.776203,25.7407531 L133.286538,25.7407531 L133.286538,25.8257741 Z M143.064892,26.4199163 C143.064892,26.8443515 143.404724,27.1835983 143.830059,27.1835983 C144.255227,27.1835983 144.595394,26.8443515 144.595394,26.4199163 L144.595394,23.0244351 L147.5714,20.0535565 L153.183245,26.8443515 C153.268412,27.0140586 153.523412,27.0989121 153.77858,27.0989121 C154.20358,27.0989121 154.458748,26.8443515 154.543748,26.419749 C154.543748,26.2497071 154.45858,25.9951464 154.373412,25.9104603 L148.676568,19.0348117 L154.373412,13.6023431 C154.628412,13.2625941 154.628412,12.8383264 154.28858,12.5835983 C154.03358,12.3290377 153.608412,12.3290377 153.353077,12.5835983 L144.595394,21.0719665 L144.595394,6.89656904 C144.595394,6.47196653 144.255227,6.13271967 143.830059,6.13271967 C143.404724,6.13271967 143.064892,6.47196653 143.064892,6.89656904 L143.064892,26.4199163 Z M169.423945,23.5337238 C169.593945,23.1941423 169.509112,22.7698745 169.168945,22.5151464 C168.828777,22.3454393 168.403609,22.4301255 168.233609,22.7697071 C167.298442,24.4674477 165.512771,25.6555649 163.472101,25.7405858 L162.79143,25.7405858 C159.730592,25.6555649 157.179586,23.1939749 157.179586,20.1380753 L169.254112,20.1380753 C169.593945,20.1380753 169.93428,19.883682 169.93428,19.5441004 L169.93428,19.3743933 C169.50928,15.4694561 166.023107,12.5835983 162.11143,13.0078661 C158.200256,13.432636 155.309083,16.9124686 155.734418,20.8172385 C156.074586,24.4672803 159.135759,27.183431 162.791598,27.2684519 L163.472268,27.2684519 C166.022939,27.0140586 168.233609,25.6557322 169.423945,23.5337238 Z M162.876598,14.2815063 C165.597436,14.2815063 167.978609,15.9790795 168.403609,18.6952301 L157.264586,18.6952301 C157.775089,15.9790795 160.070759,14.2815063 162.876598,14.2815063 Z" id="Shape"></path>
                        </g>
                    </g>
                </g>
            </g>
        </g>
    </g>
</svg>