<?xml version="1.0" encoding="UTF-8"?>
<svg width="205px" height="40px" viewBox="0 0 205 40" version="1.1" xmlns="http://www.w3.org/2000/svg" xmlns:xlink="http://www.w3.org/1999/xlink">
    <!-- Generator: Sketch 52.5 (67469) - http://www.bohemiancoding.com/sketch -->
    <title>tableau</title>
    <desc>Created with Sketch.</desc>
    <g id="HOME-+" stroke="none" stroke-width="1" fill="none" fill-rule="evenodd">
        <g id="home---design" transform="translate(-363.000000, -4025.000000)" fill="#FFFFFF">
            <g id="partners-block" transform="translate(0.000000, 3494.000000)">
                <g id="partners" transform="translate(301.000000, 336.000000)">
                    <g id="tableau" transform="translate(62.000000, 195.000000)">
                        <g id="logo/-tableau-copy">
                            <g id="logo/-tableau">
                                <polygon id="Path" fill-rule="nonzero" points="26.3346154 18.3606557 20.8942308 18.3606557 20.8942308 12.452459 18.7522436 12.452459 18.7522436 18.3606557 13.3052885 18.3606557 13.3052885 20.4590164 18.7522436 20.4590164 18.7522436 26.3672131 20.8942308 26.3672131 20.8942308 20.4590164 26.3346154 20.4590164"></polygon>
                                <polygon id="Path" fill-rule="nonzero" points="15.388141 28.0065574 10.5128205 28.0065574 10.5128205 22.7147541 8.66650641 22.7147541 8.66650641 28.0065574 3.78461538 28.0065574 3.78461538 29.6131148 8.66650641 29.6131148 8.66650641 34.904918 10.5128205 34.904918 10.5128205 29.6131148 15.388141 29.6131148"></polygon>
                                <polygon id="Path" fill-rule="nonzero" points="35.8552885 9.08196721 30.9799679 9.08196721 30.9799679 3.7704918 29.1336538 3.7704918 29.1336538 9.08196721 24.2517628 9.08196721 24.2517628 10.695082 29.1336538 10.695082 29.1336538 15.9606557 30.9799679 15.9606557 30.9799679 10.695082 35.8552885 10.695082"></polygon>
                                <polygon id="Path" fill-rule="nonzero" points="23.9495192 33.8754098 20.6445513 33.8754098 20.6445513 30.1836066 19.0676282 30.1836066 19.0676282 33.8754098 15.7560897 33.8754098 15.7560897 35.2983607 19.0676282 35.2983607 19.0676282 38.9836066 20.6445513 38.9836066 20.6445513 35.2983607 23.9495192 35.2983607"></polygon>
                                <polygon id="Path" fill-rule="nonzero" points="15.388141 9.08196721 10.4536859 9.08196721 10.4536859 3.7704918 8.72564103 3.7704918 8.72564103 9.08196721 3.78461538 9.08196721 3.78461538 10.6491803 8.72564103 10.6491803 8.72564103 15.9606557 10.4536859 15.9606557 10.4536859 10.6491803 15.388141 10.6491803"></polygon>
                                <polygon id="Path" fill-rule="nonzero" points="39.6070513 18.695082 36.2955128 18.695082 36.2955128 15.0098361 34.7185897 15.0098361 34.7185897 18.695082 31.4070513 18.695082 31.4070513 20.1180328 34.7185897 20.1180328 34.7185897 23.8098361 36.2955128 23.8098361 36.2955128 20.1180328 39.6070513 20.1180328"></polygon>
                                <polygon id="Path" points="35.8552885 28.0065574 30.9799679 28.0065574 30.9799679 22.7147541 29.1336538 22.7147541 29.1336538 28.0065574 24.2517628 28.0065574 24.2517628 29.6131148 29.1336538 29.6131148 29.1336538 34.904918 30.9799679 34.904918 30.9799679 29.6131148 35.8552885 29.6131148"></polygon>
                                <polygon id="Path" fill-rule="nonzero" points="19.2647436 0 19.2647436 3.61967213 15.9926282 3.61967213 15.9926282 4.7147541 19.2647436 4.7147541 19.2647436 8.33442623 20.4408654 8.33442623 20.4408654 4.7147541 23.7195513 4.7147541 23.7195513 3.61967213 20.4408654 3.61967213 20.4408654 0"></polygon>
                                <polygon id="Path" fill-rule="nonzero" points="7.72692308 18.8393443 4.44166667 18.8393443 4.44166667 15.2918033 3.28525641 15.2918033 3.28525641 18.8393443 0 18.8393443 0 19.9803279 3.28525641 19.9606557 3.28525641 23.5278689 4.44166667 23.5278689 4.44166667 19.9540984 7.72692308 19.9344262"></polygon>
                                <path d="M57.4328526,39.6065574 C57.8299774,39.8428217 58.2846448,39.9653365 58.7469551,39.9606557 C59.6865385,39.9606557 60.2253205,39.5344262 60.2253205,38.852459 C60.2460423,38.4750537 60.0565505,38.1169997 59.7325321,37.9213115 C59.4346367,37.759377 59.1222852,37.6254661 58.7995192,37.5213115 C58.4578526,37.3967213 58.2935897,37.2590164 58.2935897,37.1016393 C58.2935897,36.9442623 58.4841346,36.8 58.8455128,36.8 C59.27548,36.8333253 59.6927774,36.9609511 60.0676282,37.1737705 L60.0676282,36.4065574 C59.6706041,36.2123652 59.2350694,36.1093005 58.7929487,36.104918 C57.9322115,36.104918 57.3802885,36.557377 57.3802885,37.1803279 C57.3802885,37.8032787 57.8402244,38.1704918 58.7863782,38.4918033 C59.1149038,38.6032787 59.2791667,38.6754098 59.2791667,38.904918 C59.2791667,39.1344262 59.0886218,39.2327869 58.7206731,39.2327869 C58.2604082,39.2001095 57.8186612,39.0387624 57.4459936,38.7672131 L57.4328526,39.6065574 Z" id="Path"></path>
                                <path d="M75.8171474,38.0327869 C75.8075953,38.5595239 76.0197046,39.0661414 76.4019231,39.4295082 C77.2378266,40.1366837 78.4636157,40.1366837 79.2995192,39.4295082 C79.6726836,39.0601313 79.8825832,38.5573197 79.8825832,38.0327869 C79.8825832,37.508254 79.6726836,37.0054425 79.2995192,36.6360656 C78.4636157,35.9288901 77.2378266,35.9288901 76.4019231,36.6360656 C76.0197046,36.9994323 75.8075953,37.5060498 75.8171474,38.0327869 M76.7830128,38.0327869 C76.822336,37.452644 77.3191397,37.0102992 77.9011485,37.0372196 C78.4831573,37.0641401 78.9368344,37.5504488 78.922221,38.1317346 C78.9076076,38.7130205 78.4300652,39.1760119 77.8474359,39.1737705 C77.5515558,39.1726322 77.2693303,39.0493834 77.0677106,38.8332618 C76.8660909,38.6171403 76.7630431,38.3274044 76.7830128,38.0327869" id="Shape"></path>
                                <polygon id="Path" points="96.4945513 39.895082 97.4275641 39.895082 97.4275641 38.3606557 98.8205128 38.3606557 98.8205128 37.6655738 97.4275641 37.6655738 97.4275641 36.852459 98.9125 36.852459 98.9125 36.1639344 96.4945513 36.1639344"></polygon>
                                <polygon id="Path" points="116.396635 39.895082 117.388782 39.895082 117.388782 36.8590164 118.624038 36.8590164 118.624038 36.1639344 115.161378 36.1639344 115.161378 36.8590164 116.396635 36.8590164"></polygon>
                                <polygon id="Path" points="135.240865 39.9344262 135.621955 39.9344262 136.469551 37.5934426 137.317147 39.9344262 137.704808 39.9344262 139.222596 36.1639344 138.24359 36.1639344 137.520833 38.2032787 136.784936 36.1639344 136.160737 36.1639344 135.42484 38.1901639 134.695513 36.1639344 133.723077 36.1639344"></polygon>
                                <path d="M153.36891,39.895082 L154.367628,39.895082 L154.669872,39.1737705 L156.279647,39.1737705 L156.549038,39.895082 L157.541186,39.895082 L156.082532,36.1639344 L155.004968,36.1639344 L153.36891,39.895082 Z M154.939263,38.5311475 L155.517468,37.1081967 L156.043109,38.5311475 L154.939263,38.5311475 Z" id="Shape"></path>
                                <path d="M172.732212,39.895082 L173.665224,39.895082 L173.665224,38.3803279 L173.776923,38.3803279 C174.075386,38.3499751 174.352539,38.5380623 174.433974,38.8262295 L174.913622,39.9016393 L175.971474,39.9016393 L175.373558,38.5901639 C175.290249,38.3833474 175.130206,38.2165779 174.926763,38.1245902 C175.321632,38.0003692 175.588491,37.6328402 175.583814,37.2196721 C175.583814,36.4721311 175.091026,36.1377049 174.092308,36.1377049 L172.7125,36.1377049 L172.732212,39.895082 Z M174.11859,37.6918033 L173.665224,37.6918033 L173.665224,36.8262295 L174.11859,36.8262295 C174.453686,36.8262295 174.63109,36.9836066 174.63109,37.2590164 C174.63109,37.5344262 174.466827,37.6918033 174.11859,37.6918033 Z" id="Shape"></path>
                                <polygon id="Path" points="191.517308 39.895082 194.066667 39.895082 194.066667 39.2 192.456891 39.2 192.456891 38.3081967 193.954968 38.3081967 193.954968 37.6131148 192.456891 37.6131148 192.456891 36.852459 194.020673 36.852459 194.020673 36.1639344 191.517308 36.1639344"></polygon>
                                <path d="M105.364744,16.3934426 C106.372034,15.9856852 107.44504,15.7635149 108.531731,15.7377049 C112.191506,15.7377049 114.662019,18.3016393 114.662019,22.295082 C114.662019,26.4655738 112.066667,28.904918 107.487019,28.904918 C105.856055,28.8834149 104.239852,28.5931687 102.703686,28.0459016 L102.62484,9.59344262 L105.364744,9.59344262 L105.364744,16.3934426 Z M107.75641,26.4 C110.31234,26.4 111.777564,24.9311475 111.777564,22.3278689 C111.777564,19.7245902 110.305769,18.2295082 108.00609,18.2295082 C107.093423,18.2602057 106.197653,18.4837004 105.377885,18.8852459 L105.377885,25.9344262 C106.143641,26.2291673 106.955495,26.3867739 107.776122,26.4 L107.75641,26.4 Z" id="Shape"></path>
                                <rect id="Rectangle" fill-rule="nonzero" x="126.042147" y="7.00983607" width="2.70705128" height="24.2163934"></rect>
                                <path d="M143.716827,20.8655738 L149.939103,20.8655738 C149.988085,20.1710535 149.738968,19.4884887 149.253881,18.9881096 C148.768795,18.4877306 148.093464,18.2167039 147.396314,18.242623 C145.711285,18.1681845 144.192767,19.250672 143.716827,20.8655738 M146.785256,28.957377 C142.612981,28.557377 140.576122,25.6262295 140.694391,22.157377 C140.819231,18.4065574 143.256891,15.7442623 146.96266,15.7442623 C150.852404,15.7442623 153.10609,18.6163934 152.908974,22.852459 L143.545994,22.852459 C143.769391,25.2 145.182051,26.3147541 147.113782,26.4590164 C148.876234,26.597671 150.642843,26.2482323 152.219071,25.4491803 L152.219071,28.0327869 C150.536362,28.8615722 148.648075,29.1828735 146.785256,28.957377" id="Shape"></path>
                                <path d="M193.094231,26.8327869 C194.809135,26.8327869 195.972115,25.9540984 195.972115,24 L195.972115,15.9868852 L198.705449,15.9868852 L198.705449,24.3344262 C198.705449,27.1278689 196.537179,28.8262295 193.08766,28.8262295 C189.638141,28.8262295 187.476442,27.1278689 187.476442,24.3344262 L187.476442,15.9868852 L190.209776,15.9868852 L190.209776,24 C190.209776,25.9672131 191.372756,26.8327869 193.094231,26.8327869" id="Path"></path>
                                <path d="M84.5953526,28.9114754 C79.9959936,28.9114754 77.4203526,26.4721311 77.4203526,22.3016393 C77.4203526,18.2754098 79.8908654,15.7442623 83.5440705,15.7442623 C84.6656913,15.6990343 85.7753047,15.989012 86.7307692,16.5770492 L86.7307692,15.652459 L89.4641026,15.652459 L89.3589744,28.052459 C87.8325252,28.6270901 86.21363,28.9182198 84.5822115,28.9114754 M84.30625,26.4 C85.0973395,26.392344 85.8847284,26.2910906 86.6519231,26.0983607 L86.7307692,19.1081967 C85.96608,18.5525517 85.0483259,18.2457188 84.1025641,18.2295082 C81.8028846,18.2295082 80.3310897,19.7639344 80.3310897,22.3278689 C80.3310897,24.8918033 81.7963141,26.4327869 84.3522436,26.4" id="Shape"></path>
                                <path d="M171.102724,28.9114754 C166.503365,28.9114754 163.927724,26.4721311 163.927724,22.3016393 C163.927724,18.2754098 166.398237,15.7442623 170.058013,15.7442623 C171.176637,15.7103694 172.279764,16.0118665 173.225,16.6098361 L173.225,15.652459 L175.964904,15.652459 L175.886058,28.052459 C174.357504,28.6277347 172.736337,28.9188726 171.102724,28.9114754 M170.833333,26.4 C171.624288,26.3904122 172.411451,26.2891878 173.179006,26.0983607 L173.225,19.1081967 C172.461918,18.549449 171.543146,18.2422757 170.596795,18.2295082 C168.297115,18.2295082 166.81875,19.7639344 166.81875,22.3278689 C166.81875,24.8918033 168.283974,26.4 170.846474,26.4" id="Shape"></path>
                                <polygon id="Path" fill-rule="nonzero" points="57.0451923 10.4721311 59.7522436 10.4721311 59.7522436 18.157377 67.0783654 18.157377 67.0783654 20.6754098 59.7522436 20.6754098 59.7522436 29.0032787 57.0451923 29.0032787 57.0451923 20.6754098 49.7190705 20.6754098 49.7190705 18.157377 57.0451923 18.157377"></polygon>
                                <path d="M203.212821,15.8819672 C204.120019,15.8819672 204.855449,16.6159266 204.855449,17.5213115 C204.855449,18.4266963 204.120019,19.1606557 203.212821,19.1606557 C202.305622,19.1606557 201.570192,18.4266963 201.570192,17.5213115 C201.570192,16.6159266 202.305622,15.8819672 203.212821,15.8819672 Z M203.212821,16.1311475 C202.489431,16.1810555 201.928172,16.7812521 201.928172,17.504918 C201.928172,18.228584 202.489431,18.8287806 203.212821,18.8786885 C203.93621,18.8287806 204.497469,18.228584 204.497469,17.504918 C204.497469,16.7812521 203.93621,16.1810555 203.212821,16.1311475 Z M202.904006,18.4459016 L202.614904,18.4459016 L202.614904,16.6360656 C202.784348,16.608004 202.955661,16.5926604 203.127404,16.5901639 C203.325537,16.5761571 203.523102,16.6243034 203.692468,16.7278689 C203.805405,16.8179765 203.866804,16.9576875 203.856731,17.1016393 C203.859433,17.3132627 203.714782,17.4984821 203.508494,17.547541 C203.659615,17.5803279 203.771314,17.7245902 203.804167,17.9934426 C203.823405,18.1466912 203.863184,18.2966662 203.922436,18.4393443 L203.620192,18.4393443 C203.550118,18.293182 203.50779,18.1353257 203.495353,17.9737705 C203.490938,17.878651 203.446103,17.7899202 203.37209,17.7298271 C203.298078,17.6697341 203.201907,17.6439777 203.107692,17.6590164 L202.904006,17.6590164 L202.904006,18.4459016 Z M202.904006,17.442623 L203.114263,17.442623 C203.357372,17.442623 203.554487,17.357377 203.554487,17.1344262 C203.554487,16.9114754 203.442788,16.8131148 203.114263,16.8131148 C203.044433,16.8046696 202.973836,16.8046696 202.904006,16.8131148 L202.904006,17.442623 Z" id="Shape" fill-rule="nonzero"></path>
                            </g>
                        </g>
                    </g>
                </g>
            </g>
        </g>
    </g>
</svg>