<?xml version="1.0" encoding="UTF-8"?>
<svg width="199px" height="50px" viewBox="0 0 199 50" version="1.1" xmlns="http://www.w3.org/2000/svg" xmlns:xlink="http://www.w3.org/1999/xlink">
    <!-- Generator: Sketch 52.5 (67469) - http://www.bohemiancoding.com/sketch -->
    <title>logo-alteryx</title>
    <desc>Created with Sketch.</desc>
    <g id="HOME-+" stroke="none" stroke-width="1" fill="none" fill-rule="evenodd">
        <g id="home---design" transform="translate(-361.000000, -3830.000000)" fill="#FFFFFF" fill-rule="nonzero">
            <g id="partners-block" transform="translate(0.000000, 3494.000000)">
                <g id="partners" transform="translate(301.000000, 336.000000)">
                    <g id="logo-alteryx" transform="translate(60.000000, 0.000000)">
                        <g id="alteryx-vector-logo">
                            <path d="M11.3572379,31.3907285 L11.291015,31.4569536 L11.224792,31.4900662 C9.8672213,32.384106 8.27787022,32.8807947 6.65540765,32.9139073 C4.43693844,32.8807947 3.6422629,32.0860927 3.57603993,29.9668874 C3.60915141,27.5165563 4.43693844,26.7549669 7.21830283,26.589404 L11.0261231,26.4238411 L11.3572379,26.4238411 L11.3572379,31.3907285 Z M18.3106489,32.5827815 C18.2113145,32.1854305 17.8470882,31.9205298 17.4166389,31.9205298 C17.284193,31.9205298 17.1848586,31.9536424 17.0855241,31.9536424 C16.6219634,32.0860927 16.1915141,32.1523179 15.7279534,32.1854305 C14.8670549,32.218543 14.7014975,31.8874172 14.668386,30.9271523 L14.668386,17.6490066 C14.6352745,17.3509934 14.5028286,17.0529801 14.2379368,16.8543046 L14.1386023,16.7880795 C14.1054908,16.7549669 14.0723794,16.7549669 14.0392679,16.7218543 C13.1121464,16.2582781 12.118802,15.9271523 11.1254576,15.6953642 L11.0261231,15.6622517 C9.76788686,15.3642384 8.4765391,15.1986755 7.15207987,15.1986755 C6.55607321,15.1986755 5.99317804,15.2317881 5.39717138,15.2980132 C4.5031614,15.397351 3.60915141,15.5629139 2.71514143,15.794702 C2.54958403,15.8609272 2.05291181,16.0927152 2.05291181,16.5562914 C2.11913478,16.8874172 2.21846922,17.2516556 2.35091514,17.5827815 C2.51647255,18.1125828 2.71514143,18.2450331 3.04625624,18.3112583 C3.47670549,18.3112583 3.87404326,18.2450331 4.30449251,18.1456954 C5.03294509,18.013245 5.76139767,17.9139073 6.48985025,17.8807947 C7.25141431,17.8476821 8.04608985,17.8807947 8.80765391,17.9801325 C10.5294509,18.2450331 11.224792,18.7748344 11.224792,18.7748344 L11.224792,23.9403974 L11.0592346,23.9403974 L7.35074875,24.0397351 C2.4171381,24.205298 0.132445923,26.1589404 0.165557404,30.1324503 C0.165557404,31.9205298 0.728452579,33.3774834 1.78801997,34.3046358 C2.78136439,35.1655629 4.23826955,35.6291391 6.02628952,35.6291391 C8.01297837,35.6291391 9.93344426,34.9337748 11.4565724,33.6754967 L11.6221298,33.5430464 L11.7214642,33.7417219 C12.0856905,34.602649 12.8472546,35.2317881 13.774376,35.4635762 C14.2710483,35.5960265 14.8008319,35.6622517 15.3306156,35.6291391 C15.496173,35.6291391 15.628619,35.6291391 15.7941764,35.5960265 C16.522629,35.5298013 17.2510815,35.3311258 17.9464226,35.0331126 C18.4099834,34.8013245 18.7410982,34.5364238 18.7079867,34.0728477 C18.5755408,33.5761589 18.4762063,33.0794702 18.3106489,32.5827815 Z" id="Shape"></path>
                            <path d="M73.0439268,35.5629139 L71.2559068,35.5629139 C71.0241265,35.5629139 70.7592346,35.4966887 70.5936772,35.2980132 C70.4281198,35.0993377 70.3618968,34.8344371 70.3950083,34.602649 L70.3950083,17.5496689 C70.3618968,17.2847682 70.4612313,17.0198675 70.6267887,16.8543046 C70.7923461,16.6887417 71.0241265,16.6225166 71.2559068,16.6556291 L72.8783694,16.6556291 C73.1101498,16.6225166 73.3419301,16.6887417 73.540599,16.8543046 C73.7061564,17.0198675 73.8054908,17.2516556 73.7723794,17.4834437 L73.7723794,18.3112583 L74.0372712,18.0463576 C75.0306156,16.9205298 76.4875208,16.2582781 78.0106489,16.2582781 C78.3748752,16.2582781 78.772213,16.2913907 79.1364393,16.3907285 C79.4013311,16.4569536 79.6,16.6887417 79.5668885,16.986755 C79.5668885,17.0529801 79.5668885,17.1523179 79.5668885,17.218543 L79.3019967,18.9403974 C79.2688852,19.205298 79.0371048,19.4370861 78.772213,19.4370861 C78.6066556,19.4370861 78.4742097,19.4039735 78.3086522,19.4039735 C78.0437604,19.3708609 77.7788686,19.3377483 77.5139767,19.3377483 C76.2557404,19.3377483 74.8319468,20.1655629 73.9048253,21.4569536 L73.8717138,21.4900662 L73.8717138,34.6688742 C73.8717138,34.9337748 73.8054908,35.1655629 73.6399334,35.3642384 C73.5074875,35.4635762 73.2757072,35.5629139 73.0439268,35.5629139" id="Path"></path>
                            <path d="M61.9184692,24.0397351 L53.640599,24.0397351 C53.7399334,19.8675497 55.362396,18.1788079 57.978203,18.1788079 C60.527787,18.1788079 61.9515807,19.5695364 61.9515807,22.8476821 C61.9846922,23.0794702 61.9846922,23.7417219 61.9184692,24.0397351 M58.0775374,15.4966887 C53.4419301,15.4966887 49.9652246,18.7086093 49.9652246,26.0596026 C49.9652246,32.781457 53.1108153,36.0927152 59.0377704,36.0927152 C60.0973378,36.0927152 61.1237937,35.9602649 62.1502496,35.7615894 C62.315807,35.7284768 62.4813644,35.6953642 62.6469218,35.6622517 C63.209817,35.4966887 63.7396007,35.2980132 64.2362729,35.0662252 C64.6004992,34.9668874 64.865391,34.6357616 64.8985025,34.2715232 C64.7991681,33.7417219 64.6667221,33.1788079 64.5011647,32.6490066 C64.4018303,32.3178808 64.0707155,32.0860927 63.7064892,32.0529801 C63.6071547,32.0529801 62.0178037,32.384106 61.9184692,32.4172185 C60.9913478,32.6490066 60.0311148,32.781457 59.0708819,32.781457 C54.8657238,32.781457 53.6074875,30.7615894 53.6074875,26.6225166 L53.6074875,26.3245033 L64.6336106,26.3245033 C64.9647255,26.2913907 65.2296173,26.0596026 65.2627288,25.7284768 C65.2627288,25.6953642 65.2627288,25.6291391 65.2627288,25.5960265 C65.2958403,24.8675497 65.3289517,24.1059603 65.3289517,23.5099338 C65.3289517,18.4437086 62.8787022,15.4966887 58.0775374,15.4966887" id="Shape"></path>
                            <path d="M84.1693844,43.2450331 L84.0369384,43.2450331 C83.4740433,43.2450331 82.8780366,43.2119205 82.3151414,43.0794702 C81.9840266,43.013245 81.8846922,42.615894 81.9509151,42.0198675 C81.9840266,41.6556291 82.0171381,41.3245033 82.0833611,40.9602649 C82.1826955,40.5298013 82.3813644,40.3311258 82.6131448,40.3311258 L82.8449251,40.3311258 L83.2422629,40.3642384 C83.5733777,40.397351 83.9044925,40.4304636 84.1362729,40.4304636 C86.2885191,40.397351 87.447421,39.602649 88.275208,37.615894 L89.2354409,35.1986755 L89.3347754,34.9337748 L89.3678869,34.8344371 L89.3347754,34.7019868 L82.7455907,17.1854305 C82.7124792,17.1192053 82.7124792,17.0198675 82.7124792,16.9536424 C82.7124792,16.8543046 82.7455907,16.7549669 82.8118136,16.6556291 C82.8780366,16.5562914 83.0104825,16.5231788 83.109817,16.5231788 L85.6262895,16.5231788 C85.9574043,16.4900662 86.2554077,16.6887417 86.3547421,16.986755 L90.7254576,29.5364238 L91.0234609,30.3642384 L91.3214642,29.5364238 L95.8246256,17.0860927 C95.8908486,16.7549669 96.1888519,16.5231788 96.5199667,16.5231788 L98.672213,16.5231788 C98.8046589,16.5231788 98.9371048,16.5562914 99.0695507,16.6225166 C99.1357737,16.6887417 99.2019967,16.7880795 99.1688852,16.8874172 C99.1688852,16.986755 99.1357737,17.1192053 99.1026622,17.218543 L91.6856905,37.0860927 C90.0963394,41.6225166 88.0434276,43.2781457 84.1693844,43.2450331" id="Path"></path>
                            <path d="M114.03594,35.5298013 C113.638602,35.5298013 113.241265,35.3311258 113.042596,34.9668874 L109.069218,28.8410596 L108.936772,28.6423841 L108.804326,28.8410596 L104.86406,34.9337748 C104.665391,35.2980132 104.268053,35.5298013 103.870715,35.4966887 L101.652246,35.4966887 C101.5198,35.4966887 101.354243,35.4635762 101.221797,35.3642384 C101.122463,35.2649007 101.05624,35.1324503 101.05624,34.9668874 C101.05624,34.7682119 101.122463,34.602649 101.221797,34.4370861 L106.950083,25.7615894 L107.016306,25.6622517 L106.950083,25.5629139 L101.685358,17.4172185 C101.586023,17.2847682 101.552912,17.1523179 101.552912,16.986755 C101.586023,16.6556291 101.850915,16.4238411 102.18203,16.4238411 L104.168719,16.4238411 C104.532945,16.3907285 104.897171,16.589404 105.09584,16.8874172 L108.804326,22.5165563 L108.936772,22.7152318 L109.069218,22.5165563 L112.777704,16.9205298 C112.943261,16.589404 113.307488,16.3907285 113.671714,16.4238411 L115.691514,16.4238411 C116.022629,16.4238411 116.287521,16.6556291 116.320632,16.986755 C116.320632,17.1192053 116.254409,17.2516556 116.188186,17.384106 L110.923461,25.5629139 L110.857238,25.6622517 L110.923461,25.7615894 L116.618636,34.4370861 C116.71797,34.602649 116.784193,34.7682119 116.817304,34.9668874 C116.817304,35.0993377 116.751082,35.2649007 116.651747,35.3642384 C116.519301,35.4635762 116.386855,35.4966887 116.221298,35.4966887 L114.135275,35.4966887 L114.03594,35.4966887 L114.03594,35.5298013 Z" id="Path"></path>
                            <path d="M28.2772047,35.5629139 C27.3831947,35.5629139 26.4891847,35.4304636 25.6613977,35.1324503 C25.0322795,34.9337748 24.4362729,34.5695364 23.9727121,34.0728477 C22.8469218,32.8145695 22.7475874,31.2913907 22.7144759,29.2715232 L22.7144759,9.8013245 C22.7144759,9.66887417 22.7475874,9.56953642 22.8469218,9.47019868 C23.5422629,8.70860927 24.4362729,8.14569536 25.3965058,7.81456954 C25.4627288,7.78145695 25.4958403,7.78145695 25.5620632,7.78145695 C25.7276206,7.78145695 25.9262895,7.84768212 26.025624,7.98013245 C26.1911814,8.17880795 26.2905158,8.41059603 26.2574043,8.67549669 L26.2574043,29.3708609 C26.1911814,30.2649007 26.4560732,31.1258278 26.9858569,31.8211921 C27.4825291,32.3178808 28.1778702,32.5496689 28.8732113,32.4834437 C29.1049917,32.4834437 29.336772,32.4503311 29.5685524,32.4172185 C30.0983361,32.3178808 30.6281198,32.218543 31.1579035,32.0529801 C31.2572379,32.0198675 31.3565724,31.986755 31.4559068,31.986755 C31.7870216,31.986755 32.085025,32.218543 32.1843594,32.5496689 C32.3168053,33.013245 32.4492512,33.5099338 32.5154742,34.0066225 C32.4823627,34.4039735 32.2174709,34.7019868 31.8532446,34.8013245 C30.7274542,35.3311258 29.5023295,35.5629139 28.2772047,35.5629139" id="Path"></path>
                            <path d="M46.4222962,32.615894 C46.3229617,32.2847682 46.0249584,32.0529801 45.6938436,32.0529801 C45.5945092,32.0529801 45.4951747,32.0860927 45.3958403,32.1192053 C44.7004992,32.3509934 43.9389351,32.5165563 43.2104825,32.5496689 L43.1111481,32.5496689 C42.415807,32.615894 41.7204659,32.3509934 41.1906822,31.8543046 C40.7933444,31.4238411 40.5284526,30.7284768 40.4953411,29.4370861 L40.4953411,29.3708609 L40.5946755,19.1390728 L44.7667221,19.1390728 C44.965391,19.1390728 45.1640599,19.1059603 45.3627288,18.9735099 C45.5282862,18.8410596 45.6276206,18.6092715 45.5945092,18.3774834 L45.5945092,17.0860927 C45.6276206,16.8543046 45.5282862,16.6225166 45.3627288,16.4900662 C45.1971714,16.3907285 44.9985025,16.3245033 44.7998336,16.3576159 L40.5615641,16.3576159 L40.5615641,10 C40.5946755,9.73509934 40.4953411,9.50331126 40.3297837,9.30463576 C40.1973378,9.17218543 40.0317804,9.10596026 39.8331115,9.10596026 C39.7668885,9.10596026 39.7006656,9.10596026 39.6675541,9.13907285 C39.1046589,9.33774834 38.5417637,9.63576159 38.0450915,9.96688742 C37.7801997,10.1655629 37.5153078,10.397351 37.2835275,10.6291391 C37.2173045,10.7284768 37.184193,10.8278146 37.184193,10.9271523 L37.0848586,16.2913907 L34.9326123,16.2913907 C34.7008319,16.2913907 34.5021631,16.3576159 34.3366057,16.5231788 C34.2041597,16.6887417 34.1048253,16.9205298 34.1379368,17.1523179 L34.1379368,18.3443709 C34.1048253,18.5761589 34.1710483,18.8410596 34.3366057,19.0397351 C34.5352745,19.205298 34.7670549,19.2715232 35.0319468,19.2384106 L37.0517471,19.2384106 L36.8530782,28.8741722 L36.8530782,29.3046358 C36.8530782,31.3576159 36.9524126,32.8807947 38.1113145,34.1390728 C38.972213,35.0662252 40.5615641,35.6291391 42.4489185,35.6291391 C43.6740433,35.6291391 44.8991681,35.3642384 46.0580699,34.9006623 C46.3891847,34.7682119 46.753411,34.5033113 46.7202995,34.1059603 C46.687188,33.5430464 46.5878536,33.0794702 46.4222962,32.615894" id="Path"></path>
                            <polygon id="Path" points="128.638103 49.7350993 127.876539 49.7350993 127.876539 0.132450331 128.638103 0.132450331"></polygon>
                            <polygon id="Path" points="146.418968 16.4900662 143.140932 16.4900662 143.140932 25.4304636 141.783361 25.4304636 141.783361 16.4900662 138.505324 16.4900662 138.505324 15.3311258 146.418968 15.3311258"></polygon>
                            <path d="M148.736772,19.2715232 C149.034775,18.9735099 149.36589,18.7086093 149.763228,18.5099338 C150.160566,18.3112583 150.591015,18.2119205 151.054576,18.2119205 C151.418802,18.2119205 151.749917,18.2781457 152.081032,18.410596 C152.379035,18.5430464 152.643927,18.7417219 152.842596,18.9735099 C153.041265,19.205298 153.206822,19.5033113 153.306156,19.8013245 C153.405491,20.1655629 153.471714,20.5298013 153.471714,20.8940397 L153.471714,25.4304636 L152.213478,25.4304636 L152.213478,20.8940397 C152.246589,20.4304636 152.114143,20 151.849251,19.6357616 C151.551248,19.3377483 151.15391,19.1721854 150.723461,19.1721854 C150.359235,19.1721854 149.995008,19.2715232 149.697005,19.4370861 C149.36589,19.6357616 149.034775,19.8675497 148.769884,20.1655629 L148.769884,25.397351 L147.511647,25.397351 L147.511647,15.0331126 L148.769884,15.0331126 L148.769884,19.2715232 L148.736772,19.2715232 Z" id="Path"></path>
                            <path d="M160.127121,21.0927152 C160.127121,20.8278146 160.09401,20.5629139 159.994676,20.2980132 C159.928453,20.0662252 159.796007,19.8675497 159.630449,19.6688742 C159.464892,19.5033113 159.266223,19.3377483 159.067554,19.2384106 C158.30599,18.9403974 157.478203,19.1059603 156.882196,19.6357616 C156.51797,20.0331126 156.28619,20.5629139 156.219967,21.0927152 L160.127121,21.0927152 Z M161.120466,24.4370861 C160.954908,24.6357616 160.789351,24.8013245 160.557571,24.9337748 C160.32579,25.0662252 160.09401,25.1986755 159.86223,25.2649007 C159.597338,25.3642384 159.365557,25.4304636 159.100666,25.4635762 C158.835774,25.4966887 158.570882,25.5298013 158.30599,25.5298013 C157.842429,25.5298013 157.378869,25.4635762 156.948419,25.2649007 C156.551082,25.0993377 156.186855,24.8675497 155.888852,24.5364238 C155.557737,24.205298 155.325957,23.7748344 155.193511,23.3443709 C155.027953,22.8145695 154.928619,22.2516556 154.928619,21.7218543 C154.928619,21.2582781 154.994842,20.7615894 155.160399,20.3311258 C155.292845,19.9337748 155.524626,19.5364238 155.822629,19.205298 C156.120632,18.8741722 156.484859,18.6423841 156.882196,18.4768212 C157.312646,18.2781457 157.809318,18.2119205 158.272879,18.2119205 C158.670216,18.2119205 159.067554,18.2781457 159.464892,18.410596 C159.829118,18.5430464 160.160233,18.7417219 160.425125,19.0397351 C160.690017,19.3377483 160.921797,19.6688742 161.054243,20.0331126 C161.2198,20.4635762 161.286023,20.9271523 161.286023,21.3907285 C161.286023,21.5231788 161.286023,21.6556291 161.2198,21.7880795 C161.153577,21.8543046 161.087354,21.8874172 160.98802,21.8874172 L156.219967,21.8874172 C156.219967,22.2847682 156.28619,22.6821192 156.418636,23.0794702 C156.51797,23.3774834 156.683527,23.6754967 156.882196,23.9072848 C157.080865,24.1390728 157.312646,24.3046358 157.577537,24.4039735 C157.875541,24.5033113 158.173544,24.5695364 158.504659,24.5695364 C158.769551,24.5695364 159.067554,24.5364238 159.332446,24.4701987 C159.531115,24.4039735 159.729784,24.3377483 159.928453,24.2384106 C160.060899,24.1721854 160.226456,24.1059603 160.358902,24.0066225 C160.425125,23.9403974 160.524459,23.9072848 160.656905,23.9072848 C160.75624,23.9072848 160.855574,23.9403974 160.888686,24.0397351 L161.120466,24.4370861 Z" id="Shape"></path>
                            <polygon id="Path" points="173.07371 16.4900662 169.795674 16.4900662 169.795674 25.4304636 168.438103 25.4304636 168.438103 16.4900662 165.160067 16.4900662 165.160067 15.3311258 173.07371 15.3311258"></polygon>
                            <path d="M175.424626,19.2715232 C175.722629,18.9735099 176.053744,18.7086093 176.451082,18.5099338 C176.848419,18.3112583 177.278869,18.2119205 177.742429,18.2119205 C178.106656,18.2119205 178.43777,18.2781457 178.768885,18.410596 C179.066889,18.5430464 179.298669,18.7417219 179.497338,18.9735099 C179.696007,19.205298 179.861564,19.5033113 179.960899,19.8013245 C180.060233,20.1655629 180.126456,20.5298013 180.126456,20.8940397 L180.126456,25.4304636 L178.86822,25.4304636 L178.86822,20.8940397 C178.901331,20.4304636 178.768885,20 178.503993,19.6357616 C178.20599,19.3377483 177.808652,19.1721854 177.378203,19.1721854 C177.013977,19.1721854 176.64975,19.2715232 176.351747,19.4370861 C176.020632,19.6357616 175.722629,19.8675497 175.457737,20.1655629 L175.457737,25.397351 L174.166389,25.397351 L174.166389,15.0331126 L175.424626,15.0331126 L175.424626,19.2715232 Z" id="Path"></path>
                            <path d="M183.205824,19.7350993 C183.404493,19.3046358 183.669384,18.9072848 184.033611,18.5761589 C184.364725,18.3112583 184.795175,18.1456954 185.225624,18.1456954 C185.35807,18.1456954 185.490516,18.1788079 185.656073,18.2119205 C185.788519,18.2450331 185.920965,18.2781457 186.0203,18.3774834 L185.920965,19.3046358 C185.920965,19.4039735 185.821631,19.4701987 185.722296,19.4701987 C185.622962,19.4701987 185.523627,19.4370861 185.424293,19.4370861 C185.291847,19.4039735 185.159401,19.4039735 184.993844,19.4039735 C184.795175,19.4039735 184.596506,19.4370861 184.397837,19.5033113 C184.23228,19.5695364 184.066722,19.6688742 183.934276,19.8013245 C183.80183,19.9337748 183.669384,20.0993377 183.57005,20.2649007 C183.437604,20.4635762 183.33827,20.6953642 183.272047,20.9271523 L183.272047,25.4304636 L182.01381,25.4304636 L182.01381,18.3112583 L182.742263,18.3112583 C182.841597,18.3112583 182.940932,18.3112583 183.007155,18.3774834 C183.073378,18.4437086 183.106489,18.5430464 183.106489,18.6423841 L183.205824,19.7350993 Z" id="Path"></path>
                            <path d="M188.470549,25.4304636 L187.212313,25.4304636 L187.212313,18.3112583 L188.470549,18.3112583 L188.470549,25.4304636 Z M188.735441,16.0596026 C188.735441,16.192053 188.702329,16.2913907 188.669218,16.3907285 C188.636106,16.4900662 188.569884,16.589404 188.470549,16.6556291 C188.404326,16.7218543 188.304992,16.7880795 188.172546,16.8543046 C188.073211,16.8874172 187.940765,16.9205298 187.841431,16.9205298 C187.708985,16.9205298 187.609651,16.8874172 187.510316,16.8543046 C187.410982,16.8211921 187.311647,16.7549669 187.245424,16.6556291 C187.179201,16.589404 187.112978,16.4900662 187.046755,16.3907285 C187.013644,16.2913907 186.980532,16.1589404 186.980532,16.0596026 C186.980532,15.9271523 187.013644,15.8278146 187.046755,15.7284768 C187.079867,15.6291391 187.14609,15.5298013 187.245424,15.4304636 C187.311647,15.3642384 187.410982,15.2980132 187.510316,15.2317881 C187.609651,15.1986755 187.742097,15.1655629 187.841431,15.1655629 C187.973877,15.1655629 188.073211,15.1986755 188.172546,15.2317881 C188.27188,15.2649007 188.371215,15.3311258 188.470549,15.4304636 C188.569884,15.5298013 188.636106,15.5960265 188.669218,15.7284768 C188.702329,15.8278146 188.735441,15.9602649 188.735441,16.0596026 Z" id="Shape"></path>
                            <polygon id="Path" points="191.814809 25.4304636 190.556572 25.4304636 190.556572 15.0662252 191.814809 15.0662252"></polygon>
                            <polygon id="Path" points="195.125957 25.4304636 193.86772 25.4304636 193.86772 15.0662252 195.125957 15.0662252"></polygon>
                            <path d="M142.280033,38.7417219 C142.87604,38.7748344 143.472047,38.5099338 143.869384,38.0463576 C144.233611,37.4503311 144.43228,36.7549669 144.399168,36.0596026 C144.43228,35.3642384 144.266722,34.6688742 143.869384,34.0728477 C143.505158,33.5761589 142.909151,33.3112583 142.280033,33.3774834 C141.948918,33.3774834 141.650915,33.4437086 141.352912,33.5761589 C141.08802,33.7086093 140.85624,33.8741722 140.690682,34.1059603 C140.492013,34.3708609 140.359567,34.6357616 140.293344,34.9337748 C140.19401,35.2980132 140.160899,35.6953642 140.160899,36.0596026 C140.127787,36.7549669 140.293344,37.4503311 140.690682,38.0463576 C141.08802,38.5099338 141.684027,38.7748344 142.280033,38.7417219 M142.313145,32.3509934 C142.809817,32.3509934 143.273378,32.4172185 143.736938,32.615894 C144.134276,32.781457 144.498502,33.0463576 144.796506,33.3443709 C145.094509,33.6754967 145.32629,34.0728477 145.458735,34.5033113 C145.756739,35.4966887 145.756739,36.5562914 145.458735,37.5496689 C145.32629,37.9801325 145.094509,38.3774834 144.796506,38.7086093 C144.498502,39.0397351 144.134276,39.3046358 143.703827,39.4701987 C143.240266,39.6357616 142.776705,39.7350993 142.280033,39.7350993 C141.783361,39.7350993 141.3198,39.6688742 140.85624,39.4701987 C140.458902,39.3046358 140.094676,39.0397351 139.796672,38.7417219 C139.498669,38.410596 139.266889,38.013245 139.134443,37.5827815 C138.803328,36.589404 138.803328,35.5298013 139.134443,34.5364238 C139.266889,34.1059603 139.498669,33.7086093 139.796672,33.3774834 C140.094676,33.0463576 140.458902,32.8145695 140.85624,32.6490066 C141.3198,32.4503311 141.816473,32.3509934 142.313145,32.3509934" id="Shape"></path>
                            <path d="M147.57787,39.602649 L147.57787,33.5430464 L146.783195,33.4437086 C146.68386,33.410596 146.617637,33.3774834 146.551414,33.3443709 C146.485191,33.2781457 146.45208,33.2119205 146.45208,33.1456954 L146.45208,32.615894 L147.57787,32.615894 L147.57787,31.9205298 C147.57787,31.5562914 147.644093,31.192053 147.743428,30.8278146 C147.842762,30.5298013 148.041431,30.2649007 148.273211,30.0331126 C148.504992,29.8013245 148.736772,29.6357616 149.034775,29.5364238 C149.36589,29.4039735 149.697005,29.3708609 150.061231,29.3708609 C150.359235,29.3708609 150.657238,29.4039735 150.955241,29.5033113 L150.92213,30.1324503 C150.92213,30.2317881 150.855907,30.3311258 150.723461,30.3311258 C150.723461,30.3311258 150.723461,30.3311258 150.723461,30.3311258 L150.2599,30.3311258 C150.061231,30.3311258 149.862562,30.3642384 149.663894,30.4304636 C149.498336,30.4966887 149.332779,30.5629139 149.200333,30.6953642 C149.067887,30.8278146 148.968552,30.9933775 148.902329,31.192053 C148.836106,31.4569536 148.802995,31.6887417 148.802995,31.9536424 L148.802995,32.615894 L150.855907,32.615894 L150.855907,33.5099338 L148.836106,33.5099338 L148.836106,39.602649 L147.57787,39.602649 Z" id="Path"></path>
                            <path d="M160.855574,31.0927152 C160.822463,31.1589404 160.789351,31.2251656 160.723128,31.2582781 C160.656905,31.2913907 160.623794,31.3245033 160.557571,31.3245033 C160.458236,31.3245033 160.358902,31.2582781 160.292679,31.192053 C160.193344,31.1258278 160.060899,31.0264901 159.86223,30.9271523 C159.663561,30.8278146 159.464892,30.7284768 159.266223,30.6622517 C159.001331,30.5629139 158.703328,30.5298013 158.438436,30.5298013 C158.173544,30.5298013 157.875541,30.5629139 157.64376,30.6622517 C157.41198,30.7284768 157.213311,30.8609272 157.047754,30.9933775 C156.882196,31.1258278 156.782862,31.2913907 156.683527,31.4900662 C156.617304,31.6887417 156.551082,31.8874172 156.551082,32.1192053 C156.551082,32.384106 156.617304,32.615894 156.74975,32.8145695 C156.882196,33.013245 157.080865,33.1788079 157.312646,33.2781457 C157.544426,33.410596 157.809318,33.5430464 158.07421,33.6092715 L158.96822,33.9072848 C159.266223,34.0066225 159.564226,34.1390728 159.86223,34.2384106 C160.127121,34.3708609 160.392013,34.5364238 160.623794,34.7350993 C160.855574,34.9337748 161.054243,35.1986755 161.186689,35.4635762 C161.319135,35.794702 161.418469,36.1589404 161.385358,36.5231788 C161.385358,36.9536424 161.319135,37.384106 161.153577,37.781457 C161.021131,38.1456954 160.789351,38.5099338 160.491348,38.7748344 C160.193344,39.0728477 159.829118,39.2715232 159.464892,39.4370861 C159.001331,39.602649 158.53777,39.7019868 158.041098,39.6688742 C157.41198,39.6688742 156.815973,39.5695364 156.253078,39.3046358 C155.723295,39.0728477 155.259734,38.7417219 154.895507,38.3443709 L155.292845,37.6821192 C155.325957,37.615894 155.39218,37.5827815 155.425291,37.5496689 C155.491514,37.5165563 155.557737,37.4834437 155.590849,37.4834437 C155.657072,37.4834437 155.723295,37.5165563 155.789517,37.5496689 C155.85574,37.615894 155.955075,37.6490066 156.054409,37.7483444 L156.385524,37.9801325 C156.51797,38.0794702 156.650416,38.1456954 156.815973,38.2119205 C156.981531,38.2781457 157.1802,38.3443709 157.378869,38.410596 C157.610649,38.4768212 157.842429,38.4768212 158.07421,38.4768212 C158.372213,38.4768212 158.670216,38.4437086 158.935108,38.3443709 C159.166889,38.2781457 159.398669,38.1456954 159.564226,37.9801325 C159.729784,37.8145695 159.895341,37.615894 159.994676,37.384106 C160.09401,37.1523179 160.127121,36.8874172 160.127121,36.6225166 C160.127121,36.3576159 160.060899,36.0927152 159.928453,35.8609272 C159.796007,35.6622517 159.597338,35.4966887 159.398669,35.3642384 C159.166889,35.2317881 158.901997,35.0993377 158.637105,35.0331126 L157.743095,34.7682119 C157.445092,34.6688742 157.147088,34.5695364 156.849085,34.4370861 C156.551082,34.3046358 156.319301,34.1390728 156.087521,33.9403974 C155.85574,33.7417219 155.657072,33.4768212 155.557737,33.1788079 C155.292845,32.4834437 155.292845,31.7218543 155.557737,31.0264901 C155.690183,30.6953642 155.888852,30.397351 156.153744,30.1324503 C156.451747,29.8675497 156.782862,29.6688742 157.147088,29.5033113 C157.577537,29.3377483 158.041098,29.2715232 158.471547,29.2715232 C159.001331,29.2715232 159.531115,29.3708609 160.027787,29.5364238 C160.491348,29.7019868 160.888686,29.9668874 161.252912,30.2980132 L160.855574,31.0927152 Z" id="Path"></path>
                            <path d="M165.987854,38.7417219 C166.58386,38.7748344 167.179867,38.5099338 167.577205,38.0463576 C167.941431,37.4503311 168.1401,36.7549669 168.106988,36.0596026 C168.1401,35.3642384 167.974542,34.6688742 167.577205,34.0728477 C167.212978,33.5761589 166.616972,33.3112583 165.987854,33.3774834 C165.656739,33.3774834 165.358735,33.4437086 165.060732,33.5761589 C164.79584,33.7086093 164.56406,33.8741722 164.398502,34.1059603 C164.199834,34.3708609 164.067388,34.6357616 164.001165,34.9337748 C163.90183,35.2980132 163.868719,35.6953642 163.868719,36.0596026 C163.835607,36.7549669 164.001165,37.4503311 164.398502,38.0463576 C164.79584,38.5099338 165.391847,38.7748344 165.987854,38.7417219 M165.987854,32.3509934 C166.484526,32.3509934 166.948087,32.4172185 167.378536,32.615894 C167.775874,32.781457 168.1401,33.0463576 168.438103,33.3443709 C168.736106,33.6754967 168.967887,34.0728477 169.100333,34.5033113 C169.398336,35.4966887 169.398336,36.5562914 169.100333,37.5496689 C168.967887,37.9801325 168.736106,38.3774834 168.438103,38.7086093 C168.1401,39.0397351 167.775874,39.3046358 167.378536,39.4701987 C166.914975,39.6357616 166.451414,39.7350993 165.987854,39.7350993 C165.491181,39.7350993 165.027621,39.6688742 164.56406,39.4701987 C164.166722,39.3046358 163.802496,39.0397351 163.504493,38.7417219 C163.206489,38.410596 162.974709,38.013245 162.842263,37.5827815 C162.54426,36.589404 162.54426,35.5298013 162.842263,34.5364238 C162.974709,34.1059603 163.206489,33.7086093 163.504493,33.3774834 C163.802496,33.0463576 164.166722,32.8145695 164.56406,32.6490066 C165.027621,32.4503311 165.524293,32.3509934 165.987854,32.3509934" id="Shape"></path>
                            <polygon id="Path" points="172.279035 39.602649 171.020799 39.602649 171.020799 29.2384106 172.279035 29.2384106"></polygon>
                            <path d="M180.391348,32.4834437 L177.477537,39.602649 L176.351747,39.602649 L173.437937,32.4834437 L174.464393,32.4834437 C174.563727,32.4834437 174.62995,32.5165563 174.729285,32.5496689 C174.795507,32.5827815 174.828619,32.6490066 174.86173,32.7483444 L176.682862,37.3509934 C176.749085,37.5165563 176.782196,37.6821192 176.815308,37.8476821 C176.848419,38.013245 176.881531,38.1788079 176.947754,38.3443709 C176.980865,38.1788079 177.013977,38.013245 177.0802,37.8476821 C177.113311,37.6821192 177.179534,37.5165563 177.245757,37.3509934 L179.066889,32.7483444 C179.1,32.6821192 179.133111,32.615894 179.199334,32.5496689 C179.265557,32.4834437 179.33178,32.4834437 179.431115,32.4834437 L180.391348,32.4834437 Z" id="Path"></path>
                            <path d="M182.874709,39.602649 L181.616473,39.602649 L181.616473,32.4834437 L182.874709,32.4834437 L182.874709,39.602649 Z M183.139601,30.2649007 C183.139601,30.397351 183.106489,30.4966887 183.073378,30.5960265 C183.040266,30.6953642 182.974043,30.794702 182.874709,30.8609272 C182.709151,31.0264901 182.477371,31.1258278 182.245591,31.1258278 C182.113145,31.1258278 182.01381,31.0927152 181.914476,31.0596026 C181.815141,31.0264901 181.715807,30.9602649 181.649584,30.8609272 C181.583361,30.794702 181.517138,30.6953642 181.450915,30.5960265 C181.417804,30.4966887 181.384692,30.3642384 181.384692,30.2649007 C181.384692,30.1324503 181.417804,30.0331126 181.450915,29.9337748 C181.484027,29.8344371 181.55025,29.7350993 181.649584,29.6357616 C181.715807,29.5695364 181.815141,29.5033113 181.914476,29.4370861 C182.01381,29.4039735 182.146256,29.3708609 182.245591,29.3708609 C182.344925,29.3708609 182.477371,29.4039735 182.576705,29.4370861 C182.67604,29.4701987 182.775374,29.5364238 182.874709,29.6357616 C182.974043,29.7350993 183.040266,29.8013245 183.073378,29.9337748 C183.106489,30 183.139601,30.1324503 183.139601,30.2649007 Z" id="Shape"></path>
                            <path d="M186.119634,33.5099338 C186.285191,33.3443709 186.450749,33.1788079 186.616306,33.0463576 C186.781864,32.9139073 186.980532,32.781457 187.179201,32.6821192 C187.37787,32.5827815 187.576539,32.5165563 187.808319,32.4503311 C188.0401,32.384106 188.27188,32.384106 188.503661,32.384106 C188.867887,32.384106 189.199002,32.4503311 189.530116,32.5827815 C189.82812,32.7152318 190.0599,32.8807947 190.291681,33.1456954 C190.490349,33.3774834 190.655907,33.6754967 190.755241,33.9735099 C190.854576,34.3377483 190.920799,34.7019868 190.920799,35.0662252 L190.920799,39.6357616 L189.662562,39.6357616 L189.662562,35.0993377 C189.695674,34.6357616 189.563228,34.205298 189.298336,33.8410596 C189.000333,33.5430464 188.602995,33.3774834 188.172546,33.3774834 C187.808319,33.3774834 187.444093,33.4768212 187.14609,33.6423841 C186.814975,33.8410596 186.516972,34.0728477 186.25208,34.3708609 L186.25208,39.6357616 L184.993844,39.6357616 L184.993844,32.5165563 L185.755408,32.5165563 C185.920965,32.5165563 186.053411,32.615894 186.086522,32.781457 L186.119634,33.5099338 Z" id="Path"></path>
                            <path d="M195.291514,36.1258278 C195.523295,36.1258278 195.755075,36.0927152 195.953744,36.0264901 C196.119301,35.9602649 196.284859,35.8609272 196.450416,35.7284768 C196.582862,35.5960265 196.682196,35.4635762 196.748419,35.2649007 C196.814642,35.0662252 196.847754,34.8675497 196.847754,34.6688742 C196.880865,34.2715232 196.715308,33.9072848 196.450416,33.6423841 C195.755075,33.1125828 194.827953,33.1125828 194.132612,33.6423841 C193.86772,33.9072848 193.702163,34.3046358 193.735275,34.6688742 C193.735275,34.8675497 193.768386,35.0662252 193.834609,35.2649007 C193.900832,35.4304636 194.000166,35.5960265 194.132612,35.7284768 C194.265058,35.8609272 194.430616,35.9602649 194.629285,36.0264901 C194.827953,36.0927152 195.059734,36.1258278 195.291514,36.1258278 Z M197.543095,40 C197.543095,39.8344371 197.509983,39.7019868 197.410649,39.5695364 C197.311314,39.4370861 197.178869,39.3708609 197.013311,39.3046358 C196.814642,39.2384106 196.615973,39.205298 196.417304,39.1721854 C196.185524,39.1390728 195.953744,39.1390728 195.721963,39.1059603 L194.960399,39.0728477 C194.695507,39.0728477 194.463727,39.0397351 194.231947,39.0066225 C194.000166,39.1059603 193.768386,39.2715232 193.602829,39.4701987 C193.437271,39.6357616 193.337937,39.8675497 193.337937,40.1324503 C193.337937,40.2980132 193.371048,40.4304636 193.470383,40.5960265 C193.569717,40.7615894 193.702163,40.8609272 193.834609,40.9602649 C194.033278,41.0596026 194.231947,41.1589404 194.463727,41.192053 C195.059734,41.3245033 195.688852,41.3245033 196.284859,41.192053 C196.516639,41.1258278 196.748419,41.0596026 196.947088,40.9271523 C197.112646,40.8278146 197.245092,40.6953642 197.377537,40.4966887 C197.476872,40.3642384 197.543095,40.1655629 197.543095,40 Z M198.801331,32.7483444 L198.801331,33.2119205 C198.801331,33.3774834 198.701997,33.4768212 198.503328,33.5099338 L197.708652,33.6092715 C197.87421,33.9403974 197.940433,34.2715232 197.940433,34.6357616 C197.940433,34.9668874 197.87421,35.2980132 197.741764,35.5960265 C197.609318,35.8609272 197.410649,36.1258278 197.178869,36.3245033 C196.947088,36.5231788 196.649085,36.6887417 196.351082,36.7880795 C196.019967,36.8874172 195.65574,36.9536424 195.291514,36.9536424 C194.960399,36.9536424 194.662396,36.9205298 194.364393,36.8211921 C194.231947,36.8874172 194.099501,36.986755 194.033278,37.1192053 C193.967055,37.218543 193.900832,37.3178808 193.900832,37.4503311 C193.900832,37.615894 193.967055,37.7483444 194.099501,37.8476821 C194.265058,37.9470199 194.463727,38.013245 194.629285,38.0463576 C194.894176,38.0794702 195.125957,38.1125828 195.390849,38.1125828 C195.688852,38.1125828 195.986855,38.1456954 196.284859,38.1456954 C196.582862,38.1788079 196.880865,38.2119205 197.178869,38.2450331 C197.44376,38.2781457 197.708652,38.3774834 197.940433,38.5099338 C198.172213,38.6092715 198.33777,38.7748344 198.470216,39.0066225 C198.602662,39.2384106 198.701997,39.5364238 198.668885,39.8013245 C198.668885,40.0993377 198.602662,40.4304636 198.437105,40.6953642 C198.271547,40.9933775 198.039767,41.2582781 197.774875,41.4569536 C197.44376,41.6887417 197.112646,41.8874172 196.715308,41.986755 C196.251747,42.1192053 195.788186,42.1854305 195.324626,42.1854305 C194.861065,42.1854305 194.397504,42.1523179 193.967055,42.0198675 C193.63594,41.9205298 193.304825,41.7880795 193.006822,41.589404 C192.775042,41.4238411 192.576373,41.2251656 192.410815,40.9933775 C192.278369,40.7615894 192.245258,40.5298013 192.245258,40.2649007 C192.245258,39.9337748 192.344592,39.602649 192.576373,39.3708609 C192.841265,39.1059603 193.139268,38.9072848 193.470383,38.7748344 C193.271714,38.7086093 193.106156,38.5761589 192.97371,38.410596 C192.841265,38.2119205 192.775042,38.013245 192.775042,37.781457 C192.775042,37.6821192 192.808153,37.5496689 192.841265,37.4503311 C192.874376,37.3178808 192.940599,37.218543 193.006822,37.1192053 C193.073045,37.0198675 193.172379,36.8874172 193.304825,36.8211921 C193.437271,36.7218543 193.569717,36.6225166 193.702163,36.5562914 C193.371048,36.3576159 193.073045,36.0927152 192.874376,35.7615894 C192.675707,35.4304636 192.576373,35.0331126 192.576373,34.6357616 C192.576373,34.3046358 192.642596,33.9735099 192.775042,33.6754967 C192.907488,33.410596 193.106156,33.1456954 193.337937,32.9470199 C193.569717,32.7483444 193.86772,32.5827815 194.165724,32.4834437 C194.794842,32.2847682 195.490183,32.2847682 196.119301,32.4172185 C196.384193,32.4834437 196.615973,32.5827815 196.847754,32.7152318 L198.801331,32.7483444 Z" id="Shape"></path>
                        </g>
                    </g>
                </g>
            </g>
        </g>
    </g>
</svg>