<svg width="55" height="56" viewBox="0 0 55 56" fill="none" xmlns="http://www.w3.org/2000/svg">
<g id="snowflake-2">
<path id="Combined Shape" fill-rule="evenodd" clip-rule="evenodd" d="M42 10.2H14C11.9013 10.2 10.2 11.9013 10.2 14V42C10.2 44.0987 11.9013 45.8 14 45.8H42C44.0987 45.8 45.8 44.0987 45.8 42V14C45.8 11.9013 44.0987 10.2 42 10.2ZM13.8 14C13.8 13.8896 13.8896 13.8 14 13.8H42C42.1105 13.8 42.2 13.8896 42.2 14V42C42.2 42.1105 42.1105 42.2 42 42.2H14C13.8896 42.2 13.8 42.1105 13.8 42V14Z" fill="#96E9EA"/>
<path id="Rectangle Copy 3" fill-rule="evenodd" clip-rule="evenodd" d="M42 11.2H14C12.4536 11.2 11.2 12.4536 11.2 14V42C11.2 43.5464 12.4536 44.8 14 44.8H42C43.5464 44.8 44.8 43.5464 44.8 42V14C44.8 12.4536 43.5464 11.2 42 11.2ZM12.8 14C12.8 13.3373 13.3373 12.8 14 12.8H42C42.6628 12.8 43.2 13.3373 43.2 14V42C43.2 42.6628 42.6628 43.2 42 43.2H14C13.3373 43.2 12.8 42.6628 12.8 42V14Z" fill="#00C8C6"/>
<path id="Oval Copy 10" fill-rule="evenodd" clip-rule="evenodd" d="M31.8 28C31.8 30.0987 30.0987 31.8 28 31.8C25.9013 31.8 24.2 30.0987 24.2 28C24.2 25.9013 25.9013 24.2 28 24.2C30.0987 24.2 31.8 25.9013 31.8 28ZM25.8 28C25.8 29.215 26.785 30.2 28 30.2C29.215 30.2 30.2 29.215 30.2 28C30.2 26.785 29.215 25.8 28 25.8C26.785 25.8 25.8 26.785 25.8 28Z" fill="#001951"/>
<path id="Combined Shape_2" fill-rule="evenodd" clip-rule="evenodd" d="M32.8 20C32.8 17.9013 31.0987 16.2 29 16.2C27.0194 16.2 25.3927 17.7152 25.2159 19.6497C24.9147 19.7501 24.6194 19.8667 24.3313 19.9988C23.674 19.4875 22.8594 19.2 22 19.2C19.9013 19.2 18.2 20.9013 18.2 23C18.2 24.1026 18.674 25.1252 19.4685 25.835C19.3192 26.4251 19.2312 27.0321 19.2069 27.6487C17.993 28.2984 17.2 29.5738 17.2 31C17.2 33.0987 18.9013 34.8 21 34.8C21.4094 34.8 21.8102 34.7349 22.19 34.6095C22.5144 34.8948 22.8593 35.1561 23.2219 35.391C23.4254 37.315 25.0393 38.8 27 38.8C28.5692 38.8 29.9475 37.841 30.5194 36.4338C30.9127 36.3165 31.2967 36.1719 31.6687 36.0012C32.326 36.5125 33.1406 36.8 34 36.8C36.0987 36.8 37.8 35.0987 37.8 33C37.8 31.8974 37.3261 30.8748 36.5315 30.165C36.6808 29.5749 36.7689 28.9679 36.7931 28.3513C38.0071 27.7016 38.8 26.4263 38.8 25C38.8 22.9013 37.0987 21.2 35 21.2C34.5906 21.2 34.1898 21.2651 33.81 21.3905C33.4783 21.0987 33.1252 20.8323 32.7538 20.5937C32.7845 20.3986 32.8 20.2003 32.8 20ZM26.8 20C26.8 18.785 27.785 17.8 29 17.8C30.215 17.8 31.2 18.785 31.2 20C31.2 20.2481 31.1592 20.4896 31.0804 20.7181L30.8599 21.3571L31.453 21.6811C32.0476 22.006 32.5941 22.4146 33.0759 22.8936L33.4876 23.3029L34.0044 23.0383C34.3089 22.8824 34.6475 22.8 35 22.8C36.215 22.8 37.2 23.785 37.2 25C37.2 25.9405 36.6043 26.7679 35.7319 27.0756L35.191 27.2663L35.2001 28.0097C35.2 28.764 35.0813 29.5109 34.8509 30.2219L34.6602 30.8101L35.1814 31.1428C35.8112 31.5449 36.2 32.2389 36.2 33C36.2 34.215 35.215 35.2 34 35.2C33.3794 35.2 32.802 34.9428 32.3877 34.4969L31.9663 34.0432L31.4214 34.3375C30.8819 34.6289 30.307 34.8506 29.7092 34.9961L29.247 35.1086L29.1251 35.5683C28.872 36.5226 28.0032 37.2 27 37.2C25.785 37.2 24.8 36.215 24.8 35L24.8016 34.9521L24.8142 34.4764L24.4022 34.2382C23.8631 33.9265 23.3661 33.5458 22.9242 33.1065L22.5124 32.6972L21.9956 32.9617C21.6911 33.1176 21.3525 33.2 21 33.2C19.785 33.2 18.8 32.215 18.8 31C18.8 30.0595 19.3957 29.2321 20.2681 28.9245L20.809 28.7337L20.8 27.9903C20.8 27.236 20.9187 26.4891 21.1492 25.7781L21.3398 25.1899L20.8186 24.8572C20.1889 24.4552 19.8 23.7612 19.8 23C19.8 21.785 20.785 20.8 22 20.8C22.6206 20.8 23.198 21.0572 23.6123 21.5031L24.0337 21.9568L24.5786 21.6625C25.0937 21.3843 25.6411 21.1696 26.2099 21.0241L26.8766 20.8536L26.8077 20.169C26.8026 20.1183 26.8 20.0621 26.8 20Z" fill="#001951"/>
</g>
</svg>
