<svg width="48" height="48" viewBox="0 0 48 48" fill="none" xmlns="http://www.w3.org/2000/svg">
<g id="snowflake-3">
<path id="Oval Copy 11" fill-rule="evenodd" clip-rule="evenodd" d="M42.1967 10.6467C42.1967 12.7454 40.4954 14.4467 38.3967 14.4467C36.298 14.4467 34.5967 12.7454 34.5967 10.6467C34.5967 8.548 36.298 6.84668 38.3967 6.84668C40.4954 6.84668 42.1967 8.548 42.1967 10.6467ZM36.1967 10.6467C36.1967 11.8617 37.1817 12.8467 38.3967 12.8467C39.6117 12.8467 40.5967 11.8617 40.5967 10.6467C40.5967 9.43165 39.6117 8.44668 38.3967 8.44668C37.1817 8.44668 36.1967 9.43165 36.1967 10.6467Z" fill="#00C8C7"/>
<path id="Oval Copy 12" fill-rule="evenodd" clip-rule="evenodd" d="M14.1967 38.6467C14.1967 40.7454 12.4954 42.4467 10.3967 42.4467C8.298 42.4467 6.59668 40.7454 6.59668 38.6467C6.59668 36.548 8.298 34.8467 10.3967 34.8467C12.4954 34.8467 14.1967 36.548 14.1967 38.6467ZM8.19668 38.6467C8.19668 39.8617 9.18165 40.8467 10.3967 40.8467C11.6117 40.8467 12.5967 39.8617 12.5967 38.6467C12.5967 37.4317 11.6117 36.4467 10.3967 36.4467C9.18165 36.4467 8.19668 37.4317 8.19668 38.6467Z" fill="#96E9EA"/>
<path id="Path" d="M21.2879 44.9097C20.8518 44.8386 20.5559 44.4275 20.6269 43.9915C20.698 43.5554 21.1091 43.2595 21.5452 43.3305C26.5684 44.1489 31.7182 42.9654 35.9186 39.9136C44.4973 33.6808 46.3991 21.6737 40.1663 13.095C39.9066 12.7375 39.9858 12.2373 40.3432 11.9776C40.7007 11.7179 41.201 11.7971 41.4607 12.1545C48.2129 21.4481 46.1527 34.4558 36.8591 41.208C32.3098 44.5133 26.7282 45.7961 21.2879 44.9097Z" fill="#00C8C7"/>
<path id="Line" d="M15.5389 42.8623L17.5389 43.8623C17.9341 44.0599 18.4146 43.8997 18.6122 43.5045C18.8098 43.1093 18.6496 42.6288 18.2544 42.4312L16.2544 41.4312C15.8593 41.2336 15.3787 41.3938 15.1811 41.789C14.9835 42.1841 15.1437 42.6647 15.5389 42.8623Z" fill="#00C8C7"/>
<path id="Line_2" d="M30.5389 6.86227L32.5389 7.86227C32.9341 8.05987 33.4146 7.89969 33.6122 7.5045C33.8098 7.10932 33.6496 6.62878 33.2544 6.43119L31.2544 5.43119C30.8593 5.2336 30.3787 5.39378 30.1811 5.78896C29.9835 6.18414 30.1437 6.66468 30.5389 6.86227Z" fill="#00C8C7"/>
<path id="Path_2" d="M26.7506 3.80164C27.1886 3.8599 27.4964 4.26217 27.4382 4.70014C27.3799 5.13811 26.9776 5.44593 26.5397 5.38767C21.5726 4.72698 16.5371 6.00966 12.4542 9.08637C3.98554 15.4679 2.29364 27.5064 8.67521 35.975C8.94111 36.3279 8.87061 36.8295 8.51775 37.0954C8.1649 37.3613 7.66329 37.2908 7.39739 36.9379C0.48403 27.7636 2.31692 14.7219 11.4913 7.80855C15.9132 4.47635 21.3711 3.08608 26.7506 3.80164Z" fill="#96E9EA"/>
<path id="Combined Shape" fill-rule="evenodd" clip-rule="evenodd" d="M33.8 18.8V18C33.8 17.7256 33.7709 17.4579 33.7156 17.2H35.8288C36.2706 17.2 36.6288 17.5582 36.6288 18C36.6288 18.4418 36.2706 18.8 35.8288 18.8L33.8 18.8ZM33.8 21.8V20.2H36.8879C37.3297 20.2 37.6879 20.5582 37.6879 21C37.6879 21.4418 37.3297 21.8 36.8879 21.8H33.8ZM33.8 24.8V23.2L37.9894 23.2C38.4312 23.2 38.7894 23.5582 38.7894 24C38.7894 24.4418 38.4312 24.8 37.9894 24.8H33.8ZM33.8 27.8V26.2H36.8667C37.3085 26.2 37.6667 26.5582 37.6667 27C37.6667 27.4418 37.3085 27.8 36.8667 27.8H33.8ZM33.7156 30.8C33.7709 30.5421 33.8 30.2744 33.8 30V29.2H35.797C36.2388 29.2 36.597 29.5582 36.597 30C36.597 30.4418 36.2388 30.8 35.797 30.8H33.7156ZM14.2 29.2V30C14.2 30.2744 14.2291 30.5421 14.2843 30.8H12.203C11.7612 30.8 11.403 30.4418 11.403 30C11.403 29.5582 11.7612 29.2 12.203 29.2H14.2ZM14.2 26.2V27.8H11.1333C10.6914 27.8 10.3333 27.4418 10.3333 27C10.3333 26.5582 10.6914 26.2 11.1333 26.2H14.2ZM14.2 23.2V24.8H10.0106C9.56874 24.8 9.21057 24.4418 9.21057 24C9.21057 23.5582 9.56874 23.2 10.0106 23.2L14.2 23.2ZM14.2 20.2V21.8H11.1121C10.6702 21.8 10.3121 21.4418 10.3121 21C10.3121 20.5582 10.6702 20.2 11.1121 20.2H14.2ZM14.2843 17.2C14.2291 17.4579 14.2 17.7256 14.2 18V18.8L12.1712 18.8C11.7294 18.8 11.3712 18.4418 11.3712 18C11.3712 17.5582 11.7294 17.2 12.1712 17.2H14.2843Z" fill="#001951"/>
<path id="Rectangle Copy 3" fill-rule="evenodd" clip-rule="evenodd" d="M30 15.2H18C16.4536 15.2 15.2 16.4536 15.2 18V30C15.2 31.5464 16.4536 32.8 18 32.8H30C31.5464 32.8 32.8 31.5464 32.8 30V18C32.8 16.4536 31.5464 15.2 30 15.2ZM16.8 18C16.8 17.3373 17.3373 16.8 18 16.8H30C30.6628 16.8 31.2 17.3373 31.2 18V30C31.2 30.6628 30.6628 31.2 30 31.2H18C17.3373 31.2 16.8 30.6628 16.8 30V18Z" fill="#001951"/>
<path id="Path 17 Copy" d="M19.554 22.8229L18.446 23.9771L22.196 27.5771C22.5056 27.8743 22.9945 27.8743 23.304 27.5771L29.554 21.5771L28.446 20.4229L22.75 25.891L19.554 22.8229Z" fill="#00C8C7"/>
</g>
</svg>
