<svg width="50" height="48" viewBox="0 0 50 48" fill="none" xmlns="http://www.w3.org/2000/svg">
<g id="snowflake-1">
<path id="Combined Shape" fill-rule="evenodd" clip-rule="evenodd" d="M43 6.20001H7.00001C5.45361 6.20001 4.20001 7.45361 4.20001 9.00001V33.7H5.80001V9.00001C5.80001 8.33727 6.33727 7.80001 7.00001 7.80001H43C43.6628 7.80001 44.2 8.33727 44.2 9.00001V33.7H45.8V9.00001C45.8 7.45361 44.5464 6.20001 43 6.20001Z" fill="#99E9E9"/>
<path id="Rectangle Copy" fill-rule="evenodd" clip-rule="evenodd" d="M49.8 39.5V37.5C49.8 35.9536 48.5464 34.7 47 34.7L2.99999 34.7C1.45359 34.7 0.199989 35.9536 0.199989 37.5V39.5C0.199989 41.0464 1.45359 42.3 2.99999 42.3L47 42.3C48.5464 42.3 49.8 41.0464 49.8 39.5ZM47 36.3C47.6627 36.3 48.2 36.8373 48.2 37.5V39.5C48.2 40.1628 47.6627 40.7 47 40.7L2.99999 40.7C2.33725 40.7 1.79999 40.1628 1.79999 39.5V37.5C1.79999 36.8373 2.33725 36.3 2.99999 36.3L47 36.3Z" fill="#00C8C6"/>
<path id="Oval Copy 10" fill-rule="evenodd" clip-rule="evenodd" d="M27.8 20.5C27.8 22.3226 26.3226 23.8 24.5 23.8C22.6775 23.8 21.2 22.3226 21.2 20.5C21.2 18.6775 22.6775 17.2 24.5 17.2C26.3226 17.2 27.8 18.6775 27.8 20.5ZM22.8 20.5C22.8 21.4389 23.5611 22.2 24.5 22.2C25.4389 22.2 26.2 21.4389 26.2 20.5C26.2 19.5611 25.4389 18.8 24.5 18.8C23.5611 18.8 22.8 19.5611 22.8 20.5Z" fill="#001951"/>
<path id="Combined Shape_2" fill-rule="evenodd" clip-rule="evenodd" d="M27.7569 13.9652C27.5013 12.3969 26.1404 11.2 24.5 11.2C22.8594 11.2 21.4978 12.3975 21.2432 13.9652C21.0011 14.0861 20.7661 14.2203 20.5394 14.3672C20.2075 14.2572 19.8575 14.2 19.5 14.2C17.6775 14.2 16.2 15.6775 16.2 17.5C16.2 18.4201 16.58 19.2772 17.2252 19.8902C17.2084 20.0923 17.2 20.2957 17.2 20.5C17.2 20.7042 17.2084 20.9074 17.2251 21.1093C16.5799 21.7229 16.2 22.5799 16.2 23.5C16.2 25.3226 17.6775 26.8 19.5 26.8C19.8574 26.8 20.2074 26.7429 20.5391 26.6329C20.7662 26.7798 21.0012 26.9139 21.2431 27.0345C21.4985 28.6029 22.8595 29.8 24.5 29.8C26.1407 29.8 27.5022 28.6025 27.7576 27.0345C27.9994 26.9137 28.2341 26.7795 28.4606 26.6328C28.7925 26.7429 29.1426 26.8 29.5 26.8C31.3226 26.8 32.8 25.3226 32.8 23.5C32.8 22.5799 32.42 21.7229 31.7749 21.1098C31.7916 20.9078 31.8 20.7044 31.8 20.5C31.8 20.2959 31.7916 20.0926 31.7749 19.8908C32.4201 19.2771 32.8 18.4201 32.8 17.5C32.8 15.6775 31.3226 14.2 29.5 14.2C29.1426 14.2 28.7926 14.2571 28.4609 14.3671C28.234 14.2203 27.999 14.0861 27.7569 13.9652ZM22.8004 14.4978C22.8001 13.5609 23.5613 12.8 24.5 12.8C25.4384 12.8 26.1993 13.5603 26.2 14.4986L26.2004 15.0311L26.6918 15.2363C27.117 15.4138 27.5183 15.6419 27.8878 15.9155L28.2866 16.2107L28.7282 15.9848C28.9643 15.8639 29.2268 15.8 29.5 15.8C30.4389 15.8 31.2 16.5611 31.2 17.5C31.2 18.0626 30.9256 18.5778 30.4726 18.8945L30.0681 19.1775L30.1396 19.666C30.1797 19.9399 30.2 20.2186 30.2 20.5C30.2 20.7815 30.1797 21.0602 30.1394 21.3348L30.0677 21.8239L30.4731 22.1068C30.9257 22.4226 31.2 22.9374 31.2 23.5C31.2 24.4389 30.4389 25.2 29.5 25.2C29.2267 25.2 28.9643 25.136 28.7274 25.0149L28.2851 24.7887L27.8862 25.0848C27.5183 25.358 27.1174 25.5861 26.6926 25.7633L26.2008 25.9684L26.2006 26.5013C26.2002 27.439 25.4387 28.2 24.5 28.2C23.5614 28.2 22.8004 27.4393 22.8 26.5007L22.7998 25.9669L22.3068 25.7622C21.8836 25.5864 21.4824 25.3586 21.1122 25.0845L20.7135 24.7893L20.2718 25.0153C20.0357 25.1361 19.7733 25.2 19.5 25.2C18.5611 25.2 17.8 24.4389 17.8 23.5C17.8 22.9374 18.0744 22.4223 18.5274 22.1055L18.932 21.8225L18.8604 21.334C18.8203 21.0601 18.8 20.7814 18.8 20.5C18.8 20.2185 18.8204 19.9398 18.8606 19.6653L18.9323 19.1761L18.5269 18.8932C18.0744 18.5774 17.8 18.0626 17.8 17.5C17.8 16.5611 18.5611 15.8 19.5 15.8C19.7733 15.8 20.0358 15.864 20.2726 15.9851L20.7149 16.2114L21.1138 15.9152C21.482 15.6418 21.8832 15.4136 22.3083 15.2364L22.8006 15.0311L22.8004 14.4978Z" fill="#001951"/>
</g>
</svg>
