<svg width="49" height="48" viewBox="0 0 49 48" fill="none" xmlns="http://www.w3.org/2000/svg">
<g id="draft/ icon/ 4 copy 2">
<path id="Combined Shape" fill-rule="evenodd" clip-rule="evenodd" d="M38.8 24C38.8 34.3829 30.383 42.7999 20 42.7999C9.61706 42.7999 1.20001 34.3829 1.20001 24C1.20001 13.617 9.61706 5.19995 20 5.19995C27.3162 5.19995 33.6563 9.37911 36.7633 15.4804L35.2662 16.0686C32.3989 10.561 26.6387 6.79995 20 6.79995C10.5007 6.79995 2.80001 14.5007 2.80001 24C2.80001 33.4993 10.5007 41.2 20 41.2C29.4993 41.2 37.2 33.4993 37.2 24C37.2 22.4137 36.9853 20.8775 36.5833 19.419L38.0805 18.8308C38.5491 20.4731 38.8 22.2072 38.8 24ZM32.0789 17.3208C29.7258 13.0745 25.1986 10.2 20 10.2C12.3785 10.2 6.20001 16.3784 6.20001 24C6.20001 31.6215 12.3785 37.7999 20 37.7999C27.6215 37.7999 33.8 31.6215 33.8 24C33.8 22.8523 33.6599 21.7373 33.3959 20.6712L31.8916 21.2622C32.0934 22.1423 32.2 23.0587 32.2 24C32.2 30.7378 26.7379 36.2 20 36.2C13.2621 36.2 7.80001 30.7378 7.80001 24C7.80001 17.2621 13.2621 11.8 20 11.8C24.5206 11.8 28.4669 14.2586 30.5747 17.9117L32.0789 17.3208Z" fill="#96E9EA"/>
<path id="Combined Shape_2" fill-rule="evenodd" clip-rule="evenodd" d="M21.8359 25.2126C21.4421 25.8076 20.7669 26.2 20 26.2C18.785 26.2 17.8 25.215 17.8 24C17.8 22.7849 18.785 21.8 20 21.8C20.1791 21.8 20.3533 21.8214 20.52 21.8618L22.4568 21.1009C21.7943 20.5389 20.9368 20.2 20 20.2C17.9013 20.2 16.2 21.9013 16.2 24C16.2 26.0986 17.9013 27.8 20 27.8C21.9459 27.8 23.5502 26.3373 23.7735 24.4514L21.8359 25.2126ZM27.1475 23.1259C27.1822 23.4124 27.2 23.7041 27.2 24C27.2 27.9764 23.9765 31.2 20 31.2C16.0236 31.2 12.8 27.9764 12.8 24C12.8 20.0235 16.0236 16.8 20 16.8C22.3981 16.8 24.5224 17.9724 25.8309 19.7753L27.3602 19.1745C25.7875 16.7806 23.0784 15.2 20 15.2C15.1399 15.2 11.2 19.1398 11.2 24C11.2 28.8601 15.1399 32.8 20 32.8C24.8601 32.8 28.8 28.8601 28.8 24C28.8 23.4974 28.7579 23.0046 28.677 22.5251L27.1475 23.1259Z" fill="#00C8C8"/>
<path id="Path 13" d="M20.2925 24.7446L48.2925 13.7446L47.7075 12.2554L19.7075 23.2554L20.2925 24.7446Z" fill="#001951"/>
<path id="Path 14" d="M46.731 10.3249L45.2689 9.67505L43.2689 14.175C43.0895 14.5788 43.2713 15.0516 43.6751 15.231L48.1751 17.231L48.8249 15.7689L45.056 14.0938L46.731 10.3249Z" fill="#001951"/>
<path id="Path 14_2" d="M43.231 11.8249L41.7689 11.175L39.7689 15.675C39.5895 16.0788 39.7713 16.5516 40.1751 16.731L44.6751 18.731L45.3249 17.2689L41.556 15.5938L43.231 11.8249Z" fill="#001951"/>
<path id="Path 14_3" d="M39.231 13.3249L37.7689 12.675L35.7689 17.175C35.5895 17.5788 35.7713 18.0516 36.1751 18.231L40.6751 20.231L41.3249 18.7689L37.556 17.0938L39.231 13.3249Z" fill="#001951"/>
</g>
</svg>
