<svg width="30" height="31" viewBox="0 0 30 31" fill="none" xmlns="http://www.w3.org/2000/svg">
<path fill-rule="evenodd" clip-rule="evenodd" d="M3.60039 8.30045C3.40553 8.33309 3.20536 8.35008 3.00123 8.35008C2.79651 8.35008 2.59578 8.33299 2.40039 8.30017V24.45C2.59578 24.4172 2.79651 24.4001 3.00123 24.4001C3.20536 24.4001 3.40553 24.4171 3.60039 24.4497V8.30045ZM6.55147 5.34999H15.9004V4.14999H6.55144C6.58419 4.34515 6.60123 4.54562 6.60123 4.75008C6.60123 4.95448 6.5842 5.1549 6.55147 5.34999ZM22.701 28.6H6.55147C6.5842 28.4049 6.60123 28.2045 6.60123 28.0001C6.60123 27.7956 6.58419 27.5951 6.55144 27.4H22.701C22.6683 27.5951 22.6512 27.7956 22.6512 28.0001C22.6512 28.2045 22.6683 28.4049 22.701 28.6ZM25.6504 18.3455V24.45C25.8458 24.4172 26.0465 24.4001 26.2512 24.4001C26.4554 24.4001 26.6555 24.4171 26.8504 24.4497V19.4169L25.6504 18.3455Z" fill="#95E5E5"/>
<path fill-rule="evenodd" clip-rule="evenodd" d="M5.85039 28C5.85039 29.574 4.5744 30.85 3.00039 30.85C1.42638 30.85 0.150391 29.574 0.150391 28C0.150391 26.426 1.42638 25.15 3.00039 25.15C4.5744 25.15 5.85039 26.426 5.85039 28ZM1.35039 28C1.35039 28.9113 2.08912 29.65 3.00039 29.65C3.91166 29.65 4.65039 28.9113 4.65039 28C4.65039 27.0887 3.91166 26.35 3.00039 26.35C2.08912 26.35 1.35039 27.0887 1.35039 28Z" fill="#00C8C6"/>
<path fill-rule="evenodd" clip-rule="evenodd" d="M5.85039 4.74999C5.85039 6.32401 4.5744 7.59999 3.00039 7.59999C1.42638 7.59999 0.150391 6.32401 0.150391 4.74999C0.150391 3.17598 1.42638 1.89999 3.00039 1.89999C4.5744 1.89999 5.85039 3.17598 5.85039 4.74999ZM1.35039 4.74999C1.35039 5.66126 2.08912 6.39999 3.00039 6.39999C3.91166 6.39999 4.65039 5.66126 4.65039 4.74999C4.65039 3.83872 3.91166 3.09999 3.00039 3.09999C2.08912 3.09999 1.35039 3.83872 1.35039 4.74999Z" fill="#00C8C6"/>
<path fill-rule="evenodd" clip-rule="evenodd" d="M29.1004 28C29.1004 29.574 27.8244 30.85 26.2504 30.85C24.6764 30.85 23.4004 29.574 23.4004 28C23.4004 26.426 24.6764 25.15 26.2504 25.15C27.8244 25.15 29.1004 26.426 29.1004 28ZM24.6004 28C24.6004 28.9113 25.3391 29.65 26.2504 29.65C27.1617 29.65 27.9004 28.9113 27.9004 28C27.9004 27.0887 27.1617 26.35 26.2504 26.35C25.3391 26.35 24.6004 27.0887 24.6004 28Z" fill="#00C8C6"/>
<path fill-rule="evenodd" clip-rule="evenodd" d="M10.4612 19.6906L4.45113 25.7007C4.21681 25.935 4.21681 26.3149 4.45113 26.5493C4.68544 26.7836 5.06534 26.7836 5.29965 26.5493L11.3098 20.5391C10.9988 20.286 10.7144 20.0016 10.4612 19.6906Z" fill="#00C8C6"/>
<path fill-rule="evenodd" clip-rule="evenodd" d="M10.1421 12.7402L4.45113 7.04926C4.21681 6.81494 4.21681 6.43504 4.45113 6.20073C4.68544 5.96642 5.06534 5.96642 5.29965 6.20073L10.9134 11.8144C10.6258 12.0953 10.3671 12.4055 10.1421 12.7402Z" fill="#00C8C6"/>
<path fill-rule="evenodd" clip-rule="evenodd" d="M18.2597 20.8583L23.7631 26.3618C23.9974 26.5961 24.3773 26.5961 24.6117 26.3618C24.846 26.1274 24.846 25.7476 24.6117 25.5132L19.1854 20.087C18.9046 20.3746 18.5944 20.6333 18.2597 20.8583Z" fill="#00C8C6"/>
<path fill-rule="evenodd" clip-rule="evenodd" d="M16.5032 20.875C16.1606 20.6496 15.9158 20.2701 15.9011 19.7955C15.612 19.8638 15.3104 19.9 15.0004 19.9C12.8465 19.9 11.1004 18.1539 11.1004 16C11.1004 13.8461 12.8465 12.1 15.0004 12.1C15.3102 12.1 15.6115 12.1361 15.9004 12.2044V10.9792C15.6082 10.9271 15.3075 10.9 15.0004 10.9C12.1837 10.9 9.90039 13.1833 9.90039 16C9.90039 18.8166 12.1837 21.1 15.0004 21.1C15.5234 21.1 16.0281 21.0213 16.5032 20.875Z" fill="#00C8C6"/>
<path fill-rule="evenodd" clip-rule="evenodd" d="M16.6504 19.75C16.6504 20.2683 17.2634 20.5428 17.65 20.1976L23.2504 15.1972L28.8508 20.1976C29.2374 20.5428 29.8504 20.2683 29.8504 19.75V0.999994C29.8504 0.668623 29.5818 0.399994 29.2504 0.399994H17.2504C16.919 0.399994 16.6504 0.668623 16.6504 0.999994V19.75ZM17.8504 18.4099V1.59999H28.6504V18.4099L23.65 13.9453C23.4224 13.742 23.0784 13.742 22.8508 13.9453L17.8504 18.4099Z" fill="#001951"/>
<path fill-rule="evenodd" clip-rule="evenodd" d="M20.4546 10.6824C20.3705 11.1725 20.885 11.5463 21.3251 11.3149L23.2501 10.3029L25.1751 11.3149C25.6153 11.5463 26.1298 11.1725 26.0457 10.6824L25.678 8.53887L27.2354 7.02083C27.5915 6.67371 27.395 6.06893 26.9029 5.99742L24.7507 5.68468L23.7882 3.73445C23.5681 3.28851 22.9322 3.28851 22.7121 3.73445L21.7496 5.68468L19.5974 5.99742C19.1053 6.06893 18.9087 6.67371 19.2649 7.02083L20.8222 8.53887L20.4546 10.6824ZM24.6574 9.687L23.5293 9.09391C23.3545 9.00202 23.1457 9.00202 22.9709 9.09391L21.8428 9.687L22.0583 8.43083C22.0916 8.23619 22.0271 8.03759 21.8857 7.89975L20.973 7.01012L22.2343 6.82685C22.4297 6.79845 22.5987 6.67571 22.6861 6.49863L23.2501 5.35572L23.8142 6.49863C23.9016 6.67571 24.0705 6.79845 24.2659 6.82685L25.5272 7.01012L24.6145 7.89975C24.4731 8.03759 24.4086 8.23619 24.442 8.43083L24.6574 9.687Z" fill="#00C8C6"/>
</svg>
