<svg width="439" height="374" viewBox="0 0 439 374" fill="none" xmlns="http://www.w3.org/2000/svg">
<g id="data mngmt ill">
<g id="2">
<path id="Path" d="M193.55 369.87L8.85798 263.54C5.55904 262.027 3.21735 258.986 2.59768 255.411C2.31194 252.034 4.39005 248.58 8.832 246.009L214.902 127.264C224.448 122.432 235.723 122.432 245.269 127.264L429.96 233.75C438.299 238.581 438.299 246.45 429.96 251.281L427.363 252.71L223.916 369.87C214.371 374.702 203.095 374.702 193.55 369.87Z" fill="url(#paint0_linear)"/>
<path id="Path_2" d="M193.939 363.17L9.24753 256.839C5.96821 255.321 3.6396 252.294 3.01321 248.736C2.72747 245.334 4.80558 241.879 9.24753 239.308L215.292 120.641C224.843 115.834 236.107 115.834 245.658 120.641L430.35 226.971C438.688 231.802 438.688 239.698 430.35 244.503L427.752 245.931L224.306 363.17C214.76 368.002 203.485 368.002 193.939 363.17Z" fill="url(#paint1_linear)"/>
<path id="Shape" fill-rule="evenodd" clip-rule="evenodd" d="M194.796 357.56C199.272 359.931 204.279 361.12 209.343 361.014C214.419 361.08 219.426 359.846 223.89 357.43L415.725 246.944L418.063 245.593C421.746 244.3 424.212 240.822 424.212 236.919C424.212 233.015 421.746 229.537 418.063 228.244L244.022 128.043C234.875 123.419 224.075 123.419 214.928 128.043L20.781 240.009C16.5728 242.425 14.3389 245.827 14.6506 249.333C15.3354 252.759 17.6124 255.653 20.781 257.125L194.796 357.56ZM215.396 129.004C219.729 126.713 224.574 125.56 229.475 125.654V125.524C234.389 125.498 239.227 126.732 243.528 129.108L417.569 229.309C420.877 230.471 423.09 233.595 423.09 237.1C423.09 240.606 420.877 243.729 417.569 244.892L223.422 356.573C214.578 361.044 204.134 361.044 195.29 356.573L21.2486 256.398C18.3013 255.018 16.202 252.3 15.6117 249.1C15.3519 245.905 17.4041 242.944 21.2486 240.711L215.396 129.004Z" fill="white"/>
<path id="Shape_2" fill-rule="evenodd" clip-rule="evenodd" d="M181.341 131.238L295.637 200.869L295.299 159.755L181.003 90.1237L181.341 131.238ZM292.857 195.986L184.094 129.705L183.757 95.0064L292.546 161.288L292.857 195.986Z" fill="#113A39"/>
<path id="Path_3" d="M293.896 160.508L294.26 198.428L367.643 157.989L368.708 119.29L293.896 160.508Z" fill="url(#paint2_linear)"/>
<path id="Path_4" d="M257.426 50.3601L182.38 92.565L293.896 160.508L368.708 119.29L286.961 70.0211L246.671 92.2273L257.841 98.5126L257.426 50.3601Z" fill="url(#paint3_linear)"/>
<path id="Shape_3" fill-rule="evenodd" clip-rule="evenodd" d="M140.272 206.012L176.483 225.491L292.597 159.054L256.386 139.549L140.272 206.012ZM176.457 222.374L145.909 205.934L256.464 142.665L287.013 159.132L176.457 222.374Z" fill="#113A39"/>
<path id="Path_5" d="M176.457 223.932L143.104 205.96V289.746L176.457 309.355V223.932Z" fill="url(#paint4_linear)"/>
<path id="Path_6" d="M289.818 198.454V159.08L176.457 223.932V309.355L274.882 255.307V209.31L289.818 198.454Z" fill="url(#paint5_linear)"/>
<path id="Path_7" d="M105.048 187.26L287.532 292.343V160.794L105.048 55.7363V187.26Z" fill="url(#paint6_linear)"/>
<path id="Path_8" d="M105.048 55.7364L138.428 37.7377L320.912 142.821L287.532 160.794L105.048 55.7364Z" fill="url(#paint7_linear)"/>
<path id="Path_9" d="M287.532 160.794L320.912 142.821V272.708L287.532 292.343V160.794Z" fill="url(#paint8_linear)"/>
<path id="Path_10" opacity="0.54" d="M292.727 168.871L317.145 155.703V266.943L292.727 281.305V168.871Z" fill="url(#paint9_linear)"/>
<path id="Path_11" d="M292.727 166.144L317.145 152.976V151.236L292.727 164.3V166.144Z" fill="url(#paint10_linear)"/>
<path id="Path_12" d="M289.818 35.7378L256.438 17.739L143.104 82.5917L176.457 100.59L289.818 35.7378Z" fill="url(#paint11_linear)"/>
<path id="Path_13" d="M176.457 100.59L143.104 82.5917V166.378L176.457 185.987V100.59Z" fill="url(#paint12_linear)"/>
<path id="Path_14" d="M289.818 124.329V35.7378L176.457 100.59V185.987L213.551 164.794V118.797L247.165 99.1879L289.818 124.329Z" fill="url(#paint13_linear)"/>
<path id="Path_15" d="M267.816 44.5424L241.112 30.1538L150.429 82.0463L177.133 96.4349L267.816 44.5424Z" fill="url(#paint14_linear)"/>
<path id="Path_16" d="M67.5645 160.534L67.9281 198.454L179.445 266.397L179.081 228.504L67.5645 160.534Z" fill="url(#paint15_linear)"/>
<path id="Path_17" d="M179.081 228.504L179.444 266.397L254.023 224.4L253.893 187.26L179.081 228.504Z" fill="url(#paint16_linear)"/>
<path id="Path_18" d="M142.584 118.329L67.5645 160.534L179.081 228.504L253.893 187.26L213.551 164.794L176.457 185.987L143.026 166.482L142.584 118.329Z" fill="url(#paint17_linear)"/>
<path id="Path_19" d="M70.3179 165.989L70.6036 197.675L110.659 222.037L110.373 190.324L70.3179 165.989Z" fill="url(#paint18_linear)"/>
<g id="Group" style="mix-blend-mode:screen">
<path id="Path_20" d="M170.275 81.0073C173.213 76.7191 177.487 73.5231 182.432 71.917C184.64 71.0859 187.03 70.4106 189.367 69.7613L192.796 68.7744C196.021 67.9412 199.073 66.543 201.81 64.6448C203.093 63.5011 204.173 62.1488 205.005 60.645C205.722 59.3731 206.595 58.1953 207.603 57.1388C211.026 54.4168 215.053 52.5554 219.344 51.7106C221.759 51.0355 223.954 49.7367 225.708 47.9446C226.514 47.1655 227.189 46.3344 227.864 45.5552C228.522 44.7214 229.225 43.9237 229.969 43.1657C232.31 40.913 235.026 39.0849 237.995 37.7635C240.878 36.3276 244.048 35.5639 247.269 35.5299V36.1792C244.149 36.2403 241.081 36.9851 238.281 38.3609C235.4 39.6241 232.762 41.3821 230.488 43.5553C229.735 44.3085 229.059 45.1137 228.41 45.8928C227.761 46.672 227.033 47.5291 226.228 48.3342C224.383 50.1884 222.093 51.5386 219.578 52.256C215.4 53.0488 211.472 54.8299 208.122 57.4505C207.117 58.4713 206.245 59.6143 205.525 60.8528C204.67 62.4157 203.544 63.814 202.2 64.9824C199.409 66.9489 196.285 68.3922 192.978 69.2419L189.627 70.3846C187.341 71.0339 184.952 71.7092 182.77 72.5403C176.327 74.9817 171.6 78.9295 170.119 83.0591L169.496 82.8513C169.698 82.214 169.959 81.5967 170.275 81.0073Z" fill="#81D9BF"/>
<path id="Path_21" d="M167.106 81.267C169.288 80.6177 171.6 80.0723 173.834 79.5528C177.276 78.8176 180.662 77.8368 183.964 76.618C188.307 74.9262 191.962 71.8378 194.355 67.8394L194.589 67.3978C195.256 65.9866 196.232 64.7437 197.446 63.7617C200.373 62.0339 203.598 60.871 206.953 60.3334C211.785 59.1906 215.422 57.866 217.344 55.1389C217.967 54.2299 218.487 53.2689 219.006 52.3599C219.805 50.7179 220.818 49.1894 222.02 47.8148C225.606 44.5622 229.916 42.2116 234.592 40.9581C239.864 39.4231 245.249 38.3114 250.698 37.6337V38.283C245.339 38.9653 240.042 40.0594 234.852 41.5555C230.292 42.7735 226.089 45.0619 222.591 48.2303C221.41 49.557 220.422 51.0433 219.656 52.6456C219.141 53.6172 218.578 54.5621 217.967 55.4766C215.941 58.4374 212.201 59.8139 207.213 61.0087C203.945 61.5431 200.803 62.6698 197.94 64.3331C196.832 65.2809 195.945 66.46 195.342 67.7874L195.108 68.203L194.978 68.4107C192.504 72.4435 188.784 75.5613 184.38 77.2933C181.011 78.5126 177.555 79.4763 174.041 80.1762C171.807 80.6956 169.496 81.241 167.339 81.8903L167.106 81.267Z" fill="#E6AF41"/>
<path id="Path_22" d="M165.235 80.3321C167.725 78.7479 170.523 77.7121 173.444 77.2933C175.629 76.975 177.834 76.8102 180.042 76.7998L182.977 76.67C185.996 76.6769 188.974 75.9834 191.679 74.6441C193.674 73.5872 194.841 71.4381 194.641 69.19C194.641 68.6446 194.641 68.0732 194.485 67.5278C194.247 66.0328 194.362 64.5028 194.822 63.0605C195.602 61.203 197.225 59.8316 199.186 59.3725C201.756 58.8323 204.41 58.8323 206.979 59.3725H207.681C209.943 59.702 212.236 59.763 214.512 59.5543C216.608 59.4181 218.62 58.6785 220.305 57.4246C221.942 55.8662 221.292 54.0222 220.643 52.2301V51.8925C220.076 50.8059 219.993 49.5313 220.413 48.3802C220.833 47.2291 221.718 46.3076 222.851 45.841C224.361 45.2105 225.97 44.8501 227.605 44.7761C229.222 44.6721 230.845 44.6721 232.462 44.7761C235.585 45.1709 238.758 44.7688 241.684 43.6073C242.885 43.0762 243.821 42.0838 244.281 40.8543C244.809 38.2418 244.215 35.528 242.645 33.3743L243.216 33.0626C244.872 35.3761 245.484 38.2768 244.905 41.0621C244.316 42.4918 243.158 43.6117 241.71 44.1528C238.684 45.387 235.391 45.8165 232.15 45.3994C230.558 45.3084 228.963 45.3084 227.371 45.3994C225.82 45.4788 224.293 45.8123 222.851 46.3864C221.882 46.7917 221.127 47.5829 220.767 48.5691C220.407 49.5553 220.475 50.6469 220.955 51.5808V51.8925C221.63 53.7885 222.409 55.9182 220.435 57.7622C218.654 59.1191 216.513 59.9229 214.279 60.0737C211.942 60.2824 209.588 60.2214 207.265 59.8919H206.59C204.123 59.3735 201.575 59.3735 199.108 59.8919C197.355 60.3144 195.903 61.536 195.186 63.1904C194.788 64.5402 194.726 65.9666 195.004 67.346C195.004 67.9173 195.056 68.4887 195.16 69.0601C195.495 71.5935 194.249 74.0744 192.017 75.3194C189.212 76.6996 186.129 77.4193 183.003 77.4232L180.068 77.553C177.885 77.5614 175.707 77.7263 173.548 78.0465C170.722 78.456 168.013 79.456 165.599 80.9814L165.235 80.3321Z" fill="#B61351"/>
<path id="Path_23" d="M241.97 33.5821L161.209 80.5658L160.638 79.5789L241.944 32.3094" fill="white"/>
<path id="Path_24" d="M174.275 90.0717L173.834 89.8119L174.275 90.0717Z" fill="white"/>
<path id="Shape_4" fill-rule="evenodd" clip-rule="evenodd" d="M173.678 90.0197C173.496 90.0717 173.522 90.2275 173.678 90.2275C173.787 90.2672 173.906 90.2672 174.015 90.2275C174.197 90.1756 174.171 90.0197 174.015 90.0197C173.911 89.9594 173.782 89.9594 173.678 90.0197ZM173.626 90.0976H173.859C173.864 90.0997 173.869 90.1017 173.873 90.1035C173.794 90.1392 173.703 90.1372 173.626 90.0976ZM173.885 90.0976C173.885 90.0976 174.033 90.1715 173.873 90.1035C173.877 90.1017 173.881 90.0997 173.885 90.0976Z" fill="white"/>
<path id="Shape_5" fill-rule="evenodd" clip-rule="evenodd" d="M173.392 90.1755C173.21 90.2274 173.236 90.3833 173.392 90.3833C173.392 90.3833 173.392 90.3833 173.392 90.3833H173.34C173.327 90.3833 173.327 90.3833 173.33 90.4027C173.334 90.4222 173.34 90.4612 173.34 90.5391C173.424 90.5711 173.516 90.5711 173.6 90.5391C173.6 90.5391 173.63 90.479 173.637 90.4114C173.642 90.41 173.646 90.4086 173.651 90.4071C173.673 90.4002 173.699 90.3921 173.73 90.3833C173.911 90.3313 173.886 90.1755 173.73 90.1755C173.622 90.1277 173.499 90.1277 173.392 90.1755ZM173.637 90.4114C173.644 90.3532 173.634 90.2894 173.574 90.2534V90.3833H173.392C173.516 90.4451 173.541 90.4415 173.637 90.4114Z" fill="white"/>
<path id="Shape_6" d="M172.327 89.2405C172.327 89.2405 172.483 89.2405 172.561 89.2405C172.639 89.2405 172.561 89.3703 172.561 89.4223C172.462 89.469 172.348 89.469 172.249 89.4223C172.249 89.4223 172.249 89.4223 172.249 89.2664L172.327 89.2405Z" fill="white"/>
<path id="Shape_7" fill-rule="evenodd" clip-rule="evenodd" d="M171.96 89.6224C171.976 89.6274 171.994 89.6302 172.015 89.6302C172.133 89.6893 172.162 89.6886 172.248 89.6621C172.233 89.7282 172.197 89.786 172.197 89.786C172.113 89.818 172.021 89.818 171.937 89.786V89.6302C171.945 89.6273 171.952 89.6247 171.96 89.6224ZM171.96 89.6224C171.856 89.5903 171.858 89.4674 172.015 89.4224C172.129 89.3897 172.172 89.3981 172.226 89.4089C172.259 89.4152 172.295 89.4224 172.353 89.4224C172.509 89.4224 172.535 89.5782 172.353 89.6302C172.322 89.639 172.296 89.647 172.274 89.654C172.265 89.6569 172.256 89.6596 172.248 89.6621C172.262 89.6029 172.258 89.5371 172.197 89.5003V89.6302C172.121 89.601 172.037 89.5984 171.96 89.6224Z" fill="white"/>
<path id="Shape_8" d="M171.054 88.4873H171.21C171.21 88.4873 171.21 88.4873 171.21 88.6172C171.151 88.6701 171.061 88.6701 171.002 88.6172H170.82C170.82 88.6172 170.82 88.6172 170.82 88.4614L171.054 88.4873Z" fill="white"/>
<path id="Shape_9" fill-rule="evenodd" clip-rule="evenodd" d="M170.583 88.8691C170.599 88.8741 170.618 88.8769 170.639 88.8769C170.711 88.9092 170.791 88.9197 170.868 88.9082C170.852 88.9624 170.82 89.0067 170.82 89.0067C170.739 89.0483 170.642 89.0483 170.561 89.0067V88.8769C170.568 88.874 170.576 88.8714 170.583 88.8691ZM170.583 88.8691C170.479 88.837 170.481 88.7141 170.639 88.6691C170.753 88.6364 170.795 88.6448 170.85 88.6556C170.882 88.6619 170.918 88.6691 170.976 88.6691C171.132 88.6691 171.158 88.8249 170.976 88.8769C170.942 88.8923 170.905 88.9027 170.868 88.9082C170.885 88.8526 170.886 88.7865 170.82 88.747V88.8769C170.744 88.8477 170.661 88.8451 170.583 88.8691Z" fill="white"/>
<path id="Path_25" d="M169.781 88.0718L169.521 87.7601L169.781 88.0718H169.937H169.781Z" fill="white"/>
<path id="Shape_10" fill-rule="evenodd" clip-rule="evenodd" d="M169.202 88.0885C169.219 88.0944 169.239 88.0978 169.262 88.0978H169.184C169.19 88.0944 169.196 88.0913 169.202 88.0885ZM169.202 88.0885C169.103 88.0546 169.107 87.9381 169.262 87.916C169.376 87.8996 169.419 87.9038 169.473 87.9092C169.505 87.9124 169.542 87.916 169.6 87.916C169.755 87.916 169.781 88.0718 169.6 88.1237C169.488 88.1603 169.366 88.151 169.262 88.0978H169.314C169.395 88.1394 169.492 88.1394 169.574 88.0978C169.574 88.0978 169.574 88.0718 169.444 87.9939V88.0978C169.369 88.0547 169.278 88.0516 169.202 88.0885Z" fill="white"/>
<path id="Shape_11" d="M168.379 87.2666C168.379 87.2666 168.379 87.2666 168.379 87.1108C168.296 87.1486 168.201 87.1486 168.119 87.1108C168.119 87.1108 167.989 87.1108 168.119 86.955C168.219 86.9171 168.33 86.9171 168.431 86.955C168.431 86.955 168.586 86.955 168.586 87.1108L168.379 87.2666Z" fill="white"/>
<path id="Shape_12" fill-rule="evenodd" clip-rule="evenodd" d="M167.824 87.3357C167.842 87.3413 167.862 87.3446 167.885 87.3446H167.807C167.813 87.3414 167.818 87.3384 167.824 87.3357ZM168.062 87.3422C167.988 87.3013 167.899 87.2991 167.824 87.3357C167.717 87.3022 167.688 87.185 167.755 87.1628C167.805 87.1462 167.876 87.1508 167.961 87.1563C168.009 87.1594 168.062 87.1628 168.119 87.1628C168.275 87.1628 168.301 87.3186 168.119 87.3446C168.043 87.3724 167.96 87.3724 167.885 87.3446H168.041C168.047 87.3446 168.055 87.3438 168.062 87.3422ZM168.067 87.3412V87.3446C168.065 87.3438 168.064 87.343 168.062 87.3422C168.064 87.3419 168.065 87.3416 168.067 87.3412ZM168.067 87.2407V87.3412C168.119 87.329 168.177 87.2848 168.067 87.2407Z" fill="white"/>
<path id="Path_26" d="M166.976 86.5134H166.664C166.664 86.5134 166.664 86.5134 166.664 86.3316C166.723 86.3845 166.813 86.3845 166.872 86.3316L167.08 86.4615H166.898L166.976 86.5134Z" fill="white"/>
<path id="Shape_13" fill-rule="evenodd" clip-rule="evenodd" d="M166.449 86.5828C166.466 86.5882 166.486 86.5913 166.508 86.5913C166.566 86.6059 166.627 86.6046 166.684 86.5882C166.686 86.5892 166.688 86.5903 166.69 86.5913V86.5863C166.708 86.5808 166.725 86.5738 166.742 86.5654C166.747 86.5647 166.752 86.5639 166.756 86.563C166.777 86.6423 166.727 86.7472 166.69 86.7472C166.675 86.7472 166.649 86.7595 166.617 86.7737C166.538 86.8101 166.43 86.8592 166.43 86.7472V86.5913C166.436 86.5883 166.442 86.5854 166.449 86.5828ZM166.449 86.5828C166.34 86.5495 166.311 86.4282 166.378 86.3836C166.493 86.3277 166.627 86.3277 166.742 86.3836C166.894 86.3836 166.922 86.5311 166.756 86.563C166.748 86.5306 166.728 86.5025 166.69 86.4874V86.5863C166.688 86.587 166.686 86.5876 166.684 86.5882C166.61 86.5527 166.524 86.5508 166.449 86.5828Z" fill="white"/>
<path id="Shape_14" d="M165.261 85.5005H165.391H165.547V85.7603L165.391 85.7083L165.261 85.5005Z" fill="white"/>
<path id="Shape_15" fill-rule="evenodd" clip-rule="evenodd" d="M165.131 85.6304C164.924 85.6824 164.976 85.8382 165.131 85.8382H165.054C165.028 85.8382 165.028 85.8382 165.034 85.8577C165.041 85.8772 165.054 85.9161 165.054 85.994C165.054 86.1061 165.161 86.057 165.241 86.0205C165.272 86.0063 165.299 85.994 165.313 85.994C165.335 85.994 165.361 85.9439 165.375 85.8856C165.417 85.8778 165.458 85.862 165.495 85.8382C165.677 85.8122 165.651 85.6304 165.495 85.6304C165.378 85.5841 165.248 85.5841 165.131 85.6304ZM165.375 85.8856C165.394 85.8048 165.389 85.7083 165.313 85.7083V85.8382H165.131C165.205 85.8852 165.292 85.901 165.375 85.8856Z" fill="white"/>
<path id="Path_27" d="M164.092 84.6954C164.15 84.7233 164.217 84.7233 164.274 84.6954H164.404C164.404 84.6954 164.248 84.6954 164.196 84.6954C164.144 84.6954 164.196 84.6954 164.196 84.6954H163.988C163.988 84.6954 163.988 84.6954 163.988 84.5396H164.144L164.092 84.6954Z" fill="white"/>
<path id="Shape_16" fill-rule="evenodd" clip-rule="evenodd" d="M163.651 84.8772C163.443 84.9291 163.495 85.0848 163.651 85.085H163.573C163.547 85.085 163.547 85.085 163.553 85.1045C163.56 85.1239 163.573 85.1629 163.573 85.2408C163.573 85.3529 163.68 85.3038 163.76 85.2673C163.791 85.2531 163.818 85.2408 163.833 85.2408C163.861 85.2408 163.926 85.1807 163.96 85.113C163.979 85.1054 163.997 85.0961 164.014 85.085C164.196 85.033 164.17 84.8772 164.014 84.8772C163.958 84.8772 163.922 84.8704 163.889 84.8642C163.831 84.8532 163.783 84.8441 163.651 84.8772ZM163.96 85.113C163.99 85.0549 163.996 84.9911 163.936 84.9551L163.833 85.085H163.651C163.651 85.085 163.651 85.085 163.651 85.085C163.744 85.1448 163.86 85.1541 163.96 85.113Z" fill="white"/>
<path id="Path_28" d="M162.664 83.8902C162.635 83.9564 162.635 84.0317 162.664 84.098C162.722 84.1225 162.787 84.1225 162.845 84.098C162.772 84.135 162.685 84.135 162.612 84.098C162.586 84.0312 162.586 83.957 162.612 83.8902H162.456H162.664Z" fill="white"/>
<path id="Shape_17" fill-rule="evenodd" clip-rule="evenodd" d="M162.352 84.124C162.17 84.176 162.352 84.3318 162.352 84.3318H162.3C162.274 84.3318 162.274 84.3318 162.281 84.3513C162.287 84.3708 162.3 84.4097 162.3 84.4876C162.3 84.5997 162.408 84.5506 162.487 84.5142C162.518 84.4999 162.545 84.4876 162.56 84.4876C162.588 84.4876 162.616 84.4278 162.619 84.3603C162.63 84.3572 162.641 84.3538 162.653 84.3502C162.672 84.3446 162.693 84.3384 162.716 84.3318C162.898 84.2799 162.872 84.124 162.716 84.124C162.659 84.124 162.62 84.1172 162.584 84.111C162.521 84.1 162.468 84.0909 162.352 84.124ZM162.619 84.3603C162.623 84.302 162.608 84.2381 162.56 84.202V84.3318H162.352C162.475 84.3934 162.517 84.3901 162.619 84.3603Z" fill="white"/>
<path id="Path_29" d="M161.573 83.4227L161.053 83.111L161.573 83.4227Z" fill="white"/>
<path id="Shape_18" fill-rule="evenodd" clip-rule="evenodd" d="M161.053 83.3707C160.871 83.4227 161.053 83.5785 161.053 83.5785C161.053 83.5785 161.053 83.5785 161.053 83.5785H161.001C161.052 83.6043 161.108 83.6141 161.163 83.608C161.248 83.6205 161.336 83.6107 161.417 83.5785C161.599 83.5266 161.573 83.3707 161.417 83.3707C161.36 83.3707 161.321 83.3639 161.285 83.3577C161.222 83.3467 161.169 83.3376 161.053 83.3707ZM161.261 83.5785C161.23 83.5944 161.197 83.6042 161.163 83.608C161.126 83.6024 161.089 83.5926 161.053 83.5785H161.261ZM161.183 83.4487L161.261 83.5785C161.261 83.5785 161.287 83.5266 161.183 83.4487Z" fill="white"/>
<path id="Shape_19" fill-rule="evenodd" clip-rule="evenodd" d="M159.599 82.6176C159.417 82.6436 159.443 82.7994 159.599 82.7994C159.599 82.7994 159.599 82.7994 159.599 82.7994H159.547C159.541 82.7994 159.537 82.7994 159.536 82.801C159.531 82.8064 159.547 82.8294 159.547 82.9293C159.547 83.0227 159.654 82.9817 159.734 82.9514C159.765 82.9395 159.792 82.9293 159.806 82.9293C159.836 82.9293 159.865 82.8718 159.866 82.8122C159.886 82.8077 159.909 82.8033 159.936 82.7994C160.118 82.7735 160.092 82.6176 159.936 82.6176C159.832 82.5573 159.703 82.5573 159.599 82.6176ZM159.866 82.8122C159.867 82.7658 159.852 82.7183 159.806 82.6955V82.7994H159.599C159.707 82.8537 159.74 82.845 159.812 82.8258C159.828 82.8216 159.845 82.8169 159.866 82.8122Z" fill="white"/>
<path id="Path_30" d="M236.385 35.504C236.486 35.405 236.647 35.405 236.748 35.504L237.631 35.9975C237.73 36.0984 237.73 36.2601 237.631 36.3611C237.53 36.4601 237.369 36.4601 237.268 36.3611L236.385 35.8936C236.282 35.7838 236.282 35.6137 236.385 35.504Z" fill="white"/>
<path id="Path_31" d="M229.501 39.4258C229.602 39.3268 229.763 39.3268 229.864 39.4258L230.748 39.9193C230.85 40.029 230.85 40.1991 230.748 40.3089C230.647 40.4079 230.485 40.4079 230.384 40.3089L229.501 39.8154C229.414 39.7098 229.414 39.5573 229.501 39.4518V39.4258Z" fill="white"/>
<path id="Path_32" d="M222.747 43.3736C222.848 43.2746 223.01 43.2746 223.111 43.3736L223.994 43.8411C224.096 43.9508 224.096 44.121 223.994 44.2307C223.893 44.3297 223.731 44.3297 223.63 44.2307L222.747 43.7372C222.679 43.7092 222.626 43.6537 222.601 43.5843C222.576 43.515 222.582 43.4384 222.617 43.3736H222.747Z" fill="white"/>
<path id="Path_33" d="M215.967 47.2954C216.077 47.1932 216.247 47.1932 216.357 47.2954L217.24 47.7889C217.339 47.8899 217.339 48.0515 217.24 48.1525C217.195 48.2074 217.129 48.2393 217.058 48.2393C216.987 48.2393 216.921 48.2074 216.876 48.1525L215.993 47.685C215.891 47.5753 215.891 47.4052 215.993 47.2954H215.967Z" fill="white"/>
<path id="Path_34" d="M209.213 51.2172C209.323 51.1149 209.493 51.1149 209.603 51.2172L210.486 51.7106C210.588 51.7973 210.616 51.943 210.554 52.0614C210.492 52.1798 210.356 52.2391 210.226 52.2041L209.343 51.7106C209.241 51.6009 209.241 51.4308 209.343 51.321L209.213 51.2172Z" fill="white"/>
<path id="Path_35" d="M202.459 55.165C202.509 55.1091 202.58 55.0771 202.654 55.0771C202.729 55.0771 202.8 55.1091 202.849 55.165L203.732 55.6325C203.835 55.7422 203.835 55.9124 203.732 56.0221C203.631 56.1211 203.47 56.1211 203.369 56.0221L202.615 55.5286C202.516 55.4276 202.516 55.266 202.615 55.165H202.459Z" fill="white"/>
<path id="Path_36" d="M195.706 59.0868C195.815 58.9845 195.986 58.9845 196.095 59.0868L196.978 59.5803C197.108 59.652 197.154 59.8148 197.082 59.9439C197.011 60.073 196.848 60.1195 196.719 60.0478L195.81 59.5803C195.707 59.4706 195.707 59.3004 195.81 59.1907L195.706 59.0868Z" fill="white"/>
<path id="Path_37" d="M188.952 63.0086C189.061 62.9063 189.232 62.9063 189.341 63.0086L190.225 63.5021C190.324 63.6031 190.324 63.7647 190.225 63.8657C190.191 63.9355 190.131 63.9887 190.057 64.0132C189.984 64.0377 189.904 64.0313 189.835 63.9956L188.952 63.5021C188.849 63.3924 188.849 63.2222 188.952 63.1125V63.0086Z" fill="white"/>
<path id="Path_38" d="M182.198 66.9303C182.308 66.8281 182.478 66.8281 182.588 66.9303L183.471 67.4238C183.573 67.5335 183.573 67.7037 183.471 67.8134C183.361 67.9157 183.191 67.9157 183.081 67.8134L182.198 67.3199C182.099 67.2189 182.099 67.0573 182.198 66.9563V66.9303Z" fill="white"/>
<path id="Path_39" d="M175.444 70.8782C175.554 70.7759 175.724 70.7759 175.834 70.8782L176.717 71.3457C176.842 71.4294 176.881 71.596 176.805 71.7264C176.73 71.8568 176.566 71.9061 176.431 71.8392L175.548 71.3457C175.449 71.2447 175.449 71.0831 175.548 70.9821L175.444 70.8782Z" fill="white"/>
<path id="Path_40" d="M236.384 35.2183L235.969 34.9846C235.787 34.9846 235.813 34.8288 235.969 34.7768C235.969 34.7768 235.969 34.7768 235.969 34.9067L236.384 35.2183Z" fill="white"/>
<path id="Shape_20" d="M235.319 35.0884C235.393 35.0513 235.48 35.0513 235.553 35.0884C235.553 35.0884 235.553 35.0884 235.553 35.3221C235.608 35.3611 235.681 35.3611 235.735 35.3221C235.628 35.3734 235.504 35.3734 235.397 35.3221H235.241L235.319 35.0884Z" fill="white"/>
<path id="Path_41" d="M235.475 35.3482C235.369 35.3995 235.244 35.3995 235.138 35.3482L234.878 35.1923L235.138 35.3222C235.197 35.3751 235.286 35.3751 235.346 35.3222L235.06 35.1664L235.475 35.3482Z" fill="white"/>
<path id="Path_42" d="M229.787 38.9582L229.527 39.1141H229.735H229.527H229.345H229.553L229.267 38.9582H229.787Z" fill="white"/>
<path id="Shape_21" d="M229.007 38.9583C228.919 38.9073 228.81 38.9073 228.722 38.9583C228.853 38.8934 229.006 38.8934 229.137 38.9583C229.137 38.9583 229.293 39.1402 229.137 39.1921C229.025 39.257 228.886 39.257 228.774 39.1921L229.007 38.9583Z" fill="white"/>
<path id="Shape_22" fill-rule="evenodd" clip-rule="evenodd" d="M228.846 39.0913L228.592 38.9583L228.618 38.8544H228.488C228.306 38.9063 228.306 39.0881 228.488 39.0881C228.506 39.0984 228.524 39.1071 228.543 39.1141H228.384V39.2699C228.476 39.3061 228.578 39.3061 228.67 39.2699H228.592V39.1284C228.677 39.1471 228.767 39.1347 228.846 39.0913ZM228.846 39.0913L229.137 39.244L228.851 39.0881C228.849 39.0892 228.848 39.0903 228.846 39.0913ZM228.592 39.1284V39.1141H228.543C228.559 39.12 228.575 39.1248 228.592 39.1284Z" fill="white"/>
<path id="Path_43" d="M222.254 42.984L222.513 43.1398L222.331 42.984L222.124 42.7502H222.487H222.799L222.513 42.5944L222.28 42.4385L222.877 42.8022H222.487H222.228L222.409 42.958L222.617 43.1658L221.942 42.8281L222.254 42.984Z" fill="white"/>
<path id="Shape_23" d="M221.604 43.0619C221.68 43.0362 221.762 43.0362 221.838 43.0619C221.838 43.0619 221.838 43.2177 221.838 43.2957C221.892 43.3347 221.965 43.3347 222.02 43.2957C221.913 43.347 221.789 43.347 221.682 43.2957H221.526L221.604 43.0619Z" fill="white"/>
<path id="Path_44" d="M221.76 43.3217H221.604L221.37 43.1918L221.76 43.3217Z" fill="white"/>
<path id="Shape_24" d="M215.604 46.75V46.5682L216.071 47.0097L215.214 46.75H215.604Z" fill="white"/>
<path id="Shape_25" fill-rule="evenodd" clip-rule="evenodd" d="M215.292 47.0303C215.346 47.0252 215.399 47.0097 215.448 46.9837L214.99 46.7878C215.008 46.7723 215.031 46.7591 215.058 46.75H214.902L214.99 46.7878C214.907 46.8603 214.93 46.9837 215.058 46.9837C215.067 46.9883 215.075 46.9925 215.084 46.9964V47.1656C215.178 47.1897 215.276 47.1897 215.37 47.1656L215.292 47.0303ZM215.292 47.0303L215.266 46.9837C215.208 46.9592 215.142 46.9592 215.084 46.9837V46.9964C215.15 47.0258 215.222 47.0371 215.292 47.0303Z" fill="white"/>
<path id="Path_45" d="M215.032 47.2435L214.772 47.0876L215.032 47.2435Z" fill="white"/>
<path id="Path_46" d="M208.928 50.7497L209.187 50.8796L209.005 50.7238L208.798 50.516L209.187 50.6458H209.499L209.213 50.49L208.979 50.3342L209.577 50.6978H209.187H208.928L209.109 50.8536L209.317 51.0614L208.642 50.7497H208.928Z" fill="white"/>
<path id="Shape_26" d="M208.278 50.8017C208.352 50.7646 208.438 50.7646 208.512 50.8017C208.512 50.8017 208.512 50.9315 208.512 51.0095C208.58 51.0228 208.651 51.0228 208.72 51.0095C208.613 51.0608 208.489 51.0608 208.382 51.0095H208.226L208.278 50.8017Z" fill="white"/>
<path id="Path_47" d="M208.538 51.1652H208.2H208.07L208.278 51.347L208.044 51.1132C208.044 51.1132 207.811 50.9055 207.811 50.8535L208.356 50.9834L208.538 51.1652Z" fill="white"/>
<path id="Path_48" d="M202.615 54.8533L202.2 54.6455C202.018 54.6455 202.044 54.4897 202.2 54.4378C202.2 54.4378 202.2 54.4378 202.2 54.5676L202.615 54.8533Z" fill="white"/>
<path id="Path_49" d="M201.576 54.8533C201.576 54.8533 201.576 54.8533 201.576 54.7235C201.674 54.6727 201.79 54.6727 201.888 54.7235L202.148 54.8793L201.888 54.7494C201.814 54.7124 201.728 54.7124 201.654 54.7494L201.94 54.9053L201.576 54.8533Z" fill="white"/>
<path id="Path_50" d="M201.654 55.0351H201.784H201.654C201.654 55.0351 201.472 55.0351 201.316 55.0351H201.057L201.316 55.191C201.383 55.217 201.457 55.217 201.524 55.191L201.239 55.0351H201.654Z" fill="white"/>
<path id="Path_51" d="M195.602 58.905L195.186 58.6712C195.03 58.6712 195.03 58.5154 195.186 58.4635C195.186 58.4635 195.186 58.4635 195.186 58.5933L195.602 58.905Z" fill="white"/>
<path id="Path_52" d="M194.615 58.905H194.77C194.77 58.905 194.926 58.905 195.082 58.905L195.342 59.0608L195.082 58.9309C195.082 58.9309 194.926 58.9309 194.874 58.9309C194.822 58.9309 194.874 58.9309 194.874 58.9309L195.134 59.0868L194.615 58.905Z" fill="white"/>
<path id="Path_53" d="M195.056 59.2426L194.407 58.879L195.056 59.2426Z" fill="white"/>
<path id="Shape_27" d="M188.848 62.3333H188.692L189.134 62.7749L188.354 62.5411H188.614L188.848 62.3333Z" fill="white"/>
<path id="Path_54" d="M188.095 62.671H188.25C188.25 62.671 188.406 62.671 188.588 62.671L188.848 62.8268H188.614C188.614 62.8268 188.432 62.8268 188.38 62.8268C188.328 62.8268 188.38 62.8268 188.38 62.8268L188.64 62.9826L188.095 62.671Z" fill="white"/>
<path id="Shape_28" fill-rule="evenodd" clip-rule="evenodd" d="M188.101 62.9749C188.072 62.9741 188.044 62.968 188.017 62.9566L188.013 62.9517C188.043 62.9566 188.073 62.9643 188.101 62.9749ZM187.757 62.9825L188.017 63.1124L188.121 63.2163C188.276 63.1643 188.276 62.9825 188.121 62.9825C188.114 62.9798 188.108 62.9773 188.101 62.9749C188.134 62.9758 188.167 62.9697 188.199 62.9566V62.8007C188.11 62.7497 188.001 62.7497 187.913 62.8007L188.013 62.9517C187.927 62.9378 187.839 62.9481 187.757 62.9825ZM187.757 62.9825V62.8267H187.601C187.601 62.9825 187.757 62.9825 187.757 62.9825Z" fill="white"/>
<path id="Path_55" d="M181.964 66.2291H181.834H182.068C182.166 66.1783 182.282 66.1783 182.38 66.2291C182.38 66.2291 182.38 66.359 182.38 66.4369H182.198H182.328C182.252 66.4112 182.17 66.4112 182.094 66.4369C181.994 66.4773 181.882 66.4773 181.782 66.4369C181.782 66.4369 181.782 66.4369 181.782 66.2291H181.938H181.964Z" fill="white"/>
<path id="Shape_29" d="M181.678 66.5149C181.59 66.4638 181.481 66.4638 181.393 66.5149C181.514 66.4502 181.66 66.4502 181.782 66.5149C181.938 66.5149 181.964 66.6967 181.782 66.7486C181.67 66.8136 181.531 66.8136 181.419 66.7486L181.678 66.5149Z" fill="white"/>
<path id="Shape_30" d="M181.419 66.7745H181.575H181.445C181.323 66.8392 181.177 66.8392 181.055 66.7745C180.899 66.7745 180.899 66.5927 181.055 66.5408H181.263L181.003 66.4109L181.419 66.7745Z" fill="white"/>
<path id="Shape_31" fill-rule="evenodd" clip-rule="evenodd" d="M174.899 70.5352C174.914 70.5456 174.932 70.5561 174.95 70.5665C174.979 70.5832 175.009 70.597 175.04 70.6079C174.992 70.6013 174.944 70.5875 174.899 70.5665V70.5352ZM174.899 70.5352C174.718 70.4162 174.736 70.3026 174.95 70.2548C175.122 70.167 175.325 70.167 175.496 70.2548C175.678 70.3847 175.73 70.4886 175.496 70.5665C175.356 70.6473 175.189 70.6611 175.04 70.6079C175.132 70.6204 175.228 70.6066 175.314 70.5665C175.314 70.5665 175.444 70.4107 175.314 70.3328C175.182 70.2716 175.03 70.2716 174.899 70.3328V70.5352Z" fill="white"/>
<path id="Path_56" d="M174.301 70.5924C174.432 70.5275 174.586 70.5275 174.717 70.5924C174.717 70.5924 174.873 70.7742 174.717 70.8262C174.717 70.8262 174.717 70.8262 174.717 70.6704C174.633 70.6054 174.515 70.6054 174.431 70.6704L174.301 70.5924Z" fill="white"/>
<path id="Path_57" d="M174.691 71.008L174.431 70.8522H174.041H174.197H174.353L174.587 70.982L174.691 71.008Z" fill="white"/>
<path id="Path_58" d="M168.846 74.774C168.956 74.6717 169.126 74.6717 169.236 74.774L170.119 75.2674C170.221 75.3772 170.221 75.5473 170.119 75.657C170.009 75.7593 169.839 75.7593 169.729 75.657L168.846 75.1635C168.747 75.0625 168.747 74.9009 168.846 74.7999V74.774Z" fill="white"/>
<path id="Path_59" d="M161.962 78.7217C162.063 78.6228 162.225 78.6228 162.326 78.7217L163.235 79.1892C163.338 79.299 163.338 79.4691 163.235 79.5788C163.126 79.6811 162.955 79.6811 162.846 79.5788L161.962 79.0854C161.863 78.9844 161.863 78.8227 161.962 78.7217Z" fill="white"/>
<path id="Path_60" d="M168.456 73.9688L169.08 74.3064H168.586H168.3L168.56 74.4623L168.82 74.5921L168.197 74.2285H168.69H168.976L168.716 74.0987L168.456 73.9428V73.9688Z" fill="white"/>
<path id="Shape_32" fill-rule="evenodd" clip-rule="evenodd" d="M167.885 74.3324C167.729 74.3844 167.729 74.5662 167.885 74.5662C168.007 74.6308 168.153 74.6308 168.275 74.5662C168.43 74.5142 168.43 74.3324 168.275 74.3324C168.153 74.2678 168.007 74.2678 167.885 74.3324ZM167.885 74.3844C167.977 74.3482 168.079 74.3482 168.171 74.3844C168.249 74.4363 168.171 74.5402 168.171 74.5402C168.079 74.5764 167.977 74.5764 167.885 74.5402V74.3844Z" fill="white"/>
<path id="Path_61" d="M167.989 74.748H167.677H167.521L167.703 74.9298L167.391 74.5922L167.963 74.748H167.989Z" fill="white"/>
<path id="Shape_33" fill-rule="evenodd" clip-rule="evenodd" d="M162.118 78.2803H162.248L161.495 77.9426L161.365 78.0985C161.397 78.1824 161.463 78.2486 161.547 78.2803H161.625V78.3062C161.761 78.3851 161.93 78.3851 162.066 78.3062L162.055 78.2991C162.077 78.2946 162.098 78.2884 162.118 78.2803ZM162.055 78.2991L161.625 78.0205V78.2803H161.833C161.904 78.3083 161.981 78.3146 162.055 78.2991Z" fill="white"/>
<path id="Shape_34" d="M161.313 78.3581C161.183 78.3581 161.079 78.3581 161.027 78.3581C160.975 78.3581 161.027 78.3581 161.027 78.3581C161.149 78.2935 161.295 78.2935 161.417 78.3581C161.573 78.3581 161.599 78.5399 161.417 78.5919C161.304 78.6568 161.166 78.6568 161.053 78.5919L161.313 78.3581Z" fill="white"/>
<path id="Path_62" d="M160.845 78.488H161.053C161.053 78.488 161.053 78.488 161.053 78.6439H160.664C160.664 78.6439 160.664 78.6439 160.664 78.488H160.845Z" fill="white"/>
<path id="Path_63" d="M161.209 80.5658L182.951 93.0325L184.38 92.3053L161.365 79.475L161.209 80.5658Z" fill="white"/>
</g>
<g id="Group_2" opacity="0.86">
<path id="Path_64" d="M134.869 182.793C134.767 182.816 134.66 182.816 134.557 182.793L117.517 173.546C117.197 173.365 117.082 172.961 117.257 172.637C117.448 172.327 117.85 172.224 118.166 172.404L135.207 181.624C135.515 181.814 135.628 182.208 135.467 182.533C135.319 182.709 135.098 182.805 134.869 182.793Z" fill="url(#paint19_linear)"/>
<path id="Path_65" d="M179.782 208.869C179.539 208.863 179.315 208.736 179.185 208.531C179.009 208.208 179.125 207.804 179.444 207.622L193.887 199.311C194.091 199.132 194.383 199.093 194.627 199.211C194.871 199.33 195.021 199.583 195.007 199.854C194.993 200.125 194.818 200.361 194.563 200.454L180.094 208.765C180.005 208.834 179.895 208.871 179.782 208.869Z" fill="url(#paint20_linear)"/>
<path id="Path_66" d="M200.459 195.727C200.224 195.717 200.01 195.59 199.888 195.389C199.796 195.235 199.772 195.051 199.821 194.878C199.871 194.706 199.989 194.562 200.148 194.48L214.59 186.169C214.907 185.989 215.309 186.093 215.5 186.403C215.591 186.556 215.615 186.741 215.566 186.913C215.517 187.085 215.399 187.23 215.24 187.312L200.797 195.649C200.692 195.702 200.577 195.728 200.459 195.727Z" fill="url(#paint21_linear)"/>
<path id="Oval" d="M214.538 188.766C216.03 188.766 217.24 187.975 217.24 187C217.24 186.025 216.03 185.234 214.538 185.234C213.046 185.234 211.837 186.025 211.837 187C211.837 187.975 213.046 188.766 214.538 188.766Z" fill="url(#paint22_linear)"/>
<path id="Path_67" d="M100.788 156.664C100.557 156.665 100.341 156.548 100.217 156.353C100.041 156.03 100.157 155.626 100.476 155.444L113.62 147.652C113.937 147.472 114.339 147.576 114.53 147.886C114.621 148.04 114.645 148.224 114.596 148.396C114.547 148.569 114.429 148.713 114.27 148.795L101.126 156.457C101.035 156.556 100.918 156.628 100.788 156.664Z" fill="url(#paint23_linear)"/>
<path id="Path_68" d="M116.244 162.82C116.003 162.833 115.777 162.7 115.673 162.482C115.495 162.174 115.6 161.78 115.906 161.599L129.05 153.808C129.374 153.632 129.778 153.748 129.96 154.067C130.139 154.384 130.036 154.786 129.726 154.976L116.556 162.638C116.47 162.725 116.362 162.788 116.244 162.82Z" fill="url(#paint24_linear)"/>
<path id="Path_69" d="M155.546 203.544L125.777 186.143C125.355 185.936 125.056 185.541 124.972 185.078C124.968 184.539 125.284 184.049 125.777 183.831L136.506 177.858C137.767 177.236 139.245 177.236 140.506 177.858L170.275 195.259C170.77 195.427 171.103 195.892 171.103 196.415C171.103 196.938 170.77 197.403 170.275 197.571L169.937 197.753L159.547 203.544C158.293 204.196 156.8 204.196 155.546 203.544Z" fill="url(#paint25_linear)"/>
<path id="Path_70" d="M155.546 202.713L125.777 185.312C125.349 185.112 125.048 184.713 124.972 184.247C124.968 183.708 125.284 183.218 125.777 183L136.506 177.027C137.767 176.405 139.245 176.405 140.506 177.027L170.275 194.428C170.77 194.596 171.103 195.061 171.103 195.584C171.103 196.107 170.77 196.571 170.275 196.74L169.937 196.921L159.547 202.713C158.293 203.365 156.8 203.365 155.546 202.713Z" fill="url(#paint26_linear)"/>
<path id="Path_71" d="M126.738 158.431L108.061 147.626C107.629 147.426 107.32 147.029 107.23 146.561C107.29 146.068 107.606 145.643 108.061 145.444L115.465 141.471C116.726 140.849 118.204 140.849 119.465 141.471L138.142 152.223C139.259 152.847 139.259 153.885 138.142 154.535L137.83 154.717L130.739 158.431C129.485 159.082 127.992 159.082 126.738 158.431Z" fill="url(#paint27_linear)"/>
<path id="Path_72" d="M126.738 157.548L108.061 146.795C107.629 146.595 107.32 146.198 107.23 145.73C107.241 145.194 107.567 144.716 108.061 144.51L115.465 140.51C116.726 139.888 118.204 139.888 119.465 140.51L138.142 151.262C139.259 151.912 139.259 152.95 138.142 153.574L137.83 153.756L130.739 157.548C129.485 158.199 127.992 158.199 126.738 157.548Z" fill="url(#paint28_linear)"/>
<path id="Path_73" d="M113.257 177.988L83.488 160.586C83.0572 160.371 82.7503 159.968 82.6567 159.495C82.6671 158.96 82.9932 158.481 83.488 158.275L94.2162 152.301C95.4701 151.65 96.9627 151.65 98.2166 152.301L127.985 169.703C128.48 169.871 128.813 170.336 128.813 170.858C128.813 171.381 128.48 171.846 127.985 172.014L127.648 172.196L117.257 177.988C115.996 178.61 114.518 178.61 113.257 177.988Z" fill="url(#paint29_linear)"/>
<path id="Path_74" d="M113.257 177.157L83.488 159.755C83.0583 159.551 82.7502 159.157 82.6567 158.69C82.6567 158.145 82.9846 157.653 83.488 157.444L94.2162 151.47C95.4701 150.819 96.9627 150.819 98.2166 151.47L127.985 168.819C128.48 168.988 128.813 169.452 128.813 169.975C128.813 170.498 128.48 170.963 127.985 171.131L127.648 171.313L117.257 177.105C116.004 177.743 114.526 177.762 113.257 177.157Z" fill="url(#paint30_linear)"/>
<path id="Path_75" d="M108.165 169.754L104.451 171.936L101.567 170.274C101.437 170.274 101.308 170.274 101.308 170.092L98.9697 168.819L102.399 166.82C102.424 166.697 102.533 166.609 102.658 166.612L104.736 165.391C104.786 165.294 104.887 165.233 104.996 165.235C105.152 165.235 105.256 165.235 105.256 165.417L106.009 165.833L105.256 165.417H104.918L102.918 166.56C102.918 166.56 102.918 166.742 102.658 166.742H102.528L99.1775 168.819L101.36 170.092C101.515 170.092 101.619 170.092 101.619 170.274L104.399 171.884L108.165 169.754Z" fill="url(#paint31_linear)"/>
<path id="Path_76" d="M119.777 175.183C119.777 175.183 119.777 175.183 119.595 175.183L116.218 173.235H116.062C115.854 173.235 115.673 173.235 115.673 172.975C115.673 172.715 115.673 172.975 115.673 172.975L111.075 170.378L116.556 167.131C116.528 167.074 116.528 167.007 116.556 166.949C116.525 166.874 116.525 166.791 116.556 166.716L114.945 165.781H114.763C114.556 165.781 114.374 165.781 114.374 165.495C114.374 165.209 114.374 165.495 114.374 165.495L112.503 164.404H112.296C112.088 164.404 111.932 164.404 111.932 164.144L109.334 162.716H109.101C108.893 162.716 108.711 162.716 108.711 162.43L107.36 161.028C107.216 161.072 107.062 161.072 106.919 161.028H106.503L104.217 162.326C104.217 162.482 104.035 162.586 103.827 162.586H103.62L101.412 163.833L86.7869 155.366L101.308 163.755L103.412 162.56C103.412 162.404 103.594 162.274 103.801 162.274H103.957L106.269 160.95C106.254 160.89 106.254 160.828 106.269 160.768C106.269 160.508 106.555 160.327 106.893 160.327C107.23 160.327 107.542 160.508 107.542 160.768C107.553 160.819 107.553 160.873 107.542 160.924L109.282 161.911C109.49 161.911 109.672 161.911 109.672 162.171L112.27 163.651H112.4C112.607 163.651 112.789 163.651 112.789 163.937L114.685 165.053H114.841C115.049 165.053 115.231 165.053 115.231 165.313C115.231 165.573 115.231 165.313 115.231 165.313L116.893 166.3H117.101C117.413 166.3 117.647 166.482 117.647 166.69C117.647 166.898 117.413 167.079 117.101 167.079H116.816L111.438 170.274L115.906 172.871H116.088C116.296 172.871 116.478 172.871 116.478 173.131C116.478 173.391 116.478 173.131 116.478 173.131L119.777 175.027V175.183Z" fill="url(#paint32_linear)"/>
<path id="Path_77" d="M112.971 178.949L117.699 176.222L109.334 171.417L117.829 176.325L113.075 179.208C113.075 179.208 113.075 179.208 112.945 179.208C112.815 179.208 112.919 178.975 112.971 178.949Z" fill="url(#paint33_linear)"/>
<path id="Path_78" d="M109.101 171.754L116.66 176.118L112.374 178.559L116.504 176.196L109.101 171.936V171.754Z" fill="url(#paint34_linear)"/>
<path id="Path_79" d="M117.881 175.079C117.673 175.079 117.517 175.079 117.517 174.819L110.036 170.508C110.003 170.451 110.003 170.382 110.036 170.326L117.595 174.689H117.751C117.985 174.689 118.14 174.689 118.14 174.975L119.024 175.494C119.056 175.551 119.056 175.62 119.024 175.676C118.969 175.715 118.896 175.715 118.842 175.676L117.881 175.105V175.079Z" fill="url(#paint35_linear)"/>
<path id="Path_80" d="M97.8269 168.43H98.1126L101.308 166.716C101.308 166.716 101.308 166.534 101.567 166.534L104.841 164.664C104.841 164.534 104.996 164.404 105.204 164.404C105.368 164.388 105.515 164.502 105.542 164.664L106.919 165.495L105.516 164.638H105.308H105.074L101.879 166.482C101.879 166.482 101.879 166.664 101.619 166.664H101.308L98.2945 168.378C98.3248 168.453 98.3248 168.537 98.2945 168.612C98.3163 168.679 98.3163 168.752 98.2945 168.819L104.503 172.404L108.711 169.936L104.477 172.533L98.1646 168.871C98.062 168.895 97.9555 168.895 97.8529 168.871C97.5671 168.871 97.3074 168.69 97.3074 168.482C97.3074 168.274 97.5412 168.43 97.8269 168.43Z" fill="url(#paint36_linear)"/>
<path id="Path_81" d="M179.652 208.687C179.55 208.71 179.443 208.71 179.341 208.687L162.3 199.441C161.98 199.259 161.865 198.855 162.04 198.532C162.231 198.222 162.633 198.118 162.95 198.298L179.99 207.518C180.31 207.7 180.425 208.104 180.25 208.427C180.103 208.603 179.881 208.699 179.652 208.687Z" fill="url(#paint37_linear)"/>
<path id="Path_82" d="M201.628 206.765L182.925 196.012C182.499 195.797 182.2 195.392 182.12 194.922C182.119 194.39 182.436 193.909 182.925 193.701L190.355 189.597C191.606 188.976 193.077 188.976 194.329 189.597L213.006 200.454C213.501 200.622 213.834 201.087 213.834 201.609C213.834 202.132 213.501 202.597 213.006 202.765L212.668 202.947L205.603 206.765C204.349 207.379 202.882 207.379 201.628 206.765Z" fill="url(#paint38_linear)"/>
<path id="Path_83" d="M201.628 205.934L182.925 195.181C182.499 194.966 182.2 194.561 182.12 194.091C182.119 193.559 182.436 193.078 182.925 192.87L190.355 188.87C191.606 188.249 193.077 188.249 194.329 188.87L213.006 199.623C213.501 199.791 213.834 200.256 213.834 200.778C213.834 201.301 213.501 201.766 213.006 201.934L212.668 202.116L205.603 205.934C204.349 206.547 202.882 206.547 201.628 205.934Z" fill="url(#paint39_linear)"/>
<path id="Path_84" d="M166.534 200.506L154.637 193.571H154.455C154.221 193.571 154.04 193.571 154.04 193.259L148.844 190.299L153.832 187.364C153.81 187.305 153.81 187.241 153.832 187.182C153.794 187.099 153.794 187.005 153.832 186.922L152.039 185.857H151.832C151.598 185.857 151.416 185.857 151.416 185.546L149.338 184.325H149.104C148.87 184.325 148.662 184.325 148.662 184.013C148.662 183.702 148.662 184.013 148.662 184.013L145.909 182.403H145.649C145.415 182.403 145.208 182.273 145.208 182.091C145.208 181.91 145.208 182.091 145.208 182.091L143.337 181.001C143.204 181.105 143.039 181.16 142.87 181.156C142.724 181.186 142.574 181.186 142.428 181.156L140.999 181.91C140.999 181.91 140.792 182.195 140.558 182.195H140.272L137.674 183.598L131.388 179.78C131.349 179.726 131.349 179.652 131.388 179.598L137.596 183.39L140.272 181.546C140.272 181.364 140.454 181.234 140.688 181.234H140.87L142.324 180.455C142.298 180.388 142.298 180.314 142.324 180.247C142.324 179.988 142.636 179.754 143.052 179.754C143.467 179.754 143.753 179.988 143.753 180.247C143.753 180.507 143.753 180.247 143.753 180.403L145.675 181.546C145.873 181.529 146.052 181.663 146.091 181.858L148.948 183.52H149.104C149.302 183.503 149.481 183.637 149.52 183.831L151.65 185.078H151.832C152.065 185.078 152.273 185.234 152.273 185.39C152.273 185.546 152.273 185.39 152.273 185.39L154.143 186.481H154.377C154.715 186.481 155.001 186.662 155.001 186.922C155.001 187.182 154.715 187.364 154.377 187.364C154.266 187.39 154.151 187.39 154.04 187.364L149.156 190.247L154.169 193.13H154.377C154.611 193.13 154.819 193.285 154.819 193.441C154.819 193.597 154.819 193.441 154.819 193.441L166.638 200.324L166.534 200.506Z" fill="url(#paint40_linear)"/>
<path id="Path_85" d="M148.896 201.051L156.118 196.895L128.713 180.948L156.377 196.818L149 201.077L148.896 201.051Z" fill="url(#paint41_linear)"/>
<path id="Path_86" d="M127.985 181.104L154.975 196.688L148.247 200.532C148.247 200.532 148.117 200.532 148.091 200.532L154.663 196.792L127.83 181.208C127.83 181.208 127.959 181.104 127.985 181.104Z" fill="url(#paint42_linear)"/>
<path id="Path_87" d="M156.326 195.623C156.092 195.623 155.91 195.623 155.91 195.311C155.91 194.999 156.248 195.311 155.131 195.934L128.947 180.663L129.206 180.507L155.183 195.545C156.378 194.818 156.222 194.999 156.3 194.999C156.378 194.999 156.871 195.155 156.871 195.311L165.989 200.661C166.026 200.726 166.026 200.805 165.989 200.869C165.933 200.902 165.863 200.902 165.807 200.869L156.611 195.467L156.326 195.623Z" fill="url(#paint43_linear)"/>
</g>
<path id="Path_88" d="M309.768 163.625C312.494 169.114 313.334 175.349 312.158 181.364C311.768 184.117 311.093 186.974 310.417 189.727C310.105 191.13 309.768 192.48 309.482 193.857C308.495 197.651 308.187 201.59 308.573 205.492C309.014 207.469 309.787 209.357 310.859 211.076C311.758 212.56 312.474 214.147 312.989 215.803C314.21 220.219 313.145 225.517 311.846 230.997C311.17 233.877 311.251 236.883 312.08 239.724C312.441 240.94 312.866 242.136 313.353 243.308C313.768 244.425 314.236 245.593 314.599 246.84C315.578 250.539 315.903 254.38 315.561 258.19C315.373 261.979 314.343 265.679 312.547 269.02L311.898 268.631C313.612 265.422 314.596 261.875 314.781 258.242C315.119 254.519 314.803 250.766 313.846 247.152C313.508 245.931 313.041 244.788 312.625 243.671C312.21 242.555 311.716 241.308 311.352 240.035C310.476 237.071 310.387 233.929 311.093 230.919C312.365 225.543 313.43 220.348 312.236 216.089C311.742 214.495 311.053 212.968 310.183 211.544C309.08 209.748 308.281 207.782 307.82 205.726C307.406 201.73 307.714 197.692 308.729 193.805C309.014 192.428 309.352 191.052 309.69 189.675C310.339 186.922 311.015 184.065 311.404 181.338C312.573 173.339 311.222 166.196 307.794 162.3L308.365 161.781C308.886 162.354 309.355 162.971 309.768 163.625Z" fill="#81D9BF"/>
<path id="Path_89" d="M311.3 160.119C310.729 162.716 309.975 165.443 309.248 168.04C308.041 172.002 307.129 176.047 306.521 180.143C305.771 185.591 306.868 191.132 309.638 195.883L309.949 196.376C311.012 197.881 311.73 199.601 312.054 201.415C312.17 205.421 311.527 209.413 310.157 213.18C308.547 218.816 307.845 223.309 309.612 226.867C310.204 227.991 310.854 229.084 311.56 230.14C312.724 231.962 313.649 233.926 314.313 235.984C315.654 241.522 315.654 247.301 314.313 252.84C312.878 259.157 310.941 265.349 308.521 271.358L307.793 271.072C310.201 265.106 312.13 258.957 313.56 252.684C314.912 247.284 314.965 241.641 313.716 236.217C313.007 234.25 312.046 232.381 310.859 230.659C310.132 229.584 309.473 228.465 308.884 227.309C306.988 223.543 307.715 218.894 309.352 213.076C310.691 209.41 311.326 205.524 311.222 201.622C310.922 199.912 310.248 198.289 309.248 196.869L308.936 196.376L308.781 196.142C306.059 191.289 304.983 185.685 305.715 180.169C306.343 176.027 307.281 171.938 308.521 167.936C309.248 165.339 310.027 162.742 310.573 160.145L311.3 160.119Z" fill="url(#paint44_linear)"/>
<path id="Path_90" d="M313.352 158.716C313.518 162.161 312.96 165.603 311.716 168.82C310.787 171.259 309.703 173.636 308.469 175.936L306.91 179.001C305.19 182.115 304.195 185.577 304.001 189.13C303.972 191.791 305.522 194.218 307.949 195.311C308.521 195.597 309.144 195.857 309.742 196.09C311.483 196.654 313.055 197.645 314.314 198.973C315.771 200.851 316.252 203.307 315.612 205.596C314.727 208.528 313.241 211.244 311.248 213.57L310.755 214.245C309.077 216.392 307.656 218.728 306.521 221.205C305.464 223.437 305.084 225.929 305.43 228.374C306.053 230.971 308.339 231.335 310.625 231.698H311.015C312.461 231.747 313.821 232.397 314.768 233.492C315.715 234.586 316.162 236.026 316.002 237.464C315.779 239.377 315.234 241.238 314.391 242.97C313.602 244.71 312.708 246.402 311.716 248.035C309.519 251.027 308.124 254.532 307.664 258.216C307.579 259.723 308.103 261.202 309.118 262.32C311.504 264.351 314.631 265.293 317.742 264.917V265.696C314.411 266.085 311.071 265.047 308.547 262.839C307.421 261.561 306.842 259.891 306.936 258.19C307.393 254.364 308.834 250.722 311.118 247.619C312.078 246.025 312.945 244.378 313.716 242.685C314.505 241.048 315.023 239.293 315.249 237.49C315.431 234.711 313.976 233.049 310.937 232.529H310.521C308.183 232.14 305.534 231.724 304.78 228.634C304.399 226.031 304.797 223.374 305.923 220.998C307.032 218.469 308.436 216.08 310.105 213.881L310.599 213.206C312.524 210.919 313.973 208.27 314.859 205.414C315.406 203.358 314.975 201.163 313.69 199.467C312.524 198.278 311.09 197.388 309.508 196.87C308.871 196.634 308.246 196.365 307.638 196.064C304.964 194.846 303.255 192.171 303.274 189.234C303.481 185.588 304.512 182.036 306.287 178.845C306.78 177.806 307.3 176.793 307.819 175.754C309.048 173.487 310.133 171.145 311.066 168.742C312.255 165.594 312.768 162.231 312.573 158.872L313.352 158.716Z" fill="url(#paint45_linear)"/>
<path id="Path_91" d="M266.621 14.3107V11.7654L311.171 0V1.87L293.247 28.076L285.973 16.3106L266.621 14.3107Z" fill="url(#paint46_linear)"/>
<path id="Path_92" d="M266.621 11.7655L310.703 0.155884L293.247 25.2191L286.207 13.9212L266.621 11.7655Z" fill="url(#paint47_linear)"/>
<path id="Path_93" d="M134.765 34.3094V31.7641L90.2417 19.9987V21.8687L108.165 48.0746L115.439 36.3352L134.765 34.3094Z" fill="url(#paint48_linear)"/>
<path id="Path_94" d="M134.765 31.764L90.7095 20.1544L108.166 45.2176L115.205 33.9197L134.765 31.764Z" fill="url(#paint49_linear)"/>
<path id="Path_95" d="M135.986 268.397L167.807 238.763L169.885 239.931L138.064 269.592L135.986 268.397Z" fill="url(#paint50_linear)"/>
<path id="Path_96" d="M138.064 269.592L169.885 239.931L164.015 258.242L169.729 268.916L138.064 269.592Z" fill="url(#paint51_linear)"/>
<path id="Path_97" d="M229.994 122.251L271.193 146.016L295.948 131.627L254.776 107.863L229.994 122.251Z" fill="white"/>
<path id="Path_98" d="M288.415 133.497L291.35 131.783L290.545 131.316L287.61 133.03L288.415 133.497Z" fill="url(#paint52_linear)"/>
<path id="Path_99" d="M285.532 130.796L287.584 129.601L286.779 129.134L284.701 130.329L285.532 130.796Z" fill="url(#paint53_linear)"/>
<path id="Path_100" d="M278.336 130.614L283.791 127.42L282.986 126.952L277.505 130.147L278.336 130.614Z" fill="url(#paint54_linear)"/>
<path id="Path_101" d="M268.725 131.809L280.025 125.238L279.22 124.771L267.92 131.341L268.725 131.809Z" fill="url(#paint55_linear)"/>
<path id="Path_102" d="M271.634 125.757L276.258 123.056L275.453 122.589L270.829 125.29L271.634 125.757Z" fill="url(#paint56_linear)"/>
<path id="Path_103" d="M262.854 126.485L272.492 120.901L271.66 120.433L262.023 126.017L262.854 126.485Z" fill="url(#paint57_linear)"/>
<path id="Path_104" d="M252.36 128.225L268.699 118.719L267.894 118.251L251.529 127.757L252.36 128.225Z" fill="url(#paint58_linear)"/>
<path id="Path_105" d="M251.165 124.537L264.933 116.537L264.127 116.07L250.334 124.069L251.165 124.537Z" fill="url(#paint59_linear)"/>
<path id="Path_106" d="M251.477 119.966L261.166 114.356L260.361 113.888L250.672 119.498L251.477 119.966Z" fill="url(#paint60_linear)"/>
<path id="Path_107" d="M242.697 120.719L257.373 112.174L256.568 111.707L241.892 120.251L242.697 120.719Z" fill="url(#paint61_linear)"/>
<path id="Path_108" d="M288.207 131.419L289.48 130.692L288.649 130.225L287.402 130.952L288.207 131.419Z" fill="#81D2EB"/>
<path id="Path_109" d="M281.895 130.718L285.688 128.511L284.882 128.043L281.064 130.251L281.895 130.718Z" fill="#81D2EB"/>
<path id="Path_110" d="M273.115 131.445L281.921 126.329L281.116 125.861L272.31 130.978L273.115 131.445Z" fill="#81D2EB"/>
<path id="Path_111" d="M267.738 130.199L278.155 124.147L277.323 123.68L266.933 129.731L267.738 130.199Z" fill="#81D2EB"/>
<path id="Path_112" d="M267.141 126.173L274.362 121.992L273.557 121.498L266.335 125.706L267.141 126.173Z" fill="#81D2EB"/>
<path id="Path_113" d="M257.581 127.368L270.596 119.81L269.79 119.342L256.776 126.9L257.581 127.368Z" fill="#81D2EB"/>
<path id="Path_114" d="M248.801 128.095L266.829 117.628L266.024 117.161L247.996 127.627L248.801 128.095Z" fill="#81D2EB"/>
<path id="Path_115" d="M251.737 122.017L263.062 115.447L262.231 114.979L250.931 121.55L251.737 122.017Z" fill="#81D2EB"/>
<path id="Path_116" d="M246.282 120.797L259.27 113.265L258.464 112.797L245.476 120.329L246.282 120.797Z" fill="#81D2EB"/>
<path id="Path_117" d="M244.957 117.213L255.503 111.083L254.698 110.616L244.152 116.745L244.957 117.213Z" fill="#81D2EB"/>
<path id="Path_118" d="M305.248 103.889L293.013 149.6L294.753 151.366L307.014 105.655L305.248 103.889Z" fill="url(#paint62_linear)"/>
<path id="Path_119" d="M307.014 105.655L294.753 151.366L308.495 136.614L319.743 138.12L307.014 105.655Z" fill="url(#paint63_linear)"/>
<path id="Path_120" d="M225.475 205.908C225.512 205.721 225.426 205.532 225.261 205.438C225.096 205.344 224.889 205.366 224.747 205.492L184.666 228.556C184.247 228.836 183.987 229.299 183.964 229.802V260.06C183.964 260.527 184.302 260.709 184.692 260.475L224.773 237.334C225.192 237.054 225.452 236.591 225.475 236.087V205.908Z" fill="url(#paint64_linear)"/>
<path id="Path_121" d="M224.903 205.44L224.435 205.181H224.02L183.938 228.296V228.426V258.683C183.915 258.866 183.995 259.046 184.146 259.151L184.614 259.437C184.463 259.332 184.383 259.151 184.406 258.969V228.711V228.53C184.406 228.53 184.406 228.53 184.406 228.374C184.417 228.314 184.417 228.252 184.406 228.192C184.406 228.192 184.406 228.192 184.406 228.036C184.394 227.985 184.394 227.931 184.406 227.88L224.487 204.739L224.903 205.44Z" fill="url(#paint65_linear)"/>
<path id="Shape_35" fill-rule="evenodd" clip-rule="evenodd" d="M184.899 229.594L224.539 206.713L224.513 208.895L184.899 231.776V229.594ZM185.523 230.322C185.523 230.633 185.757 230.815 186.068 230.633C186.379 230.421 186.572 230.074 186.588 229.698C186.588 229.387 186.354 229.231 186.068 229.387C185.748 229.593 185.545 229.941 185.523 230.322ZM187.913 229.568C187.627 229.724 187.393 229.568 187.393 229.257C187.413 228.882 187.605 228.537 187.913 228.322C188.224 228.14 188.458 228.322 188.458 228.633C188.436 229.014 188.233 229.362 187.913 229.568ZM189.237 228.166C189.237 228.478 189.497 228.659 189.783 228.478V228.556C190.138 228.345 190.348 227.955 190.328 227.543C190.328 227.231 190.095 227.075 189.783 227.231C189.471 227.446 189.271 227.789 189.237 228.166Z" fill="url(#paint66_linear)"/>
<path id="Path_122" d="M189.783 227.231C189.471 227.446 189.271 227.789 189.238 228.166C189.238 228.53 189.497 228.659 189.783 228.478C190.114 228.281 190.32 227.927 190.329 227.543C190.329 227.205 190.095 227.075 189.783 227.231Z" fill="#81D2EB"/>
<path id="Path_123" d="M187.913 228.322C187.605 228.537 187.413 228.882 187.393 229.257C187.393 229.594 187.627 229.724 187.913 229.568C188.233 229.362 188.436 229.014 188.458 228.633C188.458 228.296 188.224 228.14 187.913 228.322Z" fill="#EED426"/>
<path id="Path_124" d="M224.409 208.791L184.77 231.672L184.847 259.229L224.487 236.373L224.409 208.791Z" fill="url(#paint67_linear)"/>
<path id="Path_125" d="M186.068 229.387C185.748 229.593 185.545 229.941 185.523 230.322C185.523 230.659 185.757 230.815 186.068 230.633C186.379 230.421 186.572 230.074 186.588 229.698C186.588 229.361 186.354 229.231 186.068 229.387Z" fill="#D1DFEF"/>
<path id="Oval_2" d="M222.565 222.4C222.752 222.4 222.903 222.249 222.903 222.062C222.903 221.876 222.752 221.725 222.565 221.725C222.379 221.725 222.228 221.876 222.228 222.062C222.228 222.249 222.379 222.4 222.565 222.4Z" fill="url(#paint68_linear)"/>
<path id="Oval_3" d="M200.278 225.569C200.464 225.569 200.615 225.418 200.615 225.231C200.615 225.045 200.464 224.893 200.278 224.893C200.091 224.893 199.94 225.045 199.94 225.231C199.94 225.418 200.091 225.569 200.278 225.569Z" fill="url(#paint69_linear)"/>
<path id="Oval_4" d="M203.914 224.322C204.101 224.322 204.252 224.171 204.252 223.984C204.252 223.798 204.101 223.647 203.914 223.647C203.728 223.647 203.576 223.798 203.576 223.984C203.576 224.171 203.728 224.322 203.914 224.322Z" fill="url(#paint70_linear)"/>
<path id="Oval_5" d="M217.76 230.01C217.946 230.01 218.097 229.859 218.097 229.672C218.097 229.486 217.946 229.335 217.76 229.335C217.573 229.335 217.422 229.486 217.422 229.672C217.422 229.859 217.573 230.01 217.76 230.01Z" fill="url(#paint71_linear)"/>
<path id="Oval_6" d="M216.85 226.556C217.037 226.556 217.188 226.404 217.188 226.218C217.188 226.032 217.037 225.88 216.85 225.88C216.664 225.88 216.513 226.032 216.513 226.218C216.513 226.404 216.664 226.556 216.85 226.556Z" fill="url(#paint72_linear)"/>
<path id="Oval_7" d="M216.331 222.66C216.517 222.66 216.669 222.509 216.669 222.322C216.669 222.136 216.517 221.985 216.331 221.985C216.144 221.985 215.993 222.136 215.993 222.322C215.993 222.509 216.144 222.66 216.331 222.66Z" fill="url(#paint73_linear)"/>
<path id="Oval_8" d="M223.111 220.296C223.297 220.296 223.448 220.145 223.448 219.959C223.448 219.772 223.297 219.621 223.111 219.621C222.924 219.621 222.773 219.772 222.773 219.959C222.773 220.145 222.924 220.296 223.111 220.296Z" fill="url(#paint74_linear)"/>
<path id="Oval_9" d="M222.305 219.439C222.492 219.439 222.643 219.288 222.643 219.102C222.643 218.915 222.492 218.764 222.305 218.764C222.119 218.764 221.968 218.915 221.968 219.102C221.968 219.288 222.119 219.439 222.305 219.439Z" fill="url(#paint75_linear)"/>
<path id="Oval_10" d="M219.942 218.504C220.128 218.504 220.279 218.353 220.279 218.167C220.279 217.98 220.128 217.829 219.942 217.829C219.755 217.829 219.604 217.98 219.604 218.167C219.604 218.353 219.755 218.504 219.942 218.504Z" fill="url(#paint76_linear)"/>
<path id="Oval_11" d="M219.266 218.972C219.453 218.972 219.604 218.821 219.604 218.634C219.604 218.448 219.453 218.297 219.266 218.297C219.08 218.297 218.928 218.448 218.928 218.634C218.928 218.821 219.08 218.972 219.266 218.972Z" fill="url(#paint77_linear)"/>
<path id="Oval_12" d="M212.097 230.4C212.283 230.4 212.434 230.248 212.434 230.062C212.434 229.876 212.283 229.724 212.097 229.724C211.91 229.724 211.759 229.876 211.759 230.062C211.759 230.248 211.91 230.4 212.097 230.4Z" fill="url(#paint78_linear)"/>
<path id="Oval_13" d="M206.901 229.698C207.088 229.698 207.239 229.547 207.239 229.361C207.239 229.174 207.088 229.023 206.901 229.023C206.715 229.023 206.564 229.174 206.564 229.361C206.564 229.547 206.715 229.698 206.901 229.698Z" fill="url(#paint79_linear)"/>
<path id="Oval_14" d="M203.187 228.14C203.373 228.14 203.525 227.989 203.525 227.802C203.525 227.616 203.373 227.465 203.187 227.465C203 227.465 202.849 227.616 202.849 227.802C202.849 227.989 203 228.14 203.187 228.14Z" fill="url(#paint80_linear)"/>
<path id="Oval_15" d="M206.07 230.036C206.257 230.036 206.408 229.885 206.408 229.698C206.408 229.512 206.257 229.361 206.07 229.361C205.884 229.361 205.732 229.512 205.732 229.698C205.732 229.885 205.884 230.036 206.07 230.036Z" fill="url(#paint81_linear)"/>
<path id="Oval_16" d="M215.837 227.672C216.024 227.672 216.175 227.521 216.175 227.335C216.175 227.148 216.024 226.997 215.837 226.997C215.651 226.997 215.5 227.148 215.5 227.335C215.5 227.521 215.651 227.672 215.837 227.672Z" fill="url(#paint82_linear)"/>
<path id="Oval_17" d="M220.487 221.439C220.674 221.439 220.825 221.288 220.825 221.102C220.825 220.915 220.674 220.764 220.487 220.764C220.301 220.764 220.149 220.915 220.149 221.102C220.149 221.288 220.301 221.439 220.487 221.439Z" fill="url(#paint83_linear)"/>
<path id="Oval_18" d="M222.773 221.439C222.959 221.439 223.111 221.288 223.111 221.102C223.111 220.915 222.959 220.764 222.773 220.764C222.586 220.764 222.435 220.915 222.435 221.102C222.435 221.288 222.586 221.439 222.773 221.439Z" fill="url(#paint84_linear)"/>
<path id="Oval_19" d="M221.266 219.102C221.453 219.102 221.604 218.951 221.604 218.764C221.604 218.578 221.453 218.426 221.266 218.426C221.08 218.426 220.929 218.578 220.929 218.764C220.929 218.951 221.08 219.102 221.266 219.102Z" fill="url(#paint85_linear)"/>
<path id="Oval_20" d="M192.978 238.737C193.165 238.737 193.316 238.586 193.316 238.399C193.316 238.213 193.165 238.061 192.978 238.061C192.792 238.061 192.64 238.213 192.64 238.399C192.64 238.586 192.792 238.737 192.978 238.737Z" fill="url(#paint86_linear)"/>
<path id="Oval_21" d="M205.057 237.49C205.244 237.49 205.395 237.339 205.395 237.152C205.395 236.966 205.244 236.815 205.057 236.815C204.871 236.815 204.719 236.966 204.719 237.152C204.719 237.339 204.871 237.49 205.057 237.49Z" fill="url(#paint87_linear)"/>
<path id="Oval_22" d="M200.408 237.802C200.594 237.802 200.745 237.65 200.745 237.464C200.745 237.278 200.594 237.126 200.408 237.126C200.221 237.126 200.07 237.278 200.07 237.464C200.07 237.65 200.221 237.802 200.408 237.802Z" fill="url(#paint88_linear)"/>
<path id="Oval_23" d="M197.966 229.387C198.152 229.387 198.303 229.236 198.303 229.049C198.303 228.863 198.152 228.711 197.966 228.711C197.779 228.711 197.628 228.863 197.628 229.049C197.628 229.236 197.779 229.387 197.966 229.387Z" fill="url(#paint89_linear)"/>
<path id="Oval_24" d="M200.875 227.984C201.062 227.984 201.213 227.833 201.213 227.646C201.213 227.46 201.062 227.309 200.875 227.309C200.689 227.309 200.537 227.46 200.537 227.646C200.537 227.833 200.689 227.984 200.875 227.984Z" fill="url(#paint90_linear)"/>
<path id="Oval_25" d="M204.096 228.166C204.282 228.166 204.434 228.015 204.434 227.828C204.434 227.642 204.282 227.491 204.096 227.491C203.909 227.491 203.758 227.642 203.758 227.828C203.758 228.015 203.909 228.166 204.096 228.166Z" fill="url(#paint91_linear)"/>
<path id="Oval_26" d="M215.474 222.738C215.66 222.738 215.811 222.587 215.811 222.4C215.811 222.214 215.66 222.062 215.474 222.062C215.287 222.062 215.136 222.214 215.136 222.4C215.136 222.587 215.287 222.738 215.474 222.738Z" fill="url(#paint92_linear)"/>
<path id="Path_126" d="M187.419 257.125C187.419 257.125 188.64 240.555 192.043 240.711C195.446 240.866 197.004 247.23 199.342 245.905C201.68 244.58 201.031 230.581 206.07 229.413C209.889 228.556 211.11 238.944 213.577 238.581C216.045 238.217 217.136 233.386 219.162 232.997C221.188 232.607 223.189 236.347 223.189 236.347L187.419 257.125Z" fill="url(#paint93_linear)"/>
<path id="Shape_36" fill-rule="evenodd" clip-rule="evenodd" d="M120.296 55.5027L148.247 71.6314L165.339 61.71L137.389 45.5553L120.296 55.5027ZM148.247 70.8263L121.673 55.4767L137.389 46.3604L163.989 61.71L148.247 70.8263Z" fill="white"/>
<path id="Path_127" d="M159.677 62.9307L161.625 61.8139L161.079 61.5022L159.131 62.619L159.677 62.9307Z" fill="url(#paint94_linear)"/>
<path id="Path_128" d="M157.754 61.1646L159.105 60.3595L158.586 60.0478L157.209 60.853L157.754 61.1646Z" fill="url(#paint95_linear)"/>
<path id="Path_129" d="M146.636 61.8139L154.118 57.4766L153.572 57.1649L146.091 61.5023L146.636 61.8139Z" fill="url(#paint96_linear)"/>
<path id="Path_130" d="M148.559 57.8141L151.624 56.022L151.078 55.7104L148.013 57.5024L148.559 57.8141Z" fill="url(#paint97_linear)"/>
<path id="Path_131" d="M142.74 58.3077L149.13 54.5936L148.585 54.282L142.194 57.996L142.74 58.3077Z" fill="url(#paint98_linear)"/>
<path id="Path_132" d="M134.999 57.009L144.117 51.7107L143.571 51.399L134.454 56.6974L134.999 57.009Z" fill="url(#paint99_linear)"/>
<path id="Path_133" d="M135.207 53.9962L141.623 50.2562L141.077 49.9446L134.687 53.6846L135.207 53.9962Z" fill="#81D2EB"/>
<path id="Path_134" d="M129.388 54.4638L139.129 48.8278L138.584 48.5161L128.869 54.1521L129.388 54.4638Z" fill="url(#paint100_linear)"/>
<path id="Path_135" d="M159.521 61.5542L160.352 61.0867L159.832 60.775L159.001 61.2685L159.521 61.5542Z" fill="#81D2EB"/>
<path id="Path_136" d="M155.338 61.1126L157.858 59.6322L157.313 59.3205L154.793 60.801L155.338 61.1126Z" fill="#81D2EB"/>
<path id="Path_137" d="M145.987 60.749L152.871 56.7493L152.325 56.4376L145.441 60.4373L145.987 60.749Z" fill="#81D2EB"/>
<path id="Path_138" d="M145.597 58.0739L150.377 55.3208L149.831 55.0092L145.052 57.7882L145.597 58.0739Z" fill="#81D2EB"/>
<path id="Path_139" d="M77.0198 189.987C77.3798 190.212 77.6039 190.601 77.6173 191.026C77.644 191.119 77.644 191.218 77.6173 191.311L80.8383 196.506C80.9465 196.461 81.0679 196.461 81.176 196.506L84.8647 181.961C84.7451 181.776 84.6819 181.559 84.6828 181.338C84.6828 180.974 84.9426 180.819 85.2803 181C85.6306 181.235 85.8516 181.619 85.8777 182.039C85.8996 182.207 85.8174 182.372 85.6699 182.455L89.2806 196.428H89.4625L92.6835 190.74C92.6359 190.57 92.6359 190.39 92.6835 190.221C92.6835 189.857 92.9433 189.701 93.281 189.883C93.6344 190.114 93.8563 190.5 93.8785 190.922C93.905 191.084 93.8199 191.243 93.6706 191.311L97.3073 205.544L100.554 199.986C100.421 199.807 100.357 199.586 100.373 199.363C100.373 198.999 100.632 198.843 100.97 199.025C101.33 199.25 101.554 199.64 101.567 200.064C101.567 200.454 101.282 200.609 100.918 200.376L97.619 206.479C97.7182 206.644 97.772 206.832 97.7749 207.025C97.8021 207.177 97.7303 207.329 97.5959 207.405C97.4614 207.481 97.2937 207.464 97.1775 207.362C96.8241 207.131 96.6021 206.745 96.58 206.323C96.5577 206.175 96.6173 206.026 96.7359 205.934L93.0732 191.649H92.9173L89.6963 197.363C89.7206 197.518 89.7206 197.675 89.6963 197.83C89.6963 198.194 89.4365 198.35 89.0988 198.168C88.7388 197.943 88.5148 197.553 88.5014 197.129C88.4795 196.961 88.5617 196.797 88.7092 196.714L85.0205 182.715L81.3579 197.233C81.5024 197.419 81.5842 197.647 81.5917 197.882C81.5917 198.272 81.3319 198.428 80.9942 198.246C80.6439 198.012 80.4229 197.628 80.3967 197.207C80.382 197.139 80.382 197.068 80.3967 196.999L77.1237 191.623C77.0474 191.645 76.9663 191.645 76.8899 191.623C76.53 191.398 76.3059 191.008 76.2925 190.584C76.4224 189.935 76.6821 189.779 77.0198 189.987Z" fill="url(#paint101_linear)"/>
<path id="Path_140" d="M77.2276 180.325L81.0462 174.014C81.0462 174.014 81.0462 174.014 81.228 174.014C81.3144 174.086 81.3702 174.188 81.3838 174.3L85.1764 193.961C85.3021 194.017 85.4099 194.107 85.4881 194.22L88.5533 192.48C88.5388 192.394 88.5388 192.306 88.5533 192.22C88.5261 192.068 88.5979 191.916 88.7324 191.84C88.8668 191.764 89.0345 191.781 89.1508 191.883C89.5107 192.108 89.7348 192.497 89.7482 192.922C89.763 192.99 89.763 193.061 89.7482 193.129L92.8654 198.558H93.1511L96.632 192.766C96.5291 192.603 96.475 192.413 96.4761 192.22C96.4761 191.831 96.7359 191.675 97.0735 191.883C97.4335 192.108 97.6576 192.497 97.671 192.922C97.671 193.155 97.671 193.311 97.4112 193.337L100.944 207.83C101.297 208.061 101.519 208.447 101.541 208.869C101.541 209.258 101.256 209.414 100.944 209.206C100.584 208.981 100.36 208.592 100.347 208.167C100.347 207.96 100.347 207.804 100.554 207.778L97.0476 193.233L93.5148 199.103C93.622 199.275 93.6845 199.472 93.6966 199.674C93.6966 200.064 93.4109 200.22 93.0992 200.012C92.7326 199.79 92.4994 199.401 92.4757 198.973C92.4497 198.889 92.4497 198.798 92.4757 198.713L89.3846 193.337C89.2764 193.382 89.155 193.382 89.0469 193.337C88.9194 193.271 88.8117 193.173 88.7351 193.052L85.7219 194.792C85.7361 194.886 85.7361 194.983 85.7219 195.077C85.7219 195.441 85.4621 195.597 85.1244 195.415C84.7741 195.181 84.5532 194.797 84.527 194.376C84.5051 194.208 84.5873 194.044 84.7348 193.961L81.0981 174.897L77.5913 180.871C77.6985 181.043 77.761 181.239 77.7731 181.442C77.7731 181.832 77.4874 181.987 77.1497 181.806C76.8079 181.564 76.5895 181.184 76.5522 180.767C76.6042 180.299 76.8899 180.143 77.2276 180.325Z" fill="url(#paint102_linear)"/>
</g>
</g>
<defs>
<linearGradient id="paint0_linear" x1="436.221" y1="123.684" x2="2.59767" y2="123.684" gradientUnits="userSpaceOnUse">
<stop stop-color="#8B97F3"/>
<stop offset="0.23" stop-color="#A7B0F6"/>
<stop offset="1" stop-color="#C4CAF9"/>
</linearGradient>
<linearGradient id="paint1_linear" x1="2.98723" y1="366.786" x2="436.61" y2="366.786" gradientUnits="userSpaceOnUse">
<stop offset="0.36" stop-color="#E4E8FF"/>
<stop offset="0.93" stop-color="#DDE0FF" stop-opacity="0.9"/>
</linearGradient>
<linearGradient id="paint2_linear" x1="293.896" y1="198.415" x2="368.708" y2="198.415" gradientUnits="userSpaceOnUse">
<stop offset="0.09" stop-color="#606FEE"/>
<stop offset="1" stop-color="#7C8AF2"/>
</linearGradient>
<linearGradient id="paint3_linear" x1="182.38" y1="160.521" x2="368.708" y2="160.521" gradientUnits="userSpaceOnUse">
<stop stop-color="#A9B2F7"/>
<stop offset="0.72" stop-color="#E3E6FC"/>
</linearGradient>
<linearGradient id="paint4_linear" x1="143.386" y1="358.894" x2="197.547" y2="353.259" gradientUnits="userSpaceOnUse">
<stop stop-color="#A1ABF6"/>
<stop offset="0.52" stop-color="#7D8BF2"/>
<stop offset="0.88" stop-color="#6B6AF2"/>
</linearGradient>
<linearGradient id="paint5_linear" x1="176.457" y1="309.355" x2="289.818" y2="309.355" gradientUnits="userSpaceOnUse">
<stop offset="0.09" stop-color="#606FEE"/>
<stop offset="0.62" stop-color="#6473EF"/>
<stop offset="1" stop-color="#7C8AF2"/>
</linearGradient>
<linearGradient id="paint6_linear" x1="105.048" y1="292.36" x2="287.558" y2="292.36" gradientUnits="userSpaceOnUse">
<stop stop-color="#A1ABF6"/>
<stop offset="1" stop-color="#7C8AF2"/>
</linearGradient>
<linearGradient id="paint7_linear" x1="105.048" y1="160.794" x2="320.912" y2="160.794" gradientUnits="userSpaceOnUse">
<stop stop-color="#D5DAFB"/>
<stop offset="1" stop-color="#E3E6FC"/>
</linearGradient>
<linearGradient id="paint8_linear" x1="320.925" y1="292.343" x2="320.925" y2="142.821" gradientUnits="userSpaceOnUse">
<stop stop-color="#565CDA"/>
<stop offset="1" stop-color="#4840BD"/>
</linearGradient>
<linearGradient id="paint9_linear" x1="292.727" y1="155.703" x2="292.727" y2="281.305" gradientUnits="userSpaceOnUse">
<stop offset="0.09" stop-color="#606FEE"/>
<stop offset="1" stop-color="#7C8AF2"/>
</linearGradient>
<linearGradient id="paint10_linear" x1="292.727" y1="166.144" x2="317.145" y2="166.144" gradientUnits="userSpaceOnUse">
<stop offset="0.36" stop-color="#E4E8FF"/>
<stop offset="0.93" stop-color="#DDE0FF" stop-opacity="0.9"/>
</linearGradient>
<linearGradient id="paint11_linear" x1="143.104" y1="100.59" x2="289.818" y2="100.59" gradientUnits="userSpaceOnUse">
<stop stop-color="white" stop-opacity="0.92"/>
<stop offset="0.34" stop-color="#DDE6FF"/>
<stop offset="0.97" stop-color="#DDE6FF"/>
</linearGradient>
<linearGradient id="paint12_linear" x1="143.104" y1="82.5917" x2="143.104" y2="185.987" gradientUnits="userSpaceOnUse">
<stop stop-color="#7C8AF2"/>
<stop offset="1" stop-color="#A1ABF6"/>
</linearGradient>
<linearGradient id="paint13_linear" x1="176.457" y1="185.974" x2="289.818" y2="185.974" gradientUnits="userSpaceOnUse">
<stop offset="0.09" stop-color="#606FEE"/>
<stop offset="0.67" stop-color="#6877EF"/>
<stop offset="1" stop-color="#7C8AF2"/>
</linearGradient>
<linearGradient id="paint14_linear" x1="150.455" y1="96.4276" x2="267.816" y2="96.4276" gradientUnits="userSpaceOnUse">
<stop stop-color="#CBD0FA"/>
<stop offset="1" stop-color="#B6BEF8"/>
</linearGradient>
<linearGradient id="paint15_linear" x1="11.5528" y1="210.56" x2="114.095" y2="325.072" gradientUnits="userSpaceOnUse">
<stop stop-color="#7C8AF2"/>
<stop offset="1" stop-color="#A1ABF6"/>
</linearGradient>
<linearGradient id="paint16_linear" x1="179.081" y1="266.41" x2="254.023" y2="266.41" gradientUnits="userSpaceOnUse">
<stop stop-color="#3B25A1"/>
<stop offset="1" stop-color="#565CDA"/>
</linearGradient>
<linearGradient id="paint17_linear" x1="253.906" y1="228.504" x2="253.906" y2="118.329" gradientUnits="userSpaceOnUse">
<stop stop-color="#E3E6FC"/>
<stop offset="1" stop-color="#BAC1F8"/>
</linearGradient>
<linearGradient id="paint18_linear" x1="70.3179" y1="222.037" x2="110.659" y2="222.037" gradientUnits="userSpaceOnUse">
<stop offset="0.36" stop-color="#E4E8FF"/>
<stop offset="0.93" stop-color="#DDE0FF" stop-opacity="0.9"/>
</linearGradient>
<linearGradient id="paint19_linear" x1="117.179" y1="182.768" x2="135.544" y2="182.768" gradientUnits="userSpaceOnUse">
<stop stop-color="#7C8AF2"/>
<stop offset="0.91" stop-color="#606FEE"/>
</linearGradient>
<linearGradient id="paint20_linear" x1="-2261.84" y1="208.866" x2="-2246.04" y2="208.866" gradientUnits="userSpaceOnUse">
<stop stop-color="#7C8AF2"/>
<stop offset="0.91" stop-color="#606FEE"/>
</linearGradient>
<linearGradient id="paint21_linear" x1="-2241.13" y1="195.719" x2="-2225.34" y2="195.719" gradientUnits="userSpaceOnUse">
<stop stop-color="#7C8AF2"/>
<stop offset="0.91" stop-color="#606FEE"/>
</linearGradient>
<linearGradient id="paint22_linear" x1="217.266" y1="185.225" x2="211.837" y2="185.225" gradientUnits="userSpaceOnUse">
<stop offset="0.05" stop-color="#889DE0"/>
<stop offset="0.94" stop-color="#B5BFEF"/>
</linearGradient>
<linearGradient id="paint23_linear" x1="-2340.81" y1="156.724" x2="-2326.31" y2="156.724" gradientUnits="userSpaceOnUse">
<stop stop-color="#7C8AF2"/>
<stop offset="0.91" stop-color="#606FEE"/>
</linearGradient>
<linearGradient id="paint24_linear" x1="-2325.35" y1="162.877" x2="-2310.88" y2="162.877" gradientUnits="userSpaceOnUse">
<stop stop-color="#7C8AF2"/>
<stop offset="0.91" stop-color="#606FEE"/>
</linearGradient>
<linearGradient id="paint25_linear" x1="171.087" y1="204.012" x2="171.087" y2="177.39" gradientUnits="userSpaceOnUse">
<stop stop-color="#3B88C5"/>
<stop offset="0.95" stop-color="#29C8CC"/>
</linearGradient>
<linearGradient id="paint26_linear" x1="124.972" y1="203.205" x2="171.106" y2="203.205" gradientUnits="userSpaceOnUse">
<stop stop-color="#5987E7"/>
<stop offset="0.18" stop-color="#606FEE"/>
<stop offset="1" stop-color="#29C8CC"/>
</linearGradient>
<linearGradient id="paint27_linear" x1="-2301.87" y1="158.872" x2="-2301.87" y2="140.873" gradientUnits="userSpaceOnUse">
<stop stop-color="#3B88C5"/>
<stop offset="0.95" stop-color="#29C8CC"/>
</linearGradient>
<linearGradient id="paint28_linear" x1="-2333.69" y1="158.023" x2="-2301.94" y2="158.023" gradientUnits="userSpaceOnUse">
<stop stop-color="#5987E7"/>
<stop offset="0.18" stop-color="#606FEE"/>
<stop offset="1" stop-color="#29C8CC"/>
</linearGradient>
<linearGradient id="paint29_linear" x1="-2312.11" y1="178.455" x2="-2312.11" y2="151.808" gradientUnits="userSpaceOnUse">
<stop stop-color="#3B88C5"/>
<stop offset="0.95" stop-color="#29C8CC"/>
</linearGradient>
<linearGradient id="paint30_linear" x1="-2358.26" y1="177.602" x2="-2312.13" y2="177.602" gradientUnits="userSpaceOnUse">
<stop stop-color="#5987E7"/>
<stop offset="0.18" stop-color="#606FEE"/>
<stop offset="1" stop-color="#29C8CC"/>
</linearGradient>
<linearGradient id="paint31_linear" x1="98.9178" y1="172.064" x2="108.321" y2="172.064" gradientUnits="userSpaceOnUse">
<stop stop-color="white" stop-opacity="0.5"/>
<stop offset="1" stop-color="white"/>
</linearGradient>
<linearGradient id="paint32_linear" x1="-2354.26" y1="175.235" x2="-2321.14" y2="175.235" gradientUnits="userSpaceOnUse">
<stop stop-color="white" stop-opacity="0.5"/>
<stop offset="1" stop-color="white"/>
</linearGradient>
<linearGradient id="paint33_linear" x1="-2331.64" y1="179.136" x2="-2322.96" y2="179.136" gradientUnits="userSpaceOnUse">
<stop stop-color="white" stop-opacity="0.5"/>
<stop offset="1" stop-color="white"/>
</linearGradient>
<linearGradient id="paint34_linear" x1="-2331.92" y1="178.745" x2="-2324.18" y2="178.745" gradientUnits="userSpaceOnUse">
<stop stop-color="white" stop-opacity="0.5"/>
<stop offset="1" stop-color="white"/>
</linearGradient>
<linearGradient id="paint35_linear" x1="-2330.96" y1="175.676" x2="-2321.71" y2="175.676" gradientUnits="userSpaceOnUse">
<stop stop-color="white" stop-opacity="0.5"/>
<stop offset="1" stop-color="white"/>
</linearGradient>
<linearGradient id="paint36_linear" x1="-2343.64" y1="172.697" x2="-2332.1" y2="172.697" gradientUnits="userSpaceOnUse">
<stop stop-color="white" stop-opacity="0.5"/>
<stop offset="1" stop-color="white"/>
</linearGradient>
<linearGradient id="paint37_linear" x1="-2278.96" y1="208.652" x2="-2260.62" y2="208.652" gradientUnits="userSpaceOnUse">
<stop stop-color="#7C8AF2"/>
<stop offset="0.91" stop-color="#606FEE"/>
</linearGradient>
<linearGradient id="paint38_linear" x1="-2227.18" y1="207.232" x2="-2227.18" y2="189.234" gradientUnits="userSpaceOnUse">
<stop stop-color="#3B88C5"/>
<stop offset="0.95" stop-color="#29C8CC"/>
</linearGradient>
<linearGradient id="paint39_linear" x1="-2258.82" y1="206.418" x2="-2227.08" y2="206.418" gradientUnits="userSpaceOnUse">
<stop stop-color="#5987E7"/>
<stop offset="0.18" stop-color="#606FEE"/>
<stop offset="1" stop-color="#29C8CC"/>
</linearGradient>
<linearGradient id="paint40_linear" x1="131.414" y1="200.253" x2="166.586" y2="200.253" gradientUnits="userSpaceOnUse">
<stop stop-color="white" stop-opacity="0.5"/>
<stop offset="1" stop-color="white"/>
</linearGradient>
<linearGradient id="paint41_linear" x1="128.687" y1="201.102" x2="156.455" y2="201.102" gradientUnits="userSpaceOnUse">
<stop stop-color="white" stop-opacity="0.5"/>
<stop offset="1" stop-color="white"/>
</linearGradient>
<linearGradient id="paint42_linear" x1="127.882" y1="200.706" x2="155.079" y2="200.706" gradientUnits="userSpaceOnUse">
<stop stop-color="white" stop-opacity="0.5"/>
<stop offset="1" stop-color="white"/>
</linearGradient>
<linearGradient id="paint43_linear" x1="128.973" y1="200.93" x2="165.937" y2="200.93" gradientUnits="userSpaceOnUse">
<stop stop-color="white" stop-opacity="0.5"/>
<stop offset="1" stop-color="white"/>
</linearGradient>
<linearGradient id="paint44_linear" x1="305.482" y1="271.516" x2="315.353" y2="271.516" gradientUnits="userSpaceOnUse">
<stop stop-color="#5987E7"/>
<stop offset="0.18" stop-color="#606FEE"/>
<stop offset="1" stop-color="#29C8CC"/>
</linearGradient>
<linearGradient id="paint45_linear" x1="303.274" y1="265.268" x2="317.613" y2="265.268" gradientUnits="userSpaceOnUse">
<stop offset="0.05" stop-color="#889DE0"/>
<stop offset="1" stop-color="#9DADE7"/>
</linearGradient>
<linearGradient id="paint46_linear" x1="266.634" y1="0" x2="266.634" y2="28.076" gradientUnits="userSpaceOnUse">
<stop stop-color="#565CDA"/>
<stop offset="1" stop-color="#3B25A1"/>
</linearGradient>
<linearGradient id="paint47_linear" x1="266.621" y1="25.2321" x2="310.703" y2="25.2321" gradientUnits="userSpaceOnUse">
<stop stop-color="#7C8AF2"/>
<stop offset="0.76" stop-color="#606FEE"/>
<stop offset="0.9" stop-color="#606FEE" stop-opacity="0.6"/>
</linearGradient>
<linearGradient id="paint48_linear" x1="90.2417" y1="19.9987" x2="90.2417" y2="48.0746" gradientUnits="userSpaceOnUse">
<stop stop-color="#565CDA"/>
<stop offset="1" stop-color="#3B25A1"/>
</linearGradient>
<linearGradient id="paint49_linear" x1="134.791" y1="20.1674" x2="90.7354" y2="20.1674" gradientUnits="userSpaceOnUse">
<stop stop-color="#7C8AF2"/>
<stop offset="0.76" stop-color="#606FEE"/>
<stop offset="0.9" stop-color="#606FEE" stop-opacity="0.6"/>
</linearGradient>
<linearGradient id="paint50_linear" x1="139.178" y1="250.699" x2="144.759" y2="266.991" gradientUnits="userSpaceOnUse">
<stop stop-color="#606FEE"/>
<stop offset="1" stop-color="#7C8AF2"/>
</linearGradient>
<linearGradient id="paint51_linear" x1="136.076" y1="253.912" x2="145.132" y2="279.076" gradientUnits="userSpaceOnUse">
<stop stop-color="#3B25A1"/>
<stop offset="1" stop-color="#565CDA"/>
</linearGradient>
<linearGradient id="paint52_linear" x1="290.455" y1="132.722" x2="290.152" y2="131.631" gradientUnits="userSpaceOnUse">
<stop offset="0.76" stop-color="#606FEE"/>
<stop offset="0.89" stop-color="#606FEE"/>
</linearGradient>
<linearGradient id="paint53_linear" x1="1400.62" y1="-257.897" x2="1401.79" y2="-257.897" gradientUnits="userSpaceOnUse">
<stop offset="0.76" stop-color="#606FEE"/>
<stop offset="0.89" stop-color="#606FEE"/>
</linearGradient>
<linearGradient id="paint54_linear" x1="1404.38" y1="-262.231" x2="1405.58" y2="-262.231" gradientUnits="userSpaceOnUse">
<stop offset="0.76" stop-color="#606FEE"/>
<stop offset="0.89" stop-color="#606FEE"/>
</linearGradient>
<linearGradient id="paint55_linear" x1="1408.15" y1="-267.79" x2="1409.35" y2="-267.79" gradientUnits="userSpaceOnUse">
<stop offset="0.76" stop-color="#606FEE"/>
<stop offset="0.89" stop-color="#606FEE"/>
</linearGradient>
<linearGradient id="paint56_linear" x1="1411.94" y1="-266.108" x2="1413.11" y2="-266.108" gradientUnits="userSpaceOnUse">
<stop offset="0.76" stop-color="#606FEE"/>
<stop offset="0.89" stop-color="#606FEE"/>
</linearGradient>
<linearGradient id="paint57_linear" x1="1415.68" y1="-271.168" x2="1416.88" y2="-271.168" gradientUnits="userSpaceOnUse">
<stop offset="0.76" stop-color="#606FEE"/>
<stop offset="0.89" stop-color="#606FEE"/>
</linearGradient>
<linearGradient id="paint58_linear" x1="1419.45" y1="-277.237" x2="1420.67" y2="-277.237" gradientUnits="userSpaceOnUse">
<stop offset="0.76" stop-color="#606FEE"/>
<stop offset="0.89" stop-color="#606FEE"/>
</linearGradient>
<linearGradient id="paint59_linear" x1="1423.22" y1="-277.912" x2="1424.44" y2="-277.912" gradientUnits="userSpaceOnUse">
<stop offset="0.76" stop-color="#606FEE"/>
<stop offset="0.89" stop-color="#606FEE"/>
</linearGradient>
<linearGradient id="paint60_linear" x1="1427.01" y1="-277.739" x2="1428.2" y2="-277.739" gradientUnits="userSpaceOnUse">
<stop offset="0.76" stop-color="#606FEE"/>
<stop offset="0.89" stop-color="#606FEE"/>
</linearGradient>
<linearGradient id="paint61_linear" x1="1430.78" y1="-282.794" x2="1432" y2="-282.794" gradientUnits="userSpaceOnUse">
<stop offset="0.76" stop-color="#606FEE"/>
<stop offset="0.89" stop-color="#606FEE"/>
</linearGradient>
<linearGradient id="paint62_linear" x1="293.013" y1="151.366" x2="307.014" y2="151.366" gradientUnits="userSpaceOnUse">
<stop stop-color="#7C8AF2"/>
<stop offset="0.76" stop-color="#606FEE"/>
<stop offset="0.9" stop-color="#606FEE" stop-opacity="0.6"/>
</linearGradient>
<linearGradient id="paint63_linear" x1="294.753" y1="151.366" x2="319.743" y2="151.366" gradientUnits="userSpaceOnUse">
<stop stop-color="#3B25A1"/>
<stop offset="1" stop-color="#565CDA"/>
</linearGradient>
<linearGradient id="paint64_linear" x1="183.964" y1="260.667" x2="225.552" y2="260.667" gradientUnits="userSpaceOnUse">
<stop offset="0.36" stop-color="#E4E8FF"/>
<stop offset="0.93" stop-color="#DDE0FF" stop-opacity="0.9"/>
</linearGradient>
<linearGradient id="paint65_linear" x1="183.497" y1="260.751" x2="225.267" y2="260.751" gradientUnits="userSpaceOnUse">
<stop stop-color="#5987E7"/>
<stop offset="0.18" stop-color="#606FEE"/>
<stop offset="0.93" stop-color="#29C8CC"/>
</linearGradient>
<linearGradient id="paint66_linear" x1="184.899" y1="231.763" x2="224.539" y2="231.763" gradientUnits="userSpaceOnUse">
<stop stop-color="#3B25A1"/>
<stop offset="1" stop-color="#565CDA"/>
</linearGradient>
<linearGradient id="paint67_linear" x1="184.77" y1="259.212" x2="224.461" y2="259.212" gradientUnits="userSpaceOnUse">
<stop offset="0.24" stop-color="#606FEE"/>
<stop offset="1" stop-color="#7C8AF2"/>
</linearGradient>
<linearGradient id="paint68_linear" x1="222.228" y1="222.4" x2="222.903" y2="222.4" gradientUnits="userSpaceOnUse">
<stop stop-color="#4DA5DF"/>
<stop offset="0.43" stop-color="#5298E2"/>
</linearGradient>
<linearGradient id="paint69_linear" x1="199.94" y1="225.582" x2="200.641" y2="225.582" gradientUnits="userSpaceOnUse">
<stop stop-color="#594DE7"/>
<stop offset="1" stop-color="#5C5AEA"/>
</linearGradient>
<linearGradient id="paint70_linear" x1="203.55" y1="224.335" x2="204.252" y2="224.335" gradientUnits="userSpaceOnUse">
<stop stop-color="#594DE7"/>
<stop offset="1" stop-color="#5C5AEA"/>
</linearGradient>
<linearGradient id="paint71_linear" x1="217.422" y1="230.01" x2="218.097" y2="230.01" gradientUnits="userSpaceOnUse">
<stop offset="0.43" stop-color="#29C8CC"/>
<stop offset="1" stop-color="#3CDFD1"/>
</linearGradient>
<linearGradient id="paint72_linear" x1="216.513" y1="226.569" x2="217.214" y2="226.569" gradientUnits="userSpaceOnUse">
<stop offset="0.43" stop-color="#29C8CC"/>
<stop offset="1" stop-color="#3CDFD1"/>
</linearGradient>
<linearGradient id="paint73_linear" x1="215.993" y1="222.66" x2="216.669" y2="222.66" gradientUnits="userSpaceOnUse">
<stop stop-color="#4DA5DF"/>
<stop offset="0.43" stop-color="#5298E2"/>
</linearGradient>
<linearGradient id="paint74_linear" x1="222.747" y1="220.309" x2="223.448" y2="220.309" gradientUnits="userSpaceOnUse">
<stop stop-color="#4DA5DF"/>
<stop offset="0.43" stop-color="#5298E2"/>
</linearGradient>
<linearGradient id="paint75_linear" x1="221.968" y1="219.452" x2="222.669" y2="219.452" gradientUnits="userSpaceOnUse">
<stop stop-color="#4DA5DF"/>
<stop offset="0.43" stop-color="#5298E2"/>
</linearGradient>
<linearGradient id="paint76_linear" x1="219.604" y1="218.517" x2="220.305" y2="218.517" gradientUnits="userSpaceOnUse">
<stop stop-color="#4DA5DF"/>
<stop offset="0.43" stop-color="#5298E2"/>
</linearGradient>
<linearGradient id="paint77_linear" x1="218.928" y1="218.972" x2="219.604" y2="218.972" gradientUnits="userSpaceOnUse">
<stop stop-color="#4DA5DF"/>
<stop offset="0.43" stop-color="#5298E2"/>
</linearGradient>
<linearGradient id="paint78_linear" x1="211.759" y1="230.4" x2="212.434" y2="230.4" gradientUnits="userSpaceOnUse">
<stop offset="0.43" stop-color="#29C8CC"/>
<stop offset="1" stop-color="#3CDFD1"/>
</linearGradient>
<linearGradient id="paint79_linear" x1="206.564" y1="229.711" x2="207.265" y2="229.711" gradientUnits="userSpaceOnUse">
<stop stop-color="#594DE7"/>
<stop offset="1" stop-color="#5C5AEA"/>
</linearGradient>
<linearGradient id="paint80_linear" x1="202.849" y1="228.153" x2="203.55" y2="228.153" gradientUnits="userSpaceOnUse">
<stop stop-color="#594DE7"/>
<stop offset="1" stop-color="#5C5AEA"/>
</linearGradient>
<linearGradient id="paint81_linear" x1="205.732" y1="230.049" x2="206.434" y2="230.049" gradientUnits="userSpaceOnUse">
<stop stop-color="#594DE7"/>
<stop offset="1" stop-color="#5C5AEA"/>
</linearGradient>
<linearGradient id="paint82_linear" x1="215.5" y1="227.672" x2="216.175" y2="227.672" gradientUnits="userSpaceOnUse">
<stop stop-color="#4DA5DF"/>
<stop offset="0.43" stop-color="#5298E2"/>
</linearGradient>
<linearGradient id="paint83_linear" x1="220.123" y1="221.452" x2="220.825" y2="221.452" gradientUnits="userSpaceOnUse">
<stop stop-color="#4DA5DF"/>
<stop offset="0.43" stop-color="#5298E2"/>
</linearGradient>
<linearGradient id="paint84_linear" x1="222.435" y1="221.439" x2="223.111" y2="221.439" gradientUnits="userSpaceOnUse">
<stop stop-color="#4DA5DF"/>
<stop offset="0.43" stop-color="#5298E2"/>
</linearGradient>
<linearGradient id="paint85_linear" x1="220.903" y1="219.115" x2="221.604" y2="219.115" gradientUnits="userSpaceOnUse">
<stop stop-color="#4DA5DF"/>
<stop offset="0.43" stop-color="#5298E2"/>
</linearGradient>
<linearGradient id="paint86_linear" x1="192.64" y1="238.737" x2="193.316" y2="238.737" gradientUnits="userSpaceOnUse">
<stop stop-color="#3B25A1"/>
<stop offset="1" stop-color="#483FBC"/>
</linearGradient>
<linearGradient id="paint87_linear" x1="204.719" y1="237.503" x2="205.421" y2="237.503" gradientUnits="userSpaceOnUse">
<stop stop-color="#3B25A1"/>
<stop offset="1" stop-color="#483FBC"/>
</linearGradient>
<linearGradient id="paint88_linear" x1="200.07" y1="237.815" x2="200.771" y2="237.815" gradientUnits="userSpaceOnUse">
<stop stop-color="#594DE7"/>
<stop offset="1" stop-color="#5C5AEA"/>
</linearGradient>
<linearGradient id="paint89_linear" x1="197.602" y1="229.4" x2="198.303" y2="229.4" gradientUnits="userSpaceOnUse">
<stop offset="0.43" stop-color="#29C8CC"/>
<stop offset="1" stop-color="#3CDFD1"/>
</linearGradient>
<linearGradient id="paint90_linear" x1="200.511" y1="227.997" x2="201.213" y2="227.997" gradientUnits="userSpaceOnUse">
<stop stop-color="#594DE7"/>
<stop offset="1" stop-color="#5C5AEA"/>
</linearGradient>
<linearGradient id="paint91_linear" x1="203.732" y1="228.179" x2="204.434" y2="228.179" gradientUnits="userSpaceOnUse">
<stop stop-color="#594DE7"/>
<stop offset="1" stop-color="#5C5AEA"/>
</linearGradient>
<linearGradient id="paint92_linear" x1="215.11" y1="222.751" x2="215.811" y2="222.751" gradientUnits="userSpaceOnUse">
<stop stop-color="#4DA5DF"/>
<stop offset="0.43" stop-color="#5298E2"/>
</linearGradient>
<linearGradient id="paint93_linear" x1="187.419" y1="257.111" x2="223.189" y2="257.111" gradientUnits="userSpaceOnUse">
<stop offset="0.18" stop-color="#C7CFF3"/>
<stop offset="0.48" stop-color="#B5BFEF"/>
<stop offset="1" stop-color="#A0AFE8"/>
</linearGradient>
<linearGradient id="paint94_linear" x1="160.866" y1="62.338" x2="160.476" y2="61.6632" gradientUnits="userSpaceOnUse">
<stop offset="0.76" stop-color="#606FEE"/>
<stop offset="0.89" stop-color="#606FEE"/>
</linearGradient>
<linearGradient id="paint95_linear" x1="158.674" y1="60.7242" x2="158.285" y2="60.0494" gradientUnits="userSpaceOnUse">
<stop offset="0.76" stop-color="#606FEE"/>
<stop offset="0.89" stop-color="#606FEE"/>
</linearGradient>
<linearGradient id="paint96_linear" x1="150.847" y1="59.7082" x2="150.706" y2="58.985" gradientUnits="userSpaceOnUse">
<stop offset="0.76" stop-color="#606FEE"/>
<stop offset="0.89" stop-color="#606FEE"/>
</linearGradient>
<linearGradient id="paint97_linear" x1="150.454" y1="56.963" x2="150.237" y2="56.2367" gradientUnits="userSpaceOnUse">
<stop offset="0.76" stop-color="#606FEE"/>
<stop offset="0.89" stop-color="#606FEE"/>
</linearGradient>
<linearGradient id="paint98_linear" x1="146.436" y1="56.5023" x2="146.291" y2="55.755" gradientUnits="userSpaceOnUse">
<stop offset="0.76" stop-color="#606FEE"/>
<stop offset="0.89" stop-color="#606FEE"/>
</linearGradient>
<linearGradient id="paint99_linear" x1="140.073" y1="54.4173" x2="139.928" y2="53.67" gradientUnits="userSpaceOnUse">
<stop offset="0.76" stop-color="#606FEE"/>
<stop offset="0.89" stop-color="#606FEE"/>
</linearGradient>
<linearGradient id="paint100_linear" x1="134.768" y1="51.7222" x2="134.623" y2="50.9749" gradientUnits="userSpaceOnUse">
<stop offset="0.76" stop-color="#606FEE"/>
<stop offset="0.89" stop-color="#606FEE"/>
</linearGradient>
<linearGradient id="paint101_linear" x1="101.567" y1="181.05" x2="76.4224" y2="181.05" gradientUnits="userSpaceOnUse">
<stop stop-color="#46C9D4"/>
<stop offset="0.43" stop-color="#29C8CC"/>
<stop offset="1" stop-color="#3CDFD1"/>
</linearGradient>
<linearGradient id="paint102_linear" x1="101.541" y1="174.114" x2="76.6302" y2="174.114" gradientUnits="userSpaceOnUse">
<stop offset="0.28" stop-color="#555AD8"/>
<stop offset="1" stop-color="#3B25A1"/>
</linearGradient>
</defs>
</svg>
