<svg width="38" height="40" viewBox="0 0 38 40" fill="none" xmlns="http://www.w3.org/2000/svg">
<path d="M23.7705 13.7663C24.038 13.8465 24.328 13.7815 24.5356 13.5946L34.5356 4.59464C34.864 4.29907 34.8906 3.79324 34.595 3.46483C34.2995 3.13642 33.7936 3.1098 33.4652 3.40537L23.7995 12.1045L14.2303 9.23374C14.057 9.18176 13.8713 9.19004 13.7033 9.25722L3.7033 13.2572C3.29307 13.4213 3.09354 13.8869 3.25763 14.2971C3.42172 14.7073 3.88729 14.9069 4.29752 14.7428L14.0381 10.8465L23.7705 13.7663Z" fill="#001951"/>
<path opacity="0.4" fill-rule="evenodd" clip-rule="evenodd" d="M5.0002 22.2H3.0002C1.4538 22.2 0.200195 23.4536 0.200195 25V36C0.200195 37.5464 1.4538 38.8 3.0002 38.8H5.0002C6.54659 38.8 7.8002 37.5464 7.8002 36V25C7.8002 23.4536 6.54659 22.2 5.0002 22.2ZM1.8002 25C1.8002 24.3373 2.33745 23.8 3.0002 23.8H5.0002C5.66294 23.8 6.2002 24.3373 6.2002 25V36C6.2002 36.6627 5.66294 37.2 5.0002 37.2H3.0002C2.33745 37.2 1.8002 36.6627 1.8002 36V25Z" fill="#00C8C7"/>
<path fill-rule="evenodd" clip-rule="evenodd" d="M24 16C25.6569 16 27 14.6569 27 13C27 11.3431 25.6569 10 24 10C22.3431 10 21 11.3431 21 13C21 14.6569 22.3431 16 24 16Z" fill="white"/>
<path fill-rule="evenodd" clip-rule="evenodd" d="M34 7C35.6569 7 37 5.65685 37 4C37 2.34315 35.6569 1 34 1C32.3431 1 31 2.34315 31 4C31 5.65685 32.3431 7 34 7Z" fill="white"/>
<path fill-rule="evenodd" clip-rule="evenodd" d="M4 16C5.65685 16 7 14.6569 7 13C7 11.3431 5.65685 10 4 10C2.34315 10 1 11.3431 1 13C1 14.6569 2.34315 16 4 16Z" fill="white"/>
<path fill-rule="evenodd" clip-rule="evenodd" d="M27.8002 13C27.8002 15.0987 26.0989 16.8 24.0002 16.8C21.9015 16.8 20.2002 15.0987 20.2002 13C20.2002 10.9013 21.9015 9.2 24.0002 9.2C26.0989 9.2 27.8002 10.9013 27.8002 13ZM21.8002 13C21.8002 14.215 22.7852 15.2 24.0002 15.2C25.2152 15.2 26.2002 14.215 26.2002 13C26.2002 11.785 25.2152 10.8 24.0002 10.8C22.7852 10.8 21.8002 11.785 21.8002 13Z" fill="#001B50"/>
<path fill-rule="evenodd" clip-rule="evenodd" d="M7.8002 14C7.8002 16.0987 6.09888 17.8 4.0002 17.8C1.90151 17.8 0.200195 16.0987 0.200195 14C0.200195 11.9013 1.90151 10.2 4.0002 10.2C6.09888 10.2 7.8002 11.9013 7.8002 14ZM1.8002 14C1.8002 15.215 2.78517 16.2 4.0002 16.2C5.21522 16.2 6.2002 15.215 6.2002 14C6.2002 12.785 5.21522 11.8 4.0002 11.8C2.78517 11.8 1.8002 12.785 1.8002 14Z" fill="#001B50"/>
<path fill-rule="evenodd" clip-rule="evenodd" d="M15.0002 5.2H13.0002C10.9015 5.2 9.2002 6.90131 9.2002 9V36C9.2002 38.0987 10.9015 39.8 13.0002 39.8H15.0002C17.0989 39.8 18.8002 38.0987 18.8002 36V9C18.8002 6.90131 17.0989 5.2 15.0002 5.2ZM12.8002 9C12.8002 8.88954 12.8897 8.8 13.0002 8.8H15.0002C15.1107 8.8 15.2002 8.88954 15.2002 9V36C15.2002 36.1105 15.1107 36.2 15.0002 36.2H13.0002C12.8897 36.2 12.8002 36.1105 12.8002 36V9Z" fill="white"/>
<path d="M12.3333 8.8C12.1492 8.8 12 8.88955 12 9V36C12 36.1105 12.1492 36.2 12.3333 36.2H15.6667C15.8508 36.2 16 36.1105 16 36V9C16 8.88955 15.8508 8.8 15.6667 8.8H12.3333Z" fill="white"/>
<path fill-rule="evenodd" clip-rule="evenodd" d="M15.0002 6.2H13.0002C11.4538 6.2 10.2002 7.4536 10.2002 9V36C10.2002 37.5464 11.4538 38.8 13.0002 38.8H15.0002C16.5466 38.8 17.8002 37.5464 17.8002 36V9C17.8002 7.4536 16.5466 6.2 15.0002 6.2ZM11.8002 9C11.8002 8.33726 12.3375 7.8 13.0002 7.8H15.0002C15.6629 7.8 16.2002 8.33726 16.2002 9V36C16.2002 36.6627 15.6629 37.2 15.0002 37.2H13.0002C12.3375 37.2 11.8002 36.6627 11.8002 36V9Z" fill="#00C8C6"/>
<path opacity="0.4" fill-rule="evenodd" clip-rule="evenodd" d="M25.0002 21.2H23.0002C21.4538 21.2 20.2002 22.4536 20.2002 24V36C20.2002 37.5464 21.4538 38.8 23.0002 38.8H25.0002C26.5466 38.8 27.8002 37.5464 27.8002 36V24C27.8002 22.4536 26.5466 21.2 25.0002 21.2ZM21.8002 24C21.8002 23.3373 22.3375 22.8 23.0002 22.8H25.0002C25.6629 22.8 26.2002 23.3373 26.2002 24V36C26.2002 36.6627 25.6629 37.2 25.0002 37.2H23.0002C22.3375 37.2 21.8002 36.6627 21.8002 36V24Z" fill="#00C8C7"/>
<path fill-rule="evenodd" clip-rule="evenodd" d="M37.8002 4C37.8002 6.09868 36.0989 7.8 34.0002 7.8C31.9015 7.8 30.2002 6.09868 30.2002 4C30.2002 1.90131 31.9015 0.199997 34.0002 0.199997C36.0989 0.199997 37.8002 1.90131 37.8002 4ZM31.8002 4C31.8002 5.21502 32.7852 6.2 34.0002 6.2C35.2152 6.2 36.2002 5.21502 36.2002 4C36.2002 2.78497 35.2152 1.8 34.0002 1.8C32.7852 1.8 31.8002 2.78497 31.8002 4Z" fill="#001B50"/>
<path opacity="0.4" fill-rule="evenodd" clip-rule="evenodd" d="M35.0002 12.2H33.0002C31.4538 12.2 30.2002 13.4536 30.2002 15V36C30.2002 37.5464 31.4538 38.8 33.0002 38.8H35.0002C36.5466 38.8 37.8002 37.5464 37.8002 36V15C37.8002 13.4536 36.5466 12.2 35.0002 12.2ZM31.8002 15C31.8002 14.3373 32.3375 13.8 33.0002 13.8H35.0002C35.6629 13.8 36.2002 14.3373 36.2002 15V36C36.2002 36.6627 35.6629 37.2 35.0002 37.2H33.0002C32.3375 37.2 31.8002 36.6627 31.8002 36V15Z" fill="#00C8C7"/>
</svg>
