<svg width="48" height="48" viewBox="0 0 48 48" fill="none" xmlns="http://www.w3.org/2000/svg">
<path d="M27 14.8H33V13.2H27V14.8Z" fill="#001752"/>
<path d="M27 24.8H33V23.2H27V24.8Z" fill="#001752"/>
<path d="M27 34.8H33V33.2H27V34.8Z" fill="#001752"/>
<path d="M15 34.8H21V33.2H15V34.8Z" fill="#001752"/>
<path d="M15 14.8H21V13.2H15V14.8Z" fill="#001752"/>
<path d="M15 24.8H21V23.2H15V24.8Z" fill="#001752"/>
<path fill-rule="evenodd" clip-rule="evenodd" d="M8.79961 41.6H10.7996C12.346 41.6 13.5996 40.3464 13.5996 38.8L13.5996 8.8C13.5996 7.2536 12.346 6 10.7996 6H8.79961C7.25321 6 5.99961 7.2536 5.99961 8.8L5.99961 38.8C5.99961 40.3464 7.25321 41.6 8.79961 41.6ZM11.9996 38.8C11.9996 39.4627 11.4624 40 10.7996 40H8.79961C8.13687 40 7.59961 39.4627 7.59961 38.8L7.59961 8.8C7.59961 8.13726 8.13687 7.6 8.79961 7.6H10.7996C11.4624 7.6 11.9996 8.13726 11.9996 8.8L11.9996 38.8Z" fill="#00C8C7"/>
<path fill-rule="evenodd" clip-rule="evenodd" d="M36.7996 41.6H38.7996C40.346 41.6 41.5996 40.3464 41.5996 38.8L41.5996 8.8C41.5996 7.2536 40.346 6 38.7996 6H36.7996C35.2532 6 33.9996 7.2536 33.9996 8.8L33.9996 38.8C33.9996 40.3464 35.2532 41.6 36.7996 41.6ZM39.9996 38.8C39.9996 39.4627 39.4624 40 38.7996 40H36.7996C36.1369 40 35.5996 39.4627 35.5996 38.8L35.5996 8.8C35.5996 8.13726 36.1369 7.6 36.7996 7.6H38.7996C39.4624 7.6 39.9996 8.13726 39.9996 8.8L39.9996 38.8Z" fill="#96E9EA"/>
<path fill-rule="evenodd" clip-rule="evenodd" d="M27.8002 14C27.8002 16.0987 26.0989 17.8 24.0002 17.8C21.9015 17.8 20.2002 16.0987 20.2002 14C20.2002 11.9013 21.9015 10.2 24.0002 10.2C26.0989 10.2 27.8002 11.9013 27.8002 14ZM21.8002 14C21.8002 15.215 22.7852 16.2 24.0002 16.2C25.2152 16.2 26.2002 15.215 26.2002 14C26.2002 12.785 25.2152 11.8 24.0002 11.8C22.7852 11.8 21.8002 12.785 21.8002 14Z" fill="#001951"/>
<path fill-rule="evenodd" clip-rule="evenodd" d="M27.8002 24C27.8002 26.0987 26.0989 27.8 24.0002 27.8C21.9015 27.8 20.2002 26.0987 20.2002 24C20.2002 21.9013 21.9015 20.2 24.0002 20.2C26.0989 20.2 27.8002 21.9013 27.8002 24ZM21.8002 24C21.8002 25.215 22.7852 26.2 24.0002 26.2C25.2152 26.2 26.2002 25.215 26.2002 24C26.2002 22.785 25.2152 21.8 24.0002 21.8C22.7852 21.8 21.8002 22.785 21.8002 24Z" fill="#001951"/>
<path fill-rule="evenodd" clip-rule="evenodd" d="M27.8002 34C27.8002 36.0987 26.0989 37.8 24.0002 37.8C21.9015 37.8 20.2002 36.0987 20.2002 34C20.2002 31.9013 21.9015 30.2 24.0002 30.2C26.0989 30.2 27.8002 31.9013 27.8002 34ZM21.8002 34C21.8002 35.215 22.7852 36.2 24.0002 36.2C25.2152 36.2 26.2002 35.215 26.2002 34C26.2002 32.785 25.2152 31.8 24.0002 31.8C22.7852 31.8 21.8002 32.785 21.8002 34Z" fill="#001951"/>
</svg>
