<svg width="48" height="48" viewBox="0 0 48 48" fill="none" xmlns="http://www.w3.org/2000/svg">
<g id="aws-4">
<path id="Combined Shape" fill-rule="evenodd" clip-rule="evenodd" d="M30.7942 24.8C31.053 25.2393 31.2671 25.708 31.4303 26.2H29.7169C29.4916 25.6897 29.1936 25.2186 28.836 24.8H30.7942ZM17.5697 26.2C17.7329 25.708 17.947 25.2393 18.2058 24.8H20.164C19.8064 25.2186 19.5084 25.6897 19.2831 26.2H17.5697ZM17.3154 29.8C17.9286 33.2115 20.912 35.8 24.5 35.8C28.088 35.8 31.0714 33.2115 31.6846 29.8H30.0511C29.4629 32.3216 27.2008 34.2 24.5 34.2C21.7992 34.2 19.5371 32.3216 18.9489 29.8H17.3154Z" fill="#93E9EB"/>
<path id="Combined Shape_2" fill-rule="evenodd" clip-rule="evenodd" d="M15.1063 29.8C15.7511 34.3218 19.7085 37.8052 24.5 37.8052C29.2917 37.8052 33.2493 34.3214 33.8939 29.8H35.5078C34.8544 35.2124 30.1726 39.4052 24.5 39.4052C18.8274 39.4052 14.1456 35.2124 13.4922 29.8H15.1063ZM5.76678 29.8C6.13754 32.2185 8.01479 34.171 10.4577 34.6575C11.0351 35.9289 11.7892 37.1153 12.6961 38.1839C12.6041 38.5956 12.5571 39.0186 12.5571 39.4473C12.5571 42.6829 15.221 45.3 18.5 45.3C20.1332 45.3 21.6602 44.6463 22.7668 43.5207C23.3394 43.5839 23.9178 43.6158 24.5 43.6158C25.0823 43.6158 25.6606 43.5839 26.2325 43.5207C27.3399 44.6464 28.8669 45.3 30.5 45.3C33.779 45.3 36.4429 42.6829 36.4429 39.4473C36.4429 39.0184 36.3959 38.5953 36.3036 38.1834C37.2108 37.1152 37.9649 35.9289 38.5419 34.6573C40.9875 34.1705 42.8661 32.2148 43.2343 29.7929C43.1568 29.7976 43.0787 29.8 43 29.8H41.6068C41.2304 31.549 39.7533 32.9198 37.8887 33.1422C37.6023 33.1764 37.3564 33.362 37.2452 33.6282C36.6625 35.0229 35.8438 36.3117 34.8267 37.4421C34.6383 37.6515 34.5739 37.9447 34.6572 38.2138C34.7799 38.6099 34.8429 39.0239 34.8429 39.4473C34.8429 41.7928 32.9016 43.7 30.5 43.7C29.1884 43.7 27.9749 43.1283 27.1545 42.1591C26.9775 41.9499 26.7058 41.8459 26.4344 41.8834C25.7983 41.9713 25.1522 42.0158 24.5 42.0158C23.8479 42.0158 23.2017 41.9713 22.5645 41.8834C22.293 41.846 22.0213 41.9501 21.8443 42.1594C21.025 43.1283 19.8117 43.7 18.5 43.7C16.0984 43.7 14.1571 41.7928 14.1571 39.4473C14.1571 39.0241 14.2201 38.61 14.3425 38.2138C14.4255 37.9449 14.3612 37.6521 14.173 37.4428C13.1562 36.3117 12.3374 35.0227 11.7542 33.6281C11.643 33.3621 11.3972 33.1766 11.111 33.1424C9.2466 32.9199 7.76962 31.549 7.39324 29.8H5.76678Z" fill="#93E9EB"/>
<path id="Rectangle" fill-rule="evenodd" clip-rule="evenodd" d="M43 22.2H5.00001C3.45361 22.2 2.20001 23.4536 2.20001 25V26C2.20001 27.5464 3.45361 28.8 5.00001 28.8H43C44.5464 28.8 45.8 27.5464 45.8 26V25C45.8 23.4536 44.5464 22.2 43 22.2ZM3.80001 25C3.80001 24.3373 4.33727 23.8 5.00001 23.8H43C43.6628 23.8 44.2 24.3373 44.2 25V26C44.2 26.6628 43.6628 27.2 43 27.2H5.00001C4.33727 27.2 3.80001 26.6628 3.80001 26V25Z" fill="#00C8C6"/>
<path id="Rectangle_2" fill-rule="evenodd" clip-rule="evenodd" d="M5.00001 2.20001C4.55818 2.20001 4.20001 2.55818 4.20001 3.00001V20C4.20001 20.4418 4.55818 20.8 5.00001 20.8H13C13.4418 20.8 13.8 20.4418 13.8 20V3.00001C13.8 2.55818 13.4418 2.20001 13 2.20001H5.00001ZM5.80001 19.2V3.80001H12.2V19.2H5.80001Z" fill="#001951"/>
<path id="Rectangle Copy" fill-rule="evenodd" clip-rule="evenodd" d="M16 7.20001C15.5582 7.20001 15.2 7.55818 15.2 8.00001V20C15.2 20.4418 15.5582 20.8 16 20.8H21C21.4418 20.8 21.8 20.4418 21.8 20V8.00001C21.8 7.55818 21.4418 7.20001 21 7.20001H16ZM16.8 19.2V8.80001H20.2V19.2H16.8Z" fill="#001951"/>
<path id="Rectangle Copy_2" fill-rule="evenodd" clip-rule="evenodd" d="M24 4.20001C23.5582 4.20001 23.2 4.55818 23.2 5.00001V20C23.2 20.4418 23.5582 20.8 24 20.8H27C27.4418 20.8 27.8 20.4418 27.8 20V5.00001C27.8 4.55818 27.4418 4.20001 27 4.20001H24ZM24.8 19.2V5.80001H26.2V19.2H24.8Z" fill="#001951"/>
<path id="Rectangle Copy_3" fill-rule="evenodd" clip-rule="evenodd" d="M39 6.20001C38.5582 6.20001 38.2 6.55818 38.2 7.00001V20C38.2 20.4418 38.5582 20.8 39 20.8H43C43.4418 20.8 43.8 20.4418 43.8 20V7.00001C43.8 6.55818 43.4418 6.20001 43 6.20001H39ZM42.2 19.2H39.8V7.80001H42.2V19.2Z" fill="#001951"/>
<path id="Rectangle Copy_4" fill-rule="evenodd" clip-rule="evenodd" d="M30 9.20001C29.5582 9.20001 29.2 9.55818 29.2 10V20C29.2 20.4418 29.5582 20.8 30 20.8H36C36.4418 20.8 36.8 20.4418 36.8 20V10C36.8 9.55818 36.4418 9.20001 36 9.20001H30ZM30.8 19.2V10.8H35.2V19.2H30.8Z" fill="#001951"/>
</g>
</svg>
