<svg width="48" height="50" viewBox="0 0 48 50" fill="none" xmlns="http://www.w3.org/2000/svg">
<g id="aws-2">
<path id="Oval Copy 25" fill-rule="evenodd" clip-rule="evenodd" d="M22.8 46C22.8 48.0987 21.0987 49.8 19 49.8C16.9013 49.8 15.2 48.0987 15.2 46C15.2 43.9013 16.9013 42.2 19 42.2C21.0987 42.2 22.8 43.9013 22.8 46ZM16.8 46C16.8 47.215 17.785 48.2 19 48.2C20.215 48.2 21.2 47.215 21.2 46C21.2 44.785 20.215 43.8 19 43.8C17.785 43.8 16.8 44.785 16.8 46Z" fill="#001951"/>
<path id="Oval Copy 27" fill-rule="evenodd" clip-rule="evenodd" d="M24.8 4.00001C24.8 6.09869 23.0987 7.80001 21 7.80001C18.9013 7.80001 17.2 6.09869 17.2 4.00001C17.2 1.90133 18.9013 0.200012 21 0.200012C23.0987 0.200012 24.8 1.90133 24.8 4.00001ZM18.8 4.00001C18.8 5.21504 19.785 6.20001 21 6.20001C22.215 6.20001 23.2 5.21504 23.2 4.00001C23.2 2.78499 22.215 1.80001 21 1.80001C19.785 1.80001 18.8 2.78499 18.8 4.00001Z" fill="#001951"/>
<path id="Oval Copy 21" d="M21.2021 39.2937L20.7021 40.2937L22.1332 41.0093L22.6332 40.0093C22.9745 39.3267 23.3718 38.4551 23.8262 37.3928C24.0132 36.9557 23.7799 36.4529 23.3255 36.3134C21.4399 35.7345 19.7178 34.7051 18.2909 33.2782L17.1596 34.4096C18.5572 35.8072 20.2078 36.8689 22.0121 37.5536C21.7105 38.2369 21.4404 38.8171 21.2021 39.2937Z" fill="#001951"/>
<path id="Oval Copy 21_2" d="M12.0855 32.8703L12.9256 34.2319L16.1673 32.2319C16.5356 32.0047 16.6564 31.5259 16.44 31.1511C13.6986 26.4028 14.4755 20.4506 18.2318 16.5692L17.082 15.4565C13.0108 19.6634 12.0332 26.0182 14.6844 31.2668L12.0855 32.8703Z" fill="#001951"/>
<path id="Combined Shape" fill-rule="evenodd" clip-rule="evenodd" d="M26.9348 46.7768C27.1221 46.7923 27.3106 46.8 27.5 46.8C30.7876 46.8 33.5687 44.4549 34.1765 41.2939C35.7233 40.6117 37.1643 39.7114 38.4565 38.6239C38.9586 38.7405 39.4756 38.8 40 38.8C43.7555 38.8 46.8 35.7555 46.8 32C46.8 30.106 46.0201 28.3378 44.6811 27.0677C44.7602 26.3849 44.8 25.6948 44.8 25C44.8 24.3048 44.7601 23.6147 44.6809 22.9326C46.0201 21.6621 46.8 19.894 46.8 18C46.8 14.2445 43.7555 11.2 40 11.2C39.4751 11.2 38.958 11.2596 38.4567 11.3766C37.1645 10.2888 35.7236 9.38849 34.177 8.70603C33.5687 5.54501 30.7875 3.20001 27.5 3.20001C27.3106 3.20001 27.1221 3.20777 26.9348 3.22321C26.5198 3.25741 26.2005 3.60413 26.2005 4.02046L26.2 12C26.2 12.4418 26.5582 12.8 27 12.8C33.7379 12.8 39.2 18.2621 39.2 25C39.2 31.7379 33.7379 37.2 27 37.2C26.5582 37.2 26.2 37.5582 26.2 38.0001L26.2005 45.9796C26.2005 46.3959 26.5198 46.7426 26.9348 46.7768ZM40.8 25C40.8 17.647 35.0493 11.6372 27.8001 11.2228L27.8004 4.80859C30.302 4.95174 32.3585 6.87108 32.6617 9.36485C32.6966 9.65216 32.884 9.89821 33.1517 10.0082C34.8248 10.6959 36.3704 11.6608 37.725 12.8583C37.9334 13.0426 38.2227 13.1053 38.4888 13.024C38.9725 12.876 39.4802 12.8 40 12.8C42.8719 12.8 45.2 15.1281 45.2 18C45.2 19.5666 44.5041 21.0179 43.3222 22.0006C43.1091 22.1778 43.0029 22.4528 43.0415 22.7273C43.1468 23.4746 43.2 24.2335 43.2 25C43.2 25.7659 43.1469 26.525 43.0418 27.2736C43.0033 27.548 43.1095 27.8228 43.3226 28C44.5041 28.9822 45.2 30.4335 45.2 32C45.2 34.8719 42.8719 37.2 40 37.2C39.4807 37.2 38.9726 37.1241 38.4865 36.9765C38.2209 36.8959 37.9323 36.9587 37.7243 37.1426C36.37 38.3396 34.8243 39.3043 33.1513 39.9916C32.8835 40.1016 32.696 40.3477 32.6611 40.6352C32.3584 43.1289 30.302 45.0483 27.8004 45.1914L27.8001 38.7772C35.0493 38.3628 40.8 32.353 40.8 25Z" fill="#93E9EB"/>
<path id="Oval Copy 23" fill-rule="evenodd" clip-rule="evenodd" d="M35.8 25C35.8 29.8601 31.8601 33.8 27 33.8C22.1399 33.8 18.2 29.8601 18.2 25C18.2 20.1399 22.1399 16.2 27 16.2C31.8601 16.2 35.8 20.1399 35.8 25ZM19.8 25C19.8 28.9765 23.0236 32.2 27 32.2C30.9765 32.2 34.2 28.9765 34.2 25C34.2 21.0236 30.9765 17.8 27 17.8C23.0236 17.8 19.8 21.0236 19.8 25Z" fill="#00C8C8"/>
<path id="Oval Copy 24" fill-rule="evenodd" clip-rule="evenodd" d="M30.8 25C30.8 27.0987 29.0987 28.8 27 28.8C24.9013 28.8 23.2 27.0987 23.2 25C23.2 22.9013 24.9013 21.2 27 21.2C29.0987 21.2 30.8 22.9013 30.8 25ZM24.8 25C24.8 26.215 25.785 27.2 27 27.2C28.215 27.2 29.2 26.215 29.2 25C29.2 23.785 28.215 22.8 27 22.8C25.785 22.8 24.8 23.785 24.8 25Z" fill="#00C8C8"/>
<path id="Oval Copy 26" fill-rule="evenodd" clip-rule="evenodd" d="M11.8 36C11.8 38.0987 10.0987 39.8 8.00001 39.8C5.90133 39.8 4.20001 38.0987 4.20001 36C4.20001 33.9013 5.90133 32.2 8.00001 32.2C10.0987 32.2 11.8 33.9013 11.8 36ZM5.80001 36C5.80001 37.215 6.78499 38.2 8.00001 38.2C9.21504 38.2 10.2 37.215 10.2 36C10.2 34.785 9.21504 33.8 8.00001 33.8C6.78499 33.8 5.80001 34.785 5.80001 36Z" fill="#001951"/>
<path id="Oval Copy 21_3" d="M20.2682 12.9506L21.0498 14.3468C22.0111 13.8086 23.042 13.4028 24.1178 13.1422C24.5678 13.0333 24.8316 12.5662 24.6926 12.1246C24.4049 11.2103 24.0937 10.2512 23.759 9.24701L22.2411 9.75297C22.4778 10.4632 22.7026 11.1505 22.9154 11.8147C21.9946 12.0997 21.1078 12.4806 20.2682 12.9506Z" fill="#001951"/>
</g>
</svg>
