<svg width="48" height="48" viewBox="0 0 48 48" fill="none" xmlns="http://www.w3.org/2000/svg">
<g id="aws-3">
<path id="Combined Shape" fill-rule="evenodd" clip-rule="evenodd" d="M37.8 14.8H43C43.4418 14.8 43.8 14.4418 43.8 14C43.8 13.5581 43.4418 13.2 43 13.2L37.8 13.2V14.8Z" fill="#96E9EA"/>
<path id="Combined Shape_2" fill-rule="evenodd" clip-rule="evenodd" d="M34.9693 34.8H38.9417C39.3836 34.8 39.7417 34.4418 39.7417 34C39.7417 33.5582 39.3836 33.2 38.9417 33.2L36.0823 33.2C35.7619 33.7616 35.3921 34.2937 34.9693 34.8Z" fill="#96E9EA"/>
<path id="Combined Shape_3" fill-rule="evenodd" clip-rule="evenodd" d="M37.8 19.8L44.9417 19.8C45.3836 19.8 45.7417 19.4418 45.7417 19C45.7417 18.5581 45.3836 18.2 44.9417 18.2L37.8 18.2V19.8Z" fill="#00C7C8"/>
<path id="Combined Shape_4" fill-rule="evenodd" clip-rule="evenodd" d="M37.8 24.8L46.9611 24.8C47.403 24.8 47.7611 24.4418 47.7611 24C47.7611 23.5582 47.403 23.2 46.9611 23.2H37.8V24.8Z" fill="#00C7C8"/>
<path id="Combined Shape_5" fill-rule="evenodd" clip-rule="evenodd" d="M37.3676 29.8L43.9029 29.8C44.3447 29.8 44.7029 29.4418 44.7029 29C44.7029 28.5582 44.3447 28.2 43.9029 28.2H37.6401C37.5722 28.7551 37.4819 29.2878 37.3676 29.8Z" fill="#00C7C8"/>
<path id="Combined Shape_6" fill-rule="evenodd" clip-rule="evenodd" d="M10.2 13.2L5.00001 13.2C4.55818 13.2 4.20001 13.5581 4.20001 14C4.20001 14.4418 4.55818 14.8 5.00001 14.8H10.2V13.2Z" fill="#96E9EA"/>
<path id="Combined Shape_7" fill-rule="evenodd" clip-rule="evenodd" d="M11.9534 33.2H9.05824C8.61641 33.2 8.25824 33.5582 8.25824 34C8.25824 34.4418 8.61641 34.8 9.05824 34.8H13.0935C12.66 34.2925 12.2813 33.7607 11.9534 33.2Z" fill="#96E9EA"/>
<path id="Combined Shape_8" fill-rule="evenodd" clip-rule="evenodd" d="M10.2 18.2L3.05824 18.2C2.61641 18.2 2.25824 18.5581 2.25824 19C2.25824 19.4418 2.61641 19.8 3.05824 19.8L10.2 19.8V18.2Z" fill="#00C8C9"/>
<path id="Combined Shape_9" fill-rule="evenodd" clip-rule="evenodd" d="M10.2 23.2H1.03883C0.597003 23.2 0.238831 23.5582 0.238831 24C0.238831 24.4418 0.597003 24.8 1.03883 24.8L10.2 24.8V23.2Z" fill="#00C8C9"/>
<path id="Combined Shape_10" fill-rule="evenodd" clip-rule="evenodd" d="M10.3616 28.2L4.09712 28.2C3.65529 28.2 3.29712 28.5582 3.29712 29C3.29712 29.4418 3.65529 29.8 4.09712 29.8L10.6386 29.8C10.5222 29.2883 10.4305 28.7556 10.3616 28.2Z" fill="#00C8C9"/>
<path id="Combined Shape_11" fill-rule="evenodd" clip-rule="evenodd" d="M24 31.8C28.3078 31.8 31.8 28.3078 31.8 24C31.8 23.5721 31.7655 23.1522 31.6992 22.7429L30.1984 24.1437C30.122 27.5015 27.3761 30.2 24 30.2C20.5758 30.2 17.8 27.4242 17.8 24C17.8 20.5758 20.5758 17.8 24 17.8C26.0534 17.8 27.8737 18.7983 29.002 20.336L30.1782 19.2381C28.7519 17.3902 26.5149 16.2 24 16.2C19.6922 16.2 16.2 19.6922 16.2 24C16.2 28.3078 19.6922 31.8 24 31.8Z" fill="#00C8C9"/>
<path id="Path 17" d="M24.5 25.9057L20.5459 22.2152L19.4542 23.3848L23.9542 27.5848C24.2615 27.8717 24.7385 27.8717 25.0459 27.5848L32.5459 20.5848L31.4542 19.4152L24.5 25.9057Z" fill="#001951"/>
<path id="Path 16" fill-rule="evenodd" clip-rule="evenodd" d="M11.7906 10.4821L23.7906 7.2279C23.9277 7.19072 24.0723 7.19072 24.2094 7.2279L36.2094 10.4821C36.558 10.5767 36.8 10.8931 36.8 11.2542V25.3559C36.8 30.8481 35.2537 34.2193 30.9677 36.8829C28.0389 38.7031 25.8384 39.9794 24.3562 40.7164C24.1301 40.8288 23.8643 40.8278 23.639 40.7139C22.1565 39.9642 19.956 38.6658 17.0271 36.8141C12.7281 34.0964 11.2 30.8064 11.2 25.3559V11.2542C11.2 10.8931 11.442 10.5767 11.7906 10.4821ZM35.2 11.8662L24 8.82891L12.8 11.8662V25.3559C12.8 30.2932 14.086 33.0619 17.882 35.4617C20.5393 37.1416 22.5823 38.356 24.0031 39.1016C25.424 38.3686 27.4667 37.1749 30.1232 35.5239C33.8946 33.1801 35.2 30.3341 35.2 25.3559V11.8662Z" fill="#001951"/>
</g>
</svg>
