<svg width="48" height="48" viewBox="0 0 48 48" fill="none" xmlns="http://www.w3.org/2000/svg">
<g id="aws-1">
<path id="Combined Shape" fill-rule="evenodd" clip-rule="evenodd" d="M41 1.20001H7.00001C5.45361 1.20001 4.20001 2.45361 4.20001 4.00001V38C4.20001 39.5464 5.45361 40.8 7.00001 40.8H12.2664C12.2227 40.5398 12.2 40.2726 12.2 40C12.2 39.7283 12.2228 39.461 12.2667 39.2H7.00001C6.33727 39.2 5.80001 38.6628 5.80001 38V4.00001C5.80001 3.33727 6.33727 2.80001 7.00001 2.80001H41C41.6628 2.80001 42.2 3.33727 42.2 4.00001V38C42.2 38.6628 41.6628 39.2 41 39.2H33.8997C34.244 39.6795 34.4992 40.2214 34.6483 40.8H41C42.5464 40.8 43.8 39.5464 43.8 38V4.00001C43.8 2.45361 42.5464 1.20001 41 1.20001Z" fill="#96E9EA"/>
<path id="Combined Shape_2" fill-rule="evenodd" clip-rule="evenodd" d="M36 7.20001H12C10.4536 7.20001 9.20001 8.45361 9.20001 10V38C9.20001 39.5464 10.4536 40.8 12 40.8H12.2664C12.2227 40.5398 12.2 40.2726 12.2 40C12.2 39.7283 12.2228 39.461 12.2667 39.2H12C11.3373 39.2 10.8 38.6628 10.8 38V10C10.8 9.33727 11.3373 8.80001 12 8.80001H36C36.6628 8.80001 37.2 9.33727 37.2 10V38C37.2 38.6628 36.6628 39.2 36 39.2H33.8997C34.244 39.6795 34.4992 40.2214 34.6483 40.8H36C37.5464 40.8 38.8 39.5464 38.8 38V10C38.8 8.45361 37.5464 7.20001 36 7.20001Z" fill="#00C8C8"/>
<path id="Combined Shape_3" fill-rule="evenodd" clip-rule="evenodd" d="M32 15.2H16C14.4536 15.2 13.2 16.4536 13.2 18V32V34C13.2 34.8477 13.5767 35.6074 14.1718 36.1209C14.1956 36.1035 14.2196 36.0863 14.2437 36.0694C14.273 35.7593 14.3169 35.4517 14.3752 35.1476C13.6314 34.291 13.2 33.1817 13.2 32C13.2 30.5784 13.818 29.3012 14.8 28.4222V18C14.8 17.3373 15.3373 16.8 16 16.8H32C32.6628 16.8 33.2 17.3373 33.2 18V29.7327C33.8263 30.0563 34.3723 30.5137 34.8 31.0671V18C34.8 16.4536 33.5464 15.2 32 15.2Z" fill="#00C8C8"/>
<path id="Combined Shape_4" fill-rule="evenodd" clip-rule="evenodd" d="M28.8 29C28.8 26.9013 27.0987 25.2 25 25.2C23.0194 25.2 21.3927 26.7152 21.2159 28.6497C20.9147 28.7501 20.6194 28.8667 20.3313 28.9988C19.674 28.4875 18.8594 28.2 18 28.2C15.9013 28.2 14.2 29.9013 14.2 32C14.2 33.1026 14.674 34.1252 15.4685 34.835C15.3192 35.4251 15.2312 36.0321 15.2069 36.6487C13.993 37.2984 13.2 38.5738 13.2 40C13.2 42.0987 14.9013 43.8 17 43.8C17.4094 43.8 17.8102 43.7349 18.19 43.6095C18.5144 43.8948 18.8593 44.1561 19.2219 44.391C19.4254 46.315 21.0393 47.8 23 47.8C24.5692 47.8 25.9475 46.841 26.5194 45.4338C26.9127 45.3165 27.2967 45.1719 27.6687 45.0012C28.326 45.5125 29.1406 45.8 30 45.8C32.0987 45.8 33.8 44.0987 33.8 42C33.8 40.8974 33.3261 39.8748 32.5315 39.165C32.6808 38.5749 32.7689 37.9679 32.7931 37.3513C34.0071 36.7016 34.8 35.4263 34.8 34C34.8 31.9013 33.0987 30.2 31 30.2C30.5906 30.2 30.1898 30.2651 29.81 30.3905C29.4783 30.0987 29.1252 29.8323 28.7538 29.5937C28.7845 29.3986 28.8 29.2003 28.8 29ZM22.8 29C22.8 27.785 23.785 26.8 25 26.8C26.215 26.8 27.2 27.785 27.2 29C27.2 29.2481 27.1592 29.4896 27.0804 29.7181C26.9531 30.0871 27.1105 30.494 27.453 30.6811C28.0476 31.006 28.5941 31.4146 29.0759 31.8936C29.3214 32.1377 29.6962 32.1961 30.0044 32.0383C30.3089 31.8824 30.6475 31.8 31 31.8C32.215 31.8 33.2 32.785 33.2 34C33.2 34.9405 32.6043 35.7679 31.7319 36.0756C31.4086 36.1896 31.1938 36.497 31.198 36.8398L31.2001 37.0097C31.2 37.764 31.0813 38.5109 30.8509 39.2219C30.7386 39.5683 30.8745 39.9469 31.1814 40.1428C31.8112 40.5449 32.2 41.2389 32.2 42C32.2 43.215 31.215 44.2 30 44.2C29.3794 44.2 28.802 43.9428 28.3877 43.4969C28.1396 43.2298 27.7422 43.1642 27.4214 43.3375C26.8819 43.6289 26.307 43.8506 25.7092 43.9961C25.4244 44.0654 25.2002 44.285 25.1251 44.5683C24.872 45.5226 24.0032 46.2 23 46.2C21.785 46.2 20.8 45.215 20.8 44L20.8016 43.9521C20.8094 43.6589 20.6561 43.385 20.4022 43.2382C19.8631 42.9265 19.3661 42.5458 18.9242 42.1065C18.6786 41.8623 18.3039 41.8039 17.9956 41.9617C17.6911 42.1176 17.3525 42.2 17 42.2C15.785 42.2 14.8 41.215 14.8 40C14.8 39.0595 15.3957 38.2321 16.2681 37.9245C16.5915 37.8104 16.8062 37.5031 16.802 37.1603L16.8 36.9903C16.8 36.236 16.9187 35.4891 17.1492 34.7781C17.2614 34.4317 17.1256 34.0531 16.8186 33.8572C16.1889 33.4552 15.8 32.7612 15.8 32C15.8 30.785 16.785 29.8 18 29.8C18.6206 29.8 19.198 30.0572 19.6123 30.5031C19.8604 30.7702 20.2578 30.8358 20.5786 30.6625C21.0937 30.3843 21.6411 30.1696 22.2099 30.0241C22.5932 29.9261 22.8473 29.5626 22.8077 29.169C22.8026 29.1183 22.8 29.0621 22.8 29Z" fill="#001951"/>
<path id="Oval Copy 10" fill-rule="evenodd" clip-rule="evenodd" d="M27.8 37C27.8 39.0987 26.0987 40.8 24 40.8C21.9013 40.8 20.2 39.0987 20.2 37C20.2 34.9013 21.9013 33.2 24 33.2C26.0987 33.2 27.8 34.9013 27.8 37ZM21.8 37C21.8 38.215 22.785 39.2 24 39.2C25.215 39.2 26.2 38.215 26.2 37C26.2 35.785 25.215 34.8 24 34.8C22.785 34.8 21.8 35.785 21.8 37Z" fill="#001951"/>
</g>
</svg>
